<svg xmlns="http://www.w3.org/2000/svg" viewBox="0 0 286.5232 286.5232">
  <defs>
    <style>
      .a {
        fill: #fff;
      }

      .b {
        fill: none;
        stroke: #000;
        stroke-miterlimit: 10;
        stroke-width: 0.25px;
      }
    </style>
  </defs>
  <title>brain color</title>
  <g>
    <path class="a" d="M143.5929,38.2665c3.3683.08,6.9317.0968,10.4879.2664,3.656.1744,7.31.44,10.9557.7709,4.0548.3678,8.1136.7473,12.1452,1.3056a244.8242,244.8242,0,0,1,73.1561,22.02c3.4839,1.6789,6.8916,3.5155,10.3433,5.2618a3.0811,3.0811,0,0,1,1.2563,1.1821,139.1935,139.1935,0,0,1,18.1116,44.4022,137.2609,137.2609,0,0,1,2.4277,15.0316,142.5188,142.5188,0,0,1,.51,23.0981,137.7226,137.7226,0,0,1-15.592,56.4032c-1.7115,3.2739-3.6674,6.42-5.499,9.6313a2.8363,2.8363,0,0,1-1.1877,1.1072,246.109,246.109,0,0,1-50.79,20.5149c-7.4127,2.0736-14.9053,3.812-22.4846,5.1447-4.28.7525-8.5865,1.3636-12.8953,1.9311-3.6611.4823-7.3374.868-11.0163,1.1893-2.9245.2553-5.8615.3921-8.796.5032-4.0064.1518-8.0161.3295-12.0236.3118-4.4922-.02-8.9879-.1644-13.4739-.4059-3.86-.2079-7.7173-.555-11.5612-.9742-4.4925-.49-8.9842-1.0276-13.4493-1.7182a232.2525,232.2525,0,0,1-22.8847-4.7594,245.758,245.758,0,0,1-48.7592-18.3289c-2.1292-1.07-4.2253-2.2069-6.3484-3.29a3.6382,3.6382,0,0,1-1.4906-1.375A139.2151,139.2151,0,0,1,6.9975,174.5921,136.8514,136.8514,0,0,1,4.1708,157.32a142.8619,142.8619,0,0,1-.5225-20.6151,138.9255,138.9255,0,0,1,10.3692-46.71A140.7839,140.7839,0,0,1,24.7188,69.181a3.7754,3.7754,0,0,1,1.4834-1.3817A247.0278,247.0278,0,0,1,74.528,48.0374a238.6129,238.6129,0,0,1,24.5668-5.76c4.2423-.7568,8.5123-1.3811,12.7878-1.9226,4.1068-.52,8.2344-.8838,12.3575-1.2668C130.6121,38.4955,137.0063,38.39,143.5929,38.2665ZM266.69,128.3856c-.0737-.3773-.1466-.7138-.2044-1.053-.563-3.3016-1.0182-6.6256-1.7026-9.9018a122.4062,122.4062,0,0,0-16.4669-40.49A4.032,4.032,0,0,0,246.7484,75.5a216.9772,216.9772,0,0,0-41.444-17.2,213.5625,213.5625,0,0,0-31.0072-6.7869c-3.9274-.5593-7.881-.9614-11.8338-1.3081-3.9565-.3471-7.9244-.69-11.892-.7567-5.5977-.0949-11.2024-.0237-16.799.1465-3.9323.12-7.8638.4409-11.7812.8216-3.8794.3769-7.7471.8946-11.6083,1.434-6.05.8453-12.0272,2.08-17.9671,3.5061A215.3624,215.3624,0,0,0,39.98,75.4981a4.2063,4.2063,0,0,0-1.6223,1.53A123.9019,123.9019,0,0,0,19.4127,135.79a124.5828,124.5828,0,0,0,3.2988,36.9372A123.7322,123.7322,0,0,0,38.51,209.8524a3.1408,3.1408,0,0,0,1.26,1.1791c2.7075,1.3826,5.3781,2.8393,8.1053,4.1812a213.7357,213.7357,0,0,0,42.8085,15.6647c5.7581,1.4347,11.5563,2.6813,17.4259,3.5659,3.7858.5706,7.576,1.1227,11.3764,1.5822,2.6375.3189,5.293.5091,7.9455.68,3.62.2334,7.2429.49,10.868.564a180.0116,180.0116,0,0,0,18.0374-.3583c3.3375-.2667,6.6814-.4778,10.0087-.84,3.7025-.4026,7.3941-.9158,11.0821-1.4392,5.81-.8248,11.5511-2.0212,17.2489-3.41a216.2267,216.2267,0,0,0,52.0369-20.0486,4.2131,4.2131,0,0,0,1.6367-1.5155,125.2774,125.2774,0,0,0,9.5251-18.2753,121.4246,121.4246,0,0,0,7.76-26.4938c.3145-1.838.5738-3.6858.84-5.5317a1.5469,1.5469,0,0,1,1.0109-1.4937,7.3939,7.3939,0,0,0,1.9314-1.1854,12.0782,12.0782,0,0,0,3.672-5.19,21.9551,21.9551,0,0,0,.6466-14.4339C272.6387,133.218,270.6735,130.0265,266.69,128.3856Z"/>
    <path class="a" d="M29.4474,224.3759a249.8085,249.8085,0,0,0,113.902,27.2092A248.4088,248.4088,0,0,0,257.2059,224.299c-.748,2.3437-11.7672,15.0845-18.4424,21.3274a139.7943,139.7943,0,0,1-48.0573,29.37,134.3994,134.3994,0,0,1-27.369,6.7986c-28.9448,3.9665-56.5832-.351-82.7411-13.4465A138.0292,138.0292,0,0,1,29.4474,224.3759Z"/>
    <path class="a" d="M29.46,62.3068c55.9069-78.6342,172.2919-78.2658,227.807-.0007a251.7943,251.7943,0,0,0-227.807.0007Z"/>
    <path class="a" d="M263.2222,128.1065c-3.8547.917-6.0336,3.4838-7.4562,6.8029a21.2557,21.2557,0,0,0-1.5468,10.5553,19.5722,19.5722,0,0,0,2.0013,7.2459,15.4071,15.4071,0,0,0,1.3809,2.1873,9.22,9.22,0,0,0,5.6473,3.6358c-.0909.8229-.1529,1.636-.2735,2.44a120.5307,120.5307,0,0,1-16.9909,46.2778,3.9456,3.9456,0,0,1-1.5639,1.4434,212.2087,212.2087,0,0,1-52.5592,19.8227c-5.8512,1.3544-11.7359,2.5341-17.6933,3.3022-4.2779.5517-8.5644,1.061-12.86,1.4439-3.6458.3251-7.308.5061-10.9671.6334-3.6615.1273-7.33.208-10.992.1285-4.2484-.0923-8.5027-.2614-12.7359-.617-4.6753-.3927-9.3445-.93-13.9906-1.5859a209.5413,209.5413,0,0,1-64.9148-20.3414c-1.7916-.897-3.5479-1.8643-5.3422-2.7555a4.0735,4.0735,0,0,1-1.7-1.5943A120.661,120.661,0,0,1,26.342,173.721a122.3664,122.3664,0,0,1-3.172-17.5223A121.0653,121.0653,0,0,1,34.58,90.57c1.8282-3.7658,3.8624-7.4165,6.0488-10.9857a4.4494,4.4494,0,0,1,1.7609-1.6752A214.1682,214.1682,0,0,1,82.7532,61.3141a207.5245,207.5245,0,0,1,21.3218-5.12c3.6955-.6811,7.4188-1.2283,11.1442-1.7267,3.5565-.4759,7.1275-.8578,10.7006-1.19,2.51-.2333,5.0324-.3855,7.5523-.4475,4.8043-.1182,9.6118-.236,14.416-.1823,3.6941.0413,7.3873.311,11.0769.5444,2.7215.1721,5.446.3708,8.1521.6988,3.7661.4565,7.5213,1.0121,11.2721,1.5845,5.8.8852,11.53,2.1249,17.2188,3.5557a212.13,212.13,0,0,1,49.0132,19.0386,3.2245,3.2245,0,0,1,1.2632,1.1743,119.1365,119.1365,0,0,1,15.45,37.7008c.7337,3.3367,1.2347,6.7247,1.8313,10.0911A8.8591,8.8591,0,0,1,263.2222,128.1065ZM143.3574,170.9849q45.3961,0,90.7925-.0116a25.0971,25.0971,0,0,0,4.0235-.28,18.0006,18.0006,0,0,0,14.9774-17.5826c.0119-6.4678.07-12.9366-.0162-19.4034a17.6254,17.6254,0,0,0-8.82-15.496,18.3786,18.3786,0,0,0-9.9934-2.6q-46.59.006-93.1791.0023-44.2548,0-88.51.0189a23.4657,23.4657,0,0,0-4.836.45,18.0177,18.0177,0,0,0-14.2176,17.5048c-.049,6.5021-.1073,13.0067.0172,19.5068a17.5862,17.5862,0,0,0,8.9491,15.4252,18.1113,18.1113,0,0,0,9.7089,2.4758Q97.8055,170.97,143.3574,170.9849ZM75.5036,88.839c.02.3425.0474.9645.0923,1.5852a21.7484,21.7484,0,0,0,3.2852,10.3687,12.326,12.326,0,0,0,8.4983,5.5823,14.3307,14.3307,0,0,0,4.2271-.004c2.367-.2649,4.74-.4763,7.1113-.7035,1.9589-.1878,3.9168-.39,5.8785-.5421,2.4109-.187,4.8249-.3358,7.2383-.4883,3-.1895,5.9992-.4078,9.0021-.5365,3.3158-.1422,6.6349-.2485,9.9534-.2788,6.4656-.0592,12.932-.0981,19.3975-.06,3.8022.0225,7.6036.2014,11.4048.326q2.5908.0851,5.1793.2349,4.6042.2739,9.2058.5937,2.9978.2052,5.9922.46c1.9607.1686,3.919.3658,5.8775.56q2.73.27,5.4583.5619a16.6953,16.6953,0,0,0,5.365-.0234c6.243-1.3527,10.0337-5.2329,11.5326-11.3791a35.2264,35.2264,0,0,0,.47-3.6943,20.813,20.813,0,0,0-1.5845-11.5552c-2.283-5.04-5.9958-8.5284-11.4461-9.8434-6.8081-1.6426-13.6837-2.9667-20.6056-4.059-6.0741-.9586-12.1716-1.71-18.2982-2.1885-3.9953-.3121-8.0041-.4993-12.0105-.6119a166.2981,166.2981,0,0,0-19.17.5343c-3.1643.2767-6.3393.4914-9.4831.9251-4.0993.5655-8.1855,1.2508-12.2539,2.01a160.9208,160.9208,0,0,0-19.2374,4.9156,14.6866,14.6866,0,0,0-8.1058,6.2858A20.2051,20.2051,0,0,0,75.5036,88.839Zm68.2693,108.0135h13.0706c.0691,0,.1383,0,.2074-.0007a8.6716,8.6716,0,0,0,8.5215-7.5666,53.6952,53.6952,0,0,0,.1046-6.4178,7.6977,7.6977,0,0,0-.4311-2.2276,8.8682,8.8682,0,0,0-8.61-6.1q-12.8112-.0186-25.6225.0039a11.1264,11.1264,0,0,0-1.7475.1773,8.595,8.595,0,0,0-7.1555,7.2278,44.2991,44.2991,0,0,0-.1825,6.0007,8.8954,8.8954,0,0,0,8.9828,8.9253C135.1958,196.7768,139.4852,196.8527,143.7729,196.8525Zm.1747,6.3636c-2.5925,0-5.1853-.0233-7.7772.0136a10.5289,10.5289,0,0,0-2.4565.2968,9.0067,9.0067,0,0,0-5.1824,13.8153,8.8438,8.8438,0,0,0,7.7044,3.9131q7.57.0237,15.14-.0041a10.135,10.135,0,0,0,2.1633-.1912,9.0069,9.0069,0,0,0,5.905-13.4044,8.6411,8.6411,0,0,0-7.7194-4.4274C149.1335,203.1734,146.54,203.217,143.9476,203.2161Z"/>
    <path class="a" d="M271.4509,143.31a19.4854,19.4854,0,0,1-1.6255,7.4689,9.2255,9.2255,0,0,1-2.3341,3.2626,4.4845,4.4845,0,0,1-6.2854-.0379,9.312,9.312,0,0,1-2.5536-3.8517,18.82,18.82,0,0,1,.2563-14.24,9.1549,9.1549,0,0,1,2.0121-2.9927,4.52,4.52,0,0,1,6.8737-.0234,11.7061,11.7061,0,0,1,3.0868,6.2186C271.1643,140.4932,271.2671,141.91,271.4509,143.31Z"/>
    <path class="a" d="M143.32,118.9464q45.5472,0,91.0945-.0117a15.1684,15.1684,0,0,1,7.5864,1.7188,14.46,14.46,0,0,1,7.7635,11.5574,24.2783,24.2783,0,0,1,.1333,2.69c.0112,5.8793.0246,11.7587,0,17.6379a14.6981,14.6981,0,0,1-5.7767,12.0871,13.99,13.99,0,0,1-8.627,3.0677q-.5706.0089-1.1412.0094-90.9908.0006-181.9815.0109a15.05,15.05,0,0,1-6.6586-1.2447c-5.6232-2.7-8.7-7.1487-8.8-13.4223-.1031-6.4656.0188-12.9345-.0345-19.4013a14.7284,14.7284,0,0,1,12.05-14.44,20.608,20.608,0,0,1,3.5049-.2492Q97.8763,118.9372,143.32,118.9464Zm-15.2153,24.4091a15.264,15.264,0,1,0,15.2813-15.2929A15.1791,15.1791,0,0,0,128.1044,143.3555Zm-17.8973.0266A15.2551,15.2551,0,1,0,94.9659,158.58,15.1634,15.1634,0,0,0,110.2071,143.3821Zm67.3976-.44a16.1362,16.1362,0,0,0,2.895,9.6054A13.5928,13.5928,0,0,0,191.21,158.584a12.8135,12.8135,0,0,0,8.3557-2.552c8.01-5.784,8.4793-18.28.932-24.6852a13.209,13.209,0,0,0-17.459-.02A15.3172,15.3172,0,0,0,177.6047,142.9422Zm42.73.9419c.0459.5512.071,1.105.141,1.6532a15.6674,15.6674,0,0,0,4.6992,9.7976,10.756,10.756,0,0,0,10.8916,2.7934,12.19,12.19,0,0,0,7.2611-5.9792,17.396,17.396,0,0,0,2.0638-11.9074,15.6565,15.6565,0,0,0-4.1651-8.5322,11.1438,11.1438,0,0,0-8.4019-3.6482,10.8839,10.8839,0,0,0-7.56,3.1653C221.6564,134.671,220.336,139.0242,220.3352,143.8841Zm-55.8371-7.0086a7.4007,7.4007,0,1,0,.1082-14.8009,7.4007,7.4007,0,1,0-.1082,14.8009Zm-7.3543,20.2739a7.4207,7.4207,0,0,0,14.8413.0265,7.4207,7.4207,0,0,0-14.8413-.0265Zm-34.5122-20.2738a7.4013,7.4013,0,1,0-.038-14.8025,7.4013,7.4013,0,1,0,.038,14.8025Zm-7.4152,20.1833a7.4125,7.4125,0,1,0,14.8243.1034,7.4126,7.4126,0,0,0-14.8243-.1034Z"/>
    <path class="a" d="M141.3649,100.4862c-3.5962,0-7.1934-.0522-10.7883.0143-3.801.07-7.6013.2208-11.3991.3968q-5.1765.24-10.3463.6179c-3.684.2752-7.3628.6239-11.0414.9666-2.6465.2466-5.2863.57-7.9346.7928A8.2153,8.2153,0,0,1,85.63,102.45a9.186,9.186,0,0,1-4.4473-4.1867c-2.6873-5.3217-3.277-10.8147-1.09-16.4352a11.8407,11.8407,0,0,1,7.9185-7.3391,167.0534,167.0534,0,0,1,21.9069-5.3011c4.1506-.6831,8.3162-1.297,12.4926-1.7947,3.0141-.3592,6.0545-.5223,9.0878-.6874,3.2779-.1784,6.5611-.35,9.8422-.3548,3.5925-.0049,7.1857.171,10.7777.2957q2.3818.0827,4.7594.2773c2.82.2337,5.64.4819,8.454.7781q3.447.3628,6.88.857c3.2421.4685,6.4922.9091,9.7088,1.52,4.809.9132,9.5956,1.9466,14.3849,2.9614,4.8206,1.0215,8.0055,4.0118,9.9122,8.4468a17.0886,17.0886,0,0,1,1.2344,9.2334,37.4571,37.4571,0,0,1-.4809,3.7995c-1.1475,4.6871-4.0323,7.7269-8.8237,8.691a15.0416,15.0416,0,0,1-4.0245.0707c-2.7187-.2021-5.4276-.5314-8.1426-.7868-2.8534-.2685-5.7068-.5438-8.5646-.757-2.756-.2056-5.5171-.3431-8.2767-.4972-3.4155-.1908-6.83-.4207-10.2481-.5375-4.2148-.1439-8.4328-.1981-12.65-.272-1.6248-.0284-3.2505-.0046-4.8758-.0046Z"/>
    <path class="a" d="M143.8558,193.6135c-4.3577,0-8.7153.0157-13.0729-.0061a5.4984,5.4984,0,0,1-5.3157-4.0158,6.3866,6.3866,0,0,1-.2184-1.6346c-.0289-1.4865.02-2.9747-.016-4.461a5.564,5.564,0,0,1,5.543-5.6559c.7262-.01,1.4525-.0064,2.1788-.0064q11.5685-.0006,23.1369.0084a9.3479,9.3479,0,0,1,2.2623.2061,5.43,5.43,0,0,1,4.0326,5.0777c.05,1.6931.0483,3.39.0057,5.0832a5.4893,5.4893,0,0,1-5.4636,5.3944c-4.3573.0325-8.7151.0083-13.0727.0083Z"/>
    <path class="a" d="M143.7187,217.925c-2.628,0-5.256.0155-7.8838-.0037a5.5288,5.5288,0,0,1-5.5025-4.68,5.686,5.686,0,0,1,3.732-6.4224,5.5907,5.5907,0,0,1,1.7265-.2744c5.3595-.02,10.7192-.03,16.0787-.0031a5.2068,5.2068,0,0,1,4.948,3.1715,5.58,5.58,0,0,1-.4973,5.8993,5.1555,5.1555,0,0,1-4.4066,2.3114Q147.8162,217.9282,143.7187,217.925Z"/>
    <path class="a" d="M143.3482,155.2752a11.9706,11.9706,0,1,1,12.0078-11.8586A11.9889,11.9889,0,0,1,143.3482,155.2752Z"/>
    <path class="a" d="M94.921,155.2751a11.9706,11.9706,0,1,1,12.0395-11.9281A11.9238,11.9238,0,0,1,94.921,155.2751Z"/>
    <path class="a" d="M180.9016,143.1332a12.2031,12.2031,0,0,1,3.7665-8.8824,10.03,10.03,0,0,1,14.0419-.1224,12.8131,12.8131,0,0,1,.1665,18.234,10.0773,10.0773,0,0,1-14.3524-.0985A12.4088,12.4088,0,0,1,180.9016,143.1332Z"/>
    <path class="a" d="M242.42,143.33a14.0781,14.0781,0,0,1-2.8411,8.52,8.9749,8.9749,0,0,1-2.6141,2.3351,7.4845,7.4845,0,0,1-7.9669-.0217,9.1812,9.1812,0,0,1-3.4756-3.6287,14.4251,14.4251,0,0,1-.0854-14.2744,9.6561,9.6561,0,0,1,3.07-3.461,7.5332,7.5332,0,0,1,8.8279-.0928,11.5345,11.5345,0,0,1,4.7029,7.5453C242.248,141.2607,242.2972,142.3031,242.42,143.33Z"/>
    <path class="a" d="M168.6653,129.5079a4.1055,4.1055,0,0,1-4.1591,4.1293,4.1361,4.1361,0,0,1,.0288-8.2721A4.0628,4.0628,0,0,1,168.6653,129.5079Z"/>
    <path class="a" d="M164.5157,161.2677a4.0573,4.0573,0,0,1-4.1068-4.1648,4.1314,4.1314,0,0,1,8.2626.0608A4.0494,4.0494,0,0,1,164.5157,161.2677Z"/>
    <path class="a" d="M122.7481,125.37a4.07,4.07,0,0,1,3.9818,4.2891,4.1183,4.1183,0,0,1-4.3115,3.9761,4.1692,4.1692,0,0,1-3.9434-4.3588A4.1156,4.1156,0,0,1,122.7481,125.37Z"/>
    <path class="a" d="M122.6041,161.2678a4.0989,4.0989,0,0,1-4.1366-4.1377,4.1831,4.1831,0,0,1,4.1977-4.1083,4.1407,4.1407,0,0,1,4.0713,4.1139A4.0553,4.0553,0,0,1,122.6041,161.2678Z"/>
    <rect class="b" x="0.125" y="0.125" width="286.2732" height="286.2732"/>
  </g>
</svg>
