<svg xmlns="http://www.w3.org/2000/svg" viewBox="0 0 469.4578 214.0116">
  <defs>
    <style>
      .a {
        fill: none;
        stroke: #000;
        stroke-miterlimit: 10;
        stroke-width: 0.25px;
      }
    </style>
  </defs>
  <title>brain wires lineart</title>
  <g>
    <path d="M429.6124,1.3725c1.02.0708,2.04.1582,3.0614.2087a7.37,7.37,0,0,1-.16,14.7373c-2.8684.0062-5.7426-.1171-8.6041.0241-8.2669.4078-16.3457,1.7786-23.98,5.1548a33.21,33.21,0,0,0-10.889,7.4373,27.2061,27.2061,0,0,0-6.9594,14.1181,42.1947,42.1947,0,0,0-.3091,12.4974c.6308,5.5976,1.3106,11.19,1.9125,16.79.2287,2.1281.299,4.2732.4442,6.41.0153.2263.0486.4513.0944.8645.7226-.7278,1.31-1.3414,1.92-1.93a51.4182,51.4182,0,0,1,18.291-11.127,79.2465,79.2465,0,0,1,16.27-3.994,100.9378,100.9378,0,0,1,13.2241-.9855c2.0021-.02,4.0118.0512,6.0077.2112a7.3526,7.3526,0,0,1,.8139,14.4689,22.0114,22.0114,0,0,1-3.7108.1508c-2.6587.0515-5.323-.0038-7.9754.1495a73.47,73.47,0,0,0-12.6063,1.8136,49.56,49.56,0,0,0-13.978,5.3562,27.8686,27.8686,0,0,0-11.0212,11.26,29.83,29.83,0,0,0-2.9476,9.348,45.1461,45.1461,0,0,0-.0456,11.9924q.8313,7.1054,1.6573,14.2112c.1216,1.0558.2,2.1166.3188,3.402.2594-.423.427-.662.56-.9188a41.5011,41.5011,0,0,1,13.6727-15.5859,45.59,45.59,0,0,1,16.0625-6.7039,65.13,65.13,0,0,1,16.9111-1.2447,92.3218,92.3218,0,0,1,23.589,4.3c1.2175.3841,2.4313.7932,3.6137,1.2721a6.6567,6.6567,0,0,1,3.9774,4.13,7.125,7.125,0,0,1-1.5918,7.7819,6.9974,6.9974,0,0,1-7.6283,1.8331,91.9944,91.9944,0,0,0-10.3691-2.8984,74.7123,74.7123,0,0,0-14.3875-1.7209,45.6552,45.6552,0,0,0-13.83,1.708,27.1061,27.1061,0,0,0-17.0051,14.1982,45.4049,45.4049,0,0,0-4.0832,12.8917c-.9688,5.4418-1.8633,10.8978-2.9136,16.3237a83.3763,83.3763,0,0,1-6.3864,20.3131,45.5588,45.5588,0,0,1-9.1075,13.0231,38.5894,38.5894,0,0,1-17.4382,9.7713,52.2145,52.2145,0,0,1-7.9495,1.4293,7.3862,7.3862,0,1,1-1.4793-14.6982,29.5674,29.5674,0,0,0,10.7132-3.0018A26.0259,26.0259,0,0,0,375.835,186.057a44.8462,44.8462,0,0,0,3.8783-8.5788c.0744-.2165.1218-.4424.2474-.9063-.8472.8231-1.5011,1.474-2.1716,2.1072a43.4426,43.4426,0,0,1-14.0807,8.7774,7.37,7.37,0,0,1-5.6455-13.6135,37.1082,37.1082,0,0,0,6.0475-3.1725,25.8042,25.8042,0,0,0,10.9217-16.41,52.12,52.12,0,0,0,1.0638-12.8838c-.1083-4.7051-.6281-9.3767-1.2026-14.0437-.4011-3.2583-.7577-6.5222-1.1369-9.7833-.0476-.4085-.1124-.8149-.186-1.3427-.2545.2252-.44.3643-.5957.5309a42.8886,42.8886,0,0,1-16.0254,10.621,7.367,7.367,0,0,1-5.4753-13.6741,33.9329,33.9329,0,0,0,7.3932-4.1457A25.52,25.52,0,0,0,368.17,95.0886,45.1647,45.1647,0,0,0,369.4721,84.62a131.0163,131.0163,0,0,0-1.21-17.5716c-.5716-4.8721-1.1883-9.7492-1.4727-14.6422a48.13,48.13,0,0,1,2.7138-19.381,41.2093,41.2093,0,0,1,15.0016-19.6433,58.0029,58.0029,0,0,1,18.5943-8.674A84.156,84.156,0,0,1,420.3338,1.76c1.6546-.11,3.3138-.151,4.97-.2371a5.524,5.524,0,0,0,.7805-.1508ZM427.387,4.7568l-.004-.1581c-2.6567.1271-5.3211.1666-7.9682.402A85.7707,85.7707,0,0,0,407.67,6.8315,62.0179,62.0179,0,0,0,390.2258,13.48a40.4388,40.4388,0,0,0-13.8987,12.9658c-4.1951,6.4725-6.021,13.6612-6.39,21.2816a87.3116,87.3116,0,0,0,.8569,13.85c.5626,5.0808,1.1742,10.1583,1.6124,15.25a63.023,63.023,0,0,1-.4331,15.6115,33.468,33.468,0,0,1-4.0461,11.6815,29.0534,29.0534,0,0,1-13.17,11.6138c-.6867.3237-1.4019.5873-2.0873.9133a4.2013,4.2013,0,0,0-2.3943,4.5111,4.1182,4.1182,0,0,0,5.7751,3.1147,57.0522,57.0522,0,0,0,6.4812-3.2337,34.9841,34.9841,0,0,0,14.81-16.9562,51.1646,51.1646,0,0,0,3.6058-17.5712,103.9517,103.9517,0,0,0-.6309-15.8377c-.5033-4.7406-1.1033-9.471-1.653-14.2067a47.0854,47.0854,0,0,1,.26-13.9418,30.3712,30.3712,0,0,1,7.0619-14.9982,35.48,35.48,0,0,1,11.74-8.5386,64.9217,64.9217,0,0,1,20.3182-5.3963,84.7111,84.7111,0,0,1,11.068-.5545c1.105.0151,2.2093.08,3.3142.1071a3.9244,3.9244,0,0,0,2.5926-.8848,4.1287,4.1287,0,0,0,1.4182-4.55,4.1826,4.1826,0,0,0-3.8645-2.9432C430.8449,4.72,429.1154,4.7568,427.387,4.7568Zm6.6928,107.84a56.6757,56.6757,0,0,0-13.8614,1.53,39.1629,39.1629,0,0,0-28.3675,24.8027,11.1031,11.1031,0,0,0-.9306,4.2912,79.0008,79.0008,0,0,1-.4721,8.4781,46.3883,46.3883,0,0,1-4.7529,16.6414,8.4864,8.4864,0,0,0-.6108,1.6417c-.5117,1.9-.9436,3.8235-1.4887,5.714a49.39,49.39,0,0,1-5.5789,12.8891,28.263,28.263,0,0,1-12.75,11.166,33.9718,33.9718,0,0,1-10.2992,2.5705,4.1945,4.1945,0,0,0,.8634,8.3444c1.7114-.1988,3.4224-.4518,5.11-.7963a36.0071,36.0071,0,0,0,16.6343-7.9531,41.6532,41.6532,0,0,0,10.5369-14.4708,81.0238,81.0238,0,0,0,5.7309-18.5688c1.0616-5.4574,1.9586-10.9469,2.9331-16.4214a50.9486,50.9486,0,0,1,3.5452-12.0967c3.7381-8.2989,9.773-14.12,18.4466-17.0982a44.945,44.945,0,0,1,14.771-2.28c2.7217.0037,5.4474.2574,8.1634.4894a65.4712,65.4712,0,0,1,11.285,2.05c2.6639.71,5.3023,1.5233,7.9284,2.3646a4.2531,4.2531,0,0,0,4.6913-2.0025,4.0988,4.0988,0,0,0-.77-5.0346,5.9738,5.9738,0,0,0-1.95-1.1242A88.6048,88.6048,0,0,0,434.08,112.5966Zm-49.3144-2.1161c.2053-2.3306.3054-4.5444.6125-6.7292a30.879,30.879,0,0,1,4.7456-12.821,31.756,31.756,0,0,1,11.0547-10.14c7.2654-4.1536,15.2106-6.0714,23.4329-7.03,2.0213-.2356,4.0593-.3823,6.0933-.4406,2.6212-.0751,5.2462-.0062,7.8693-.0316a6.5873,6.5873,0,0,0,1.8317-.2333,4.1591,4.1591,0,0,0,2.8333-4.441,4.2055,4.2055,0,0,0-3.68-3.6638c-1.2718-.1118-2.5513-.1914-3.8273-.19-1.7952.0014-3.591.0743-5.3852.1478-1.6218.0664-3.2542.0783-4.86.2848-3.111.4-6.2244.8265-9.305,1.41a61.6528,61.6528,0,0,0-18.0139,6.2768,42.1623,42.1623,0,0,0-13.2617,10.9527,3.0762,3.0762,0,0,0-.665,1.7967c-.1766,2.5488-.3071,5.1068-.6359,7.6378a43.69,43.69,0,0,1-6.65,18.5724,2.0284,2.0284,0,0,0-.3779,1.3592c.2217,2.3045.4031,4.6132.6546,6.9144.5257,4.8077,1.12,9.6082,1.6234,14.4182a76.5939,76.5939,0,0,1,.1938,14.3916,40.1913,40.1913,0,0,1-2.2295,10.51,28.1643,28.1643,0,0,1-14.0955,15.765c-1.1027.57-2.2548,1.0441-3.3787,1.5738a4.173,4.173,0,0,0,3.2684,7.6791c1.8242-.8223,3.665-1.6291,5.4108-2.6a35.3847,35.3847,0,0,0,15.7951-17.2776,51.2814,51.2814,0,0,0,3.7723-18.4773,93.3569,93.3569,0,0,0-.5517-13.8724c-.4468-4.0868-.9642-8.1659-1.397-12.2541C385.3047,116.7755,385.0484,113.5735,384.7654,110.4805Z"/>
    <path d="M1.2663,112.1946a4.8228,4.8228,0,0,0,.392-.81,7.3147,7.3147,0,0,1,4.784-5.1931A88.0708,88.0708,0,0,1,17.78,102.92a89.327,89.327,0,0,1,15.6971-2.1084,61.6155,61.6155,0,0,1,20.3081,2.2345A41.57,41.57,0,0,1,79.6983,124.213a2.426,2.426,0,0,0,.6463.8406c.1274-1.22.2429-2.4413.3845-3.66.3828-3.2944.76-6.59,1.1705-9.8807a67.492,67.492,0,0,0,.7088-12.61c-.4425-7.0052-2.62-13.3287-7.53-18.5214a31.8765,31.8765,0,0,0-8.7519-6.3878A55.0552,55.0552,0,0,0,51.0029,69.038a85.1029,85.1029,0,0,0-14.8483-1.3312c-1.416-.01-2.8325.08-4.2489.1157a7.3756,7.3756,0,0,1-7.5207-6.3571A7.2724,7.2724,0,0,1,29.6992,53.39a19.4374,19.4374,0,0,1,4.3166-.4113,93.4056,93.4056,0,0,1,25.3734,2.7721,60.56,60.56,0,0,1,19.1,8.2994,46.6053,46.6053,0,0,1,7.6447,6.5088c.093.0977.1945.1872.3919.3761a6.21,6.21,0,0,0,.21-.7942c.54-4.5635,1.0861-9.1263,1.6-13.6927a43.0943,43.0943,0,0,0-.65-15.3458A27,27,0,0,0,75.6221,24.3842a47.1,47.1,0,0,0-14.5954-5.99,81.925,81.925,0,0,0-20.5623-2.16c-.9327.0127-1.865.0826-2.7975.082A7.3446,7.3446,0,0,1,36.0935,1.8005a29.0134,29.0134,0,0,1,3.5033-.2752c.3686-.0291.7338-.1006,1.1-.1528h3.3206a9.5917,9.5917,0,0,0,1.0959.1509A82.3623,82.3623,0,0,1,75.3129,7.59,48.755,48.755,0,0,1,91.2877,18.1687a40.8758,40.8758,0,0,1,11.0487,20.6386,53.9564,53.9564,0,0,1,.8577,16.91c-.4839,4.7432-1.0782,9.475-1.6062,14.2138a104.1069,104.1069,0,0,0-.8707,15.6164,39.0312,39.0312,0,0,0,2.6742,13.66A25.69,25.69,0,0,0,116.719,112.799c.7177.34,1.459.6291,2.18.9615a7.3815,7.3815,0,0,1-1.5673,13.9139,7.6025,7.6025,0,0,1-4.4729-.4411,43.7619,43.7619,0,0,1-15.984-10.87,5.0483,5.0483,0,0,1-.4185-.6857,3.8052,3.8052,0,0,0-.2981.69,145.4309,145.4309,0,0,0-1.5,19.3128,42.89,42.89,0,0,0,1.9691,13.0675,25.75,25.75,0,0,0,14.4242,15.7159c.596.2734,1.2073.514,1.8006.793a7.3592,7.3592,0,0,1-2.3593,14.0215,7.5173,7.5173,0,0,1-3.7418-.5855,43.8582,43.8582,0,0,1-15.546-10.4354,1.2554,1.2554,0,0,0-.2724-.139,6.2365,6.2365,0,0,0,.1434.6887A40.13,40.13,0,0,0,96.48,179.7278,25.33,25.33,0,0,0,112.8221,190.01c1.05.2017,2.1161.3255,3.1779.46a7.1383,7.1383,0,0,1,6.3691,5.0316,7.0324,7.0324,0,0,1-1.9863,7.7707,6.8367,6.8367,0,0,1-5.5137,1.9056c-13.0612-1.2037-23.6425-6.7524-31.0723-17.7947a60.4825,60.4825,0,0,1-7.3781-16.0459,135.0529,135.0529,0,0,1-3.7637-16.4541c-.8766-4.9309-1.6731-9.8809-2.7331-14.773a33.43,33.43,0,0,0-6.0536-13.2976,27.0866,27.0866,0,0,0-15.08-9.8409A48.3288,48.3288,0,0,0,33.2631,115.63a83.0987,83.0987,0,0,0-19.9977,3.8326c-.5925.1867-1.1793.393-1.7629.6062A7.4,7.4,0,0,1,1.6489,114.96a2.8759,2.8759,0,0,0-.3826-.69ZM89.03,82.4964l.2013.0076c0,1.0363-.0235,2.0733.0041,3.1089A57.4732,57.4732,0,0,0,90.7528,97.62a36.5048,36.5048,0,0,0,10.7013,18.8183,41.6363,41.6363,0,0,0,12.808,7.9051,4.1774,4.1774,0,0,0,3.3185-7.6627c-1.1793-.5746-2.3989-1.0686-3.5641-1.6693a28.0739,28.0739,0,0,1-13.57-14.5421A42.866,42.866,0,0,1,97.54,85.4923a107.9216,107.9216,0,0,1,.8572-15.826c.532-4.8415,1.1488-9.674,1.6371-14.52a50.3668,50.3668,0,0,0-.6311-14.6555A38.3131,38.3131,0,0,0,81.8713,14.657C75.0132,10.2144,67.4119,7.7082,59.442,6.2037A91.6259,91.6259,0,0,0,49.08,4.8891a104.5572,104.5572,0,0,0-11.6056-.11,4.1926,4.1926,0,0,0-3.9263,3.8859,4.109,4.109,0,0,0,3.0456,4.2865,7.5814,7.5814,0,0,0,2.2527.1686,81.7712,81.7712,0,0,1,10.1467.2028,78.5251,78.5251,0,0,1,12.4686,1.8963,51.6461,51.6461,0,0,1,14.788,5.7842A30.4914,30.4914,0,0,1,91.4437,43.5876a50.1287,50.1287,0,0,1,.094,13.0238c-.5129,4.74-1.1606,9.4653-1.63,14.2089C89.524,74.7033,89.3161,78.6037,89.03,82.4964ZM36.7316,112.324A47.3367,47.3367,0,0,1,50.15,114.0313,30.2031,30.2031,0,0,1,65.78,124.05a37.06,37.06,0,0,1,6.7165,13.2213,129.9945,129.9945,0,0,1,2.91,14.7318c.8666,5.0748,1.7894,10.1377,3.1316,15.1132a64.3457,64.3457,0,0,0,6.7562,16.6571,36.6245,36.6245,0,0,0,13.45,13.379,38.8881,38.8881,0,0,0,12.8606,4.4083,27.2357,27.2357,0,0,0,4.01.418,4.0237,4.0237,0,0,0,3.9141-3.7041,4.2213,4.2213,0,0,0-4.0811-4.6595,32.399,32.399,0,0,1-9.61-2.3728A28.5473,28.5473,0,0,1,92.13,178.9089a58.4431,58.4431,0,0,1-6.0462-15.9281,15.2773,15.2773,0,0,0-1.065-3.45,46.5,46.5,0,0,1-4.5316-15.0083,72.563,72.563,0,0,1-.6364-10.8607,4.2236,4.2236,0,0,0-.2748-1.6133c-.8489-2.0771-1.6462-4.1871-2.6679-6.18a37.8089,37.8089,0,0,0-17.1112-17.05,49.5161,49.5161,0,0,0-19.9783-4.8346,74.5375,74.5375,0,0,0-14.7744.8354,93.507,93.507,0,0,0-15.585,3.7037,18.1876,18.1876,0,0,0-2.6032,1.0029,4.1408,4.1408,0,0,0-.6091,6.9447,4.3,4.3,0,0,0,4.309.542A82.9722,82.9722,0,0,1,36.7316,112.324ZM82.99,134.09l.2224.01c0,1.1052-.0256,2.2111.0047,3.3156a56.8876,56.8876,0,0,0,1.316,10.89,36.8236,36.8236,0,0,0,10.5875,19.34,41.1058,41.1058,0,0,0,13.11,8.1863,4.1706,4.1706,0,0,0,5.6841-3.52,4.191,4.191,0,0,0-2.4562-4.194c-1.4657-.694-2.9657-1.3269-4.3837-2.1084a27.7382,27.7382,0,0,1-12.2825-13.19,40.74,40.74,0,0,1-3.2562-15.7272c-.0812-2.7941.0034-5.6016.18-8.3924.2055-3.2391.5752-6.4686.9111-9.6985.2-1.9236.4556-3.842.72-5.7582a2.9271,2.9271,0,0,0-.5-2.0407c-.7608-1.2329-1.4838-2.497-2.1181-3.799A51.7307,51.7307,0,0,1,85.936,86.13c-.106-3.2076.0758-6.4257.1654-9.638a2.4783,2.4783,0,0,0-.6022-1.7883A41.9073,41.9073,0,0,0,79.8573,69.07a51.2485,51.2485,0,0,0-16.15-8.7042A82.2244,82.2244,0,0,0,41.39,56.2649c-3.171-.17-6.3586-.0481-9.5384-.0225a4.9282,4.9282,0,0,0-1.6124.31,4.1612,4.1612,0,0,0,1.4376,8.0616c2.3131.0076,4.63-.0871,6.9383.01,2.7567.1159,5.51.3507,8.2588.6019a62.0334,62.0334,0,0,1,10.16,1.8876,49.061,49.061,0,0,1,14.5,6.2107A29.9817,29.9817,0,0,1,83.6783,88.2664,39.4122,39.4122,0,0,1,85.6968,105.83c-.5111,5.5025-1.28,10.9807-1.8252,16.4805C83.4833,126.2277,83.2773,130.1627,82.99,134.09Z"/>
    <rect class="a" x="0.125" y="0.125" width="469.2078" height="213.7616"/>
  </g>
</svg>
