<svg xmlns="http://www.w3.org/2000/svg" viewBox="0 0 469.4578 214.0116">
  <defs>
    <style>
      .a {
        fill: #fff;
      }

      .b {
        fill: none;
        stroke: #000;
        stroke-miterlimit: 10;
        stroke-width: 0.25px;
      }
    </style>
  </defs>
  <title>brain wires color</title>
  <g>
    <path class="a" d="M427.387,4.7568c1.7284,0,3.4579-.0368,5.1851.01A4.1826,4.1826,0,0,1,436.4366,7.71a4.1287,4.1287,0,0,1-1.4182,4.55,3.9244,3.9244,0,0,1-2.5926.8848c-1.1049-.0269-2.2092-.092-3.3142-.1071a84.7111,84.7111,0,0,0-11.068.5545,64.9217,64.9217,0,0,0-20.3182,5.3963,35.48,35.48,0,0,0-11.74,8.5386,30.3712,30.3712,0,0,0-7.0619,14.9982,47.0854,47.0854,0,0,0-.26,13.9418c.55,4.7357,1.15,9.4661,1.653,14.2067a103.9517,103.9517,0,0,1,.6309,15.8377,51.1646,51.1646,0,0,1-3.6058,17.5712,34.9841,34.9841,0,0,1-14.81,16.9562,57.0522,57.0522,0,0,1-6.4812,3.2337,4.1182,4.1182,0,0,1-5.7751-3.1147,4.2013,4.2013,0,0,1,2.3943-4.5111c.6854-.326,1.4006-.59,2.0873-.9133a29.0534,29.0534,0,0,0,13.17-11.6138,33.468,33.468,0,0,0,4.0461-11.6815,63.023,63.023,0,0,0,.4331-15.6115c-.4382-5.092-1.05-10.1695-1.6124-15.25a87.3116,87.3116,0,0,1-.8569-13.85c.3694-7.62,2.1953-14.8091,6.39-21.2816A40.4388,40.4388,0,0,1,390.2258,13.48,62.0179,62.0179,0,0,1,407.67,6.8315a85.7707,85.7707,0,0,1,11.7449-1.8308c2.6471-.2354,5.3115-.2749,7.9682-.402Z"/>
    <path class="a" d="M434.08,112.5966a88.6048,88.6048,0,0,1,28.8063,5.127,5.9738,5.9738,0,0,1,1.95,1.1242,4.0988,4.0988,0,0,1,.77,5.0346,4.2531,4.2531,0,0,1-4.6913,2.0025c-2.6261-.8413-5.2645-1.6546-7.9284-2.3646a65.4712,65.4712,0,0,0-11.285-2.05c-2.716-.232-5.4417-.4857-8.1634-.4894a44.945,44.945,0,0,0-14.771,2.28c-8.6736,2.9779-14.7085,8.7993-18.4466,17.0982a50.9486,50.9486,0,0,0-3.5452,12.0967c-.9745,5.4745-1.8715,10.964-2.9331,16.4214a81.0238,81.0238,0,0,1-5.7309,18.5688,41.6532,41.6532,0,0,1-10.5369,14.4708,36.0071,36.0071,0,0,1-16.6343,7.9531c-1.6876.3445-3.3986.5975-5.11.7963a4.1945,4.1945,0,0,1-.8634-8.3444,33.9718,33.9718,0,0,0,10.2992-2.5705,28.263,28.263,0,0,0,12.75-11.166,49.39,49.39,0,0,0,5.5789-12.8891c.5451-1.8905.977-3.8135,1.4887-5.714a8.4864,8.4864,0,0,1,.6108-1.6417,46.3883,46.3883,0,0,0,4.7529-16.6414,79.0008,79.0008,0,0,0,.4721-8.4781,11.1031,11.1031,0,0,1,.9306-4.2912,39.1629,39.1629,0,0,1,28.3675-24.8027A56.6757,56.6757,0,0,1,434.08,112.5966Z"/>
    <path class="a" d="M384.7654,110.4805c.283,3.093.5393,6.295.8773,9.4883.4328,4.0882.95,8.1673,1.397,12.2541a93.3569,93.3569,0,0,1,.5517,13.8724,51.2814,51.2814,0,0,1-3.7723,18.4773A35.3847,35.3847,0,0,1,368.024,181.85c-1.7458.9711-3.5866,1.7779-5.4108,2.6a4.173,4.173,0,0,1-3.2684-7.6791c1.1239-.53,2.276-1.0037,3.3787-1.5738a28.1643,28.1643,0,0,0,14.0955-15.765,40.1913,40.1913,0,0,0,2.2295-10.51,76.5939,76.5939,0,0,0-.1938-14.3916c-.5039-4.81-1.0977-9.61-1.6234-14.4182-.2515-2.3012-.4329-4.61-.6546-6.9144a2.0284,2.0284,0,0,1,.3779-1.3592,43.69,43.69,0,0,0,6.65-18.5724c.3288-2.531.4593-5.089.6359-7.6378a3.0762,3.0762,0,0,1,.665-1.7967,42.1623,42.1623,0,0,1,13.2617-10.9527,61.6528,61.6528,0,0,1,18.0139-6.2768c3.0806-.5833,6.194-1.01,9.305-1.41,1.6058-.2065,3.2382-.2184,4.86-.2848,1.7942-.0735,3.59-.1464,5.3852-.1478,1.276-.0011,2.5555.0785,3.8273.19a4.2055,4.2055,0,0,1,3.68,3.6638,4.1591,4.1591,0,0,1-2.8333,4.441,6.5873,6.5873,0,0,1-1.8317.2333c-2.6231.0254-5.2481-.0435-7.8693.0316-2.034.0583-4.072.205-6.0933.4406-8.2223.9585-16.1675,2.8763-23.4329,7.03a31.756,31.756,0,0,0-11.0547,10.14,30.879,30.879,0,0,0-4.7456,12.821C385.0708,105.9361,384.9707,108.15,384.7654,110.4805Z"/>
    <path class="a" d="M89.03,82.4964c.286-3.8927.4939-7.7931.8779-11.6761.4691-4.7436,1.1168-9.4693,1.63-14.2089a50.1287,50.1287,0,0,0-.094-13.0238A30.4914,30.4914,0,0,0,76.2493,21.003a51.6461,51.6461,0,0,0-14.788-5.7842,78.5251,78.5251,0,0,0-12.4686-1.8963A81.7712,81.7712,0,0,0,38.846,13.12a7.5814,7.5814,0,0,1-2.2527-.1686,4.109,4.109,0,0,1-3.0456-4.2865A4.1926,4.1926,0,0,1,37.474,4.7787a104.5572,104.5572,0,0,1,11.6056.11A91.6259,91.6259,0,0,1,59.442,6.2037c7.97,1.5045,15.5712,4.0107,22.4293,8.4533A38.3131,38.3131,0,0,1,99.4027,40.4911a50.3668,50.3668,0,0,1,.6311,14.6555c-.4883,4.8457-1.1051,9.6782-1.6371,14.52a107.9216,107.9216,0,0,0-.8572,15.826,42.866,42.866,0,0,0,2.9072,14.9771,28.0739,28.0739,0,0,0,13.57,14.5421c1.1652.6007,2.3848,1.0947,3.5641,1.6693a4.1774,4.1774,0,0,1-3.3185,7.6627,41.6363,41.6363,0,0,1-12.808-7.9051A36.5048,36.5048,0,0,1,90.7528,97.62a57.4732,57.4732,0,0,1-1.5173-12.0072c-.0276-1.0356-.0041-2.0726-.0041-3.1089Z"/>
    <path class="a" d="M36.7316,112.324a82.9722,82.9722,0,0,0-26.1756,4.6893,4.3,4.3,0,0,1-4.309-.542,4.1408,4.1408,0,0,1,.6091-6.9447,18.1876,18.1876,0,0,1,2.6032-1.0029,93.507,93.507,0,0,1,15.585-3.7037,74.5375,74.5375,0,0,1,14.7744-.8354,49.5161,49.5161,0,0,1,19.9783,4.8346,37.8089,37.8089,0,0,1,17.1112,17.05c1.0217,1.9926,1.819,4.1026,2.6679,6.18a4.2236,4.2236,0,0,1,.2748,1.6133,72.563,72.563,0,0,0,.6364,10.8607,46.5,46.5,0,0,0,4.5316,15.0083,15.2773,15.2773,0,0,1,1.065,3.45A58.4431,58.4431,0,0,0,92.13,178.9089a28.5473,28.5473,0,0,0,13.7079,12.3334,32.399,32.399,0,0,0,9.61,2.3728,4.2213,4.2213,0,0,1,4.0811,4.6595,4.0237,4.0237,0,0,1-3.9141,3.7041,27.2357,27.2357,0,0,1-4.01-.418,38.8881,38.8881,0,0,1-12.8606-4.4083,36.6245,36.6245,0,0,1-13.45-13.379,64.3457,64.3457,0,0,1-6.7562-16.6571c-1.3422-4.9755-2.265-10.0384-3.1316-15.1132a129.9945,129.9945,0,0,0-2.91-14.7318A37.06,37.06,0,0,0,65.78,124.05a30.2031,30.2031,0,0,0-15.63-10.0187A47.3367,47.3367,0,0,0,36.7316,112.324Z"/>
    <path class="a" d="M82.99,134.09c.2873-3.927.4933-7.862.8816-11.7789.5453-5.5,1.3141-10.978,1.8252-16.4805a39.4122,39.4122,0,0,0-2.0185-17.5639A29.9817,29.9817,0,0,0,71.5338,73.3239a49.061,49.061,0,0,0-14.5-6.2107,62.0334,62.0334,0,0,0-10.16-1.8876c-2.7487-.2512-5.5021-.486-8.2588-.6019-2.3088-.097-4.6252-.0023-6.9383-.01a4.1612,4.1612,0,0,1-1.4376-8.0616,4.9282,4.9282,0,0,1,1.6124-.31c3.18-.0256,6.3674-.1478,9.5384.0225a82.2244,82.2244,0,0,1,22.3173,4.1012,51.2485,51.2485,0,0,1,16.15,8.7042,41.9073,41.9073,0,0,1,5.6419,5.6329,2.4783,2.4783,0,0,1,.6022,1.7883c-.09,3.2123-.2714,6.43-.1654,9.638a51.7307,51.7307,0,0,0,4.793,21.2724c.6343,1.302,1.3573,2.5661,2.1181,3.799a2.9271,2.9271,0,0,1,.5,2.0407c-.2643,1.9162-.52,3.8346-.72,5.7582-.3359,3.23-.7056,6.4594-.9111,9.6985-.177,2.7908-.2616,5.5983-.18,8.3924a40.74,40.74,0,0,0,3.2562,15.7272,27.7382,27.7382,0,0,0,12.2825,13.19c1.418.7815,2.918,1.4144,4.3837,2.1084a4.191,4.191,0,0,1,2.4562,4.194,4.1706,4.1706,0,0,1-5.6841,3.52,41.1058,41.1058,0,0,1-13.11-8.1863,36.8236,36.8236,0,0,1-10.5875-19.34,56.8876,56.8876,0,0,1-1.316-10.89c-.03-1.1045-.0047-2.21-.0047-3.3156Z"/>
    <rect class="b" x="0.125" y="0.125" width="469.2078" height="213.7616"/>
  </g>
</svg>
