<svg xmlns="http://www.w3.org/2000/svg" viewBox="0 0 286.5232 286.5232">
  <defs>
    <style>
      .a {
        fill: none;
        stroke: #000;
        stroke-miterlimit: 10;
        stroke-width: 0.25px;
      }
    </style>
  </defs>
  <title>brain lineart</title>
  <g>
    <path d="M.125,139.2963a6.53,6.53,0,0,0,.22-.9742c.2028-2.7225.3561-5.449.5845-8.1692a132.8558,132.8558,0,0,1,3.6473-21.64A143.3951,143.3951,0,0,1,108.7726,4.4765a126.9241,126.9241,0,0,1,19.7895-3.4228c3.0962-.28,6.2044-.4255,9.3064-.6413A7.7718,7.7718,0,0,0,138.7564.25h9.1314a7.6519,7.6519,0,0,0,1.001.1629,139.1437,139.1437,0,0,1,46.95,9.8008,143.1873,143.1873,0,0,1,83.3038,87.95,145.0324,145.0324,0,0,1,5.77,24.272,142.427,142.427,0,0,1,1.3243,27.729,142.4721,142.4721,0,0,1-41.8958,94.485,142.0242,142.0242,0,0,1-69.2575,38.2063,136.77,136.77,0,0,1-19.5555,3.0056,138.4464,138.4464,0,0,1-19.7952.3192c-33.4995-2.0082-62.8773-14.0783-87.9172-36.4295A140.7949,140.7949,0,0,1,8.1482,190.1218a138.7461,138.7461,0,0,1-6.4106-26.5583C1.1245,159.1774.6948,154.7768.49,150.3522c-.049-1.06-.24-2.1133-.3653-3.17Zm143.4679-101.03c-6.5866.1234-12.9808.229-19.3528.821-4.1231.383-8.2507.7466-12.3575,1.2668-4.2755.5415-8.5455,1.1658-12.7878,1.9226A238.6129,238.6129,0,0,0,74.528,48.0374,247.0278,247.0278,0,0,0,26.2022,67.7993a3.7754,3.7754,0,0,0-1.4834,1.3817A140.7839,140.7839,0,0,0,14.0175,89.9951a138.9255,138.9255,0,0,0-10.3692,46.71A142.8619,142.8619,0,0,0,4.1708,157.32a136.8514,136.8514,0,0,0,2.8267,17.2719,139.2151,139.2151,0,0,0,17.7377,42.8984,3.6382,3.6382,0,0,0,1.4906,1.375c2.1231,1.083,4.2192,2.2194,6.3484,3.29a245.758,245.758,0,0,0,48.7592,18.3289,232.2525,232.2525,0,0,0,22.8847,4.7594c4.4651.6906,8.9568,1.2283,13.4493,1.7182,3.8439.4192,7.7008.7663,11.5612.9742,4.486.2415,8.9817.3861,13.4739.4059,4.0075.0177,8.0172-.16,12.0236-.3118,2.9345-.1111,5.8715-.2479,8.796-.5032,3.6789-.3213,7.3552-.707,11.0163-1.1893,4.3088-.5675,8.6157-1.1786,12.8953-1.9311,7.5793-1.3327,15.0719-3.0711,22.4846-5.1447a246.109,246.109,0,0,0,50.79-20.5149,2.8363,2.8363,0,0,0,1.1877-1.1072c1.8316-3.2115,3.7875-6.3574,5.499-9.6313a137.7226,137.7226,0,0,0,15.592-56.4032,142.5188,142.5188,0,0,0-.51-23.0981,137.2609,137.2609,0,0,0-2.4277-15.0316,139.1935,139.1935,0,0,0-18.1116-44.4022,3.0811,3.0811,0,0,0-1.2563-1.1821c-3.4517-1.7463-6.8594-3.5829-10.3433-5.2618a244.8242,244.8242,0,0,0-73.1561-22.02c-4.0316-.5583-8.09-.9378-12.1452-1.3056-3.6455-.3306-7.3-.5965-10.9557-.7709C150.5246,38.3633,146.9612,38.3461,143.5929,38.2665ZM29.4474,224.3759a138.0292,138.0292,0,0,0,51.1487,43.9725c26.1579,13.0955,53.7963,17.413,82.7411,13.4465a134.3994,134.3994,0,0,0,27.369-6.7986,139.7943,139.7943,0,0,0,48.0573-29.37c6.6752-6.2429,17.6944-18.9837,18.4424-21.3274a248.4088,248.4088,0,0,1-113.8565,27.2861A249.8085,249.8085,0,0,1,29.4474,224.3759ZM29.46,62.3068a251.7943,251.7943,0,0,1,227.807-.0007C201.7515-15.959,85.3665-16.3274,29.46,62.3068Z"/>
    <path d="M266.69,128.3856c3.9831,1.6409,5.9483,4.8324,7.0455,8.669a21.9551,21.9551,0,0,1-.6466,14.4339,12.0782,12.0782,0,0,1-3.672,5.19,7.3939,7.3939,0,0,1-1.9314,1.1854,1.5469,1.5469,0,0,0-1.0109,1.4937c-.2662,1.8459-.5255,3.6937-.84,5.5317a121.4246,121.4246,0,0,1-7.76,26.4938,125.2774,125.2774,0,0,1-9.5251,18.2753,4.2131,4.2131,0,0,1-1.6367,1.5155,216.2267,216.2267,0,0,1-52.0369,20.0486c-5.6978,1.3885-11.4389,2.5849-17.2489,3.41-3.688.5234-7.38,1.0366-11.0821,1.4392-3.3273.3619-6.6712.573-10.0087.84A180.0116,180.0116,0,0,1,138.3,237.27c-3.6251-.0743-7.248-.3306-10.868-.564-2.6525-.1709-5.308-.3611-7.9455-.68-3.8-.4595-7.5906-1.0116-11.3764-1.5822-5.87-.8846-11.6678-2.1312-17.4259-3.5659a213.7357,213.7357,0,0,1-42.8085-15.6647c-2.7272-1.3419-5.3978-2.7986-8.1053-4.1812a3.1408,3.1408,0,0,1-1.26-1.1791,123.7322,123.7322,0,0,1-15.7989-37.1249A124.5828,124.5828,0,0,1,19.4127,135.79,123.9019,123.9019,0,0,1,38.3579,77.0284a4.2063,4.2063,0,0,1,1.6223-1.53A215.3624,215.3624,0,0,1,92.4158,55.356c5.94-1.4264,11.9168-2.6608,17.9671-3.5061,3.8612-.5394,7.7289-1.0571,11.6083-1.434,3.9174-.3807,7.8489-.7021,11.7812-.8216,5.5966-.17,11.2013-.2414,16.799-.1465,3.9676.0672,7.9355.41,11.892.7567,3.9528.3467,7.9064.7488,11.8338,1.3081A213.5625,213.5625,0,0,1,205.3044,58.3a216.9772,216.9772,0,0,1,41.444,17.2,4.032,4.032,0,0,1,1.5681,1.4411,122.4062,122.4062,0,0,1,16.4669,40.49c.6844,3.2762,1.14,6.6,1.7026,9.9018C266.5438,127.6718,266.6167,128.0083,266.69,128.3856Zm-3.4682-.2791a8.8591,8.8591,0,0,0-.0568-1.0712c-.5966-3.3664-1.0976-6.7544-1.8313-10.0911a119.1365,119.1365,0,0,0-15.45-37.7008,3.2245,3.2245,0,0,0-1.2632-1.1743A212.13,212.13,0,0,0,195.608,59.0305C189.92,57.6,184.1894,56.36,178.3892,55.4748c-3.7508-.5724-7.506-1.128-11.2721-1.5845-2.7061-.328-5.4306-.5267-8.1521-.6988-3.69-.2334-7.3828-.5031-11.0769-.5444-4.8042-.0537-9.6117.0641-14.416.1823-2.52.062-5.0423.2142-7.5523.4475-3.5731.3322-7.1441.7141-10.7006,1.19-3.7254.4984-7.4487,1.0456-11.1442,1.7267a207.5245,207.5245,0,0,0-21.3218,5.1205A214.1682,214.1682,0,0,0,42.3894,77.909a4.4494,4.4494,0,0,0-1.7609,1.6752c-2.1864,3.5692-4.2206,7.22-6.0488,10.9857a121.0653,121.0653,0,0,0-11.41,65.6288,122.3664,122.3664,0,0,0,3.172,17.5223,120.661,120.661,0,0,0,14.3232,33.4109,4.0735,4.0735,0,0,0,1.7,1.5943c1.7943.8912,3.5506,1.8585,5.3422,2.7555a209.5413,209.5413,0,0,0,64.9148,20.3414c4.6461.6558,9.3153,1.1932,13.9906,1.5859,4.2332.3556,8.4875.5247,12.7359.617,3.6617.0795,7.3305-.0012,10.992-.1285,3.6591-.1273,7.3213-.3083,10.9671-.6334,4.2957-.3829,8.5822-.8922,12.86-1.4439,5.9574-.7681,11.8421-1.9478,17.6933-3.3022A212.2087,212.2087,0,0,0,244.42,208.6953a3.9456,3.9456,0,0,0,1.5639-1.4434,120.5307,120.5307,0,0,0,16.9909-46.2778c.1206-.8044.1826-1.6175.2735-2.44a9.22,9.22,0,0,1-5.6473-3.6358,15.4071,15.4071,0,0,1-1.3809-2.1873,19.5722,19.5722,0,0,1-2.0013-7.2459,21.2557,21.2557,0,0,1,1.5468-10.5553C257.1886,131.59,259.3675,129.0235,263.2222,128.1065Zm8.2287,15.2033c-.1838-1.4-.2866-2.8166-.57-4.1961a11.7061,11.7061,0,0,0-3.0868-6.2186,4.52,4.52,0,0,0-6.8737.0234,9.1549,9.1549,0,0,0-2.0121,2.9927,18.82,18.82,0,0,0-.2563,14.24,9.312,9.312,0,0,0,2.5536,3.8517,4.4845,4.4845,0,0,0,6.2854.0379,9.2255,9.2255,0,0,0,2.3341-3.2626A19.4854,19.4854,0,0,0,271.4509,143.31Z"/>
    <path d="M143.3574,170.9849q-45.552,0-91.1038.01a18.1113,18.1113,0,0,1-9.7089-2.4758,17.5862,17.5862,0,0,1-8.9491-15.4252c-.1245-6.5-.0662-13.0047-.0172-19.5068A18.0177,18.0177,0,0,1,47.796,116.0818a23.4657,23.4657,0,0,1,4.836-.45q44.2548-.0387,88.51-.0189,46.59,0,93.1791-.0023a18.3786,18.3786,0,0,1,9.9934,2.6,17.6254,17.6254,0,0,1,8.82,15.496c.0861,6.4668.0281,12.9356.0162,19.4034a18.0006,18.0006,0,0,1-14.9774,17.5826,25.0971,25.0971,0,0,1-4.0235.28Q188.7536,170.996,143.3574,170.9849Zm-.0377-52.0385q-45.4434,0-90.8868.01a20.608,20.608,0,0,0-3.5049.2492,14.7284,14.7284,0,0,0-12.05,14.44c.0533,6.4668-.0686,12.9357.0345,19.4013.1,6.2736,3.1763,10.7228,8.8,13.4223a15.05,15.05,0,0,0,6.6586,1.2447q90.9907-.02,181.9815-.0109.5706,0,1.1412-.0094a13.99,13.99,0,0,0,8.627-3.0677,14.6981,14.6981,0,0,0,5.7767-12.0871c.0249-5.8792.0115-11.7586,0-17.6379a24.2783,24.2783,0,0,0-.1333-2.69,14.46,14.46,0,0,0-7.7635-11.5574,15.1684,15.1684,0,0,0-7.5864-1.7188Q188.8669,118.9625,143.32,118.9464Z"/>
    <path d="M75.5036,88.839a20.2051,20.2051,0,0,1,2.9745-11.0249,14.6866,14.6866,0,0,1,8.1058-6.2858,160.9208,160.9208,0,0,1,19.2374-4.9156c4.0684-.7592,8.1546-1.4445,12.2539-2.01,3.1438-.4337,6.3188-.6484,9.4831-.9251a166.2981,166.2981,0,0,1,19.17-.5343c4.0064.1126,8.0152.3,12.0105.6119,6.1266.4786,12.2241,1.23,18.2982,2.1885,6.9219,1.0923,13.7975,2.4164,20.6056,4.059,5.45,1.315,9.1631,4.8034,11.4461,9.8434a20.813,20.813,0,0,1,1.5845,11.5552,35.2264,35.2264,0,0,1-.47,3.6943c-1.4989,6.1462-5.29,10.0264-11.5326,11.3791a16.6953,16.6953,0,0,1-5.365.0234q-2.7278-.294-5.4583-.5619c-1.9585-.194-3.9168-.3912-5.8775-.56q-2.9937-.2573-5.9922-.46-4.6017-.3149-9.2058-.5937-2.5875-.154-5.1793-.2349c-3.8012-.1246-7.6026-.3035-11.4048-.326-6.4655-.0382-12.9319.0007-19.3975.06-3.3185.03-6.6376.1366-9.9534.2788-3.0029.1287-6.002.347-9.0021.5365-2.4134.1525-4.8274.3013-7.2383.4883-1.9617.1522-3.92.3543-5.8785.5421-2.3712.2272-4.7443.4386-7.1113.7035a14.3307,14.3307,0,0,1-4.2271.004,12.326,12.326,0,0,1-8.4983-5.5823,21.7484,21.7484,0,0,1-3.2852-10.3687C75.551,89.8035,75.5233,89.1815,75.5036,88.839Zm65.8613,11.6472v-.0591c1.6253,0,3.251-.0238,4.8758.0046,4.2171.0739,8.4351.1281,12.65.272,3.4182.1168,6.8326.3467,10.2481.5375,2.76.1541,5.5207.2916,8.2767.4972,2.8578.2132,5.7112.4885,8.5646.757,2.715.2554,5.4239.5847,8.1426.7868a15.0416,15.0416,0,0,0,4.0245-.0707c4.7914-.9641,7.6762-4.0039,8.8237-8.691a37.4571,37.4571,0,0,0,.4809-3.7995,17.0886,17.0886,0,0,0-1.2344-9.2334c-1.9067-4.435-5.0916-7.4253-9.9122-8.4468-4.7893-1.0148-9.5759-2.0482-14.3849-2.9614-3.2166-.6108-6.4667-1.0514-9.7088-1.52q-3.4305-.4958-6.88-.857c-2.8142-.2962-5.6338-.5444-8.454-.7781q-2.3751-.197-4.7594-.2773c-3.592-.1247-7.1852-.3006-10.7777-.2957-3.2811.0046-6.5643.1764-9.8422.3548-3.0333.1651-6.0737.3282-9.0878.6874-4.1764.4977-8.342,1.1116-12.4926,1.7947a167.0534,167.0534,0,0,0-21.9069,5.3011,11.8407,11.8407,0,0,0-7.9185,7.3391c-2.1868,5.62-1.5971,11.1135,1.09,16.4352A9.186,9.186,0,0,0,85.63,102.45a8.2153,8.2153,0,0,0,4.2253.8242c2.6483-.2227,5.2881-.5462,7.9346-.7928,3.6786-.3427,7.3574-.6914,11.0414-.9666q5.1675-.3859,10.3463-.6179c3.7978-.176,7.5981-.3266,11.3991-.3968C134.1715,100.434,137.7687,100.4862,141.3649,100.4862Z"/>
    <path d="M143.7729,196.8526c-4.2877,0-8.5771-.0758-12.8626.0217a8.8954,8.8954,0,0,1-8.9828-8.9253,44.2991,44.2991,0,0,1,.1825-6.0007,8.595,8.595,0,0,1,7.1555-7.2278,11.1264,11.1264,0,0,1,1.7475-.1773q12.8112-.017,25.6225-.0039a8.8682,8.8682,0,0,1,8.61,6.1,7.6977,7.6977,0,0,1,.4311,2.2276,53.6952,53.6952,0,0,1-.1046,6.4178,8.6716,8.6716,0,0,1-8.5215,7.5666c-.0691.0007-.1383.0007-.2074.0007Zm.0829-3.2391v-.0017c4.3576,0,8.7154.0242,13.0727-.0083a5.4893,5.4893,0,0,0,5.4636-5.3944c.0426-1.6934.0445-3.39-.0057-5.0832a5.43,5.43,0,0,0-4.0326-5.0777,9.3479,9.3479,0,0,0-2.2623-.2061q-11.5684-.021-23.1369-.0084c-.7263,0-1.4526-.0031-2.1788.0064a5.564,5.564,0,0,0-5.543,5.6559c.0356,1.4863-.0129,2.9745.016,4.461a6.3866,6.3866,0,0,0,.2184,1.6346,5.4984,5.4984,0,0,0,5.3157,4.0158C135.1405,193.6292,139.4981,193.6135,143.8558,193.6135Z"/>
    <path d="M143.9476,203.2165c2.5925.0005,5.1859-.0431,7.7772.0113a8.6411,8.6411,0,0,1,7.7194,4.4274,9.0069,9.0069,0,0,1-5.905,13.4044,10.135,10.135,0,0,1-2.1633.1912q-7.57.0236-15.14.0041a8.8438,8.8438,0,0,1-7.7044-3.9131,9.0067,9.0067,0,0,1,5.1824-13.8153,10.5289,10.5289,0,0,1,2.4565-.2968C138.7623,203.1928,141.3551,203.2161,143.9476,203.2165Zm-.2289,14.7081q4.0974,0,8.195-.0008a5.1555,5.1555,0,0,0,4.4066-2.3114,5.58,5.58,0,0,0,.4973-5.8993,5.2068,5.2068,0,0,0-4.948-3.1715c-5.3595-.0273-10.7192-.0171-16.0787.0031a5.5907,5.5907,0,0,0-1.7265.2744,5.686,5.686,0,0,0-3.732,6.4224,5.5288,5.5288,0,0,0,5.5025,4.68C138.4627,217.9405,141.0907,217.9254,143.7187,217.9246Z"/>
    <path d="M128.1044,143.3555a15.264,15.264,0,1,1,15.2382,15.228A15.2337,15.2337,0,0,1,128.1044,143.3555Zm15.2438,11.92a11.9706,11.9706,0,0,0,.0821-23.941,11.9706,11.9706,0,1,0-.0821,23.941Z"/>
    <path d="M110.2071,143.3821a15.2551,15.2551,0,1,1-30.51-.1151,15.2551,15.2551,0,1,1,30.51.1151ZM94.921,155.2751a11.97,11.97,0,1,0-11.9376-12.0307A11.9269,11.9269,0,0,0,94.921,155.2751Z"/>
    <path d="M177.6047,142.9422a15.3172,15.3172,0,0,1,5.4343-11.6153,13.209,13.209,0,0,1,17.459.02c7.5473,6.4053,7.078,18.9012-.932,24.6852a12.8135,12.8135,0,0,1-8.3557,2.552A13.5928,13.5928,0,0,1,180.5,152.5476,16.1362,16.1362,0,0,1,177.6047,142.9422Zm3.2969.191a12.4088,12.4088,0,0,0,3.6225,9.1307,10.0773,10.0773,0,0,0,14.3524.0985,12.8131,12.8131,0,0,0-.1665-18.234,10.03,10.03,0,0,0-14.0419.1224A12.2031,12.2031,0,0,0,180.9016,143.1332Z"/>
    <path d="M220.3352,143.8841c.0008-4.86,1.3212-9.2131,4.93-12.6575a10.8839,10.8839,0,0,1,7.56-3.1653,11.1438,11.1438,0,0,1,8.4019,3.6482,15.6565,15.6565,0,0,1,4.1651,8.5322,17.396,17.396,0,0,1-2.0638,11.9074,12.19,12.19,0,0,1-7.2611,5.9792,10.756,10.756,0,0,1-10.8916-2.7934,15.6674,15.6674,0,0,1-4.6992-9.7976C220.4062,144.9891,220.3811,144.4353,220.3352,143.8841Zm22.0848-.554c-.1228-1.027-.172-2.0694-.3821-3.0782a11.5345,11.5345,0,0,0-4.7029-7.5453,7.5332,7.5332,0,0,0-8.8279.0928,9.6561,9.6561,0,0,0-3.07,3.461,14.4251,14.4251,0,0,0,.0854,14.2744,9.1812,9.1812,0,0,0,3.4756,3.6287,7.4845,7.4845,0,0,0,7.9669.0217,8.9749,8.9749,0,0,0,2.6141-2.3351A14.0781,14.0781,0,0,0,242.42,143.33Z"/>
    <path d="M164.4981,136.8755a7.4007,7.4007,0,1,1,.1082-14.8009,7.4007,7.4007,0,1,1-.1082,14.8009Zm4.1672-7.3676a4.0628,4.0628,0,0,0-4.13-4.1428,4.1361,4.1361,0,1,0,4.13,4.1428Z"/>
    <path d="M157.1438,157.1494a7.4207,7.4207,0,1,1,7.4463,7.4192A7.3568,7.3568,0,0,1,157.1438,157.1494Zm7.3719,4.1183a4.0494,4.0494,0,0,0,4.1558-4.104,4.1314,4.1314,0,0,0-8.2626-.0608A4.0573,4.0573,0,0,0,164.5157,161.2677Z"/>
    <path d="M122.6316,136.8756a7.4013,7.4013,0,1,1-.038-14.8025,7.4013,7.4013,0,1,1,.038,14.8025Zm.1165-11.5054a4.1156,4.1156,0,0,0-4.2731,3.9064,4.1692,4.1692,0,0,0,3.9434,4.3588,4.1183,4.1183,0,0,0,4.3115-3.9761A4.07,4.07,0,0,0,122.7481,125.37Z"/>
    <path d="M115.2164,157.0589a7.4125,7.4125,0,1,1,7.3449,7.51A7.3379,7.3379,0,0,1,115.2164,157.0589Zm7.3877,4.2089a4.0553,4.0553,0,0,0,4.1324-4.1321,4.1407,4.1407,0,0,0-4.0713-4.1139,4.1831,4.1831,0,0,0-4.1977,4.1083A4.0989,4.0989,0,0,0,122.6041,161.2678Z"/>
    <rect class="a" x="0.125" y="0.125" width="286.2732" height="286.2732"/>
  </g>
</svg>
