<svg xmlns="http://www.w3.org/2000/svg" viewBox="0 0 108.0504 198.0744">
  <defs>
    <style>
      .a {
        fill: none;
        stroke: #000;
        stroke-miterlimit: 10;
        stroke-width: 0.25px;
      }
    </style>
  </defs>
  <title>cheek right lineart</title>
  <g>
    <path d="M.125,166.3929c1.81-1.1762,3.6244-2.3458,5.4293-3.53,4.7383-3.1089,9.5067-6.1736,14.1989-9.3506A79.7848,79.7848,0,0,0,33.609,141.8453a42.5444,42.5444,0,0,0,9.206-14.6966,41.11,41.11,0,0,0,2.3321-11.1214c.2326-3.515.3883-7.042.3928-10.564q.0483-37.9782.0028-75.9564a.9212.9212,0,0,1,.6427-.9892Q76.7949,14.4495,107.3929.3563c.1537-.0708.31-.135.5325-.2313.0116.2269.0287.406.0287.585q.0018,62.4671-.0117,124.9339a47.6329,47.6329,0,0,1-3.4262,18.4262,39.992,39.992,0,0,1-11.6728,15.4328,77.324,77.324,0,0,1-14.33,9.1778c-6.5449,3.3765-13.382,6.0964-20.1528,8.9635q-23.2233,9.8338-46.4617,19.6323A8.4453,8.4453,0,0,1,.3367,191.2084c-.0668-.3172-.141-.6329-.2117-.9493ZM104.8387,4.9817c-.2628.111-.435.1784-.6028.2555q-1.953.8969-3.9045,1.797Q74.79,18.7946,49.2436,30.5425a.92.92,0,0,0-.6382.9941q.0222,37.6128.0183,75.2257a87.203,87.203,0,0,1-.7281,12.4528,46.3643,46.3643,0,0,1-2.4442,9.7609A46.5467,46.5467,0,0,1,34.6942,145.24a80.1378,80.1378,0,0,1-12.35,10.2559c-6.1579,4.1571-12.3966,8.1945-18.61,12.27a.9534.9534,0,0,0-.49.9176q.021,10.2981.0149,20.5962a6.6275,6.6275,0,0,0,.1164,1.2326,5.3561,5.3561,0,0,0,7.2625,3.9157q23.1308-9.77,46.2587-19.5464c6.7541-2.8589,13.5773-5.5635,20.1074-8.9277a76.9574,76.9574,0,0,0,13.1751-8.3054,37.324,37.324,0,0,0,11.4-14.5972,43.7794,43.7794,0,0,0,3.2454-17.18q.0384-60.1287.0134-120.2575Z"/>
    <path d="M101.4906,67.7637q0,24.9553-.0055,49.9108a5.3468,5.3468,0,0,1-.1377,1.3843,3.5389,3.5389,0,0,1-6.4409.9562,27.1986,27.1986,0,0,0-3.8651-4.8595,23.6071,23.6071,0,0,0-12.4764-6.5263,31.2436,31.2436,0,0,0-8.2505-.5054,25.6436,25.6436,0,0,0-12.9011,4.48,3.5343,3.5343,0,0,1-4.8291-.3969,3.3659,3.3659,0,0,1-.92-2.3019c-.0019-.1557-.0016-.3113-.0016-.467q0-36.1879-.0089-72.376A3.7164,3.7164,0,0,1,54.02,33.355q14.0961-6.4069,28.1822-12.8361,7.0447-3.21,14.09-6.42a3.509,3.509,0,0,1,4.8681,1.7316,4.943,4.943,0,0,1,.3174,1.8665q.0251,22.8283.0131,45.6566Zm-3.1892-.062q0-25.0047,0-50.0093c0-.857-.152-.9651-.8772-.6346q-20.9211,9.533-41.8481,19.0533A1.1129,1.1129,0,0,0,54.811,37.31q.0265,35.9765.0151,71.9529c0,.1556-.007.3118.0033.4667.0309.4647.2911.5926.6887.3343.3768-.2446.7384-.5131,1.12-.7489a29.6158,29.6158,0,0,1,16.9771-4.3971,34.9082,34.9082,0,0,1,7.3152,1.01,26.7393,26.7393,0,0,1,15.22,10.3061c.4865.6491.9076,1.3471,1.3863,2.0026.1019.14.3227.1923.4887.2851a2.1907,2.1907,0,0,0,.2629-.5014,2.7653,2.7653,0,0,0,.0126-.62Q98.3016,92.5507,98.3014,67.7017Z"/>
    <path d="M72.6,110.5322A24.0375,24.0375,0,1,1,48.54,134.5243,24,24,0,0,1,72.6,110.5322Zm-.0123,3.1339a20.89,20.89,0,1,0,20.898,20.8455A20.9119,20.9119,0,0,0,72.5878,113.6661Z"/>
    <path d="M22.1967,178.95a12.5678,12.5678,0,0,1-2.1178,7.1442c-3.0441,4.4053-8.5915,4.4175-11.6518.0238a11.8573,11.8573,0,0,1-2.02-5.69A12.9884,12.9884,0,0,1,7.77,172.85a7.5613,7.5613,0,0,1,4.9545-4.1778c2.8653-.6783,5.1524.4047,6.9607,2.5994a11.0465,11.0465,0,0,1,2.3638,5.8733C22.12,177.7442,22.1487,178.3482,22.1967,178.95Zm-3.135.0091c-.0959-.7676-.1422-1.5454-.2981-2.3a7.078,7.078,0,0,0-2.2237-4.11,3.2685,3.2685,0,0,0-2.7124-.8758,4.364,4.364,0,0,0-3.1515,2.4514,9.9515,9.9515,0,0,0-1.0287,6.7151,7.7271,7.7271,0,0,0,1.8334,4.0442,3.5863,3.5863,0,0,0,2.9562,1.34,3.9306,3.9306,0,0,0,3.035-1.9228A9.5349,9.5349,0,0,0,19.0617,178.959Z"/>
    <path d="M72.6076,72.45a13.3568,13.3568,0,1,1-13.3713,12.962A13.2993,13.2993,0,0,1,72.6076,72.45Zm-.027,3.1637A10.1985,10.1985,0,1,0,82.7979,85.8156,10.1646,10.1646,0,0,0,72.5806,75.6139Z"/>
    <path d="M97.18,33.5672a12.9359,12.9359,0,0,1-2.058,7.3559c-3.178,4.6176-8.87,4.5279-11.9114-.19a12.205,12.205,0,0,1-1.883-6.3686,12.59,12.59,0,0,1,1.7847-7.2215A7.4086,7.4086,0,0,1,87.6531,23.6a6.4667,6.4667,0,0,1,6.5348,2.0436A10.6838,10.6838,0,0,1,96.9607,31.55C97.0842,32.3151,97.13,33.0924,97.18,33.5672Zm-3.1543.0517c-.0558-.4537-.1025-1.1616-.2358-1.8527a7.4193,7.4193,0,0,0-2.1179-4.1741,3.3471,3.3471,0,0,0-4.9052.0468,7.7612,7.7612,0,0,0-1.2291,1.65,8.7321,8.7321,0,0,0-1.0553,4.1166,9.2317,9.2317,0,0,0,1.6328,5.9694,3.8994,3.8994,0,0,0,2.7011,1.75,3.7112,3.7112,0,0,0,3.527-1.75A9.6774,9.6774,0,0,0,94.0252,33.6189Z"/>
    <path d="M97.1783,55.7529a12.44,12.44,0,0,1-2.4924,7.808,6.6732,6.6732,0,0,1-10.6308.3362,10.8365,10.8365,0,0,1-2.5657-5.68A13.193,13.193,0,0,1,82.7,49.9111a7.9249,7.9249,0,0,1,4.6065-4.1639,6.7589,6.7589,0,0,1,7.4656,2.6148A11.6014,11.6014,0,0,1,97.0763,54.53C97.1166,54.9939,97.1538,55.4581,97.1783,55.7529Zm-12.7047.3025c.0092.2064.0049.5882.0464.965a8.3477,8.3477,0,0,0,1.9987,4.8944,3.4058,3.4058,0,0,0,5.274.1185,7.1587,7.1587,0,0,0,1.2824-1.8611,10.0023,10.0023,0,0,0,.6476-6.6635,6.9951,6.9951,0,0,0-2.3352-4.1023,3.1851,3.1851,0,0,0-4.1481-.0944,7.5556,7.5556,0,0,0-1.6776,1.9973A8.9227,8.9227,0,0,0,84.4736,56.0554Z"/>
    <path d="M72.5694,117.698a16.8582,16.8582,0,1,1-16.8376,16.5449A16.85,16.85,0,0,1,72.5694,117.698Zm.0007,30.55a13.6955,13.6955,0,1,0-13.6849-13.73A13.6252,13.6252,0,0,0,72.57,148.2475Z"/>
    <rect class="a" x="0.125" y="0.125" width="107.8004" height="197.8244"/>
  </g>
</svg>
