<svg xmlns="http://www.w3.org/2000/svg" viewBox="0 0 108.0417 197.9091">
  <defs>
    <style>
      .a {
        fill: none;
        stroke: #000;
        stroke-miterlimit: 10;
        stroke-width: 0.25px;
      }
    </style>
  </defs>
  <title>cheek left lineart</title>
  <g>
    <path d="M108.0417,189.8093c-.1371.6545-.2339,1.32-.4176,1.9615a8.4205,8.4205,0,0,1-11.4388,5.4539q-28.4194-12.0132-56.8371-24.031a114.3022,114.3022,0,0,1-18.8434-9.8377A49.9058,49.9058,0,0,1,8.8177,152.8815,38.7887,38.7887,0,0,1,1.17,135.8532a54.8171,54.8171,0,0,1-.9618-8.8509,2.1148,2.1148,0,0,0-.0831-.3865V.125A5.2273,5.2273,0,0,1,.7043.3157Q20.7455,9.5363,40.784,18.763q10.6546,4.9044,21.31,9.807c.1566.0721.31.1508.498.2424v.66q0,39.5845.0085,79.1692A65.2035,65.2035,0,0,0,63.7893,121.68a40.74,40.74,0,0,0,9.8211,19.131A78.2229,78.2229,0,0,0,88.67,153.6792c6.3524,4.2691,12.7873,8.4152,19.1876,12.6129a.83.83,0,0,0,.1843.0661ZM3.2666,4.9161v.8261q0,59.5586.0026,119.1171c0,.8116.0341,1.6233.0613,2.4347a50.19,50.19,0,0,0,1.08,8.9282,35.3069,35.3069,0,0,0,7.8239,15.9091,50.0918,50.0918,0,0,0,11.0236,9.2933,116.2235,116.2235,0,0,0,17.6312,9.0488q26.7647,11.3458,53.5532,22.6352a31.9421,31.9421,0,0,0,3.7374,1.5166,5.4112,5.4112,0,0,0,6.7129-5.2807c.0053-6.9173-.0024-13.8347.0118-20.752a.8589.8589,0,0,0-.4594-.8241c-5.6145-3.6644-11.2462-7.3037-16.8212-11.0275A85.6488,85.6488,0,0,1,72.12,143.8241a47.6222,47.6222,0,0,1-7.9-11.3066,44.9556,44.9556,0,0,1-4.3172-16.0987c-.2713-3.0937-.4172-6.2084-.4213-9.3139q-.0489-37.8217-.0139-75.6435c0-.4182-.0344-.7073-.5071-.9244Q33.1481,18.6833,7.3526,6.7934C6.023,6.1812,4.6925,5.5712,3.2666,4.9161Z"/>
    <path d="M6.6337,67.6529q0-25.0337-.0037-50.0671a3.6,3.6,0,0,1,2.174-3.6214,3.503,3.503,0,0,1,3.0062.0872q8.3138,3.7986,16.634,7.583,12.9119,5.8842,25.8237,11.7687a3.5263,3.5263,0,0,1,2.2141,3.4409q.009,36.396.0007,72.7919a3.4645,3.4645,0,0,1-1.8971,3.2735,3.369,3.369,0,0,1-3.7194-.2386,25.1259,25.1259,0,0,0-11.5377-4.4063,28.61,28.61,0,0,0-15.4,2.1119A24.0982,24.0982,0,0,0,13.4091,119.7a3.85,3.85,0,0,1-2.3673,1.8725,3.5589,3.5589,0,0,1-4.3938-3.2306c-.0182-.2757-.0138-.5531-.0138-.83Q6.6333,92.5827,6.6337,67.6529Zm3.17-.0283v49.8588a1.5346,1.5346,0,0,0,.01.4639,3.295,3.295,0,0,0,.2908.5388,2.279,2.279,0,0,0,.4917-.2916,3.0928,3.0928,0,0,0,.3422-.5169A26.9682,26.9682,0,0,1,25.025,106.5417a32.7592,32.7592,0,0,1,14.4552-1.453,28.5693,28.5693,0,0,1,10.2656,3.1919c.987.53,1.9171,1.1664,2.8731,1.7544.3879.2386.6617.1058.7014-.3444.009-.103.0021-.2074.0021-.3111q0-36.136.01-72.272a.89.89,0,0,0-.6025-.9434q-19.1861-8.7247-38.3626-17.47-1.8379-.8375-3.6759-1.6749c-.684-.3111-.8833-.1893-.8878.5391-.0008.1383,0,.2767,0,.415Z"/>
    <path d="M35.5466,110.4975a24.0379,24.0379,0,1,1-24.0626,23.52A23.9885,23.9885,0,0,1,35.5466,110.4975Zm.0368,3.134A20.89,20.89,0,1,0,56.4217,135.05,20.8991,20.8991,0,0,0,35.5834,113.6315Z"/>
    <path d="M101.8264,178.6287a12.7177,12.7177,0,0,1-2.1842,7.5279c-3.1672,4.3693-8.6049,4.2868-11.6478-.172a11.9906,11.9906,0,0,1-1.9963-6.1239,12.8261,12.8261,0,0,1,1.5083-7.242,7.5279,7.5279,0,0,1,4.8666-3.9867,6.536,6.536,0,0,1,6.7224,2.3425,10.9187,10.9187,0,0,1,2.5316,5.6935C101.7443,177.3991,101.7788,178.1435,101.8264,178.6287Zm-3.1523.21c-.03-.3457-.0542-.7769-.1055-1.2048a8.2625,8.2625,0,0,0-1.9838-4.7388,3.3986,3.3986,0,0,0-5.1268-.2476,6.6519,6.6519,0,0,0-1.2447,1.6362,9.7745,9.7745,0,0,0-.9945,6.1721,7.9682,7.9682,0,0,0,1.8332,4.32,3.779,3.779,0,0,0,2.355,1.3858,3.6579,3.6579,0,0,0,3.4882-1.6136A9.4454,9.4454,0,0,0,98.6741,178.839Z"/>
    <path d="M22.1926,85.75A13.3594,13.3594,0,1,1,35.3478,99.12,13.3372,13.3372,0,0,1,22.1926,85.75Zm3.1638.0358A10.1956,10.1956,0,1,0,35.5446,75.5736,10.155,10.155,0,0,0,25.3564,85.7857Z"/>
    <path d="M10.9708,55.83a11.8535,11.8535,0,0,1,2.5412-7.687c3.1237-3.7747,8.1017-3.6211,11.026.3135A11.7258,11.7258,0,0,1,26.7367,54.4a13.004,13.004,0,0,1-1.3661,7.5754,7.5622,7.5622,0,0,1-4.86,4.1458c-2.9692.741-5.3248-.39-7.1509-2.7064A11.9774,11.9774,0,0,1,10.9708,55.83Zm3.1595.2541c.0313.35.0522.9381.1415,1.5154a8.0074,8.0074,0,0,0,1.8457,4.2019,3.4454,3.4454,0,0,0,5.3881.168,5.9019,5.9019,0,0,0,.8827-1.1431,9.9714,9.9714,0,0,0,1.0974-6.8992A7.86,7.86,0,0,0,21.664,49.93a3.4931,3.4931,0,0,0-5.5045-.019A8.9783,8.9783,0,0,0,14.13,56.0842Z"/>
    <path d="M10.97,34.1061a12.4008,12.4008,0,0,1,2.31-7.7252,6.7452,6.7452,0,0,1,11.3369.1459,12.4428,12.4428,0,0,1,2.1278,8.7043,11.5892,11.5892,0,0,1-2.26,6.08A6.9814,6.9814,0,0,1,20.2214,44.14a6.6141,6.6141,0,0,1-6.6-2.445,11.1754,11.1754,0,0,1-2.5166-5.92C11.0135,35.128,10.9981,34.47,10.97,34.1061Zm3.16-.0518c.0316.3511.0519.9393.1427,1.5164A8.0245,8.0245,0,0,0,16.13,39.77a3.4549,3.4549,0,0,0,5.39.1258,7.1757,7.1757,0,0,0,1.1916-1.7392,9.9892,9.9892,0,0,0,.7781-6.2556,7.724,7.724,0,0,0-1.8818-4.0763,3.4615,3.4615,0,0,0-5.4631.0538A8.9805,8.9805,0,0,0,14.1307,34.0543Z"/>
    <path d="M18.6705,134.4958A16.8611,16.8611,0,1,1,35.536,151.38,16.8879,16.8879,0,0,1,18.6705,134.4958Zm30.55.0282a13.7,13.7,0,1,0-13.704,13.6923A13.6717,13.6717,0,0,0,49.22,134.524Z"/>
    <rect class="a" x="0.125" y="0.125" width="107.6366" height="197.4665"/>
  </g>
</svg>
