<svg xmlns="http://www.w3.org/2000/svg" viewBox="0 0 108.0504 198.0744">
  <defs>
    <style>
      .a {
        fill: #fff;
      }

      .b {
        fill: none;
        stroke: #000;
        stroke-miterlimit: 10;
        stroke-width: 0.25px;
      }
    </style>
  </defs>
  <title>cheek right color</title>
  <g>
    <path class="a" d="M104.8387,4.9817v.6318q0,60.1287-.0134,120.2575a43.7794,43.7794,0,0,1-3.2454,17.18,37.324,37.324,0,0,1-11.4,14.5972,76.9574,76.9574,0,0,1-13.1751,8.3054c-6.53,3.3642-13.3533,6.0688-20.1074,8.9277q-23.1231,9.7878-46.2587,19.5464a5.3561,5.3561,0,0,1-7.2625-3.9157,6.6275,6.6275,0,0,1-.1164-1.2326q-.01-10.2981-.0149-20.5962a.9534.9534,0,0,1,.49-.9176c6.2131-4.0751,12.4518-8.1125,18.61-12.27a80.1378,80.1378,0,0,0,12.35-10.2559A46.5467,46.5467,0,0,0,45.4514,128.976a46.3643,46.3643,0,0,0,2.4442-9.7609,87.203,87.203,0,0,0,.7281-12.4528q-.0164-37.6128-.0183-75.2257a.92.92,0,0,1,.6382-.9941Q74.7951,18.8047,100.3314,7.0342q1.9521-.8988,3.9045-1.797C104.4037,5.16,104.5759,5.0927,104.8387,4.9817Zm-3.3481,62.782v-4.41q0-22.8284-.0131-45.6566a4.943,4.943,0,0,0-.3174-1.8665A3.509,3.509,0,0,0,96.292,14.099q-7.0473,3.2047-14.09,6.42-14.09,6.42-28.1822,12.8361a3.7164,3.7164,0,0,0-2.3667,3.7072q.02,36.1881.0089,72.376c0,.1557,0,.3113.0016.467a3.3659,3.3659,0,0,0,.92,2.3019,3.5343,3.5343,0,0,0,4.8291.3969,25.6436,25.6436,0,0,1,12.9011-4.48,31.2436,31.2436,0,0,1,8.2505.5054,23.6071,23.6071,0,0,1,12.4764,6.5263,27.1986,27.1986,0,0,1,3.8651,4.8595,3.5389,3.5389,0,0,0,6.4409-.9562,5.3468,5.3468,0,0,0,.1377-1.3843Q101.4949,92.7192,101.4906,67.7637ZM72.6,110.5322A24.0375,24.0375,0,1,0,96.6457,134.537,24.0479,24.0479,0,0,0,72.6,110.5322ZM22.1967,178.95c-.048-.6017-.0764-1.2057-.1475-1.8046a11.0465,11.0465,0,0,0-2.3638-5.8733c-1.8083-2.1947-4.0954-3.2777-6.9607-2.5994A7.5613,7.5613,0,0,0,7.77,172.85a12.9884,12.9884,0,0,0-1.3629,7.5771,11.8573,11.8573,0,0,0,2.02,5.69c3.06,4.3937,8.6077,4.3815,11.6518-.0238A12.5678,12.5678,0,0,0,22.1967,178.95Z"/>
    <path class="a" d="M98.3015,67.7017q0,24.849,0,49.698a2.7653,2.7653,0,0,1-.0126.62,2.1907,2.1907,0,0,1-.2629.5014c-.166-.0928-.3868-.1456-.4887-.2851-.4787-.6555-.9-1.3535-1.3863-2.0026a26.7393,26.7393,0,0,0-15.22-10.3061,34.9082,34.9082,0,0,0-7.3152-1.01,29.6158,29.6158,0,0,0-16.9771,4.3971c-.382.2358-.7436.5043-1.12.7489-.3976.2583-.6578.13-.6887-.3343-.01-.1549-.0033-.3111-.0033-.4667q0-35.9764-.0151-71.9529a1.1129,1.1129,0,0,1,.7647-1.1988q20.9325-9.5083,41.8481-19.0533c.7252-.3305.8772-.2224.8772.6346Q98.3019,42.6971,98.3015,67.7017ZM72.6076,72.45A13.3568,13.3568,0,1,0,85.94,86.0644,13.3752,13.3752,0,0,0,72.6076,72.45ZM97.18,33.5672c-.05-.4748-.0953-1.2521-.2188-2.0168a10.6838,10.6838,0,0,0-2.7728-5.9069A6.4667,6.4667,0,0,0,87.6531,23.6a7.4086,7.4086,0,0,0-4.5413,3.5435,12.59,12.59,0,0,0-1.7847,7.2215,12.205,12.205,0,0,0,1.883,6.3686c3.0416,4.7175,8.7334,4.8072,11.9114.19A12.9359,12.9359,0,0,0,97.18,33.5672Zm-.0012,22.1857c-.0245-.2948-.0617-.759-.102-1.223a11.6014,11.6014,0,0,0-2.3041-6.1679,6.7589,6.7589,0,0,0-7.4656-2.6148A7.9249,7.9249,0,0,0,82.7,49.9111a13.193,13.193,0,0,0-1.2107,8.3063,10.8365,10.8365,0,0,0,2.5657,5.68,6.6732,6.6732,0,0,0,10.6308-.3362A12.44,12.44,0,0,0,97.1783,55.7529Z"/>
    <path class="a" d="M72.5878,113.6661a20.89,20.89,0,1,1-20.8864,20.8044A20.8918,20.8918,0,0,1,72.5878,113.6661Zm-.0184,4.0319A16.8582,16.8582,0,1,0,89.45,134.6089,16.8617,16.8617,0,0,0,72.5694,117.698Z"/>
    <path class="a" d="M19.0617,178.959a9.5349,9.5349,0,0,1-1.59,5.3418,3.9306,3.9306,0,0,1-3.035,1.9228,3.5863,3.5863,0,0,1-2.9562-1.34,7.7271,7.7271,0,0,1-1.8334-4.0442,9.9515,9.9515,0,0,1,1.0287-6.7151,4.364,4.364,0,0,1,3.1515-2.4514,3.2685,3.2685,0,0,1,2.7124.8758,7.078,7.078,0,0,1,2.2237,4.11C18.92,177.4136,18.9658,178.1914,19.0617,178.959Z"/>
    <path class="a" d="M72.5806,75.6139A10.1985,10.1985,0,1,1,62.4011,85.79,10.1893,10.1893,0,0,1,72.5806,75.6139Z"/>
    <path class="a" d="M94.0252,33.6189a9.6774,9.6774,0,0,1-1.6824,5.7551,3.7112,3.7112,0,0,1-3.527,1.75,3.8994,3.8994,0,0,1-2.7011-1.75,9.2317,9.2317,0,0,1-1.6328-5.9694,8.7321,8.7321,0,0,1,1.0553-4.1166,7.7612,7.7612,0,0,1,1.2291-1.65,3.3471,3.3471,0,0,1,4.9052-.0468,7.4193,7.4193,0,0,1,2.1179,4.1741C93.9227,32.4573,93.9694,33.1652,94.0252,33.6189Z"/>
    <path class="a" d="M84.4736,56.0554a8.9227,8.9227,0,0,1,1.0882-4.7461,7.5556,7.5556,0,0,1,1.6776-1.9973,3.1851,3.1851,0,0,1,4.1481.0944,6.9951,6.9951,0,0,1,2.3352,4.1023,10.0023,10.0023,0,0,1-.6476,6.6635,7.1587,7.1587,0,0,1-1.2824,1.8611,3.4058,3.4058,0,0,1-5.274-.1185A8.3477,8.3477,0,0,1,84.52,57.02C84.4785,56.6436,84.4828,56.2618,84.4736,56.0554Z"/>
    <path class="a" d="M72.57,148.2475a13.6955,13.6955,0,1,1,13.7221-13.6846A13.7028,13.7028,0,0,1,72.57,148.2475Z"/>
    <rect class="b" x="0.125" y="0.125" width="107.8004" height="197.8244"/>
  </g>
</svg>
