<svg xmlns="http://www.w3.org/2000/svg" viewBox="0 0 107.8866 197.7165">
  <defs>
    <style>
      .a {
        fill: #fff;
      }

      .b {
        fill: none;
        stroke: #000;
        stroke-miterlimit: 10;
        stroke-width: 0.25px;
      }
    </style>
  </defs>
  <title>cheek left color</title>
  <g>
    <path class="a" d="M3.2666,4.9161c1.4259.6551,2.7564,1.2651,4.086,1.8773Q33.1534,18.6721,58.96,30.537c.4727.2171.5072.5062.5071.9244q-.0073,37.8217.0139,75.6435c.0041,3.1055.15,6.22.4213,9.3139A44.9556,44.9556,0,0,0,64.22,132.5175a47.6222,47.6222,0,0,0,7.9,11.3066,85.6488,85.6488,0,0,0,15.5041,12.9168c5.575,3.7238,11.2067,7.3631,16.8212,11.0275a.8589.8589,0,0,1,.4594.8241c-.0142,6.9173-.0065,13.8347-.0118,20.752a5.4112,5.4112,0,0,1-6.7129,5.2807,31.9421,31.9421,0,0,1-3.7374-1.5166q-26.7792-11.3117-53.5532-22.6352a116.2235,116.2235,0,0,1-17.6312-9.0488,50.0918,50.0918,0,0,1-11.0236-9.2933A35.3069,35.3069,0,0,1,4.41,136.2222a50.19,50.19,0,0,1-1.08-8.9282c-.0272-.8114-.0612-1.6231-.0613-2.4347Q3.2647,65.3007,3.2666,5.7422Zm3.367,62.7368q0,24.93.0006,49.86c0,.2767-.0044.5541.0138.83a3.5589,3.5589,0,0,0,4.3938,3.2306A3.85,3.85,0,0,0,13.4091,119.7a24.0982,24.0982,0,0,1,10.5192-9.3237,28.61,28.61,0,0,1,15.4-2.1119,25.1259,25.1259,0,0,1,11.5377,4.4063,3.369,3.369,0,0,0,3.7194.2386,3.4645,3.4645,0,0,0,1.8971-3.2735Q56.49,73.24,56.482,36.8442a3.5263,3.5263,0,0,0-2.2141-3.4409q-12.912-5.8841-25.8237-11.7687-8.3175-3.79-16.634-7.583a3.503,3.503,0,0,0-3.0062-.0872A3.6,3.6,0,0,0,6.63,17.5858Q6.639,42.6193,6.6336,67.6529Zm28.913,42.8446a24.0379,24.0379,0,1,0,24.0383,24.1653A24.0762,24.0762,0,0,0,35.5466,110.4975Zm66.28,68.1312c-.0476-.4852-.0821-1.23-.1994-1.9607a10.9187,10.9187,0,0,0-2.5316-5.6935,6.536,6.536,0,0,0-6.7224-2.3425,7.5279,7.5279,0,0,0-4.8666,3.9867,12.8261,12.8261,0,0,0-1.5083,7.242,11.9906,11.9906,0,0,0,1.9963,6.1239c3.0429,4.4588,8.4806,4.5413,11.6478.172A12.7177,12.7177,0,0,0,101.8264,178.6287Z"/>
    <path class="a" d="M9.8039,67.6246V17.9732c0-.1383-.0007-.2767,0-.415.0045-.7284.2038-.85.8878-.5391q1.8385.8362,3.6759,1.6749,19.18,8.7389,38.3626,17.47a.89.89,0,0,1,.6025.9434q-.0177,36.1359-.01,72.272c0,.1037.0069.2081-.0021.3111-.04.45-.3135.583-.7014.3444-.956-.588-1.8861-1.2242-2.8731-1.7544A28.5693,28.5693,0,0,0,39.48,105.0887a32.7592,32.7592,0,0,0-14.4552,1.453,26.9682,26.9682,0,0,0-14.0868,11.1359,3.0928,3.0928,0,0,1-.3422.5169,2.279,2.279,0,0,1-.4917.2916,3.295,3.295,0,0,1-.2908-.5388,1.5346,1.5346,0,0,1-.01-.4639ZM22.1926,85.75A13.3594,13.3594,0,1,0,35.5394,72.4117,13.2931,13.2931,0,0,0,22.1926,85.75ZM10.9708,55.83a11.9774,11.9774,0,0,0,2.3893,7.585c1.8261,2.3168,4.1817,3.4474,7.1509,2.7064a7.5622,7.5622,0,0,0,4.86-4.1458A13.004,13.004,0,0,0,26.7367,54.4a11.7258,11.7258,0,0,0-2.1987-5.9437c-2.9243-3.9346-7.9023-4.0882-11.026-.3135A11.8535,11.8535,0,0,0,10.9708,55.83ZM10.97,34.1061c.0278.3635.0432,1.0219.1342,1.67a11.1754,11.1754,0,0,0,2.5166,5.92,6.6141,6.6141,0,0,0,6.6,2.445,6.9814,6.9814,0,0,0,4.2645-2.8293,11.5892,11.5892,0,0,0,2.26-6.08,12.4428,12.4428,0,0,0-2.1278-8.7043,6.7452,6.7452,0,0,0-11.3369-.1459A12.4008,12.4008,0,0,0,10.97,34.1061Z"/>
    <path class="a" d="M35.5834,113.6315a20.89,20.89,0,1,1-20.9422,20.8549A20.8674,20.8674,0,0,1,35.5834,113.6315ZM18.6705,134.4958a16.8611,16.8611,0,1,0,17.07-16.8366A16.8377,16.8377,0,0,0,18.6705,134.4958Z"/>
    <path class="a" d="M98.6741,178.839a9.4454,9.4454,0,0,1-1.7789,5.7088,3.6579,3.6579,0,0,1-3.4882,1.6136,3.779,3.779,0,0,1-2.355-1.3858,7.9682,7.9682,0,0,1-1.8332-4.32,9.7745,9.7745,0,0,1,.9945-6.1721,6.6519,6.6519,0,0,1,1.2447-1.6362,3.3986,3.3986,0,0,1,5.1268.2476,8.2625,8.2625,0,0,1,1.9838,4.7388C98.62,178.0621,98.6445,178.4933,98.6741,178.839Z"/>
    <path class="a" d="M25.3564,85.7857A10.1956,10.1956,0,1,1,35.5257,95.9719,10.168,10.168,0,0,1,25.3564,85.7857Z"/>
    <path class="a" d="M14.13,56.0842A8.9783,8.9783,0,0,1,16.16,49.9107a3.4931,3.4931,0,0,1,5.5045.019,7.86,7.86,0,0,1,1.8217,3.9975,9.9714,9.9714,0,0,1-1.0974,6.8992,5.9019,5.9019,0,0,1-.8827,1.1431,3.4454,3.4454,0,0,1-5.3881-.168A8.0074,8.0074,0,0,1,14.2718,57.6C14.1825,57.0223,14.1616,56.4343,14.13,56.0842Z"/>
    <path class="a" d="M14.1307,34.0543a8.9805,8.9805,0,0,1,2.014-6.1757,3.4615,3.4615,0,0,1,5.4631-.0538A7.724,7.724,0,0,1,23.49,31.9011a9.9892,9.9892,0,0,1-.7781,6.2556A7.1757,7.1757,0,0,1,21.52,39.8959a3.4549,3.4549,0,0,1-5.39-.1258,8.0245,8.0245,0,0,1-1.8564-4.1994C14.1826,34.9936,14.1623,34.4054,14.1307,34.0543Z"/>
    <path class="a" d="M49.22,134.524a13.7,13.7,0,1,1-13.6959-13.7005A13.673,13.673,0,0,1,49.22,134.524Z"/>
    <rect class="b" x="0.125" y="0.125" width="107.6366" height="197.4665"/>
  </g>
</svg>
