<svg xmlns="http://www.w3.org/2000/svg" viewBox="0 0 95.1959 185.9778">
  <defs>
    <style>
      .a {
        fill: #fff;
      }

      .b {
        fill: none;
        stroke: #000;
        stroke-miterlimit: 10;
        stroke-width: 0.25px;
      }
    </style>
  </defs>
  <title>ear right color</title>
  <g>
    <path class="a" d="M65.6767,91.9182c-.0858,4.4293-.0952,7.7495-.2294,11.0647-.1411,3.4848-.331,6.9708-.6288,10.4452-.3328,3.8835-.73,7.7652-1.2413,11.6289a162.3087,162.3087,0,0,1-6.5495,29.8042A74.29,74.29,0,0,1,49.075,172.234a28.5,28.5,0,0,1-7.01,7.7756,12.66,12.66,0,0,1-7.94,2.7,12.7979,12.7979,0,0,1-7.1429-2.5942,27.4093,27.4093,0,0,1-6.6515-7.128,67.315,67.315,0,0,1-7.3034-14.8311A128.4109,128.4109,0,0,1,7.5256,138.132c-.7624-3.9594-1.4321-7.9388-2.0409-11.9248-.4189-2.7434-.6934-5.51-.9742-8.2728-.2758-2.7128-.5185-5.43-.701-8.1509-.1756-2.6188-.3064-5.2429-.366-7.8668-.0961-4.233-.19-8.4685-.1493-12.7016.0358-3.7471.19-7.4963.4136-11.2373q.3226-5.4.9079-10.783c.4425-4.0266.9342-8.0528,1.5775-12.0513,1.752-10.8887,4.2907-21.5763,8.6094-31.771a52.869,52.869,0,0,1,7.5135-13.0169,22.59,22.59,0,0,1,5.3579-4.93c4.6917-2.9711,9.3435-2.8368,13.9232.2438a26.4131,26.4131,0,0,1,6.9005,7.24,66.3546,66.3546,0,0,1,7.2076,14.4762,123.2727,123.2727,0,0,1,5.2811,18.5879Q62.27,52.2784,63.25,58.6441c.51,3.2871.8688,6.6017,1.1795,9.9149.35,3.7287.64,7.4661.8285,11.2061C65.4811,84.1816,65.5676,88.6051,65.6767,91.9182ZM11.1412,92.9977c.0189,5.2558.1739,10.5045.5729,15.7445.2006,2.6331.3483,5.2738.6636,7.8938q.7075,5.8782,1.6276,11.73a112.043,112.043,0,0,0,3.421,15.0076,58.6715,58.6715,0,0,0,5.487,13.205,19.9081,19.9081,0,0,0,4.5568,5.5337,7.2656,7.2656,0,0,0,9.646.1335,17.3565,17.3565,0,0,0,3.8969-4.341,48.49,48.49,0,0,0,5.3107-11.3686,122.6073,122.6073,0,0,0,5.2654-23.4772c.6128-4.6151,1.07-9.2553,1.44-13.8967.2964-3.7162.4252-7.45.5012-11.1783.0733-3.5928.0436-7.19-.0515-10.7831q-.1461-5.5142-.5184-11.0218c-.2061-3.1152-.4729-6.2313-.861-9.3284-.4541-3.6245-1.0106-7.2388-1.6273-10.84a107.2281,107.2281,0,0,0-3.9995-16.0919,50.72,50.72,0,0,0-5.2-11.42A16.7543,16.7543,0,0,0,36.445,23.29a6.8749,6.8749,0,0,0-6.9384-.6566,10.89,10.89,0,0,0-3.4393,2.5415,29.6819,29.6819,0,0,0-5.3163,8.418,94.8693,94.8693,0,0,0-6.418,22.1544c-.6331,3.4922-1.1243,7.013-1.58,10.5339-.3826,2.9585-.6677,5.932-.9078,8.906-.2264,2.8045-.3812,5.6166-.4882,8.4285C11.2385,86.7415,11.2094,89.87,11.1412,92.9977Z"/>
    <path class="a" d="M52.5339,172.7865a3.79,3.79,0,0,1,.1584-.3627A80.3237,80.3237,0,0,0,59.8012,156.53a137.3246,137.3246,0,0,0,4.9952-19.3568q1.0763-5.9,1.9348-11.8384c.423-2.9523.7189-5.9259.9732-8.8984.3267-3.8177.6111-7.641.808-11.4672.16-3.1049.2008-6.2174.2267-9.3271.0279-3.3514.034-6.7049-.0555-10.0546-.0918-3.4348-.2384-6.8715-.4929-10.2976-.2889-3.8881-.6936-7.7685-1.1032-11.6465-.5671-5.369-1.4305-10.6952-2.5-15.986a124.9209,124.9209,0,0,0-8.41-27.3809c-1.0962-2.399-2.3728-4.7155-3.5516-7.04.5554.3274,1.1845.6948,1.81,1.0677,4.0218,2.3963,8.07,4.75,12.0458,7.2205a14.813,14.813,0,0,1,2.79,2.5216A76.04,76.04,0,0,1,85.5026,51.1969,101.592,101.592,0,0,1,90.0255,68.962c.4948,3.0443.9091,6.1105,1.1637,9.183.3292,3.9727.5774,7.96.6476,11.9441.07,3.9684-.0143,7.9475-.2334,11.9107-.2083,3.7693-.5476,7.5419-1.0578,11.2819a109.3733,109.3733,0,0,1-8.991,31.8333,60.879,60.879,0,0,1-8.7171,13.9261A30.1558,30.1558,0,0,1,64.65,165.64c-3.9035,2.22-7.7258,4.5823-11.5843,6.8813C52.9266,172.6049,52.7747,172.6675,52.5339,172.7865Zm18.02-79.8211A9.2425,9.2425,0,1,0,79.819,83.761,9.2534,9.2534,0,0,0,70.5535,92.9654ZM78.64,104.012a7.0061,7.0061,0,1,0,7.0168,6.9664A7.03,7.03,0,0,0,78.64,104.012ZM77.5531,82.9514a6.9944,6.9944,0,1,0-6.9977-7.01A6.9821,6.9821,0,0,0,77.5531,82.9514Z"/>
    <path class="a" d="M14.3162,92.9924c.0544-3.0239.0544-6.05.1783-9.0712.13-3.156.3153-6.3126.5913-9.4589.32-3.6418.6743-7.2851,1.173-10.9058a115.3768,115.3768,0,0,1,6.105-25.5441,37.3434,37.3434,0,0,1,4.8709-9.3381,11.3905,11.3905,0,0,1,2.8024-2.7434,3.8232,3.8232,0,0,1,4.6837.0236,21.4807,21.4807,0,0,1,2.35,2.1721.625.625,0,0,1,.0405.5784,76.6989,76.6989,0,0,0-7.1077,19.9727c-.717,3.1034-1.2566,6.2478-1.8827,9.3725a.7546.7546,0,0,1-.1807.4027,17.2008,17.2008,0,0,0-4.3619,6.8381,47.7965,47.7965,0,0,0-2.8167,10.7345c-.4616,3.1376-.8568,6.2914-1.1082,9.4518a84.4879,84.4879,0,0,0-.16,11.6023c.1311,2.2576.2077,4.5215.4384,6.7693.65,6.331,1.69,12.5807,4.3315,18.4455a15.3443,15.3443,0,0,0,3.6446,5.24,1.5312,1.5312,0,0,1,.3.8389,109.7352,109.7352,0,0,0,5.9262,22.51c.8635,2.1579,1.9589,4.2229,2.9337,6.3371.0805.1744.1469.4775.0568.5895a7.9525,7.9525,0,0,1-3.66,2.8656,3.9789,3.9789,0,0,1-3.6593-.7577A13.8426,13.8426,0,0,1,26.2981,156a49.2369,49.2369,0,0,1-5.175-11.486A105.2885,105.2885,0,0,1,17.28,128.8113c-.6186-3.7053-1.171-7.4247-1.6291-11.153-.3575-2.91-.547-5.8415-.7711-8.7665C14.4739,103.6005,14.3188,98.3,14.3162,92.9924Z"/>
    <path class="a" d="M22.4712,92.17c.1763-2.8661.3058-6.4928.6444-10.1A61.6938,61.6938,0,0,1,25.88,68.2041a22.341,22.341,0,0,1,2.6168-5.6117,6.9908,6.9908,0,0,1,2.21-2.2256,3.12,3.12,0,0,1,3.3852.023,7.772,7.772,0,0,1,2.5337,2.7619A28.1185,28.1185,0,0,1,39.53,70.3243a59.494,59.494,0,0,1,1.9681,10.5593c.289,3.1435.4837,6.2969.6572,9.4494a83.14,83.14,0,0,1-.2582,10.9241A70.0643,70.0643,0,0,1,39.0109,117.41a22.04,22.04,0,0,1-2.6993,5.9125,10.0945,10.0945,0,0,1-1.5142,1.7618A3.3563,3.3563,0,0,1,29.8459,125a13.1458,13.1458,0,0,1-2.9215-4.4845,43.8783,43.8783,0,0,1-2.7876-9.51,81.1679,81.1679,0,0,1-1.3743-11.55C22.6611,97.2822,22.5875,95.1073,22.4712,92.17Z"/>
    <path class="a" d="M38.28,126.12c.5108-.8121,1.0424-1.5741,1.4894-2.3829a36.6842,36.6842,0,0,0,3.3336-9.2184,73.505,73.505,0,0,0,1.7433-10.7125c.2275-2.509.369-5.03.4349-7.5484.07-2.6752.0956-5.3578-.0186-8.03a78.9267,78.9267,0,0,0-3.1781-20.3905,25.2369,25.2369,0,0,0-3.6329-7.6318.8065.8065,0,0,1-.06-.1976c.1844-.0132.3473-.035.51-.0352,2.8188-.002,5.6376.0073,8.4563-.01.4615-.0028.6592.1.7213.6081.3075,2.5155.7067,5.02.99,7.5382q.48,4.2694.809,8.5553c.1833,2.4277.3127,4.8625.3649,7.2964.0967,4.51.187,9.0216.151,13.5316-.0271,3.4009-.174,6.8061-.4154,10.1989-.2816,3.9575-.6951,7.9066-1.1083,11.8534-.2171,2.0738-.5579,4.1346-.837,6.2022-.0385.2848-.15.4136-.4644.4125-3.0262-.01-6.0525-.0063-9.0788-.0079A1.5778,1.5778,0,0,1,38.28,126.12Z"/>
    <path class="a" d="M47.3938,56.74H31.5778a121.3224,121.3224,0,0,1,2.9433-12.968A67.0639,67.0639,0,0,1,39.25,31.417C41.5777,34.0523,46.377,48.9814,47.3938,56.74Z"/>
    <path class="a" d="M39.2947,154.72c-4.0463-8.1128-6.0886-16.6575-7.7284-25.3856H47.4276C45.7057,138.1083,43.63,146.7012,39.2947,154.72Z"/>
    <path class="a" d="M73.7237,92.9991a6.0745,6.0745,0,1,1,6.0421,6.0833A6.08,6.08,0,0,1,73.7237,92.9991Z"/>
    <path class="a" d="M78.6312,114.86a3.8382,3.8382,0,1,1,3.8554-3.8318A3.8206,3.8206,0,0,1,78.6312,114.86Z"/>
    <path class="a" d="M77.5692,72.1416a3.8234,3.8234,0,1,1-.04,7.6459,3.823,3.823,0,1,1,.04-7.6459Z"/>
    <rect class="b" x="0.125" y="0.125" width="94.9459" height="185.7278"/>
  </g>
</svg>
