<svg xmlns="http://www.w3.org/2000/svg" viewBox="0 0 95.1278 185.889">
  <defs>
    <style>
      .a {
        fill: none;
        stroke: #000;
        stroke-miterlimit: 10;
        stroke-width: 0.25px;
      }
    </style>
  </defs>
  <title>ear left lineart</title>
  <g>
    <path d="M62.1771.125c.4348.0841.87.1668,1.3043.2525a18.2459,18.2459,0,0,1,9.0452,4.9776A42.1351,42.1351,0,0,1,80.8229,16.929a105.117,105.117,0,0,1,8.1076,22.3445,178.3974,178.3974,0,0,1,3.7718,19.418,218.3113,218.3113,0,0,1,2.0634,23.2217c.1474,4.4554.242,8.9149.2369,13.3724-.0068,6.049-.29,12.0914-.7809,18.1214A195.6648,195.6648,0,0,1,88.3168,148.93a101.9967,101.9967,0,0,1-7.2662,19.5754,45.5409,45.5409,0,0,1-7.3279,10.821,20.281,20.281,0,0,1-8.7065,5.7879,14.4046,14.4046,0,0,1-4.8065.6407,16.3787,16.3787,0,0,1-9.878-4.0247c-.7773-.6288-1.4785-1.3511-2.2223-2.022a3.4434,3.4434,0,0,0-.5457-.3887c-6.7363-4.0154-13.46-8.0518-20.2178-12.0313a31.0824,31.0824,0,0,1-8.4712-7.6137,68.6522,68.6522,0,0,1-9.2112-15.8592A111.2641,111.2641,0,0,1,2.7,120.5974,139.711,139.711,0,0,1,.3159,99.5044C.2713,98.3132.2483,97.1212.2081,95.93A2.891,2.891,0,0,0,.125,95.486V90.2977a2,2,0,0,0,.0828-.3923,145.2813,145.2813,0,0,1,.9381-14.788A116.9016,116.9016,0,0,1,5.002,55.52C8.7147,42.7883,14.67,31.2986,23.864,21.6186a15.0346,15.0346,0,0,1,2.8588-2.6038C32.5312,15.4669,38.397,12.0129,44.25,8.5385A31.5868,31.5868,0,0,0,49.9326,4.51,16.3566,16.3566,0,0,1,57.435.49c.3777-.09.74-.2421,1.11-.3654ZM91.9658,92.9373l-.0976-.0011c0-1.313.0313-2.6269-.0062-3.9389-.0935-3.2636-.1517-6.53-.3475-9.7884q-.3618-6.02-.9369-12.0271c-.3043-3.1744-.6753-6.3478-1.1746-9.4966q-.9429-5.9473-2.1545-11.8515a120.1515,120.1515,0,0,0-6.407-21.4261,56.31,56.31,0,0,0-7.6153-13.6715,22.418,22.418,0,0,0-6.4685-5.8314,11.6123,11.6123,0,0,0-8.2763-1.444,14.6261,14.6261,0,0,0-6.6269,3.4667,34.3945,34.3945,0,0,0-7.31,9.3484,87.7551,87.7551,0,0,0-7.6482,18.8557,156.5409,156.5409,0,0,0-4.7838,22.3268q-.8795,6.2493-1.5236,12.5309c-.3463,3.4338-.5764,6.8831-.7333,10.3312-.1814,3.9861-.2747,7.978-.3143,11.9683-.0288,2.919.0734,5.84.15,8.759.0573,2.1759.1183,4.3537.2656,6.5247q.3384,4.9856.8072,9.9619c.2668,2.7981.554,5.5984.9693,8.3772.5756,3.852,1.2117,7.6978,1.9429,11.5232a129.878,129.878,0,0,0,5.93,21.4585,64.86,64.86,0,0,0,7.2569,14.3926,25.84,25.84,0,0,0,6.9824,7.1573c3.8863,2.5263,7.9535,2.9892,12.18.9105a21.6643,21.6643,0,0,0,7.52-6.6264,59.1546,59.1546,0,0,0,7.9106-14.7985c4.4371-11.4567,6.87-23.3986,8.48-35.5293.4492-3.3851.776-6.7889,1.0639-10.1922.2983-3.5261.54-7.0594.6982-10.5945C91.8575,100.0574,91.8823,96.496,91.9658,92.9373ZM42.7165,13.1067a1.8338,1.8338,0,0,0-.1952.08q-7.17,4.2688-14.3376,8.5417a1.9594,1.9594,0,0,0-.3635.2885,70.2018,70.2018,0,0,0-9.47,11.5158C10.9993,44.7148,6.9847,57.1265,4.9509,70.2438c-.5255,3.389-.8794,6.81-1.1629,10.2294-.2724,3.2851-.4646,6.5855-.4863,9.8806-.0261,3.9544.11,7.9127.2823,11.8647.114,2.619.3124,5.2432.6546,7.8411.4837,3.6729,1.0462,7.3406,1.7334,10.98a102.0435,102.0435,0,0,0,6.5635,21.5836,65.0251,65.0251,0,0,0,8.8434,15.1789,26.9256,26.9256,0,0,0,7.06,6.4965q5.6081,3.3474,11.219,6.69c.9844.5866,1.9723,1.1673,3.0687,1.8158-.1-.1928-.1345-.2683-.177-.3388a69.6354,69.6354,0,0,1-4.8885-9.8793c-4.6687-11.54-7.2868-23.5987-9.011-35.8758-.4772-3.3979-.8427-6.8143-1.1574-10.2316q-.5032-5.4662-.801-10.9506-.26-4.8379-.2835-9.6878c-.0178-3.7672.0517-7.5359.1535-11.3021q.1167-4.3239.4149-8.6425c.2323-3.3919.4788-6.7862.86-10.1636.4347-3.8542.9038-7.7122,1.5777-11.53.8323-4.7151,1.7516-9.4241,2.8811-14.0756C34.5834,30.705,37.6715,21.5683,42.7165,13.1067Z"/>
    <path d="M84.0683,92.0793c-.0851,3.89-.1116,6.8984-.2279,9.903-.1135,2.9328-.2522,5.8677-.5009,8.7915-.3,3.5229-.681,7.0406-1.1087,10.5506a135.0009,135.0009,0,0,1-4.1584,20.9244A62.7794,62.7794,0,0,1,72.8,155.6015a21.6054,21.6054,0,0,1-4.8323,6.2362,8.2812,8.2812,0,0,1-4.3881,2.0594,7.335,7.335,0,0,1-5.3257-1.5809,17.8009,17.8009,0,0,1-4.4085-4.98,51.7168,51.7168,0,0,1-5.2226-11.5812,108.9251,108.9251,0,0,1-3.9-15.7462q-.8629-4.9662-1.5266-9.9665-.5-3.7428-.7556-7.5173c-.2961-4.4445-.5751-8.8928-.7183-13.3441-.1266-3.9371-.129-7.8818-.0557-11.8208.0668-3.59.2486-7.1814.4878-10.7649.3712-5.5614.9749-11.1018,1.8484-16.6084a123.5584,123.5584,0,0,1,4.7507-20.2635,49.01,49.01,0,0,1,5.4912-11.7929,18.1221,18.1221,0,0,1,3.5954-4.0619,7.3326,7.3326,0,0,1,9.9689.0357,21.9989,21.9989,0,0,1,5.19,6.7329A66.0707,66.0707,0,0,1,78.37,44.67,125.649,125.649,0,0,1,81.714,60.8614c.4923,3.5351.9591,7.0764,1.312,10.6273.3122,3.1422.5037,6.299.6533,9.4539C83.8691,84.9457,83.9629,88.9533,84.0683,92.0793Zm-3.1723-.29c-.0966-2.9141-.1609-6.9757-.3858-11.0283-.22-3.9621-.5237-7.9234-.94-11.8694-.3684-3.4952-.8852-6.9777-1.4368-10.45a109.4,109.4,0,0,0-4.0582-16.979A50.7824,50.7824,0,0,0,69.189,30.4083a14.6,14.6,0,0,0-3.82-4.3923,3.9348,3.9348,0,0,0-4.4649-.4135,10.3,10.3,0,0,0-2.7363,2.3549.59.59,0,0,0-.0644.7758c.87,1.7633,1.79,3.5084,2.5451,5.3212A108.8391,108.8391,0,0,1,66.9846,57.57a1.5407,1.5407,0,0,0,.2959.8421,15.967,15.967,0,0,1,3.9428,5.8994c2.56,6.0815,3.559,12.5128,4.15,19.0248.1761,1.9418.2239,3.8952.3317,5.8433a89.2753,89.2753,0,0,1-.2625,12.5305c-.2491,2.9178-.6544,5.827-1.1081,8.7215a46.6013,46.6013,0,0,1-2.9054,10.6526,16.5012,16.5012,0,0,1-4.1537,6.3662.7342.7342,0,0,0-.2.393c-.1772.913-.34,1.8289-.5045,2.7444a118.2342,118.2342,0,0,1-3.8631,15.7012,61.4374,61.4374,0,0,1-4.608,10.9011.666.666,0,0,0-.0144.5866,8.9408,8.9408,0,0,0,2.9087,2.5347,3.7694,3.7694,0,0,0,3.7161-.048,9.9032,9.9032,0,0,0,3.0245-2.72,34.327,34.327,0,0,0,4.7712-8.8053c3.6474-9.2781,5.5009-18.9839,6.7519-28.8236.361-2.84.6291-5.6943.8541-8.5488.2524-3.2011.4572-6.4078.5905-9.6159C80.8236,98.8145,80.8223,95.8746,80.896,91.79Zm-8.1581,1.1432c-.1693-3.0584-.3117-6.1111-.5141-9.16A70.7817,70.7817,0,0,0,70.76,73.541,38.3474,38.3474,0,0,0,67.7645,64.37a10.6379,10.6379,0,0,0-2.7234-3.6811,3.2223,3.2223,0,0,0-4.5116.0591,11.52,11.52,0,0,0-1.9726,2.3782A28.2742,28.2742,0,0,0,55.364,71.34a77.28,77.28,0,0,0-2.0978,13.7858c-.2475,3.5872-.3551,7.1747-.2444,10.7711a100.0461,100.0461,0,0,0,1.08,12.3692,54.0612,54.0612,0,0,0,2.5961,10.5764,16.46,16.46,0,0,0,3.2223,5.7441,3.8942,3.8942,0,0,0,2.9678,1.4733,4.0354,4.0354,0,0,0,2.8823-1.5556,17.4546,17.4546,0,0,0,3.3226-6.1584A63.5305,63.5305,0,0,0,72.19,102.6588C72.4712,99.4269,72.5615,96.1782,72.7379,92.9328ZM56.87,59.9127c-3.2,0-6.2763-.0043-9.3527.0159-.1222.0009-.3318.2233-.3513.3632-.4279,3.0733-.8864,6.1436-1.23,9.2268-.2939,2.64-.4986,5.2927-.6566,7.9449-.2106,3.5331-.4173,7.07-.4827,10.6075-.1044,5.65-.0778,11.3025.2774,16.9465.1962,3.1181.3427,6.2427.6634,9.3487.386,3.7376.9433,7.4574,1.3977,11.1884.0549.4509.2361.5216.625.52,2.9047-.0116,5.81-.006,8.7142-.0071.1312,0,.2623-.0122.4122-.02a.6324.6324,0,0,0-.05-.1794,26.093,26.093,0,0,1-3.9624-8.493,64.3359,64.3359,0,0,1-2.4418-12.9894c-.2824-3.2832-.5166-6.5765-.5975-9.87a99.0525,99.0525,0,0,1,.7832-14.8344,71.6021,71.6021,0,0,1,1.9271-10.0449,30.9792,30.9792,0,0,1,3.5179-8.5319C56.3011,60.7312,56.56,60.3706,56.87,59.9127Zm-9.122-3.2421H63.63c-1.6479-8.7825-3.6887-17.3456-7.7431-25.4521C51.5387,39.2952,49.4523,47.9151,47.7479,56.6706Zm8.1414,97.9813c4.049-8.0985,6.0909-16.6557,7.729-25.3883H47.7566C49.4781,138.036,51.5542,146.6348,55.8893,154.6519Z"/>
    <path d="M15.4044,83.7259a9.2216,9.2216,0,1,1-9.251,9.1866A9.1223,9.1223,0,0,1,15.4044,83.7259Zm-.0365,3.1376a6.0764,6.0764,0,1,0,6.104,5.9212A6.09,6.09,0,0,0,15.3679,86.8635Z"/>
    <path d="M17.66,68.8933a7.0087,7.0087,0,1,1-7.0551,6.98A7.0247,7.0247,0,0,1,17.66,68.8933Zm-.0159,10.8333a3.8348,3.8348,0,1,0-.0688-7.669,3.8347,3.8347,0,1,0,.0688,7.669Z"/>
    <path d="M16.5389,103.9605a7.0028,7.0028,0,1,1-7.0112,6.909A7.0145,7.0145,0,0,1,16.5389,103.9605Zm.0147,10.8375a3.8367,3.8367,0,1,0-3.8553-3.8344A3.8088,3.8088,0,0,0,16.5536,114.798Z"/>
    <rect class="a" x="0.125" y="0.125" width="94.8778" height="185.639"/>
  </g>
</svg>
