<svg xmlns="http://www.w3.org/2000/svg" viewBox="0 0 95.1959 185.9778">
  <defs>
    <style>
      .a {
        fill: none;
        stroke: #000;
        stroke-miterlimit: 10;
        stroke-width: 0.25px;
      }
    </style>
  </defs>
  <title>ear right lineart</title>
  <g>
    <path d="M.125,89.4541c.0341-.58.0894-1.16.0991-1.74Q.4,77.2387,1.491,66.82A180.4234,180.4234,0,0,1,8.0118,33.0465a89.7124,89.7124,0,0,1,7.36-17.9245A39.4749,39.4749,0,0,1,22.85,5.2425,18.3247,18.3247,0,0,1,31.5017.482,13.5868,13.5868,0,0,1,36.5526.2749a16.0838,16.0838,0,0,1,7.2956,3.1694c1.116.867,2.144,1.847,3.2152,2.772a3.5622,3.5622,0,0,0,.4972.3656C54.5618,10.7579,61.5774,14.91,68.5521,19.13a12.9287,12.9287,0,0,1,2.4494,2.2121A79.1469,79.1469,0,0,1,88.6077,50.6427,110.5971,110.5971,0,0,1,93.6412,72.032a146.0318,146.0318,0,0,1,1.2724,15.1238c.0408,1.2261.0467,2.4534.0749,3.68a1.105,1.105,0,0,0,.0824.2787v3.6318c-.0288.199-.074.3971-.0839.5971-.19,3.8126-.2957,7.6313-.5818,11.4366a121.77,121.77,0,0,1-1.92,13.9047A111.3354,111.3354,0,0,1,85.4519,144.04,67.9442,67.9442,0,0,1,76.04,160.0763a28.75,28.75,0,0,1-7.38,6.7631c-6.8576,4.1158-13.7413,8.1878-20.6054,12.2928a8.2825,8.2825,0,0,0-1.4629,1.1358,19.0046,19.0046,0,0,1-9.2873,5.2822,6.734,6.734,0,0,0-.86.3026H33.4339c-.7079-.1244-1.4221-.2209-2.1227-.3779a19.1453,19.1453,0,0,1-9.5681-5.7906,44.7833,44.7833,0,0,1-7.613-11.1225,101.8305,101.8305,0,0,1-7.1682-19.2286,188.2474,188.2474,0,0,1-5.5713-31.1241Q.3928,108.3028.2248,98.3448c-.01-.5773-.0655-1.1539-.1-1.7308Zm65.5517,2.4641c-.1091-3.3131-.1956-7.7366-.4184-12.1531-.1887-3.74-.4789-7.4774-.8285-11.2061-.3107-3.3132-.6691-6.6278-1.1795-9.9149q-.9873-6.3584-2.2639-12.6709a123.2727,123.2727,0,0,0-5.2811-18.5879,66.3546,66.3546,0,0,0-7.2076-14.4762,26.4131,26.4131,0,0,0-6.9005-7.24c-4.58-3.0806-9.2315-3.2149-13.9232-.2438a22.59,22.59,0,0,0-5.3579,4.93,52.869,52.869,0,0,0-7.5135,13.0169c-4.3187,10.1947-6.8574,20.8823-8.6094,31.771C5.55,59.142,5.0582,63.1682,4.6157,67.1948q-.5909,5.3769-.9079,10.783c-.2236,3.741-.3778,7.49-.4136,11.2373-.0405,4.2331.0532,8.4686.1493,12.7016.06,2.6239.19,5.248.366,7.8668.1825,2.7205.4252,5.4381.701,8.1509.2808,2.7623.5553,5.5294.9742,8.2728.6088,3.986,1.2785,7.9654,2.0409,11.9248a128.4109,128.4109,0,0,0,5.5021,20.0245,67.315,67.315,0,0,0,7.3034,14.8311,27.4093,27.4093,0,0,0,6.6515,7.128,12.7979,12.7979,0,0,0,7.1429,2.5942,12.66,12.66,0,0,0,7.94-2.7,28.5,28.5,0,0,0,7.01-7.7756,74.29,74.29,0,0,0,7.9527-17.3728,162.3087,162.3087,0,0,0,6.5495-29.8042c.5114-3.8637.9085-7.7454,1.2413-11.6289.2978-3.4744.4877-6.96.6288-10.4452C65.5815,99.6677,65.5909,96.3475,65.6767,91.9182ZM52.5339,172.7865c.2408-.119.3927-.1816.5323-.2648,3.8585-2.299,7.6808-4.6617,11.5843-6.8813a30.1558,30.1558,0,0,0,8.187-6.5993,60.879,60.879,0,0,0,8.7171-13.9261,109.3733,109.3733,0,0,0,8.991-31.8333c.51-3.74.85-7.5126,1.0578-11.2819.2191-3.9632.3033-7.9423.2334-11.9107-.07-3.9845-.3184-7.9714-.6476-11.9441-.2546-3.0725-.6689-6.1387-1.1637-9.183a101.592,101.592,0,0,0-4.5229-17.7651A76.04,76.04,0,0,0,69.2717,24.0455a14.813,14.813,0,0,0-2.79-2.5216c-3.9757-2.4705-8.024-4.8242-12.0458-7.2205-.6258-.3729-1.2549-.74-1.81-1.0677,1.1788,2.3249,2.4554,4.6414,3.5516,7.04a124.9209,124.9209,0,0,1,8.41,27.3809c1.07,5.2908,1.9333,10.617,2.5,15.986.41,3.878.8143,7.7584,1.1032,11.6465.2545,3.4261.4011,6.8628.4929,10.2976.09,3.35.0834,6.7032.0555,10.0546-.0259,3.11-.0669,6.2222-.2267,9.3271-.1969,3.8262-.4813,7.65-.808,11.4672-.2543,2.9725-.55,5.9461-.9732,8.8984q-.8507,5.9361-1.9348,11.8384A137.3246,137.3246,0,0,1,59.8012,156.53a80.3237,80.3237,0,0,1-7.1089,15.8942A3.79,3.79,0,0,0,52.5339,172.7865Z"/>
    <path d="M11.1412,92.9977c.0682-3.1274.0973-6.2562.2162-9.3816.107-2.8119.2618-5.624.4882-8.4285.24-2.974.5252-5.9475.9078-8.906.4553-3.5209.9465-7.0417,1.58-10.5339a94.8693,94.8693,0,0,1,6.418-22.1544,29.6819,29.6819,0,0,1,5.3163-8.418,10.89,10.89,0,0,1,3.4393-2.5415,6.8749,6.8749,0,0,1,6.9384.6566A16.7543,16.7543,0,0,1,41.2732,28.5a50.72,50.72,0,0,1,5.2,11.42,107.2281,107.2281,0,0,1,3.9995,16.0919c.6167,3.6009,1.1732,7.2152,1.6273,10.84.3881,3.0971.6549,6.2132.861,9.3284q.364,5.5042.5184,11.0218c.0951,3.5926.1248,7.19.0515,10.7831-.076,3.7285-.2048,7.4621-.5012,11.1783-.37,4.6414-.8275,9.2816-1.44,13.8967a122.6073,122.6073,0,0,1-5.2654,23.4772,48.49,48.49,0,0,1-5.3107,11.3686,17.3565,17.3565,0,0,1-3.8969,4.341,7.2656,7.2656,0,0,1-9.646-.1335,19.9081,19.9081,0,0,1-4.5568-5.5337,58.6715,58.6715,0,0,1-5.487-13.205,112.043,112.043,0,0,1-3.421-15.0076q-.9153-5.85-1.6276-11.73c-.3153-2.62-.463-5.2607-.6636-7.8938C11.3151,103.5022,11.16,98.2535,11.1412,92.9977Zm3.175-.0053c.0026,5.3073.1577,10.6081.5631,15.8994.2241,2.925.4136,5.8566.7711,8.7665.4581,3.7283,1.0105,7.4477,1.6291,11.153a105.2885,105.2885,0,0,0,3.8436,15.7029A49.2369,49.2369,0,0,0,26.2981,156a13.8426,13.8426,0,0,0,3.5066,3.9176,3.9789,3.9789,0,0,0,3.6593.7577,7.9525,7.9525,0,0,0,3.66-2.8656c.09-.112.0237-.4151-.0568-.5895-.9748-2.1142-2.07-4.1792-2.9337-6.3371a109.7352,109.7352,0,0,1-5.9262-22.51,1.5312,1.5312,0,0,0-.3-.8389,15.3443,15.3443,0,0,1-3.6446-5.24c-2.6414-5.8648-3.6818-12.1145-4.3315-18.4455-.2307-2.2478-.3073-4.5117-.4384-6.7693a84.4879,84.4879,0,0,1,.16-11.6023c.2514-3.16.6466-6.3142,1.1082-9.4518A47.7965,47.7965,0,0,1,23.5781,65.291,17.2008,17.2008,0,0,1,27.94,58.4529a.7546.7546,0,0,0,.1807-.4027c.6261-3.1247,1.1657-6.2691,1.8827-9.3725A76.6989,76.6989,0,0,1,37.1111,28.705a.625.625,0,0,0-.0405-.5784,21.4807,21.4807,0,0,0-2.35-2.1721,3.8232,3.8232,0,0,0-4.6837-.0236,11.3905,11.3905,0,0,0-2.8024,2.7434,37.3434,37.3434,0,0,0-4.8709,9.3381,115.3768,115.3768,0,0,0-6.105,25.5441c-.4987,3.6207-.8534,7.264-1.173,10.9058-.276,3.1463-.4618,6.3029-.5913,9.4589C14.3706,86.9423,14.3706,89.9685,14.3162,92.9924Zm8.155-.8228c.1163,2.9377.19,5.1126.2913,7.2863a81.1679,81.1679,0,0,0,1.3743,11.55,43.8783,43.8783,0,0,0,2.7876,9.51A13.1458,13.1458,0,0,0,29.8459,125a3.3563,3.3563,0,0,0,4.9515.0849,10.0945,10.0945,0,0,0,1.5142-1.7618,22.04,22.04,0,0,0,2.6993-5.9125,70.0643,70.0643,0,0,0,2.8859-16.1533A83.14,83.14,0,0,0,42.155,90.333c-.1735-3.1525-.3682-6.3059-.6572-9.4494A59.494,59.494,0,0,0,39.53,70.3243a28.1185,28.1185,0,0,0-2.9033-7.1726A7.772,7.772,0,0,0,34.0927,60.39a3.12,3.12,0,0,0-3.3852-.023,6.9908,6.9908,0,0,0-2.21,2.2256A22.341,22.341,0,0,0,25.88,68.2041,61.6938,61.6938,0,0,0,23.1156,82.07C22.777,85.6768,22.6475,89.3035,22.4712,92.17ZM38.28,126.12a1.5778,1.5778,0,0,0,.2109.0308c3.0263.0016,6.0526-.0025,9.0788.0079.3148.0011.4259-.1277.4644-.4125.2791-2.0676.62-4.1284.837-6.2022.4132-3.9468.8267-7.8959,1.1083-11.8534.2414-3.3928.3883-6.798.4154-10.1989.036-4.51-.0543-9.0219-.151-13.5316-.0522-2.4339-.1816-4.8687-.3649-7.2964q-.3234-4.284-.809-8.5553c-.2834-2.5179-.6826-5.0227-.99-7.5382-.0621-.5081-.26-.6109-.7213-.6081-2.8187.0175-5.6375.0082-8.4563.01-.1629,0-.3258.022-.51.0352a.8065.8065,0,0,0,.06.1976,25.2369,25.2369,0,0,1,3.6329,7.6318,78.9267,78.9267,0,0,1,3.1781,20.3905c.1142,2.6726.0885,5.3552.0186,8.03-.0659,2.5186-.2074,5.0394-.4349,7.5484a73.505,73.505,0,0,1-1.7433,10.7125,36.6842,36.6842,0,0,1-3.3336,9.2184C39.3221,124.5459,38.7905,125.3079,38.28,126.12Zm9.1141-69.38C46.377,48.9814,41.5777,34.0523,39.25,31.417a67.0639,67.0639,0,0,0-4.729,12.3551A121.3224,121.3224,0,0,0,31.5778,56.74Zm-8.0991,97.98c4.3348-8.0188,6.411-16.6117,8.1329-25.3856H31.5663C33.2061,138.0625,35.2484,146.6072,39.2947,154.72Z"/>
    <path d="M70.5535,92.9654a9.2425,9.2425,0,1,1,9.1905,9.2805A9.2528,9.2528,0,0,1,70.5535,92.9654Zm3.17.0337a6.0745,6.0745,0,1,0,12.149.0049,6.0745,6.0745,0,1,0-12.149-.0049Z"/>
    <path d="M78.64,104.012a7.0061,7.0061,0,1,1-7.0059,7.0333A7.0273,7.0273,0,0,1,78.64,104.012Zm-.0088,10.848a3.8382,3.8382,0,1,0-3.84-3.81A3.8115,3.8115,0,0,0,78.6312,114.86Z"/>
    <path d="M77.5531,82.9514a6.9944,6.9944,0,1,1,7.0231-6.991A6.9652,6.9652,0,0,1,77.5531,82.9514Zm.0161-10.81a3.823,3.823,0,1,0-.04,7.6459,3.8234,3.8234,0,1,0,.04-7.6459Z"/>
    <rect class="a" x="0.125" y="0.125" width="94.9459" height="185.7278"/>
  </g>
</svg>
