<svg xmlns="http://www.w3.org/2000/svg" viewBox="0 0 95.1278 185.889">
  <defs>
    <style>
      .a {
        fill: #fff;
      }

      .b {
        fill: none;
        stroke: #000;
        stroke-miterlimit: 10;
        stroke-width: 0.25px;
      }
    </style>
  </defs>
  <title>ear left color</title>
  <g>
    <path class="a" d="M91.9658,92.9373c-.0835,3.5587-.1083,7.12-.2671,10.6754-.1578,3.5351-.4,7.0684-.6982,10.5945-.2879,3.4033-.6147,6.8071-1.0639,10.1922-1.61,12.1307-4.0426,24.0726-8.48,35.5293a59.1546,59.1546,0,0,1-7.9106,14.7985,21.6643,21.6643,0,0,1-7.52,6.6264c-4.2267,2.0787-8.2939,1.6158-12.18-.9105a25.84,25.84,0,0,1-6.9824-7.1573,64.86,64.86,0,0,1-7.2569-14.3926,129.878,129.878,0,0,1-5.93-21.4585c-.7312-3.8254-1.3673-7.6712-1.9429-11.5232-.4153-2.7788-.7025-5.5791-.9693-8.3772q-.4745-4.9743-.8072-9.9619c-.1473-2.171-.2083-4.3488-.2656-6.5247-.0769-2.9191-.1791-5.84-.15-8.759.04-3.99.1329-7.9822.3143-11.9683.1569-3.4481.387-6.8974.7333-10.3312q.6333-6.2787,1.5236-12.5309a156.5409,156.5409,0,0,1,4.7838-22.3268,87.7551,87.7551,0,0,1,7.6482-18.8557,34.3945,34.3945,0,0,1,7.31-9.3484,14.6261,14.6261,0,0,1,6.6269-3.4667,11.6123,11.6123,0,0,1,8.2763,1.444,22.418,22.418,0,0,1,6.4685,5.8314,56.31,56.31,0,0,1,7.6153,13.6715,120.1515,120.1515,0,0,1,6.407,21.4261q1.22,5.8968,2.1545,11.8515c.4993,3.1488.87,6.3222,1.1746,9.4966q.5755,6.0036.9369,12.0271c.1958,3.2581.254,6.5248.3475,9.7884.0375,1.312.0062,2.6259.0062,3.9389Zm-7.8975-.858c-.1054-3.126-.1992-7.1336-.389-11.1367-.15-3.1549-.3411-6.3117-.6533-9.4539-.3529-3.5509-.82-7.0922-1.312-10.6273A125.649,125.649,0,0,0,78.37,44.67a66.0707,66.0707,0,0,0-5.37-14.0328,21.9989,21.9989,0,0,0-5.19-6.7329,7.3326,7.3326,0,0,0-9.9689-.0357,18.1221,18.1221,0,0,0-3.5954,4.0619,49.01,49.01,0,0,0-5.4912,11.7929,123.5584,123.5584,0,0,0-4.7507,20.2635c-.8735,5.5066-1.4772,11.047-1.8484,16.6084-.2392,3.5835-.421,7.1746-.4878,10.7649-.0733,3.939-.0709,7.8837.0557,11.8208.1432,4.4513.4222,8.9.7183,13.3441q.2511,3.7677.7556,7.5173.6674,4.9964,1.5266,9.9665a108.9251,108.9251,0,0,0,3.9,15.7462,51.7168,51.7168,0,0,0,5.2226,11.5812,17.8009,17.8009,0,0,0,4.4085,4.98,7.335,7.335,0,0,0,5.3257,1.5809,8.2812,8.2812,0,0,0,4.3881-2.0594A21.6054,21.6054,0,0,0,72.8,155.6015a62.7794,62.7794,0,0,0,5.2723-13.3527,135.0009,135.0009,0,0,0,4.1584-20.9244c.4277-3.51.8091-7.0277,1.1087-10.5506.2487-2.9238.3874-5.8587.5009-8.7915C83.9567,98.9777,83.9832,95.97,84.0683,92.0793Z"/>
    <path class="a" d="M42.7165,13.1067c-5.045,8.4616-8.1331,17.5983-10.421,27.02-1.1295,4.6515-2.0488,9.3605-2.8811,14.0756-.6739,3.8176-1.143,7.6756-1.5777,11.53-.381,3.3774-.6275,6.7717-.86,10.1636q-.2953,4.3155-.4149,8.6425c-.1018,3.7662-.1713,7.5349-.1535,11.3021q.0227,4.8449.2835,9.6878.2942,5.4813.801,10.9506c.3147,3.4173.68,6.8337,1.1574,10.2316,1.7242,12.2771,4.3423,24.3362,9.011,35.8758a69.6354,69.6354,0,0,0,4.8885,9.8793c.0425.0705.0766.146.177.3388-1.0964-.6485-2.0843-1.2292-3.0687-1.8158q-5.6106-3.3431-11.219-6.69a26.9256,26.9256,0,0,1-7.06-6.4965,65.0251,65.0251,0,0,1-8.8434-15.1789A102.0435,102.0435,0,0,1,5.972,121.04c-.6872-3.64-1.25-7.3076-1.7334-10.98-.3422-2.5979-.5406-5.2221-.6546-7.8411-.1719-3.952-.3084-7.91-.2823-11.8647.0217-3.2951.2139-6.5955.4863-9.8806.2835-3.419.6374-6.84,1.1629-10.2294,2.0338-13.1173,6.0484-25.529,13.4-36.7113a70.2018,70.2018,0,0,1,9.47-11.5158,1.9594,1.9594,0,0,1,.3635-.2885q7.1668-4.2741,14.3376-8.5417A1.8338,1.8338,0,0,1,42.7165,13.1067ZM15.4044,83.7259a9.2216,9.2216,0,1,0-.0525,18.4432,9.2217,9.2217,0,1,0,.0525-18.4432ZM17.66,68.8933a7.0086,7.0086,0,1,0,6.9814,7.0039A6.9979,6.9979,0,0,0,17.66,68.8933Zm-1.1212,35.0672a7.0028,7.0028,0,1,0,7.0194,7.0129A7.0231,7.0231,0,0,0,16.5389,103.9605Z"/>
    <path class="a" d="M80.896,91.79c-.0737,4.085-.0724,7.0249-.1942,9.96-.1333,3.2081-.3381,6.4148-.5905,9.6159-.225,2.8545-.4931,5.7087-.8541,8.5488-1.251,9.84-3.1045,19.5455-6.7519,28.8236a34.327,34.327,0,0,1-4.7712,8.8053,9.9032,9.9032,0,0,1-3.0245,2.72,3.7694,3.7694,0,0,1-3.7161.048,8.9408,8.9408,0,0,1-2.9087-2.5347.666.666,0,0,1,.0144-.5866,61.4374,61.4374,0,0,0,4.608-10.9011A118.2342,118.2342,0,0,0,66.57,130.5876c.1644-.9155.3273-1.8314.5045-2.7444a.7342.7342,0,0,1,.2-.393,16.5012,16.5012,0,0,0,4.1537-6.3662,46.6013,46.6013,0,0,0,2.9054-10.6526c.4537-2.8945.859-5.8037,1.1081-8.7215a89.2753,89.2753,0,0,0,.2625-12.5305c-.1078-1.9481-.1556-3.9015-.3317-5.8433-.5906-6.512-1.59-12.9433-4.15-19.0248a15.967,15.967,0,0,0-3.9428-5.8994,1.5407,1.5407,0,0,1-.2959-.8421,108.8391,108.8391,0,0,0-6.3361-23.5154c-.7551-1.8128-1.6748-3.5579-2.5451-5.3212a.59.59,0,0,1,.0644-.7758,10.3,10.3,0,0,1,2.7363-2.3549,3.9348,3.9348,0,0,1,4.4649.4135,14.6,14.6,0,0,1,3.82,4.3923A50.7824,50.7824,0,0,1,74.0756,41.463a109.4,109.4,0,0,1,4.0582,16.979c.5516,3.4722,1.0684,6.9547,1.4368,10.45.4159,3.946.72,7.9073.94,11.8694C80.7351,84.8139,80.7994,88.8755,80.896,91.79Z"/>
    <path class="a" d="M72.7379,92.9328c-.1764,3.2454-.2667,6.4941-.5482,9.726a63.5305,63.5305,0,0,1-3.0972,15.6874,17.4546,17.4546,0,0,1-3.3226,6.1584,4.0354,4.0354,0,0,1-2.8823,1.5556,3.8942,3.8942,0,0,1-2.9678-1.4733,16.46,16.46,0,0,1-3.2223-5.7441,54.0612,54.0612,0,0,1-2.5961-10.5764,100.0461,100.0461,0,0,1-1.08-12.3692c-.1107-3.5964-.0031-7.1839.2444-10.7711A77.28,77.28,0,0,1,55.364,71.34a28.2742,28.2742,0,0,1,3.1929-8.2138A11.52,11.52,0,0,1,60.53,60.7483a3.2223,3.2223,0,0,1,4.5116-.0591A10.6379,10.6379,0,0,1,67.7645,64.37,38.3474,38.3474,0,0,1,70.76,73.541a70.7817,70.7817,0,0,1,1.4638,10.232C72.4262,86.8217,72.5686,89.8744,72.7379,92.9328Z"/>
    <path class="a" d="M56.87,59.9127c-.31.4579-.5688.8185-.8062,1.1925a30.9792,30.9792,0,0,0-3.5179,8.5319A71.6021,71.6021,0,0,0,50.6187,79.682a99.0525,99.0525,0,0,0-.7832,14.8344c.0809,3.2932.3151,6.5865.5975,9.87a64.3359,64.3359,0,0,0,2.4418,12.9894,26.093,26.093,0,0,0,3.9624,8.493.6324.6324,0,0,1,.05.1794c-.15.0074-.281.02-.4122.02-2.9047.0011-5.8095-.0045-8.7142.0071-.3889.0016-.57-.0691-.625-.52-.4544-3.731-1.0117-7.4508-1.3977-11.1884-.3207-3.106-.4672-6.2306-.6634-9.3487-.3552-5.644-.3818-11.2964-.2774-16.9465.0654-3.5377.2721-7.0744.4827-10.6075.158-2.6522.3627-5.3048.6566-7.9449.3431-3.0832.8016-6.1535,1.23-9.2268.02-.14.2291-.3623.3513-.3632C50.5936,59.9084,53.67,59.9127,56.87,59.9127Z"/>
    <path class="a" d="M47.7479,56.6706c1.7044-8.7555,3.7908-17.3754,8.1386-25.4521,4.0544,8.1065,6.0952,16.67,7.7431,25.4521Z"/>
    <path class="a" d="M55.8893,154.6519c-4.3351-8.0171-6.4112-16.6159-8.1327-25.3883H63.6183C61.98,137.9962,59.9383,146.5534,55.8893,154.6519Z"/>
    <path class="a" d="M15.3679,86.8635a6.0767,6.0767,0,1,1-6.0687,6.1238A6.0892,6.0892,0,0,1,15.3679,86.8635Z"/>
    <path class="a" d="M17.6442,79.7266a3.8348,3.8348,0,1,1,3.8277-3.8657A3.8215,3.8215,0,0,1,17.6442,79.7266Z"/>
    <path class="a" d="M16.5536,114.798a3.8367,3.8367,0,1,1,3.8184-3.8161A3.8152,3.8152,0,0,1,16.5536,114.798Z"/>
    <rect class="b" x="0.125" y="0.125" width="94.8778" height="185.639"/>
  </g>
</svg>
