<svg xmlns="http://www.w3.org/2000/svg" viewBox="0 0 117.0117 117.0693">
  <defs>
    <style>
      .a {
        fill: none;
        stroke: #000;
        stroke-miterlimit: 10;
        stroke-width: 0.25px;
      }
    </style>
  </defs>
  <title>eye lineart</title>
  <g>
    <path d="M60.8281.125c.2323.034.4637.0877.6971.0992a58.4691,58.4691,0,0,1,54.2009,46.1679,58.0538,58.0538,0,0,1,.8018,19.6391,57.3046,57.3046,0,0,1-12.9764,29.8529,58.1207,58.1207,0,0,1-19.2158,15.1852,55.9667,55.9667,0,0,1-17.6006,5.3746c-2.0523.2681-4.1271.3635-6.1914.5417a2.1636,2.1636,0,0,0-.3382.0837H56.885a1.5679,1.5679,0,0,0-.3344-.0829,54.5561,54.5561,0,0,1-10.0726-1.1977A57.3289,57.3289,0,0,1,16.0659,98.7,57.2653,57.2653,0,0,1,.313,63.394C.26,62.78.1881,62.1676.125,61.5545V55.64a2.4814,2.4814,0,0,0,.0843-.3923A58.0067,58.0067,0,0,1,17.9835,16.5232,57.9012,57.9012,0,0,1,54.2205.31C54.9021.2618,55.5818.1874,56.2624.125ZM58.56,3.2314a55.3594,55.3594,0,1,0,55.3376,54.195A55.3226,55.3226,0,0,0,58.56,3.2314Z"/>
    <path d="M109.3089,58.6489A50.7707,50.7707,0,1,1,59.498,7.8122,50.689,50.689,0,0,1,109.3089,58.6489Zm-98.4-.0758A47.6507,47.6507,0,1,0,58.7232,10.9373,47.61,47.61,0,0,0,10.9087,58.5731Z"/>
    <path d="M58.57,16.0583a42.5342,42.5342,0,1,1-42.5464,42.06A42.5093,42.5093,0,0,1,58.57,16.0583Zm-.0448,81.926A39.4076,39.4076,0,1,0,19.1421,57.843,39.401,39.401,0,0,0,58.5256,97.9843Z"/>
    <rect class="a" x="0.125" y="0.125" width="116.6573" height="116.6573"/>
  </g>
</svg>
