<svg xmlns="http://www.w3.org/2000/svg" viewBox="0 0 488.3306 106.1722">
  <defs>
    <style>
      .a {
        fill: #fff;
      }

      .b {
        fill: none;
        stroke: #000;
        stroke-miterlimit: 10;
        stroke-width: 0.25px;
      }
    </style>
  </defs>
  <title>face back color</title>
  <g>
    <path class="a" d="M244.43,102.8958c-6.0175,0-12.0361.07-18.0523-.0186-6.7743-.1-13.5469-.3281-20.3193-.5305-4.423-.1322-8.8464-.2775-13.2661-.4895q-8.7533-.42-17.5-.9591c-5.4174-.3314-10.8337-.692-16.2447-1.113-5.17-.4023-10.3349-.8706-15.4971-1.3626-4.99-.4755-9.98-.9635-14.9579-1.5455-6.2142-.7266-12.43-1.4637-18.6205-2.3628-7.6962-1.1177-15.386-2.3-23.0457-3.6423A344.14,344.14,0,0,1,41.654,80.1268a142.0974,142.0974,0,0,1-19.7792-7.7536A56.9994,56.9994,0,0,1,9.9684,64.869,23.3492,23.3492,0,0,1,5.27,59.6432a11.3854,11.3854,0,0,1,.1-13.2471,25.6667,25.6667,0,0,1,6.1986-6.3555,68.3663,68.3663,0,0,1,13.4791-7.7074,177.75,177.75,0,0,1,24.6312-8.6771c10.3205-2.9224,20.7687-5.3108,31.3161-7.2353q12.1381-2.2147,24.34-4.0761c6.5594-1.0019,13.1517-1.7974,19.74-2.6,5.4215-.6608,10.8539-1.2388,16.2889-1.7782,5.0569-.5019,10.1213-.9326,15.1866-1.3427q7.8045-.6319,15.6177-1.1566c4.5532-.3035,9.11-.5517,13.6679-.7843,4.6264-.2361,9.2539-.4617,13.8833-.6223q9.6393-.3345,19.2822-.5592c4.4931-.1088,8.9878-.1538,13.482-.2127,4.2869-.0561,8.5743-.1438,12.8611-.1273,6.8806.0265,13.7621.0753,20.6413.2113,7.3617.1456,14.7239.3342,22.0808.63q12.5385.5041,25.0669,1.2472,11.3868.6873,22.7555,1.6625c7.7145.6623,15.4249,1.4022,23.1179,2.2768,7.8295.89,15.6429,1.9326,23.45,3.0044q15.4146,2.1161,30.6609,5.2433a293.8149,293.8149,0,0,1,40.5452,10.829,111.9831,111.9831,0,0,1,17.06,7.5362,43.4581,43.4581,0,0,1,10.332,7.5864,19.0468,19.0468,0,0,1,2.942,3.8719,11.22,11.22,0,0,1-.038,11.745,21.2155,21.2155,0,0,1-4.2969,5.1608,51.6543,51.6543,0,0,1-11.4762,7.5875,149.1341,149.1341,0,0,1-24.9428,9.5972,325.85,325.85,0,0,1-34.4785,8.2506q-12.131,2.2529-24.3331,4.1157c-7.072,1.0787-14.1779,1.9474-21.2817,2.8018q-9.3689,1.1268-18.7672,2.004-10.7394.9935-21.5,1.7486-11.2241.7948-22.4632,1.3734c-7.0427.3585-14.0918.598-21.14.8413-4.0768.1408-8.1565.2079-12.2355.2687-7.5371.1125-15.0745.1959-22.6118.2915ZM18.8745,61.95c.7136-.1235.7264-.1375,1.1009.205a48.2612,48.2612,0,0,0,11.9182,7.646,128.3392,128.3392,0,0,0,17.8191,6.7862,299.9388,299.9388,0,0,0,30.8121,7.5294c11.81,2.3193,23.6929,4.1809,35.6287,5.6972,6.9264.88,13.868,1.6508,20.8132,2.3691q9.696,1.0026,19.415,1.7779,9.82.7794,19.6586,1.3284,11.5955.6671,23.2006,1.1615c6.3894.2644,12.7838.424,19.1775.5618,6.4636.1394,12.9288.2525,19.3936.2717,7.1919.0215,14.3843-.0615,21.5763-.1274q6.1189-.0562,12.2369-.206c5.7025-.1355,11.4068-.245,17.1055-.4816q12.123-.5036,24.2381-1.1878c6.523-.3691,13.0451-.7891,19.5559-1.3286,7.8544-.6509,15.7061-1.3622,23.541-2.2125q12.2153-1.3257,24.3941-2.98,14.2353-1.92,28.3294-4.73c9.7721-1.9311,19.4756-4.1485,29.0147-7.0381a125.2357,125.2357,0,0,0,21.0609-8.1447,43.4277,43.4277,0,0,0,9.963-6.68.8188.8188,0,0,1,1.1007-.1646c.9936-1.66,2.0038-3.233,2.8975-4.8693a11.61,11.61,0,0,0,1.35-7.6158,14.1759,14.1759,0,0,0-3.3126-6.82,28.4937,28.4937,0,0,0-5.98-5.2587A71.2243,71.2243,0,0,0,451.3533,30.47a184.9378,184.9378,0,0,0-24.9085-7.846,465.1474,465.1474,0,0,0-52.4175-9.5184c-7.4375-.9682-14.8955-1.79-22.3555-2.57q-9.695-1.0137-19.4163-1.7715-9.8212-.7768-19.66-1.3226-14.0314-.7556-28.0731-1.3144c-5.733-.2357-11.471-.3711-17.2082-.4807q-9.1777-.1755-18.358-.2079c-6.0507-.0123-12.1018.0653-18.1524.129q-6.482.0682-12.9631.208c-5.7717.1329-11.5439.2664-17.313.4778-6.149.2253-12.2977.4868-18.441.8326q-10.6644.6-21.3183,1.3845c-6.2057.4524-12.4109.94-18.6027,1.55-7.2927.7182-14.5749,1.55-21.8542,2.3961-9.135,1.0624-18.2306,2.4088-27.2994,3.9378-11.0829,1.8685-22.1,4.0524-32.9822,6.8781a169.218,169.218,0,0,0-25.0816,8.307A60.1714,60.1714,0,0,0,22.23,38.691a21.7732,21.7732,0,0,0-6.0554,6.6077,11.723,11.723,0,0,0-.2269,11.7049C16.82,58.6882,17.8773,60.2771,18.8745,61.95Z"/>
    <path class="a" d="M48.5813,72.2588c.3512-.1252.6987-.262,1.054-.3739A279.6384,279.6384,0,0,1,76.7629,64.99q13.3055-2.7651,26.7554-4.7112,11.3934-1.632,22.8259-2.9884c7.1055-.8382,14.2293-1.53,21.3521-2.2112,4.6451-.4444,9.3009-.7835,13.9555-1.12q8.6887-.6275,17.3838-1.1664c3.2086-.2012,6.4209-.3484,9.633-.4865,6.251-.2688,12.5021-.538,18.7548-.76q5.9077-.21,11.82-.2808c9.2315-.1114,18.4632-.2155,27.6952-.2579,5.6016-.0257,11.2044.0313,16.8055.12q8.7622.1388,17.5219.4177,10.313.3427,20.6209.8321,8.9083.4276,17.8076,1.0346c7.1385.4955,14.2772,1.0135,21.4023,1.6691q12.03,1.1067,24.0336,2.4891c13.9779,1.6316,27.8953,3.6873,41.714,6.3724a297.0662,297.0662,0,0,1,32.0186,7.836c.4558.1424.9086.2947,1.4307.4645-.2635.47-.6743.4673-1.0027.572-5.7677,1.8389-11.6154,3.3873-17.5053,4.7782-11.6487,2.7508-23.4143,4.8862-35.2444,6.6832-8.99,1.3656-18,2.5679-27.0426,3.5219-6.2221.6564-12.4446,1.3236-18.6784,1.8514q-12.4,1.05-24.8179,1.8758c-6.6565.4437-13.3216.7706-19.9862,1.0766q-8.65.3972-17.3077.6227-11.4049.2852-22.8135.4176-10.6323.1227-21.2662.0839c-4.7708-.01-9.5419-.1024-14.3119-.2033-5.1842-.11-10.3688-.2333-15.5507-.4211-6.46-.2341-12.9206-.4829-19.3753-.83q-10.9246-.5874-21.8386-1.37c-6.3447-.4483-12.6905-.9173-19.0193-1.5437q-12.847-1.2717-25.6677-2.8082-18.2844-2.1709-36.3692-5.66a294.8065,294.8065,0,0,1-32.8249-8.0312c-.3565-.1122-.7073-.2425-1.0608-.3643Z"/>
    <path class="a" d="M21.1755,58.841a13.32,13.32,0,0,1,2.9988-3.8948,36.5946,36.5946,0,0,1,7.8751-5.3456,107.6489,107.6489,0,0,1,17.4754-7.0791,279.3509,279.3509,0,0,1,31.2693-7.8393q14.7024-2.9262,29.5608-4.9139,11.4586-1.5387,22.9562-2.7837c6.94-.76,13.896-1.3935,20.8523-1.9971,5.1656-.4483,10.34-.8071,15.5159-1.1208q11.6974-.7091,23.4025-1.2873,8.7009-.4176,17.4115-.6264,11.6644-.2871,23.3325-.4195,9.8024-.1186,19.6063-.0829c4.84.0126,9.68.1021,14.52.2032q7.88.1647,15.7583.42c5.0787.1695,10.158.3531,15.2322.6221q11.4951.61,22.9826,1.3568,8.7442.5742,17.4756,1.3392,8.9868.7931,17.9556,1.7848c6.5272.7255,13.0569,1.4593,19.5577,2.3839,7.7334,1.1,15.4492,2.3367,23.151,3.642q14.1161,2.3925,27.9716,6.0342a163.2373,163.2373,0,0,1,23.2087,7.7116,54.1172,54.1172,0,0,1,10.73,5.84,30.8876,30.8876,0,0,1,3.5963,3.12,28.2544,28.2544,0,0,1,2.2,2.8323c-.4408.4663-.7675.8562-1.1389,1.1976A41.5979,41.5979,0,0,1,457.33,66.122a99.6435,99.6435,0,0,1-10.0711,4.3993,2.6405,2.6405,0,0,1-1.9048.0492,294.6971,294.6971,0,0,0-45.088-11.0234c-8.3449-1.4348-16.7209-2.706-25.1072-3.8768-6.7083-.9365-13.4467-1.6726-20.1839-2.3824q-10.003-1.0538-20.0314-1.8632c-7.9946-.6345-15.9976-1.1706-24.0019-1.6711-5.5888-.3495-11.1843-.6053-16.7795-.8345-6.1481-.2519-12.2993-.4242-18.4491-.6331-12.8584-.4367-25.7217-.43-38.5848-.4067q-6.4836.0118-12.9667.1255c-5.6339.1056-11.268.23-16.9.417-6.6336.22-13.2673.4628-19.8961.7929-7.0775.3525-14.1546.744-21.222,1.2546-7.9988.5779-15.9913,1.2552-23.9776,1.987q-9.2937.8516-18.5643,1.95-15.7093,1.84-31.3092,4.4688C81.0072,60.798,69.78,63.0073,58.7254,65.9981c-5.0031,1.3535-9.9418,2.9477-14.897,4.4738a3.565,3.565,0,0,1-2.5-.039,83.8839,83.8839,0,0,1-14.0248-6.6861,30.4055,30.4055,0,0,1-5.5083-4.2149C21.6016,59.3393,21.4293,59.1253,21.1755,58.841Z"/>
    <path class="a" d="M19.0127,55.9775c-.1972-.3363-.389-.6108-.5285-.91a8.3492,8.3492,0,0,1-.1648-7.0343,15.3481,15.3481,0,0,1,4.0909-5.42,42.2177,42.2177,0,0,1,9.4388-6.1679,120.1794,120.1794,0,0,1,18.8325-7.3165,298.3025,298.3025,0,0,1,30.8165-7.52Q94.224,19.12,107.0657,17.32q8.3164-1.1787,16.66-2.1626,9.1653-1.0838,18.3513-1.9894c5.16-.5091,10.33-.9268,15.5-1.3305q8.1679-.6378,16.3445-1.1654c4.3468-.28,8.6977-.5016,13.0487-.7063,5.87-.2762,11.7411-.542,17.6139-.754,4.4912-.1621,8.9854-.2536,13.479-.34,4.874-.094,9.7486-.1746,14.6233-.21,7.3308-.0531,14.6619-.0925,21.9927-.078,4.6325.0091,9.2657.09,13.8969.2045,7.1192.1765,14.2384.3708,21.3549.6315q8.6533.317,17.3.8158c6.9019.3991,13.8.8672,20.6967,1.3539q6.9825.4929,13.9549,1.1266,7.7965.7144,15.58,1.5677c4.7764.52,9.552,1.06,14.3137,1.6974,6.4751.8668,12.9459,1.7747,19.4015,2.7745q12.146,1.8812,24.16,4.4967a236.3312,236.3312,0,0,1,30.7558,8.5434,84.5293,84.5293,0,0,1,14.9549,6.8952,29.7654,29.7654,0,0,1,7.0434,5.59,11.7122,11.7122,0,0,1,2.98,5.6094,8.5593,8.5593,0,0,1-.9749,5.713c-.0633.12-.1351.2361-.2029.3541l-.293.093a2.4942,2.4942,0,0,0-.2069-.4888,24.6417,24.6417,0,0,0-7.0376-6.36,76.1416,76.1416,0,0,0-14.63-7.0861,211.56,211.56,0,0,0-27.5531-8.0627q-18.0486-4.17-36.4026-6.693-13.5568-1.8864-27.1584-3.4468c-6.9018-.79-13.8266-1.4-20.7516-1.9612-7.8555-.6366-15.72-1.1671-23.5857-1.6724-5.3468-.3435-10.7-.6-16.053-.83-5.802-.25-11.6061-.4719-17.4115-.6218-7.2229-.1866-14.4478-.3028-21.6723-.4188-4.7361-.076-9.4734-.155-14.2095-.1308q-11.5654.0591-23.13.26c-5.0463.0831-10.0921.2315-15.1359.412-6.3221.2264-12.6451.4544-18.9618.7931-7.8358.42-15.6719.87-23.496,1.4627-8.3064.63-16.6086,1.3481-24.8948,2.2012-8.4577.8708-16.9084,1.8417-25.336,2.965a440.7946,440.7946,0,0,0-49.1275,9.0859A178.3162,178.3162,0,0,0,37.479,43.5655a65.7288,65.7288,0,0,0-11.5755,6.0252,24.4169,24.4169,0,0,0-6.5082,6.0273A3.1625,3.1625,0,0,1,19.0127,55.9775Z"/>
    <rect class="b" x="0.125" y="0.125" width="488.0806" height="105.9222"/>
  </g>
</svg>
