<svg xmlns="http://www.w3.org/2000/svg" viewBox="0 0 488.5507 237.0828">
  <defs>
    <style>
      .a {
        fill: #fff;
      }

      .b {
        fill: none;
        stroke: #000;
        stroke-miterlimit: 10;
        stroke-width: 0.25px;
      }
    </style>
  </defs>
  <title>face front color</title>
  <g>
    <path class="a" d="M3.5022,6.2231c1.5274,4.4086,4.6649,7.5247,8.2671,10.2477,1.4039,1.0612,2.8735,2.0473,4.3768,2.9633A102.7,102.7,0,0,0,34.66,27.9684a254.5447,254.5447,0,0,0,28.6408,8.3252C72.8188,38.54,82.4093,40.43,92.0538,42.0347c6.0649,1.0089,12.15,1.905,18.2364,2.7735,5.13.732,10.2716,1.3866,15.416,2.0092,4.0818.494,8.1736.908,12.2647,1.3208,4.7789.4824,9.5593.9542,14.3439,1.3757,3.89.3426,7.7859.6186,11.6811.898,4.6884.3361,9.3775.6644,14.0686.958,3.1735.1987,6.3508.3373,9.5269.4928,3.8318.1877,7.6635.3813,11.4965.5415q4.5585.19,9.12.3045c5.598.1443,11.1961.313,16.7953.3828,8.4018.1048,16.8046.1439,25.207.1882,3.0083.0158,6.0171-.0181,9.0252-.0587,3.9061-.0528,7.8123-.1142,11.7175-.21,4.6994-.1152,9.399-.24,14.0965-.4157,6.1134-.2283,12.2268-.47,18.3365-.7808q8.6462-.44,17.284-1.0418,9.2562-.6477,18.501-1.4562,8.9313-.7965,17.8447-1.79c6.01-.66,12.0173-1.3529,18.0105-2.1475,9.9661-1.3212,19.8991-2.8623,29.7883-4.685,10.1617-1.8728,20.26-4.0232,30.2487-6.674a198.5843,198.5843,0,0,0,26.3429-8.7113,73.107,73.107,0,0,0,15.6309-8.4918,45.512,45.512,0,0,0,4.4533-3.875,18.2028,18.2028,0,0,0,4.2277-6.5271v.6919q0,49.7544.0039,99.5089a14.0673,14.0673,0,0,1-2.499,7.571,35.0567,35.0567,0,0,1-7.2207,7.96,86.3539,86.3539,0,0,1-15.667,10.2762A188.195,188.195,0,0,1,432.3433,144.1c-7.2754,2.4529-14.7164,4.3009-22.1349,6.2364-1.6375.4272-3.3107.7505-4.9045,1.3032a45.4282,45.4282,0,0,0-4.9517,2.1079,85.2649,85.2649,0,0,0-20.6955,14.405,104.7405,104.7405,0,0,0-21.7874,28.556,88.2738,88.2738,0,0,0-8.85,25.5542,73.8651,73.8651,0,0,0-1.04,10.0977c-.0128.3409-.0374.6815-.0553.9994-.81.2213-27.8206.2748-29.1532.06-.0168-.3791-.0405-.7829-.0516-1.187-.0527-1.9338.0479-3.8855-.18-5.7981a18.3729,18.3729,0,0,0-9.1567-14.0712,18.8016,18.8016,0,0,0-9.9928-2.6584q-19.8707-.0168-39.7413-.0045h-1.1752V188.0191c.5075-.0428.8742-.1005,1.2409-.1006q22.9836-.0068,45.9671-.0079a13.9968,13.9968,0,0,1,7.0976,1.6032,13.3864,13.3864,0,0,1,7.18,12.2373c.0147,1.28.0334,2.56-.0016,3.839a3.268,3.268,0,0,0,3.4559,3.42q6.5879-.0866,13.1775-.0021a3.3914,3.3914,0,0,0,3.5565-3.5524,54.0593,54.0593,0,0,1,5.53-23.1964A69.9215,69.9215,0,0,1,364.52,158.847a85.9306,85.9306,0,0,1,22.294-13.4438,45.44,45.44,0,0,1,5.6653-1.6317c6.5442-1.7307,13.1111-3.37,19.5367-5.53a251.7538,251.7538,0,0,0,26.6626-10.5957,163.2214,163.2214,0,0,0,19.2-10.4509,66.451,66.451,0,0,0,12.1807-9.6258,22.4135,22.4135,0,0,0,4.1913-5.762,11.5923,11.5923,0,0,0,1.1833-5.102q-.01-19.7149-.0094-39.43a12.584,12.584,0,0,0-9.3605-12.46,12.029,12.029,0,0,0-7.4418.2841,161.9035,161.9035,0,0,1-22.9858,6.2188q-12.1293,2.52-24.4054,4.1986-8.6749,1.2-17.3676,2.2708-8.1288.9867-16.2782,1.7994c-4.9166.494-9.8424.8993-14.7665,1.3147-4.89.4126-9.7811.813-14.6751,1.1734-3.6537.269-7.3124.4682-10.9692.6943-4.1394.2559-8.2779.5307-12.4191.7536-3.9346.2117-7.8721.3735-11.8088.545q-5.1277.2233-10.2568.417c-4.18.152-8.3594.3037-12.54.4151-5.9779.1592-11.9563.3075-17.9354.4125-5.8422.1025-11.6853.1576-17.5282.21-5.3595.0478-10.7194.1044-16.0789.0831q-10.0614-.04-20.1222-.207-9.021-.1452-18.04-.4144-9.0174-.26-18.0318-.6241-8.858-.36-17.7116-.8286-7.145-.3672-14.2847-.83c-5.8282-.3827-11.6554-.786-17.4781-1.2433-5.2705-.414-10.5366-.89-15.8007-1.3806-5.0922-.4745-10.1857-.9475-15.2672-1.5217-5.9046-.6672-11.8058-1.38-17.6922-2.1907-6.1249-.8439-12.2441-1.7471-18.3413-2.77A229.6283,229.6283,0,0,1,35.54,46.7589c-1.6813-.5228-3.3312-1.1457-5.0014-1.7047a12.5469,12.5469,0,0,0-16.1832,8.5666,15.5443,15.5443,0,0,0-.4829,3.9934c-.0348,12.8665-.001,25.7332-.0366,38.6a13.2008,13.2008,0,0,0,2.27,7.5167,32.734,32.734,0,0,0,5.8251,6.4455,87.1292,87.1292,0,0,0,13.0173,9.22,199.0306,199.0306,0,0,0,28.4241,13.7717A226.0816,226.0816,0,0,0,86.9,141.1766q6.0419,1.6686,12.1269,3.1795a37.2807,37.2807,0,0,1,7.1175,2.8171A86.6936,86.6936,0,0,1,128.35,162.2816,65.2768,65.2768,0,0,1,145.4182,187.46a54.8615,54.8615,0,0,1,3.3327,17.8517,7.29,7.29,0,0,0,.0978,1.1342,3.0354,3.0354,0,0,0,2.6761,2.5076,8.9426,8.9426,0,0,0,1.036.0377q6.4852.0034,12.97.0009c.2421,0,.4846.0023.726-.0122a3.0993,3.0993,0,0,0,3.0565-3.1515c.0262-1.4868,0-2.9745.0075-4.4617a13.5914,13.5914,0,0,1,9.63-12.8805,15.9087,15.9087,0,0,1,4.6126-.5671q23.0353-.01,46.0708-.0018c.3382,0,.6764.0372,1.1037.0623.0268.4767.0692.8811.07,1.2855q.0063,8.82.0075,17.64c.0014.8889.0646,1.7778.1041,2.7956h-1.3244q-19.8705,0-39.7412.0057a18.7266,18.7266,0,0,0-12.6013,4.54,18.3358,18.3358,0,0,0-6.6162,13.256c-.0913,1.5514-.0659,3.11-.0988,4.6646-.0086.408-.0352.8157-.0525,1.1982-.8535.2193-28.3677.257-29.5494.0491-.0721-1.0409-.1605-2.1-.2164-3.16a72.5251,72.5251,0,0,0-3.0417-17,99.9791,99.9791,0,0,0-21.0062-37.4062A92.0526,92.0526,0,0,0,92.7458,156.014a73.5438,73.5438,0,0,0-8.0908-3.964,49.171,49.171,0,0,0-6.4456-1.9093c-7.3525-1.9166-14.7122-3.8022-21.9133-6.2512a193.2718,193.2718,0,0,1-24.8211-10.162,93.4724,93.4724,0,0,1-17.442-10.9548,37.7885,37.7885,0,0,1-7.7278-8.1971,16.2408,16.2408,0,0,1-2.8264-9.2594q.0581-49.08.0234-98.16Z"/>
    <path class="a" d="M323.2837,205.5886c0-1.41.0091-2.7213-.0019-4.0322a16.8329,16.8329,0,0,0-14.9686-16.8095,23.2831,23.2831,0,0,0-2.7922-.1517q-22.7247-.0135-45.4494-.0064h-1.5325c-.18-2.9352.0516-5.759-.1306-8.5288-1.016-.2546-26.5589-.25-27.576.0079-.0148,2.7749-.03,5.5885-.0454,8.5209h-1.4565c-15.4265,0-30.8531-.0293-46.2794.015a16.444,16.444,0,0,0-14.0557,7.2853,15.6509,15.6509,0,0,0-2.9369,9.3427c.01,1.4142.0018,2.8286.0018,4.34a12.8141,12.8141,0,0,1-2.8233.1222c-.9334.0226-1.8677.005-2.8016.005h-2.6979c-.9339,0-1.8681.0149-2.8016-.0042a15.2829,15.2829,0,0,1-2.7949-.0955c-.0726-.9955-.15-1.9215-.2061-2.8487a60.4164,60.4164,0,0,0-11.48-31.7438,80.5593,80.5593,0,0,0-23.7094-21.865,83.25,83.25,0,0,0-13.8576-7.0081,48.3571,48.3571,0,0,0-5.96-1.7377,239.8034,239.8034,0,0,1-31.1035-9.8183,197.08,197.08,0,0,1-30.097-14.585,76.6945,76.6945,0,0,1-12.312-8.9549,27.31,27.31,0,0,1-4.5192-5.12,10.1781,10.1781,0,0,1-1.7441-5.75q.0642-19.3.0106-38.6007a9.802,9.802,0,0,1,1.984-6.294A9.2088,9.2088,0,0,1,29.579,48.2373,134.3182,134.3182,0,0,0,46.7912,53.2q8.55,1.8733,17.1713,3.4222c5.029.9125,10.0863,1.6795,15.1447,2.4176,4.4781.6535,8.9717,1.2048,13.4643,1.7533q6.8939.8415,13.8,1.5832c3.8827.4138,7.7728.7587,11.6611,1.119,3.5788.3316,7.1579.6612,10.74.9581,3.1.2569,6.2033.4708,9.3057.6963q5.17.3757,10.342.7355,3.8793.2634,7.7615.4834c3.2779.1905,6.5559.38,9.8353.5433q5.8.2885,11.602.5292c4.9382.2085,9.8761.4337,14.8161.5878,6.081.19,12.1638.3239,18.2463.4626,3.871.0883,7.7425.1761,11.6142.2033q16.3915.1152,32.7833.1735c3.3887.0126,6.7779-.0361,10.1665-.0819q6.0149-.0813,12.0291-.21c5.2182-.12,10.4364-.2489,15.6533-.4156q8.4466-.27,16.8908-.6193,6.2165-.2484,12.43-.5675c4.28-.2256,8.5569-.5,12.8349-.7581,3.7261-.2247,7.4531-.436,11.1772-.6905,3.2409-.2216,6.4783-.4947,9.7172-.7463,2.9634-.23,5.928-.4466,8.89-.6976,2.6857-.2277,5.3686-.4885,8.0518-.7444,3.0615-.292,6.1234-.5812,9.1825-.897q4.4334-.4575,8.8612-.9686,4.5825-.5262,9.16-1.0994c3.3589-.4252,6.719-.8459,10.0687-1.336,4.3064-.63,8.6119-1.2756,12.9021-2.006,11.0726-1.8851,22.0895-4.0281,32.8045-7.4841,1.2815-.4133,2.5431-.8877,3.8184-1.3208a9.27,9.27,0,0,1,12.135,6.6923,9.4521,9.4521,0,0,1,.2217,2.1573q.0192,19.8711.0182,39.7422a9.0127,9.0127,0,0,1-1.6178,4.95,30.3511,30.3511,0,0,1-6.35,6.7952,95.8412,95.8412,0,0,1-15.08,10.0547,224.9714,224.9714,0,0,1-46.704,19.1273c-4.8749,1.4119-9.8394,2.513-14.722,3.9a38.7529,38.7529,0,0,0-5.7629,2.2961,88.1336,88.1336,0,0,0-26.0844,18.3181,66.66,66.66,0,0,0-16.0768,25.955,55.8425,55.8425,0,0,0-2.8344,16.4881c-.0156.9327-.052.99-.8966.9923q-5.9665.0128-11.933-.0008A6.28,6.28,0,0,1,323.2837,205.5886ZM463.3926,80.6131c0-2.94.0371-5.88-.01-8.82a10.2652,10.2652,0,0,0-4.4047-8.5121,10.6278,10.6278,0,0,0-9.57-1.53c-2.8942.8012-5.7914,1.6233-8.7306,2.224-5.1084,1.0439-10.241,1.9779-15.3811,2.8546-3.54.6039-7.1082,1.0486-10.6677,1.536q-4.4664.6117-8.9421,1.1532c-3.328.3971-6.66.7586-9.9932,1.1144-2.9892.3192-5.9809.615-8.9725.9109-2.5791.2552-5.1585.5087-7.74.74-2.7879.25-5.5779.477-8.3677.7056-3.1343.2568-6.2685.5151-9.4043.7523q-4.9107.3715-9.8245.7035c-3.6891.2553-7.3783.5111-11.0688.7436-2.863.18-5.7278.3306-8.5924.4844-4.9007.2632-9.801.535-14.7029.7732q-8.5438.4152-17.09.7741c-4.11.17-8.2208.3043-12.3321.4246-5.3208.1555-10.642.3083-15.964.4125-5.7725.1129-11.5461.227-17.3193.2354-8.5758.0125-17.1519-.0519-25.7277-.1148-4.1482-.03-8.2964-.1123-12.4438-.2057q-7.8272-.1763-15.6529-.413-7.7738-.2349-15.5456-.5307c-4.5589-.1755-9.1164-.3889-13.6739-.5993q-4.5573-.21-9.1128-.4609c-3.2438-.1779-6.4865-.3756-9.73-.5685-2.5876-.154-5.1757-.3011-7.7621-.4744-3.6208-.2425-7.24-.5035-10.86-.7623-3.1714-.2267-6.3434-.4477-9.5131-.6963-2.9629-.2324-5.9234-.4948-8.8844-.7494-3.4432-.2961-6.8881-.5741-10.3279-.9042-3.7834-.363-7.5629-.7678-11.3424-1.17-3.367-.3587-6.7356-.707-10.0964-1.1186C79.63,69.0342,75.62,68.5214,71.62,67.9431c-4.6489-.672-9.2969-1.3614-13.9255-2.1586a165.2151,165.2151,0,0,1-18.386-4.15A9.9175,9.9175,0,0,0,31.03,62.7951,10.315,10.315,0,0,0,25.9,71.954c-.0411,5.6028.0547,11.2073-.04,16.8088a8.069,8.069,0,0,0,2.6024,6.3046A40.1,40.1,0,0,0,32.84,98.706a108.1248,108.1248,0,0,0,15.6314,8.7579C59.625,112.8348,71.09,117.47,82.6977,121.7521a305.9578,305.9578,0,0,0,31.457,10.1052A42.7968,42.7968,0,0,1,120.02,133.55a62.5237,62.5237,0,0,1,21.2214,14.21c8.2806,8.4678,13.1085,18.4631,13.41,30.4515a3.04,3.04,0,0,0,3.0689,3.1274q3.2147.08,6.4325.0025a3.0738,3.0738,0,0,0,3.12-3.19c.0214-1.0718-.0158-2.1449.01-3.2165a9.4013,9.4013,0,0,1,9.5664-9.3821q35.7457.02,71.4915.0077,31.9585,0,63.917.0046a10.6517,10.6517,0,0,1,1.9619.1155,9.3056,9.3056,0,0,1,7.753,9.29c.0127,1.0721-.0207,2.1451.0108,3.2164a3.0925,3.0925,0,0,0,2.9685,3.1406c2.1419.0713,4.29.0754,6.4315-.0005a3.0479,3.0479,0,0,0,2.9565-3.0314c.04-.8283.0995-1.6555.144-2.4836a37.9411,37.9411,0,0,1,2.07-10.3312,47.9965,47.9965,0,0,1,12.8582-19.32,63.8472,63.8472,0,0,1,14.8845-10.4638,33.0035,33.0035,0,0,1,6.4772-2.7339c5.4027-1.4473,10.824-2.8434,16.1694-4.4832,10.9684-3.3647,21.716-7.3645,32.361-11.6382A299.1133,299.1133,0,0,0,446.7835,104.45a79.2183,79.2183,0,0,0,10.971-6.6815,19.2034,19.2034,0,0,0,4.2419-4.0855,7.099,7.099,0,0,0,1.4089-4.3537C463.3613,86.4242,463.3929,83.5184,463.3926,80.6131Z"/>
    <path class="a" d="M234.1632,179.3323c1.4276-.2327,20.0779-.1718,20.9364.064.0161.3428.0486.7139.0487,1.0849q.0043,13.4325.0151,26.865a4.634,4.634,0,0,1-.7264,2.6516,21.9621,21.9621,0,0,1-1.4932,1.982,4.5092,4.5092,0,0,1-3.901,1.6988c-3.1762-.1215-6.3607-.0566-9.5413-.0223a3.3166,3.3166,0,0,1-2.2737-.82,10.7867,10.7867,0,0,1-2.5461-3.1095,4.8151,4.8151,0,0,1-.5859-2.3829q.02-13.4325.0106-26.865C234.1066,180.1071,234.1424,179.7357,234.1632,179.3323Z"/>
    <path class="a" d="M311.9777,219.0318c-1.555-.2519-2.8725-.5448-4.2056-.6646-2.6822-.2411-5.3728-.5467-8.06-.5493q-55.0427-.0536-110.0855-.0132a53.13,53.13,0,0,0-11.7376,1.1731,4.4886,4.4886,0,0,1-.5349.0411,4.9651,4.9651,0,0,1,.4009-.6209,15.1688,15.1688,0,0,1,11.6068-5.3082q21.1663-.019,42.3326-.0226a2.1838,2.1838,0,0,1,1.9381.8759,11.1408,11.1408,0,0,0,1.8188,1.6864,6.1679,6.1679,0,0,0,4.0437,1.3478c3.2854-.0288,6.5731-.0768,9.8561.0153a7.4183,7.4183,0,0,0,5.5126-2.1982,2.622,2.622,0,0,0,.5077-.5162c.6482-1.11,1.64-1.2189,2.823-1.2159,13.9033.0356,27.8066.0193,41.71.0248A15.23,15.23,0,0,1,311.45,218.31C311.6074,218.4793,311.7263,218.6848,311.9777,219.0318Z"/>
    <path class="a" d="M164.019,177.9414c-2.1069.1108-4.0544.0824-6.0322.02-.09-1.1251-.1677-2.1177-.249-3.11a45.1979,45.1979,0,0,0-8.4807-22.7358,61.9227,61.9227,0,0,0-21.8152-18.7713c-1.2475-.6688-2.5446-1.2445-3.8078-1.8848a44.0068,44.0068,0,0,0-9.3522-2.9961c-9.055-2.2811-17.882-5.2813-26.6564-8.4426-12.6481-4.5567-25.1278-9.53-37.2663-15.325a107.7928,107.7928,0,0,1-15.4731-8.6121,41.6026,41.6026,0,0,1-4.1392-3.4371A4.8553,4.8553,0,0,1,29.18,88.7551c.0787-5.6364.0162-11.2746.0373-16.9119a7.244,7.244,0,0,1,5.313-6.9964,6.8812,6.8812,0,0,1,3.9847-.014,171.7059,171.7059,0,0,0,22.78,4.8788c5.5623.87,11.1336,1.6907,16.7153,2.4237,5.0348.6613,10.0863,1.2,15.1356,1.7443q7.8325.8439,15.6759,1.5868c4.4383.415,8.8835.7584,13.3274,1.1125,5.0294.4008,10.0593.7974,15.0916,1.1594,3.6193.26,7.2427.4636,10.8646.6877q6.1051.3778,12.2111.7444,4.3992.2568,8.8008.47,6.3176.3048,12.6366.5756c2.8317.1206,5.6647.2111,8.4972.3137,5.1461.1862,10.2914.4013,15.4386.5482,4.6648.1332,9.3315.2125,13.998.2778,6.43.09,12.8605.1459,19.2909.213,3.2149.0336,6.43.0941,9.645.0815q7.8828-.0311,15.7654-.1466c4.2858-.0606,8.5713-.1583,12.8562-.2671q7.0487-.1791,14.0957-.4122,8.2382-.2809,16.4742-.6223,6.2157-.2529,12.429-.5659c4.4176-.2288,8.8328-.5012,13.2489-.7564,3.9336-.2273,7.8681-.4387,11.8-.6914,3.483-.2238,6.9631-.4939,10.4443-.7449,3.1711-.2287,6.3432-.4446,9.5127-.6932,2.9625-.2324,5.9225-.4973,8.883-.7536,2.5821-.2236,5.1645-.4436,7.7448-.686q5.0054-.47,10.0073-.9759c3.4716-.3552,6.9427-.7168,10.41-1.1148,3.6042-.4136,7.2068-.8464,10.8033-1.3218,3.698-.4889,7.3934-1.0028,11.08-1.57,8.8445-1.3617,17.6735-2.8251,26.26-5.4213a7.3859,7.3859,0,0,1,9.3947,5.1775,12.22,12.22,0,0,1,.288,2.67c.0261,5.2569-.031,10.5145.0378,15.7706a5.2752,5.2752,0,0,1-1.7464,4.2565,46.279,46.279,0,0,1-4.4287,3.5765,101.54,101.54,0,0,1-13.93,7.7709,420.8939,420.8939,0,0,1-56.7576,22.022c-4.6461,1.4446-9.4132,2.4957-14.0918,3.8418a32.3329,32.3329,0,0,0-4.8853,1.9815A66.0363,66.0363,0,0,0,346.17,144.5721a50.7333,50.7333,0,0,0-12.715,19.6807,43.5128,43.5128,0,0,0-2.373,12.7917c-.0082.24-.0245.4806-.0433.843a46.0994,46.0994,0,0,1-5.6286.098c-.0426-.53-.08-.9635-.1117-1.3969a34.4038,34.4038,0,0,0-.3612-4.5321,12.5018,12.5018,0,0,0-11.9628-9.8188c-.242-.0054-.4842-.0028-.7263-.0028q-67.6484,0-135.2967-.0058a12.5084,12.5084,0,0,0-9.4068,3.8682,12.1,12.1,0,0,0-3.5248,8.6042C164.0142,175.7334,164.019,176.7654,164.019,177.9414ZM440.8056,86.6693c0-1.3489.0154-2.6981-.0079-4.0465a6.7914,6.7914,0,0,0-.1728-1.5377,8.4291,8.4291,0,0,0-5.4931-5.8993,12.3516,12.3516,0,0,0-7.5343-.3377c-2.7257.62-5.478,1.1419-8.2374,1.5928q-5.42.8856-10.87,1.5836c-3.7688.4874-7.5478.9-11.3271,1.3-3.1956.3383-6.3972.6215-9.5977.9108-3.6827.3329-7.3656.6649-11.0512.9614-3.2036.2578-6.411.4676-9.617.6949-3.62.2565-7.238.5313-10.86.757-4.0359.2515-8.0743.4634-12.1122.6807-6.0739.3267-12.1475.6619-18.2229.958q-7.2493.3534-14.5028.6184-9.3777.3462-18.7577.6247-8.4477.248-16.8976.4141c-5.7725.1106-11.5461.24-17.3191.2343q-18.3616-.018-36.7232-.1789c-6.118-.05-12.2354-.2077-18.3523-.3486-4.8377-.1115-9.6746-.26-14.5112-.4134q-7.4622-.237-14.923-.52c-4.42-.1743-8.8391-.3933-13.2584-.5951-3.3493-.1528-6.6992-.2953-10.0474-.4686-3.3824-.1751-6.7632-.38-10.1445-.5768-2.6222-.153-5.2448-.3013-7.8657-.4756-3.5863-.2386-7.1713-.4968-10.7564-.752-3.1716-.2257-6.3446-.436-9.5136-.6946-3.6162-.2951-7.23-.6252-10.8426-.96-3.8535-.3574-7.71-.6933-11.5557-1.1212-4.2922-.4775-8.5767-1.0281-12.86-1.5831-5.3462-.6927-10.6639-1.5611-15.9184-2.7795a11.5294,11.5294,0,0,0-5.9406.1688c-3.3364.976-6.8333,3.7589-6.6055,8.7938.0984,2.1745.0622,4.3585.0025,6.5358a5.6257,5.6257,0,0,0,1.8867,4.5393,27.0874,27.0874,0,0,0,3.6975,2.8227,78.2416,78.2416,0,0,0,11.7236,5.7241,333.5116,333.5116,0,0,0,32.3918,11.2363,256.1794,256.1794,0,0,0,25.1068,6.3358,50.1234,50.1234,0,0,1,8.9963,2.3929,57.7814,57.7814,0,0,1,17.6138,10.334,32.617,32.617,0,0,1,6.0623,7.0585,23.1977,23.1977,0,0,1,3.54,11.5588,2.99,2.99,0,0,0,3.0836,2.9859c1.9017.0337,3.8047.03,5.7065.0019a3.13,3.13,0,0,0,3.1721-3.1531c.0188-.6566.0243-1.3149,0-1.9711a4.1087,4.1087,0,0,1,1.4087-3.3275,9.6879,9.6879,0,0,1,7.1385-2.5083q64.6944.0048,129.3887.0026c.2421,0,.4848-.0105.7262.0027a9.9414,9.9414,0,0,1,5.9709,2.0572,4.6375,4.6375,0,0,1,1.8654,3.8664,18.64,18.64,0,0,0,.032,2.1772,3.0524,3.0524,0,0,0,3.0263,2.8494q2.8.061,5.6027.0008a3.08,3.08,0,0,0,3.0379-2.729,6.6625,6.6625,0,0,0,.0675-.8258,19.9622,19.9622,0,0,1,1.0114-5.6959,28.4,28.4,0,0,1,8.1173-11.9722,53.6261,53.6261,0,0,1,15.9725-9.87,38.99,38.99,0,0,1,6.8526-2.3444c5-1.0631,10.0252-2.0234,14.9856-3.247a363.0811,363.0811,0,0,0,37.9011-11.6868,150.9345,150.9345,0,0,0,17.9171-7.6161,28.1333,28.1333,0,0,0,6.2242-4.085,5.8639,5.8639,0,0,0,2.1838-4.9279C440.735,89.0264,440.8059,87.8452,440.8056,86.6693Z"/>
    <path class="a" d="M168.1358,151.9432c-1.9228-.0138-3.6349.0635-5.3652-.0553-.1375-1.1858-.221-2.2856-.3986-3.37a27.078,27.078,0,0,0-5.4521-12.1734,43.8067,43.8067,0,0,0-11.575-10.2776,63.5082,63.5082,0,0,0-15.9944-7.2557c-2.0774-.6184-4.2423-.953-6.3769-1.3674-7.4336-1.4431-14.7352-3.4112-21.9982-5.528-10.7484-3.1325-21.3774-6.6239-31.78-10.7767A93.2576,93.2576,0,0,1,57.0689,95.533a45.7969,45.7969,0,0,1-4.0268-2.7264A3.0862,3.0862,0,0,1,51.75,90.028c.07-2.2806.0643-4.566.0076-6.8474A4.7107,4.7107,0,0,1,54.4156,78.72a7.525,7.525,0,0,1,5.5177-.8241c5.6,1.2657,11.2583,2.1852,16.9432,2.94,4.35.5773,8.7115,1.0637,13.0728,1.5459q5.7185.6324,11.4482,1.16c3.6131.3338,7.2316.61,10.8485.901q4.8056.3871,9.6129.75,3.5154.2623,7.034.4822,6.0531.387,12.1076.7534c2.5874.1568,5.1752.3094,7.7639.4428q6.679.3443,13.3595.6589,7.4063.3375,14.8146.6262c4.8358.18,9.6731.3244,14.51.4674q7.5666.2238,15.1342.4127,5.2354.13,10.4721.21c4.5975.0774,9.195.166,13.7928.2018,6.9159.0539,13.8321.1043,20.748.0851,6.4655-.018,12.9308-.1181,19.3959-.2029,3.3874-.0444,6.7745-.1214,10.1611-.2055q7.7231-.1919,15.4452-.417,6.0633-.18,12.1249-.4116,7.6156-.29,15.23-.6206c4.04-.1745,8.08-.3548,12.1182-.5694,4.3139-.2291,8.6256-.5008,12.9383-.7551,3.8643-.2279,7.73-.4392,11.5924-.6916,3.4141-.2231,6.8254-.4888,10.2374-.7429,2.9982-.2234,5.9972-.4393,8.9932-.69q5.4239-.4542,10.843-.9648c2.993-.28,5.9851-.5738,8.9732-.9018,3.3311-.3657,6.6618-.7417,9.9841-1.1783,3.4933-.459,6.9859-.9381,10.4612-1.5146,3.031-.5029,6.0382-1.15,9.0546-1.74a8.0818,8.0818,0,0,1,5.3557.6049,4.9632,4.9632,0,0,1,3.0554,4.8632c-.0613,2.2465-.0482,4.4968.0031,6.7438a2.7221,2.7221,0,0,1-.9569,2.3,27.8769,27.8769,0,0,1-2.9645,2.251,72.0953,72.0953,0,0,1-10.4936,5.1783,319.9812,319.9812,0,0,1-30.6806,10.8092c-7.2707,2.2135-14.5895,4.255-22.0112,5.9057-2.46.5471-4.9269,1.0818-7.4111,1.5a41.983,41.983,0,0,0-8.7176,2.6032,59.5043,59.5043,0,0,0-16.392,9.6042,35.1551,35.1551,0,0,0-8.8213,10.7564,25.2664,25.2664,0,0,0-2.7839,10.2248c-.01.17-.0454.338-.0825.6034a36.4089,36.4089,0,0,1-5.0391,0c0-.5593-.0122-1.0348.0021-1.51a8.0344,8.0344,0,0,0-3.7265-7.1144,12.0644,12.0644,0,0,0-7.1009-2.2594q-65.7322-.0164-131.4644.0079a11.5811,11.5811,0,0,0-8.6633,3.601,7.0235,7.0235,0,0,0-2.1227,5.2315C168.153,150.4781,168.1358,151.1262,168.1358,151.9432ZM306.131,138.19a15.2807,15.2807,0,1,0,.0165-30.5614,15.2807,15.2807,0,0,0-.0165,30.5614ZM198.6091,122.8967A15.2793,15.2793,0,1,0,183.2173,138.19,15.197,15.197,0,0,0,198.6091,122.8967Z"/>
    <path class="a" d="M294.2293,122.8945c-.1676-6.4185,5.4356-11.9328,11.9046-11.96A11.96,11.96,0,0,1,318.1361,122.93a11.9534,11.9534,0,1,1-23.9068-.0358Z"/>
    <path class="a" d="M171.3711,122.8965a11.9677,11.9677,0,1,1,23.9354.0316,11.9677,11.9677,0,0,1-23.9354-.0316Z"/>
    <rect class="b" x="0.125" y="0.125" width="488.3007" height="236.8328"/>
  </g>
</svg>
