<svg xmlns="http://www.w3.org/2000/svg" viewBox="0 0 488.863 237.0828">
  <defs>
    <style>
      .a {
        fill: none;
        stroke: #000;
        stroke-miterlimit: 10;
        stroke-width: 0.25px;
      }
    </style>
  </defs>
  <title>face front lineart</title>
  <g>
    <path d="M488.863,108.2492c-.1191.6013-.2171,1.2077-.3611,1.8029a20.8231,20.8231,0,0,1-3.6882,7.48,46.7785,46.7785,0,0,1-9.626,9.375,104.5658,104.5658,0,0,1-17.5969,10.5119,207.3028,207.3028,0,0,1-34.4254,12.8323c-5.4177,1.524-10.9066,2.7946-16.326,4.3131a32.3006,32.3006,0,0,0-5.3533,2.1946,82.7459,82.7459,0,0,0-21.1184,15.0287,100.8226,100.8226,0,0,0-19.049,25.2145,86.7671,86.7671,0,0,0-9.1528,25.88,55.5478,55.5478,0,0,0-.9681,9.8909,3.8654,3.8654,0,0,1-2.2114,3.9388H317.6491a1.8472,1.8472,0,0,0-.3044-.2453,3.0953,3.0953,0,0,1-1.8126-3.1068c.0372-1.14.0541-2.2836-.0041-3.4214a30.1039,30.1039,0,0,0-.393-4.5281c-.5138-2.4932-.2081-2.0845-2.5507-2.8006a40.0742,40.0742,0,0,0-11.7729-1.5574q-55.5329-.0217-111.0656-.0122a56.7055,56.7055,0,0,0-8.2654.529,31.4449,31.4449,0,0,0-6.0374,1.4335,1.4417,1.4417,0,0,0-.9948,1.0658,15.3053,15.3053,0,0,0-.6575,4.285c.0144,1.6591.011,3.3185,0,4.9777a3.1672,3.1672,0,0,1-1.6409,3.02c-.2056.1122-.4027.24-.6037.3607H140.0016c-.2138-.1084-.4293-.2134-.641-.3258a2.9182,2.9182,0,0,1-1.6719-2.6662,79.3126,79.3126,0,0,0-8.2579-32.925,100.0994,100.0994,0,0,0-18.0373-26.0785A87.0578,87.0578,0,0,0,87.2621,156.671,50.02,50.02,0,0,0,76.8072,153.07a260.1088,260.1088,0,0,1-27.68-8.3059,165.28,165.28,0,0,1-26.162-12.0016,76.7191,76.7191,0,0,1-13.2195-9.459,32.8668,32.8668,0,0,1-7.6246-9.6127A16.8816,16.8816,0,0,1,.4841,108.58a7.4376,7.4376,0,0,0-.3591-1.1611V2.8229A4.8105,4.8105,0,0,1,2.6154.125h1.66a4.5855,4.5855,0,0,0,.4753.3456,2.9138,2.9138,0,0,1,1.6649,2.571C6.4928,6.1938,8.07,8.6132,10.1443,10.79a39.9757,39.9757,0,0,0,9.8528,7.1813,119.0642,119.0642,0,0,0,19.4258,8.2856A286.7635,286.7635,0,0,0,71.03,34.763q12.5106,2.7182,25.157,4.7192,11.11,1.7378,22.2633,3.1964c6.9895.9106,13.9969,1.6959,21.0078,2.4281,5.7394.6,11.4915,1.0911,17.2451,1.5378q11.2662.8745,22.5444,1.5915c5.5519.3507,11.11.6062,16.6685.8434q7.8194.3336,15.6442.5336,9.1219.2325,18.2468.3455,10.7865.1268,21.5742.1347c5.5306-.0049,11.0617-.0971,16.5915-.2037,5.1827-.1,10.3664-.2108,15.5454-.422q12.7911-.5217,25.5761-1.19c5.1071-.2658,10.2091-.6349,15.31-1,4.7569-.34,9.5129-.7007,14.2636-1.1168,4.6472-.407,9.2892-.8754,13.93-1.3541q5.9295-.6116,11.8494-1.313,6.1758-.74,12.3388-1.5855c4.3807-.6051,8.7626-1.2132,13.1252-1.9339q9.354-1.5453,18.6792-3.2642c7.68-1.4127,15.3007-3.1134,22.8662-5.05A203.1576,203.1576,0,0,0,460.12,22.3763a76.7082,76.7082,0,0,0,14.2625-7.5654,27.6793,27.6793,0,0,0,5.714-5.0912,10.7352,10.7352,0,0,0,2.7762-6.7657A2.8368,2.8368,0,0,1,484.697.3876a4.6029,4.6029,0,0,0,.43-.2626h1.66a4.158,4.158,0,0,1,2.0753,2.2829ZM3.5022,6.2231v.9332q0,49.08-.0234,98.16a16.2408,16.2408,0,0,0,2.8264,9.2594,37.7885,37.7885,0,0,0,7.7278,8.1971,93.4724,93.4724,0,0,0,17.442,10.9548A193.2718,193.2718,0,0,0,56.2961,143.89c7.2011,2.449,14.5608,4.3346,21.9133,6.2512A49.171,49.171,0,0,1,84.655,152.05a73.5438,73.5438,0,0,1,8.0908,3.964,92.0526,92.0526,0,0,1,23.9251,19.8335,99.9791,99.9791,0,0,1,21.0062,37.4062,72.5251,72.5251,0,0,1,3.0417,17c.0559,1.0606.1443,2.1194.2164,3.16,1.1817.2079,28.6959.17,29.5494-.0491.0173-.3825.0439-.79.0525-1.1982.0329-1.555.0075-3.1132.0988-4.6646a18.3358,18.3358,0,0,1,6.6162-13.256,18.7266,18.7266,0,0,1,12.6013-4.54q19.8707-.0243,39.7412-.0057h1.3244c-.04-1.0178-.1027-1.9067-.1041-2.7956q-.0135-8.82-.0075-17.64c0-.4044-.0427-.8088-.07-1.2855-.4273-.0251-.7655-.0623-1.1037-.0623q-23.0353-.0041-46.0708.0018a15.9087,15.9087,0,0,0-4.6126.5671,13.5914,13.5914,0,0,0-9.63,12.8805c-.0071,1.4872.0187,2.9749-.0075,4.4617a3.0993,3.0993,0,0,1-3.0565,3.1515c-.2414.0145-.4839.0122-.726.0122q-6.4851.0011-12.97-.0009a8.9426,8.9426,0,0,1-1.036-.0377,3.0354,3.0354,0,0,1-2.6761-2.5076,7.29,7.29,0,0,1-.0978-1.1342,54.8615,54.8615,0,0,0-3.3327-17.8517A65.2768,65.2768,0,0,0,128.35,162.2816a86.6936,86.6936,0,0,0-22.2058-15.1084,37.2807,37.2807,0,0,0-7.1175-2.8171Q92.942,142.8512,86.9,141.1766a226.0816,226.0816,0,0,1-23.5274-8.0084,199.0306,199.0306,0,0,1-28.4241-13.7717,87.1292,87.1292,0,0,1-13.0173-9.22,32.734,32.734,0,0,1-5.8251-6.4455,13.2008,13.2008,0,0,1-2.27-7.5167c.0356-12.8666.0018-25.7333.0366-38.6a15.5443,15.5443,0,0,1,.4829-3.9934,12.5469,12.5469,0,0,1,16.1832-8.5666c1.67.559,3.32,1.1819,5.0014,1.7047a229.6283,229.6283,0,0,0,30.2961,6.8349c6.0972,1.0231,12.2164,1.9263,18.3413,2.77,5.8864.811,11.7876,1.5235,17.6922,2.1907,5.0815.5742,10.175,1.0472,15.2672,1.5217,5.2641.4906,10.53.9666,15.8007,1.3806,5.8227.4573,11.65.8606,17.4781,1.2433q7.1388.4688,14.2847.83,8.8537.4551,17.7116.8286,9.0138.3663,18.0318.6241,9.0186.26,18.04.4144,10.06.1619,20.1222.207c5.3595.0213,10.7194-.0353,16.0789-.0831,5.8429-.052,11.686-.1071,17.5282-.21,5.9791-.105,11.9575-.2533,17.9354-.4125,4.1808-.1114,8.3606-.2631,12.54-.4151q5.1291-.1866,10.2568-.417c3.9367-.1715,7.8742-.3333,11.8088-.545,4.1412-.2229,8.28-.4977,12.4191-.7536,3.6568-.2261,7.3155-.4253,10.9692-.6943,4.894-.36,9.7852-.7608,14.6751-1.1734,4.9241-.4154,9.85-.8207,14.7665-1.3147q8.1473-.8186,16.2782-1.7994,8.6936-1.0551,17.3676-2.2708,12.27-1.6981,24.4054-4.1986a161.9035,161.9035,0,0,0,22.9858-6.2188,12.029,12.029,0,0,1,7.4418-.2841,12.584,12.584,0,0,1,9.3605,12.46q.0285,19.715.0094,39.43a11.5923,11.5923,0,0,1-1.1833,5.102,22.4135,22.4135,0,0,1-4.1913,5.762,66.451,66.451,0,0,1-12.1807,9.6258,163.2214,163.2214,0,0,1-19.2,10.4509,251.7538,251.7538,0,0,1-26.6626,10.5957c-6.4256,2.161-12.9925,3.8-19.5367,5.53a45.44,45.44,0,0,0-5.6653,1.6317A85.9306,85.9306,0,0,0,364.52,158.847,69.9215,69.9215,0,0,0,345.6767,182.26a54.0593,54.0593,0,0,0-5.53,23.1964,3.3914,3.3914,0,0,1-3.5565,3.5524q-6.5879-.0879-13.1775.0021a3.268,3.268,0,0,1-3.4559-3.42c.035-1.2787.0163-2.5594.0016-3.839a13.3864,13.3864,0,0,0-7.18-12.2373,13.9968,13.9968,0,0,0-7.0976-1.6032q-22.9836.0126-45.9671.0079c-.3667,0-.7334.0578-1.2409.1006V209.7h1.1752q19.8707,0,39.7413.0045a18.8016,18.8016,0,0,1,9.9928,2.6584,18.3729,18.3729,0,0,1,9.1567,14.0712c.2282,1.9126.1276,3.8643.18,5.7981.0111.4041.0348.8079.0516,1.187,1.3326.215,28.3437.1615,29.1532-.06.0179-.3179.0425-.6585.0553-.9994a73.8651,73.8651,0,0,1,1.04-10.0977,88.2738,88.2738,0,0,1,8.85-25.5542,104.7405,104.7405,0,0,1,21.7874-28.556,85.2649,85.2649,0,0,1,20.6955-14.405,45.4282,45.4282,0,0,1,4.9517-2.1079c1.5938-.5527,3.267-.876,4.9045-1.3032,7.4185-1.9355,14.86-3.7835,22.1349-6.2364a188.195,188.195,0,0,0,27.9921-11.677,86.3539,86.3539,0,0,0,15.667-10.2762,35.0567,35.0567,0,0,0,7.2207-7.96,14.0673,14.0673,0,0,0,2.499-7.571q-.0082-49.7545-.0039-99.5089V6.4146a18.2028,18.2028,0,0,1-4.2277,6.5271,45.512,45.512,0,0,1-4.4533,3.875,73.107,73.107,0,0,1-15.6309,8.4918A198.5843,198.5843,0,0,1,435.0634,34.02c-9.9885,2.6508-20.087,4.8012-30.2487,6.674-9.8892,1.8227-19.8222,3.3638-29.7883,4.685-5.9932.7946-12.0008,1.4873-18.0105,2.1475q-8.9133.9792-17.8447,1.79-9.2421.8241-18.501,1.4562-8.6364.6044-17.284,1.0418c-6.11.3106-12.2231.5525-18.3365.7808-4.6975.1754-9.3971.3-14.0965.4157-3.9052.0957-7.8114.1571-11.7175.21-3.0081.0406-6.0169.0745-9.0252.0587-8.4024-.0443-16.8052-.0834-25.207-.1882-5.5992-.07-11.1973-.2385-16.7953-.3828q-4.5612-.1174-9.12-.3045c-3.833-.16-7.6647-.3538-11.4965-.5415-3.1761-.1555-6.3534-.2941-9.5269-.4928-4.6911-.2936-9.38-.6219-14.0686-.958-3.8952-.2794-7.7912-.5554-11.6811-.898-4.7846-.4215-9.565-.8933-14.3439-1.3757-4.0911-.4128-8.1829-.8268-12.2647-1.3208-5.1444-.6226-10.2861-1.2772-15.416-2.0092-6.0869-.8685-12.1715-1.7646-18.2364-2.7735C82.4093,40.43,72.8188,38.54,63.3005,36.2936A254.5447,254.5447,0,0,1,34.66,27.9684a102.7,102.7,0,0,1-18.5136-8.5343c-1.5033-.916-2.9729-1.9021-4.3768-2.9633C8.1671,13.7478,5.03,10.6317,3.5022,6.2231ZM323.2837,205.5886a6.28,6.28,0,0,0,.7449.105q5.9664.0079,11.933.0008c.8446-.0018.881-.06.8966-.9923a55.8425,55.8425,0,0,1,2.8344-16.4881,66.66,66.66,0,0,1,16.0768-25.955,88.1336,88.1336,0,0,1,26.0844-18.3181,38.7529,38.7529,0,0,1,5.7629-2.2961c4.8826-1.3874,9.8471-2.4885,14.722-3.9a224.9714,224.9714,0,0,0,46.704-19.1273,95.8412,95.8412,0,0,0,15.08-10.0547,30.3511,30.3511,0,0,0,6.35-6.7952,9.0127,9.0127,0,0,0,1.6178-4.95q-.0248-19.8711-.0182-39.7422a9.4521,9.4521,0,0,0-.2217-2.1573,9.27,9.27,0,0,0-12.135-6.6923c-1.2753.4331-2.5369.9075-3.8184,1.3208-10.715,3.456-21.7319,5.599-32.8045,7.4841-4.29.73-8.5957,1.3758-12.9021,2.006-3.35.49-6.71.9108-10.0687,1.336q-4.5761.5791-9.16,1.0994-4.4278.5084-8.8612.9686c-3.0591.3158-6.121.605-9.1825.897-2.6832.2559-5.3661.5167-8.0518.7444-2.9617.251-5.9263.4675-8.89.6976-3.2389.2516-6.4763.5247-9.7172.7463-3.7241.2545-7.4511.4658-11.1772.6905-4.278.258-8.5552.5325-12.8349.7581q-6.2127.3274-12.43.5675-8.4443.3375-16.8908.6193c-5.2169.1667-10.4351.2958-15.6533.4156q-6.0139.138-12.0291.21c-3.3886.0458-6.7778.0945-10.1665.0819q-16.3917-.061-32.7833-.1735c-3.8717-.0272-7.7432-.115-11.6142-.2033-6.0825-.1387-12.1653-.2728-18.2463-.4626-4.94-.1541-9.8779-.3793-14.8161-.5878q-5.8018-.2449-11.602-.5292c-3.2794-.1631-6.5574-.3528-9.8353-.5433Q152.3,66.143,148.42,65.885q-5.1721-.3512-10.342-.7355c-3.1024-.2255-6.2059-.4394-9.3057-.6963-3.5818-.2969-7.1609-.6265-10.74-.9581-3.8883-.36-7.7784-.7052-11.6611-1.119q-6.906-.7361-13.8-1.5832c-4.4926-.5485-8.9862-1.1-13.4643-1.7533-5.0584-.7381-10.1157-1.5051-15.1447-2.4176Q55.35,55.059,46.7912,53.2A134.3182,134.3182,0,0,1,29.579,48.2373a9.2088,9.2088,0,0,0-10.4317,3.0356,9.802,9.802,0,0,0-1.984,6.294q.0336,19.3-.0106,38.6007a10.1781,10.1781,0,0,0,1.7441,5.75,27.31,27.31,0,0,0,4.5192,5.12,76.6945,76.6945,0,0,0,12.312,8.9549,197.08,197.08,0,0,0,30.097,14.585,239.8034,239.8034,0,0,0,31.1035,9.8183,48.3571,48.3571,0,0,1,5.96,1.7377,83.25,83.25,0,0,1,13.8576,7.0081,80.5593,80.5593,0,0,1,23.7094,21.865,60.4164,60.4164,0,0,1,11.48,31.7438c.056.9272.1335,1.8532.2061,2.8487a15.2829,15.2829,0,0,0,2.7949.0955c.9335.0191,1.8677.0042,2.8016.0042h2.6979c.9339,0,1.8682.0176,2.8016-.005a12.8141,12.8141,0,0,0,2.8233-.1222c0-1.5113.0086-2.9257-.0018-4.34a15.6509,15.6509,0,0,1,2.9369-9.3427,16.444,16.444,0,0,1,14.0557-7.2853c15.4263-.0443,30.8529-.015,46.2794-.015h1.4565c.0156-2.9324.0306-5.746.0454-8.5209,1.0171-.2583,26.56-.2625,27.576-.0079.1822,2.77-.049,5.5936.1306,8.5288h1.5325q22.7247,0,45.4494.0064a23.2831,23.2831,0,0,1,2.7922.1517,16.8329,16.8329,0,0,1,14.9686,16.8095C323.2928,202.8673,323.2837,204.1784,323.2837,205.5886Zm-89.1205-26.2563c-.0208.4034-.0566.7748-.0568,1.1462q-.0047,13.4325-.0106,26.865a4.8151,4.8151,0,0,0,.5859,2.3829,10.7867,10.7867,0,0,0,2.5461,3.1095,3.3166,3.3166,0,0,0,2.2737.82c3.1806-.0343,6.3651-.0992,9.5413.0223a4.5092,4.5092,0,0,0,3.901-1.6988,21.9621,21.9621,0,0,0,1.4932-1.982,4.634,4.634,0,0,0,.7264-2.6516q-.0327-13.4324-.0151-26.865c0-.371-.0326-.7421-.0487-1.0849C254.2411,179.1605,235.5908,179.1,234.1632,179.3323Zm77.8145,39.7c-.2514-.347-.37-.5525-.5279-.7222a15.23,15.23,0,0,0-11.5456-5.2225c-13.9034-.0055-27.8067.0108-41.71-.0248-1.1833-.003-2.1748.1062-2.823,1.2159a2.622,2.622,0,0,1-.5077.5162,7.4183,7.4183,0,0,1-5.5126,2.1982c-3.283-.0921-6.5707-.0441-9.8561-.0153a6.1679,6.1679,0,0,1-4.0437-1.3478,11.1408,11.1408,0,0,1-1.8188-1.6864,2.1838,2.1838,0,0,0-1.9381-.8759q-21.1662.0376-42.3326.0226a15.1688,15.1688,0,0,0-11.6068,5.3082,4.9651,4.9651,0,0,0-.4009.6209,4.4886,4.4886,0,0,0,.5349-.0411,53.13,53.13,0,0,1,11.7376-1.1731q55.0428-.0273,110.0855.0132c2.6874.0026,5.378.3082,8.06.5493C309.1052,218.487,310.4227,218.78,311.9777,219.0318Z"/>
    <path d="M463.3927,80.6131c0,2.9053-.0314,5.8111.0126,8.7157a7.099,7.099,0,0,1-1.4089,4.3537,19.2034,19.2034,0,0,1-4.2419,4.0855,79.2183,79.2183,0,0,1-10.971,6.6815,299.1133,299.1133,0,0,1-27.4793,12.3923c-10.645,4.2737-21.3926,8.2735-32.361,11.6382-5.3454,1.64-10.7667,3.0359-16.1694,4.4832a33.0035,33.0035,0,0,0-6.4772,2.7339,63.8472,63.8472,0,0,0-14.8845,10.4638,47.9965,47.9965,0,0,0-12.8582,19.32,37.9411,37.9411,0,0,0-2.07,10.3312c-.0445.8281-.1041,1.6553-.144,2.4836a3.0479,3.0479,0,0,1-2.9565,3.0314c-2.1415.0759-4.29.0718-6.4315.0005a3.0925,3.0925,0,0,1-2.9685-3.1406c-.0315-1.0713.0019-2.1443-.0108-3.2164a9.3056,9.3056,0,0,0-7.753-9.29,10.6517,10.6517,0,0,0-1.9619-.1155q-31.9584-.0084-63.917-.0046-35.7458,0-71.4915-.0077a9.4013,9.4013,0,0,0-9.5664,9.3821c-.0258,1.0716.0114,2.1447-.01,3.2165a3.0738,3.0738,0,0,1-3.12,3.19q-3.2148.0729-6.4325-.0025a3.04,3.04,0,0,1-3.0689-3.1274c-.302-11.9884-5.13-21.9837-13.41-30.4515A62.5237,62.5237,0,0,0,120.02,133.55a42.7968,42.7968,0,0,0-5.8648-1.6924,305.9578,305.9578,0,0,1-31.457-10.1052C71.09,117.47,59.625,112.8348,48.471,107.4639A108.1248,108.1248,0,0,1,32.84,98.706a40.1,40.1,0,0,1-4.3779-3.6386,8.069,8.069,0,0,1-2.6024-6.3046c.0951-5.6015-.0007-11.206.04-16.8088A10.315,10.315,0,0,1,31.03,62.7951a9.9175,9.9175,0,0,1,8.2782-1.1606,165.2151,165.2151,0,0,0,18.386,4.15c4.6286.7972,9.2766,1.4866,13.9255,2.1586,4,.5783,8.01,1.0911,12.0224,1.5824,3.3608.4116,6.7294.76,10.0964,1.1186,3.7795.4026,7.559.8074,11.3424,1.17,3.44.33,6.8847.6081,10.3279.9042,2.961.2546,5.9215.517,8.8844.7494,3.17.2486,6.3417.47,9.5131.6963,3.62.2588,7.2393.52,10.86.7623,2.5864.1733,5.1745.32,7.7621.4744,3.243.1929,6.4857.3906,9.73.5685q4.5554.25,9.1128.4609c4.5575.21,9.115.4238,13.6739.5993q7.7715.2991,15.5456.5307,7.8255.2365,15.6529.413c4.1474.0934,8.2956.1753,12.4438.2057,8.5758.0629,17.1519.1273,25.7277.1148,5.7732-.0084,11.5468-.1225,17.3193-.2354,5.322-.1042,10.6432-.257,15.964-.4125,4.1113-.12,8.2225-.2545,12.3321-.4246q8.5466-.3539,17.09-.7741c4.9019-.2382,9.8022-.51,14.7029-.7732,2.8646-.1538,5.7294-.3041,8.5924-.4844,3.6905-.2325,7.38-.4883,11.0688-.7436q4.9131-.34,9.8245-.7035c3.1358-.2372,6.27-.4955,9.4043-.7523,2.79-.2286,5.58-.456,8.3677-.7056,2.5814-.2312,5.1608-.4847,7.74-.74,2.9916-.2959,5.9833-.5917,8.9725-.9109,3.3328-.3558,6.6652-.7173,9.9932-1.1144q4.4762-.534,8.9421-1.1532c3.5595-.4874,7.1274-.9321,10.6677-1.536,5.14-.8767,10.2727-1.8107,15.3811-2.8546,2.9392-.6007,5.8364-1.4228,8.7306-2.224a10.6278,10.6278,0,0,1,9.57,1.53,10.2652,10.2652,0,0,1,4.4047,8.5121C463.43,74.7327,463.3926,77.6732,463.3927,80.6131ZM164.019,177.9414c0-1.176-.0048-2.208.0009-3.24a12.1,12.1,0,0,1,3.5248-8.6042,12.5084,12.5084,0,0,1,9.4068-3.8682q67.6483.0132,135.2967.0058c.2421,0,.4843-.0026.7263.0028a12.5018,12.5018,0,0,1,11.9628,9.8188,34.4038,34.4038,0,0,1,.3612,4.5321c.0319.4334.0691.8664.1117,1.3969a46.0994,46.0994,0,0,0,5.6286-.098c.0188-.3624.0351-.6025.0433-.843a43.5128,43.5128,0,0,1,2.373-12.7917,50.7333,50.7333,0,0,1,12.715-19.6807,66.0363,66.0363,0,0,1,18.1481-12.5987,32.3329,32.3329,0,0,1,4.8853-1.9815c4.6786-1.3461,9.4457-2.3972,14.0918-3.8418a420.8939,420.8939,0,0,0,56.7576-22.022,101.54,101.54,0,0,0,13.93-7.7709,46.279,46.279,0,0,0,4.4287-3.5765,5.2752,5.2752,0,0,0,1.7464-4.2565c-.0688-5.2561-.0117-10.5137-.0378-15.7706a12.22,12.22,0,0,0-.288-2.67,7.3859,7.3859,0,0,0-9.3947-5.1775c-8.5863,2.5962-17.4153,4.06-26.26,5.4213-3.6867.5676-7.3821,1.0815-11.08,1.57-3.5965.4754-7.1991.9082-10.8033,1.3218-3.4669.398-6.938.76-10.41,1.1148q-5.0011.5116-10.0073.9759c-2.58.2424-5.1627.4624-7.7448.686-2.9605.2563-5.9205.5212-8.883.7536-3.17.2486-6.3416.4645-9.5127.6932-3.4812.251-6.9613.5211-10.4443.7449-3.9319.2527-7.8664.4641-11.8.6914-4.4161.2552-8.8313.5276-13.2489.7564q-6.2126.3217-12.429.5659-8.2362.3351-16.4742.6223-7.0467.24-14.0957.4122c-4.2849.1088-8.57.2065-12.8562.2671q-7.8822.1113-15.7654.1466c-3.2149.0126-6.43-.0479-9.645-.0815-6.43-.0671-12.8609-.1231-19.2909-.213-4.6665-.0653-9.3332-.1446-13.998-.2778-5.1472-.1469-10.2925-.362-15.4386-.5482-2.8325-.1026-5.6655-.1931-8.4972-.3137q-6.3191-.2692-12.6366-.5756-4.4014-.2124-8.8008-.47-6.1065-.3562-12.2111-.7444c-3.6219-.2241-7.2453-.4273-10.8646-.6877-5.0323-.362-10.0622-.7586-15.0916-1.1594-4.4439-.3541-8.8891-.6975-13.3274-1.1125q-7.8437-.7333-15.6759-1.5868c-5.0493-.5442-10.1008-1.083-15.1356-1.7443-5.5817-.733-11.153-1.5541-16.7153-2.4237a171.7059,171.7059,0,0,1-22.7795-4.8788,6.8812,6.8812,0,0,0-3.9847.014,7.244,7.244,0,0,0-5.313,6.9964c-.0211,5.6373.0414,11.2755-.0373,16.9119a4.8553,4.8553,0,0,0,1.5667,3.8913,41.6026,41.6026,0,0,0,4.1392,3.4371,107.7928,107.7928,0,0,0,15.4731,8.6121c12.1385,5.7954,24.6182,10.7683,37.2663,15.325,8.7744,3.1613,17.6014,6.1615,26.6564,8.4426a44.0068,44.0068,0,0,1,9.3522,2.9961c1.2632.64,2.56,1.216,3.8078,1.8848a61.9227,61.9227,0,0,1,21.8152,18.7713,45.1979,45.1979,0,0,1,8.4807,22.7358c.0813.9924.159,1.985.249,3.11C159.9646,178.0238,161.9121,178.0522,164.019,177.9414Z"/>
    <path d="M440.8058,86.6693c0,1.1759-.0708,2.3571.0158,3.5266a5.8639,5.8639,0,0,1-2.1838,4.9279,28.1333,28.1333,0,0,1-6.2242,4.085,150.9345,150.9345,0,0,1-17.9171,7.6161,363.0811,363.0811,0,0,1-37.9011,11.6868c-4.96,1.2236-9.986,2.1839-14.9856,3.247a38.99,38.99,0,0,0-6.8526,2.3444,53.6261,53.6261,0,0,0-15.9725,9.87,28.4,28.4,0,0,0-8.1173,11.9722,19.9622,19.9622,0,0,0-1.0114,5.6959,6.6625,6.6625,0,0,1-.0675.8258,3.08,3.08,0,0,1-3.0379,2.729q-2.8.0571-5.6027-.0008a3.0524,3.0524,0,0,1-3.0263-2.8494,18.64,18.64,0,0,1-.032-2.1772,4.6375,4.6375,0,0,0-1.8654-3.8664,9.9414,9.9414,0,0,0-5.9709-2.0572c-.2414-.0132-.4841-.0027-.7262-.0027q-64.6944,0-129.3887-.0026a9.6879,9.6879,0,0,0-7.1385,2.5083,4.1087,4.1087,0,0,0-1.4087,3.3275c.024.6562.0185,1.3145,0,1.9711a3.13,3.13,0,0,1-3.1721,3.1531c-1.9018.0281-3.8048.0318-5.7065-.0019a2.99,2.99,0,0,1-3.0836-2.9859,23.1977,23.1977,0,0,0-3.54-11.5588,32.617,32.617,0,0,0-6.0623-7.0585,57.7814,57.7814,0,0,0-17.6138-10.334,50.1234,50.1234,0,0,0-8.9963-2.3929,256.1794,256.1794,0,0,1-25.1068-6.3358A333.5116,333.5116,0,0,1,65.7174,103.296a78.2416,78.2416,0,0,1-11.7236-5.7241,27.0874,27.0874,0,0,1-3.6975-2.8227A5.6257,5.6257,0,0,1,48.41,90.21c.06-2.1773.0959-4.3613-.0025-6.5358-.2278-5.0349,3.2691-7.8178,6.6055-8.7938a11.5294,11.5294,0,0,1,5.9406-.1688c5.2545,1.2184,10.5722,2.0868,15.9184,2.7795,4.2831.555,8.5676,1.1056,12.86,1.5831,3.8459.4279,7.7022.7638,11.5557,1.1212,3.6129.3351,7.2264.6652,10.8426.96,3.169.2586,6.342.4689,9.5136.6946,3.5851.2552,7.17.5134,10.7564.752,2.6209.1743,5.2435.3226,7.8657.4756,3.3813.1972,6.7621.4017,10.1445.5768,3.3482.1733,6.6981.3158,10.0474.4686,4.4193.2018,8.838.4208,13.2584.5951q7.46.2942,14.923.52c4.8366.1535,9.6735.3019,14.5112.4134,6.1169.1409,12.2343.2983,18.3523.3486q18.3612.1509,36.7232.1789c5.773.0056,11.5466-.1237,17.3191-.2343q8.45-.1618,16.8976-.4141,9.38-.2751,18.7577-.6247,7.253-.2677,14.5028-.6184c6.0754-.2961,12.149-.6313,18.2229-.958,4.0379-.2173,8.0763-.4292,12.1122-.6807,3.6215-.2257,7.24-.5005,10.86-.757,3.206-.2273,6.4134-.4371,9.617-.6949,3.6856-.2965,7.3685-.6285,11.0512-.9614,3.2-.2893,6.4021-.5725,9.5977-.9108,3.7793-.4,7.5583-.8131,11.3271-1.3q5.4467-.7044,10.87-1.5836c2.7594-.4509,5.5117-.9724,8.2374-1.5928a12.3516,12.3516,0,0,1,7.5343.3377,8.4291,8.4291,0,0,1,5.4931,5.8993,6.7914,6.7914,0,0,1,.1728,1.5377C440.821,83.9712,440.8056,85.32,440.8058,86.6693Zm-272.67,65.2739c0-.817.0172-1.4651-.0032-2.1119a7.0235,7.0235,0,0,1,2.1227-5.2315,11.5811,11.5811,0,0,1,8.6633-3.601q65.7321-.0355,131.4644-.0079a12.0644,12.0644,0,0,1,7.1009,2.2594,8.0344,8.0344,0,0,1,3.7265,7.1144c-.0143.4748-.0021.95-.0021,1.51a36.4089,36.4089,0,0,0,5.0391,0c.0371-.2654.0728-.4337.0825-.6034a25.2664,25.2664,0,0,1,2.7839-10.2248,35.1551,35.1551,0,0,1,8.8213-10.7564,59.5043,59.5043,0,0,1,16.392-9.6042,41.983,41.983,0,0,1,8.7176-2.6032c2.4842-.4184,4.9509-.9531,7.4111-1.5,7.4217-1.6507,14.74-3.6922,22.0112-5.9057a319.9812,319.9812,0,0,0,30.6806-10.8092,72.0953,72.0953,0,0,0,10.4936-5.1783,27.8769,27.8769,0,0,0,2.9645-2.251,2.7221,2.7221,0,0,0,.9569-2.3c-.0513-2.247-.0644-4.4973-.0031-6.7438a4.9632,4.9632,0,0,0-3.0554-4.8632,8.0818,8.0818,0,0,0-5.3557-.6049c-3.0164.59-6.0236,1.2373-9.0546,1.74-3.4753.5765-6.9679,1.0556-10.4612,1.5146-3.3223.4366-6.653.8126-9.9841,1.1783-2.9881.328-5.98.6213-8.9732.9018q-5.4191.5079-10.843.9648c-2.996.2509-5.995.4668-8.9932.69-3.412.2541-6.8233.52-10.2374.7429-3.8627.2524-7.7281.4637-11.5924.6916-4.3127.2543-8.6244.526-12.9383.7551-4.0382.2146-8.0781.3949-12.1182.5694q-7.6141.3286-15.23.6206-6.0615.2307-12.1249.4116-7.722.23-15.4452.417c-3.3866.0841-6.7737.1611-10.1611.2055-6.4651.0848-12.93.1849-19.3959.2029-6.9159.0192-13.8321-.0312-20.748-.0851-4.5978-.0358-9.1953-.1244-13.7928-.2018q-5.2364-.088-10.4721-.21-7.5676-.1875-15.1342-.4127c-4.8372-.143-9.6745-.2871-14.51-.4674Q169.53,87.88,162.1239,87.53q-6.6809-.3045-13.3595-.6589c-2.5887-.1334-5.1765-.286-7.7639-.4428q-6.0544-.367-12.1076-.7534-3.5179-.2249-7.034-.4822-4.8076-.3588-9.6129-.75c-3.6169-.2914-7.2354-.5672-10.8485-.901q-5.7288-.5292-11.4482-1.16c-4.3613-.4822-8.7233-.9686-13.0728-1.5459-5.6849-.7546-11.3431-1.6741-16.9432-2.94a7.525,7.525,0,0,0-5.5177.8241,4.7107,4.7107,0,0,0-2.6576,4.4607c.0567,2.2814.0627,4.5668-.0076,6.8474a3.0862,3.0862,0,0,0,1.2917,2.7786,45.7969,45.7969,0,0,0,4.0268,2.7264,93.2576,93.2576,0,0,0,12.1269,5.6062c10.4022,4.1528,21.0312,7.6442,31.78,10.7767,7.263,2.1168,14.5646,4.0849,21.9982,5.528,2.1346.4144,4.2995.749,6.3769,1.3674a63.5082,63.5082,0,0,1,15.9944,7.2557,43.8067,43.8067,0,0,1,11.575,10.2776,27.078,27.078,0,0,1,5.4521,12.1734c.1776,1.0843.2611,2.1841.3986,3.37C164.5009,152.0067,166.213,151.9294,168.1358,151.9432Z"/>
    <path d="M306.131,138.19a15.2807,15.2807,0,1,1,15.3217-15.168A15.19,15.19,0,0,1,306.131,138.19Zm-11.9017-15.2956a11.9534,11.9534,0,1,0,23.9068.0358,11.96,11.96,0,0,0-12.0022-11.9963C299.6649,110.9617,294.0617,116.476,294.2293,122.8945Z"/>
    <path d="M198.6091,122.8967A15.2793,15.2793,0,1,1,183.4,107.6279,15.2612,15.2612,0,0,1,198.6091,122.8967Zm-27.238,0a11.9677,11.9677,0,0,0,23.9354.0316,11.9677,11.9677,0,1,0-23.9354-.0316Z"/>
    <rect class="a" x="0.125" y="0.125" width="488.3007" height="236.8328"/>
  </g>
</svg>
