<svg xmlns="http://www.w3.org/2000/svg" viewBox="0 0 488.6429 106.1722">
  <defs>
    <style>
      .a {
        fill: none;
        stroke: #000;
        stroke-miterlimit: 10;
        stroke-width: 0.25px;
      }
    </style>
  </defs>
  <title>face back lineart</title>
  <g>
    <path d="M227.5675,106.0472a7.518,7.518,0,0,0-1.0955-.1761c-3.0768-.0506-6.155-.0437-9.2308-.1281-5.3538-.147-10.7064-.337-16.0589-.5276-4.0408-.1439-8.0825-.2791-12.12-.4863-5.4521-.28-10.9015-.6141-16.3508-.9457-3.5875-.2183-7.175-.4425-10.7583-.7192-4.582-.3539-9.1611-.7475-13.7389-1.1533-3.9928-.354-7.9858-.7132-11.972-1.1344q-6.9061-.73-13.8-1.5762c-4.5275-.549-9.0565-1.0963-13.57-1.7488q-8.77-1.2679-17.5139-2.7108-13.0876-2.18-26.0314-5.11a262.1039,262.1039,0,0,1-32.4557-9.305,106.5559,106.5559,0,0,1-18.14-8.3781,41.7933,41.7933,0,0,1-9.6647-7.6071A19.0811,19.0811,0,0,1,.6078,56.595,13.871,13.871,0,0,1,2.1259,45.9111a24.1126,24.1126,0,0,1,5.5024-6.5642,56.5671,56.5671,0,0,1,11.6946-7.6357A146.4388,146.4388,0,0,1,42.3538,22.659a297.5385,297.5385,0,0,1,30.2291-7.6531q11.0235-2.2131,22.1123-4.097c5.7884-.9873,11.6095-1.7931,17.4289-2.5854q8.8322-1.2027,17.6905-2.21c5.1152-.5833,10.2415-1.0762,15.369-1.542q8.724-.7924,17.4594-1.4579,7.8039-.5907,15.6189-1.034c5.6577-.3257,11.319-.5945,16.98-.8555q5.54-.2554,11.0845-.4144Q214.825.567,223.3253.3942c4.4236-.0885,8.8483-.1292,13.2726-.1778C240.47.174,244.3416.1118,248.2132.1275c5.3237.0214,10.6473.0962,15.9706.171q4.8726.0686,9.7443.2075c4.4217.1222,8.8435.25,13.2637.4172q7.1478.27,14.2924.6235c4.8316.2435,9.6631.503,14.49.8292,6.516.44,13.0326.8892,19.5391,1.449,6.85.5894,13.6981,1.2351,20.5309,2,8.1035.9067,16.2045,1.8611,24.2806,2.9822a493.02,493.02,0,0,1,48.7872,9.0746,231.1461,231.1461,0,0,1,29.91,9.15,90.3812,90.3812,0,0,1,17.84,8.9772,34.3909,34.3909,0,0,1,8.2692,7.4857,16.6451,16.6451,0,0,1,3.1439,6.3662c.1391.6006.2462,1.2086.368,1.8132v2.9054c-.1265.6023-.2386,1.208-.3822,1.8061a17.8612,17.8612,0,0,1-4.21,7.6426,38.731,38.731,0,0,1-8.2659,6.8775,90.3261,90.3261,0,0,1-14.8814,7.5075,215.5711,215.5711,0,0,1-27.9113,8.9353c-9.0716,2.33-18.2264,4.2848-27.4385,5.9616q-8.5633,1.5587-17.166,2.8988c-5.1192.7983-10.2572,1.48-15.3935,2.1629q-6.42.8543-12.8571,1.587c-4.2911.4856-8.5889.916-12.8879,1.3286-5.0212.4819-10.0441.95-15.0712,1.3646-4.27.352-8.5452.6471-12.8212.917q-9.7236.6136-19.4521,1.1485c-4.0711.2176-8.1468.3575-12.2216.4973q-8.598.2949-17.1979.5322c-2.73.0746-5.4618.0738-8.1925.1244a7.77,7.77,0,0,0-1.105.1761Zm16.8629-3.1514.001.1505c7.5373-.0956,15.0747-.179,22.6118-.2915,4.079-.0608,8.1587-.1279,12.2355-.2687,7.048-.2433,14.0971-.4828,21.14-.8413q11.2375-.5721,22.4632-1.3734,10.7584-.7619,21.5-1.7486,9.3961-.8691,18.7672-2.004c7.1038-.8544,14.21-1.7231,21.2817-2.8018q12.1971-1.86,24.3331-4.1157a325.85,325.85,0,0,0,34.4785-8.2506,149.1341,149.1341,0,0,0,24.9428-9.5972,51.6543,51.6543,0,0,0,11.4762-7.5875,21.2155,21.2155,0,0,0,4.2969-5.1608,11.22,11.22,0,0,0,.038-11.745,19.0468,19.0468,0,0,0-2.942-3.8719,43.4581,43.4581,0,0,0-10.332-7.5864,111.9831,111.9831,0,0,0-17.06-7.5362,293.8149,293.8149,0,0,0-40.5452-10.829q-15.2475-3.1015-30.6609-5.2433c-7.8072-1.0718-15.6206-2.1143-23.45-3.0044-7.693-.8746-15.4034-1.6145-23.1179-2.2768Q324.5228,5.9366,313.1329,5.25q-12.5256-.7558-25.0669-1.2472c-7.3569-.2959-14.7191-.4845-22.0808-.63-6.8792-.136-13.7607-.1848-20.6413-.2113-4.2868-.0165-8.5742.0712-12.8611.1273-4.4942.0589-8.9889.1039-13.482.2127q-9.6421.2336-19.2822.5592c-4.6294.1606-9.2569.3862-13.8833.6223-4.5575.2326-9.1147.4808-13.6679.7843q-7.8127.5208-15.6177,1.1566c-5.0653.41-10.13.8408-15.1866,1.3427-5.435.5394-10.8674,1.1174-16.2889,1.7782-6.5879.8029-13.18,1.5984-19.74,2.6q-12.1969,1.8632-24.34,4.0761c-10.5474,1.9245-20.9956,4.3129-31.3161,7.2353a177.75,177.75,0,0,0-24.6312,8.6771,68.3663,68.3663,0,0,0-13.4791,7.7074A25.6667,25.6667,0,0,0,5.37,46.3961a11.3854,11.3854,0,0,0-.1,13.2471A23.3492,23.3492,0,0,0,9.9684,64.869a56.9994,56.9994,0,0,0,11.9064,7.5042A142.0974,142.0974,0,0,0,41.654,80.1268,344.14,344.14,0,0,0,86.9263,90.8719c7.66,1.3422,15.35,2.5246,23.0457,3.6423,6.1908.8991,12.4063,1.6362,18.6205,2.3628,4.9782.582,9.9681,1.07,14.9579,1.5455,5.1622.492,10.3273.96,15.4971,1.3626,5.411.421,10.8273.7816,16.2447,1.113q8.7468.5351,17.5.9591c4.42.212,8.8431.3573,13.2661.4895,6.7724.2024,13.545.43,20.3193.5305C232.3943,102.9661,238.4129,102.8958,244.43,102.8958Z"/>
    <path d="M18.8745,61.95c-.9972-1.6726-2.0544-3.2615-2.9269-4.9461a11.723,11.723,0,0,1,.2269-11.7049A21.7732,21.7732,0,0,1,22.23,38.691,60.1714,60.1714,0,0,1,34.948,31.5387,169.218,169.218,0,0,1,60.03,23.2317c10.8825-2.8257,21.8993-5.01,32.9822-6.8781,9.0688-1.529,18.1644-2.8754,27.2994-3.9378,7.2793-.8466,14.5615-1.6779,21.8542-2.3961,6.1918-.61,12.397-1.0971,18.6027-1.5495q10.6532-.7766,21.3183-1.3845c6.1433-.3458,12.292-.6073,18.441-.8326,5.7691-.2114,11.5413-.3449,17.313-.4778q6.4806-.1494,12.9631-.208c6.0506-.0637,12.1017-.1413,18.1524-.129q9.1792.0188,18.358.2079c5.7372.11,11.4752.245,17.2082.4807q14.04.5772,28.0731,1.3144,9.8375.53,19.66,1.3226,9.7176.7688,19.4163,1.7715c7.46.78,14.918,1.6021,22.3555,2.57a465.1474,465.1474,0,0,1,52.4175,9.5184,184.9378,184.9378,0,0,1,24.9085,7.846,71.2243,71.2243,0,0,1,13.5306,6.9688,28.4937,28.4937,0,0,1,5.98,5.2587,14.1759,14.1759,0,0,1,3.3126,6.82,11.61,11.61,0,0,1-1.35,7.6158c-.8937,1.6363-1.9039,3.2089-2.8975,4.8693a.8188.8188,0,0,0-1.1007.1646,43.4277,43.4277,0,0,1-9.963,6.68,125.2357,125.2357,0,0,1-21.0609,8.1447c-9.5391,2.89-19.2426,5.107-29.0147,7.0381q-14.0944,2.7854-28.3294,4.73-12.1768,1.6423-24.3941,2.98c-7.8349.85-15.6866,1.5616-23.541,2.2125-6.5108.54-13.0329.96-19.5559,1.3286q-12.114.6855-24.2381,1.1878c-5.6987.2366-11.403.3461-17.1055.4816q-6.1175.1453-12.2369.206c-7.192.0659-14.3844.1489-21.5763.1274-6.4648-.0192-12.93-.1323-19.3936-.2717-6.3937-.1378-12.7881-.2974-19.1775-.5618q-11.6044-.48-23.2006-1.1615-9.8351-.5658-19.6586-1.3284-9.717-.7713-19.415-1.7779c-6.9452-.7183-13.8868-1.4892-20.8132-2.3691-11.9358-1.5163-23.8191-3.3779-35.6287-5.6972a299.9388,299.9388,0,0,1-30.8121-7.5294,128.3392,128.3392,0,0,1-17.8191-6.7862,48.2612,48.2612,0,0,1-11.9182-7.646C19.6009,61.8122,19.5881,61.8262,18.8745,61.95ZM48.5813,72.2588l.0294.2357c.3535.1218.7043.2521,1.0608.3643A294.8065,294.8065,0,0,0,82.4964,80.89q18.0819,3.4832,36.3692,5.66,12.82,1.5222,25.6677,2.8082c6.3288.6264,12.6746,1.0954,19.0193,1.5437q10.9134.771,21.8386,1.37c6.4547.3471,12.9152.5959,19.3753.83,5.1819.1878,10.3665.3114,15.5507.4211,4.77.1009,9.5411.193,14.3119.2033q10.6331.0233,21.2662-.0839,11.4077-.1317,22.8135-.4176,8.6562-.2164,17.3077-.6227c6.6646-.306,13.33-.6329,19.9862-1.0766q12.4165-.8277,24.8179-1.8758c6.2338-.5278,12.4563-1.195,18.6784-1.8514,9.0423-.954,18.0531-2.1563,27.0426-3.5219,11.83-1.797,23.5957-3.9324,35.2444-6.6832,5.89-1.3909,11.7376-2.9393,17.5053-4.7782.3284-.1047.7392-.1023,1.0027-.572-.5221-.17-.9749-.3221-1.4307-.4645a297.0662,297.0662,0,0,0-32.0186-7.836c-13.8187-2.6851-27.7361-4.7408-41.714-6.3724q-11.9989-1.4007-24.0336-2.4891c-7.1251-.6556-14.2638-1.1736-21.4023-1.6691q-8.8969-.6176-17.8076-1.0346-10.3068-.495-20.6209-.8321-8.7584-.291-17.5219-.4177c-5.6011-.0886-11.2039-.1456-16.8055-.12-9.232.0424-18.4637.1465-27.6952.2579q-5.911.0712-11.82.2808c-6.2527.2223-12.5038.4915-18.7548.76-3.2121.1381-6.4244.2853-9.633.4865q-8.6943.5451-17.3838,1.1664c-4.6546.336-9.31.6751-13.9555,1.12-7.1228.6815-14.2466,1.373-21.3521,2.2112q-11.43,1.3483-22.8259,2.9884Q90.0684,62.205,76.7629,64.99a279.6384,279.6384,0,0,0-27.1276,6.8953C49.28,71.9968,48.9325,72.1336,48.5813,72.2588ZM21.1755,58.841c.2538.2843.4261.4983.62.6909a30.4055,30.4055,0,0,0,5.5083,4.2149,83.8839,83.8839,0,0,0,14.0248,6.6861,3.565,3.565,0,0,0,2.5.039c4.9552-1.5261,9.8939-3.12,14.897-4.4738,11.0548-2.9908,22.2818-5.2,33.5677-7.1231q15.5949-2.6574,31.3092-4.4688,9.2694-1.0857,18.5643-1.95c7.9863-.7318,15.9788-1.4091,23.9776-1.987,7.0674-.5106,14.1445-.9021,21.222-1.2546,6.6288-.33,13.2625-.5728,19.8961-.7929,5.6317-.1869,11.2658-.3114,16.9-.417q6.4822-.1217,12.9667-.1255c12.8631-.0235,25.7264-.03,38.5848.4067,6.15.2089,12.301.3812,18.4491.6331,5.5952.2292,11.1907.485,16.7795.8345,8.0043.5005,16.0073,1.0366,24.0019,1.6711q10.0266.7957,20.0314,1.8632c6.7372.71,13.4756,1.4459,20.1839,2.3824,8.3863,1.1708,16.7623,2.442,25.1072,3.8768a294.6971,294.6971,0,0,1,45.088,11.0234,2.6405,2.6405,0,0,0,1.9048-.0492A99.6435,99.6435,0,0,0,457.33,66.122a41.5979,41.5979,0,0,0,9.3023-6.1843c.3714-.3414.6981-.7313,1.1389-1.1976a28.2544,28.2544,0,0,0-2.2-2.8323,30.8876,30.8876,0,0,0-3.5963-3.12,54.1172,54.1172,0,0,0-10.73-5.84,163.2373,163.2373,0,0,0-23.2087-7.7116q-13.8489-3.6483-27.9716-6.0342c-7.7018-1.3053-15.4176-2.5421-23.151-3.642-6.5008-.9246-13.03-1.6584-19.5577-2.3839q-8.9664-.9966-17.9556-1.7848-8.7291-.77-17.4756-1.3392-11.4864-.7543-22.9826-1.3568c-5.0742-.269-10.1535-.4526-15.2322-.6221q-7.8776-.2629-15.7583-.42c-4.8393-.1011-9.68-.1906-14.52-.2032q-9.8031-.0253-19.6063.0829-11.667.1413-23.3325.4195-8.7082.2142-17.4115.6264-11.7052.5618-23.4025,1.2873c-5.1757.3137-10.35.6725-15.5159,1.1208-6.9563.6036-13.9118,1.2369-20.8523,1.9971q-11.493,1.2586-22.9562,2.7837-14.854,1.9946-29.5608,4.9139a279.3509,279.3509,0,0,0-31.2693,7.8393,107.6489,107.6489,0,0,0-17.4754,7.0791,36.5946,36.5946,0,0,0-7.8751,5.3456A13.32,13.32,0,0,0,21.1755,58.841Zm-2.1628-2.8635a3.1625,3.1625,0,0,0,.3826-.3595,24.4169,24.4169,0,0,1,6.5082-6.0273A65.7288,65.7288,0,0,1,37.479,43.5655a178.3162,178.3162,0,0,1,25.3679-8.1072,440.7946,440.7946,0,0,1,49.1275-9.0859c8.4276-1.1233,16.8783-2.0942,25.336-2.965,8.2862-.8531,16.5884-1.5716,24.8948-2.2012,7.8241-.5931,15.66-1.0425,23.496-1.4627,6.3167-.3387,12.64-.5667,18.9618-.7931,5.0438-.18,10.09-.3289,15.1359-.412q11.5639-.19,23.13-.26c4.7361-.0242,9.4734.0548,14.2095.1308,7.2245.116,14.4494.2322,21.6723.4188,5.8054.15,11.61.3716,17.4115.6218,5.3531.2308,10.7062.4869,16.053.83,7.8654.5053,15.73,1.0358,23.5857,1.6724,6.925.5613,13.85,1.1708,20.7516,1.9612q13.5984,1.5573,27.1584,3.4468,18.3424,2.5526,36.4026,6.693a211.56,211.56,0,0,1,27.5531,8.0627,76.1416,76.1416,0,0,1,14.63,7.0861,24.6417,24.6417,0,0,1,7.0376,6.36,2.4942,2.4942,0,0,1,.2069.4888l.293-.093c.0678-.118.14-.2338.2029-.3541a8.5593,8.5593,0,0,0,.9749-5.713,11.7122,11.7122,0,0,0-2.98-5.6094,29.7654,29.7654,0,0,0-7.0434-5.59,84.5293,84.5293,0,0,0-14.9549-6.8952,236.3312,236.3312,0,0,0-30.7558-8.5434q-12.0119-2.6136-24.16-4.4967c-6.4556-1-12.9264-1.9077-19.4015-2.7745-4.7617-.6375-9.5373-1.1777-14.3137-1.6974q-7.7834-.8469-15.58-1.5677-6.9707-.6387-13.9549-1.1266c-6.8964-.4867-13.7948-.9548-20.6967-1.3539q-8.6446-.5-17.3-.8158c-7.1165-.2607-14.2357-.455-21.3549-.6315-4.6312-.1148-9.2644-.1954-13.8969-.2045-7.3308-.0145-14.6619.0249-21.9927.078-4.8747.0352-9.7493.1158-14.6233.21-4.4936.0867-8.9878.1782-13.479.34-5.8728.212-11.7437.4778-17.6139.754-4.351.2047-8.7019.4266-13.0487.7063q-8.1759.5262-16.3445,1.1654c-5.17.4037-10.3395.8214-15.5,1.3305q-9.1845.9063-18.3513,1.9894-8.3414.9864-16.66,2.1626Q94.2289,19.14,81.4981,21.6089a298.3025,298.3025,0,0,0-30.8165,7.52,120.1794,120.1794,0,0,0-18.8325,7.3165A42.2177,42.2177,0,0,0,22.41,42.613a15.3481,15.3481,0,0,0-4.0909,5.42,8.3492,8.3492,0,0,0,.1648,7.0343C18.6237,55.3667,18.8155,55.6412,19.0127,55.9775Z"/>
    <rect class="a" x="0.125" y="0.125" width="488.0806" height="105.9222"/>
  </g>
</svg>
