<svg xmlns="http://www.w3.org/2000/svg" viewBox="0 0 489.1956 332.9239">
  <defs>
    <style>
      .a {
        fill: none;
        stroke: #000;
        stroke-miterlimit: 10;
        stroke-width: 0.25px;
      }
    </style>
  </defs>
  <title>head front contour</title>
  <g>
    <path d="M460.2236,332.7989a5.3717,5.3717,0,0,1-2.0718-1.8147,18.8945,18.8945,0,0,0-3.7867-3.6706,68.7878,68.7878,0,0,0-10.9512-6.7059,240.22,240.22,0,0,0-27.8011-11.65c-1.0717-.3876-2.1385-.7949-3.2277-1.1269a3.33,3.33,0,0,1-2.548-3.3648,36.6653,36.6653,0,0,0-1.0893-7.3726c-3.1551-12.6013-10.207-22.247-21.7756-28.3715a35.7248,35.7248,0,0,0-15.1993-4.09A37.7368,37.7368,0,0,0,346.5,272.5677a41.4813,41.4813,0,0,0-11.916,14.4347c-.1728.3386-.3475.6764-.5135,1.0184a3.0373,3.0373,0,0,1-3.3021,1.8019c-1.4791-.1428-2.954-.3314-4.4338-.4645-2.9256-.2631-5.85-.5507-8.7808-.74q-8.5862-.5547-17.179-1.0024c-4.3483-.22-8.7011-.3543-13.0527-.5051q-7.5107-.26-15.0227-.4792c-2.4185-.0709-4.8381-.1115-7.2574-.1442-5.7034-.0771-11.4068-.18-17.1105-.2q-9.23-.0336-18.4592.07c-3.9045.0388-7.8087.1523-11.7119.2723-7.737.2378-15.4753.4527-23.209.7727-6.525.27-13.05.5925-19.5644,1.0451-5.9969.4167-11.981,1.0236-17.968,1.5759-2.18.2011-3.0114-.28-4.015-2.2775-5.4167-10.7828-13.6041-18.4968-25.37-21.7053-13.6623-3.7257-25.8932-.5187-36.3787,8.9148a42.0279,42.0279,0,0,0-13.3124,24.7313,56.6379,56.6379,0,0,0-.621,5.6613,3.297,3.297,0,0,1-2.3575,3.1735c-7.7439,2.776-15.41,5.7492-22.8908,9.1816a95.9692,95.9692,0,0,0-15.0894,8.23c-1.6376,1.1427-3.138,2.4861-4.6668,3.7784a6.6435,6.6435,0,0,0-1.2193,1.4061,4.7677,4.7677,0,0,1-1.9186,1.6822H26.8966a1.32,1.32,0,0,0-.3492-.1783q-5.6661-.9557-11.3346-1.8979-6.1279-1.0236-12.2556-2.0484a2.959,2.959,0,0,1-2.4593-2.0994c-.0989-.2861-.2473-.5552-.3729-.8321V206.8269a2.2817,2.2817,0,0,0,.1783-.5592c.0774-1.517.1492-3.0344.1991-4.5525A154.8172,154.8172,0,0,1,3.0971,178.87a196.7194,196.7194,0,0,1,7.5644-28.6254,213.6146,213.6146,0,0,1,19.0232-40.6791A219.1271,219.1271,0,0,1,65.8219,64.5769a210.464,210.464,0,0,1,29.5022-23.644A227.39,227.39,0,0,1,148.9557,14.831,264.0521,264.0521,0,0,1,179.96,6.5017c7.7546-1.5967,15.5577-2.8985,23.4173-3.82,5.4211-.6355,10.8643-1.0949,16.3044-1.5523C226.054.5936,232.443.359,238.8373.2751a7.0262,7.0262,0,0,0,.9872-.15h9.5465a3.3314,3.3314,0,0,0,.6814.15c6.6375.061,13.269.3115,19.8817.8735,5.9214.5033,11.8415,1.0559,17.7426,1.7526,6.6573.786,13.2655,1.9193,19.8435,3.2242a260.79,260.79,0,0,1,37.7259,10.4036,219.2692,219.2692,0,0,1,83.81,53.4618,210.1231,210.1231,0,0,1,14.1592,15.85,213.134,213.134,0,0,1,25.9209,40.9085,210.3221,210.3221,0,0,1,11.2251,28.0767,190.0549,190.0549,0,0,1,6.9049,29.2175,124.4933,124.4933,0,0,1,1.6258,16.6c.0085.54.1163,1.0789.1781,1.6182V307.0649a7.8848,7.8848,0,0,0-.179,1.1862c-.0118,5.7685-.0048,11.537-.01,17.3055a2.7887,2.7887,0,0,1-2.6255,3.1265c-6.9751,1.1753-13.9544,2.3256-20.93,3.4948-1.0823.1814-2.1562.4127-3.234.621ZM312.1181,217.5938c.1811-.3609.3095-.641.4584-.91.804-1.4494,1.5328-2.9481,2.4344-4.3343a49.15,49.15,0,0,1,13.8108-13.7318,68.3536,68.3536,0,0,1,38.4472-11.8811,72.0982,72.0982,0,0,1,14.4271,1.3421,76.4706,76.4706,0,0,1,22.5067,7.8607,57.2871,57.2871,0,0,1,19.3558,16.6162,7.0671,7.0671,0,0,0,.4982.5311v-1.3213q0-19.7138-.0053-39.4275c-.0016-1.97-.0136-3.9432-.1292-5.9085-.2069-3.5179-.3612-7.0474-.7856-10.5419-.5243-4.3174-1.1913-8.6251-2.0018-12.8981-.7651-4.0339-1.7986-8.0169-2.7076-12.0237a1.2138,1.2138,0,0,0-.9712-1.0659,2.7615,2.7615,0,0,1-.3889-.1421,396.0862,396.0862,0,0,0-49.1654-14.1013,6.3234,6.3234,0,0,0-.8286-.0608v1.3906c0,12.4508-.0212,24.9016.0161,37.3523a3.3493,3.3493,0,0,1-4.4112,3.4211,213.1339,213.1339,0,0,0-20.977-4.4273q-6.3874-1.069-12.797-2.0029c-3.4874-.5019-6.9891-.9066-10.4883-1.3222q-4.117-.4888-8.2438-.8963c-3.3693-.3366-6.74-.6653-10.114-.946q-4.8555-.404-9.72-.6991c-4.5877-.2823-9.1764-.56-13.768-.7671q-7.8714-.355-15.7488-.575-5.028-.1452-10.0608-.1212c-7.7794.0384-15.5592.08-23.3373.2113-5.2869.0891-10.5731.288-15.856.52-4.2805.1878-8.5566.4836-12.833.7582-3.3454.2148-6.6917.43-10.0313.7183-4.0276.3475-8.0512.7471-12.0718,1.17-3.8483.4049-7.699.8049-11.5331,1.3224-4.9972.6746-9.9844,1.4286-14.9662,2.2109q-9.0093,1.4148-17.9,3.4593c-1.9178.4435-3.8252.9326-5.7352,1.4091a3.1469,3.1469,0,0,1-4.19-3.1948c-.0022-.2767,0-.5534,0-.83q0-18.4687-.0019-36.9374c0-.3958-.0277-.7917-.045-1.2538-.3072.053-.4743.0721-.6364.1112-5.036,1.2142-10.0876,2.3676-15.1037,3.6589a355.22,355.22,0,0,0-34.335,10.6211,2.0643,2.0643,0,0,0-1.4572,1.6338,173.4668,173.4668,0,0,0-3.8481,18.9812c-.5515,4.0023-1.0037,8.0268-1.2787,12.0564-.2822,4.1349-.3124,8.2878-.4206,12.4336-.1551,5.9433-.2809,11.8874-.4192,17.8311s-.2776,11.8874-.4134,17.8312c-.0121.5275-.0016,1.0556-.0016,1.8039.3221-.3942.48-.5746.6238-.7653A54.9472,54.9472,0,0,1,77.02,200.1446a71.596,71.596,0,0,1,24.3211-10.9957,70.811,70.811,0,0,1,15.3494-2.2652,68.1277,68.1277,0,0,1,17.6862,1.85,74.5585,74.5585,0,0,1,29.4448,13.9732,44.0389,44.0389,0,0,1,10.085,10.7851c.87,1.3628,1.6052,2.8119,2.4521,4.31l18.3145-2.1519c.1663-.3566.314-.6687.4577-.9825a27.41,27.41,0,0,1,16.1759-15.0266,92.081,92.081,0,0,1,24.415-4.89,114.5181,114.5181,0,0,1,12.1211-.28c3.8042.1233,7.5906.38,11.3665.85a90.1394,90.1394,0,0,1,18.36,4.1571,27.5979,27.5979,0,0,1,16.4776,14.8449c.6638,1.3966.3084,1.33,2.0223,1.4135.413.02.8227.1022,1.2347.1484q5.3052.5941,10.6105,1.1879C309.2848,217.2283,310.6523,217.4112,312.1181,217.5938Zm-186.5533-63.08c.47-.0881.7346-.1265.9941-.1883,1.8139-.4327,3.6211-.8945,5.4405-1.3023a351.7808,351.7808,0,0,1,36.3732-6.0387c6.3832-.7418,12.7747-1.4306,19.1751-2,5.8853-.5235,11.7837-.925,17.6835-1.251,6.2451-.345,12.4975-.568,18.7488-.7859,4.18-.1457,8.3625-.2614,12.544-.2633,7.71-.0035,15.42.0851,23.13.1392,1.4522.01,2.9053.0108,4.3563.0635,5.3187.193,10.6385.3693,15.9545.6237,4.0381.1932,8.0724.4758,12.106.7544s8.0692.5432,12.094.92c5.022.47,10.0429.9749,15.0479,1.5969,6.2726.7794,12.5423,1.6036,18.7882,2.5706,8.33,1.29,16.605,2.8863,24.7792,4.9695.2573.0656.522.1026.893.174.0291-.57.0741-1.0431.0743-1.5164q.0061-14.9922.0012-29.9846-.019-19.9194-.0577-39.8389a53.0738,53.0738,0,0,0-1.4892-12.3229,60.4031,60.4031,0,0,0-26.7973-37.98,64.8523,64.8523,0,0,0-15.8333-7.122,221.752,221.752,0,0,0-41.8828-8.9636c-4.8732-.5575-9.7592-1.052-14.6527-1.3687-4.9644-.3214-9.9441-.483-14.9191-.5384q-7.36-.0822-14.7239.2067c-4.9707.194-9.94.52-14.8969.9444-3.9216.3355-7.8363.8171-11.73,1.3964-4.7126.7011-9.4177,1.4815-14.094,2.3923a220.7217,220.7217,0,0,0-23.4529,6.0986,60.8074,60.8074,0,0,0-27.0462,16.6665,59.5949,59.5949,0,0,0-16.5576,41.2518c-.1973,23.17-.0508,46.3425-.0508,69.514ZM3.5359,303.82a22.1756,22.1756,0,0,1,5.3546-8.0463,57.6063,57.6063,0,0,1,4.8633-4.3549,87.429,87.429,0,0,1,16.01-9.9293c4.0265-1.9837,8.1531-3.7647,12.2407-5.6235.9745-.4432.9853-.42.9891-1.52.001-.2767,0-.5534,0-.83q0-48.0387-.0029-96.0775c-.0006-3.9771.1123-7.9468.4038-11.9158.408-5.5539,1.0806-11.0743,1.9714-16.5668a224.3967,224.3967,0,0,1,4.7172-21.9743A216.2222,216.2222,0,0,1,67.5768,81.7472,165.15,165.15,0,0,1,87.8033,51.5685c.6645-.7813,1.3385-1.5547,2.0081-2.3318a3.8072,3.8072,0,0,0-1.0652.5942A211.8269,211.8269,0,0,0,58.4482,76.702a208.4694,208.4694,0,0,0-36.6446,54.5123,193.6909,193.6909,0,0,0-17.53,62.1417c-.4459,4.3715-.7085,8.7537-.7219,13.1422-.0418,13.6956-.0153,27.3914-.0153,41.0871Zm482.39-.1454v-1.6586q0-47.2626.0058-94.5253A147.9239,147.9239,0,0,0,484.7,188.6748a176.205,176.205,0,0,0-3.6676-19.6485,206.0646,206.0646,0,0,0-18.5359-48.2445,208.9985,208.9985,0,0,0-39.3286-52.1089,213.4172,213.4172,0,0,0-22.3723-18.8113c-.285-.2083-.5858-.3951-.8792-.5919a2.2328,2.2328,0,0,0,.51.8182,155.6328,155.6328,0,0,1,14.1793,19.03,199.41,199.41,0,0,1,20.7807,44.3839,220.09,220.09,0,0,1,10.4212,48.526c.44,4.6149.7372,9.2367.74,13.8689q.03,48.9747.0105,97.9494v1.5786c.3641.1673.67.32.9851.451,4.6926,1.95,9.314,4.0531,13.8113,6.4236a89.86,89.86,0,0,1,14.9245,9.5266C480.3064,295.0966,483.9944,298.6622,485.9263,303.675ZM423.899,272.8581l.1568-.0516q0-12.1911-.0126-24.382a2.2458,2.2458,0,0,0-.2976-1.07c-.6751-1.1659-1.3582-2.3312-2.1122-3.4468a51.53,51.53,0,0,0-15.9289-15.0721c-10.6563-6.565-22.3521-9.7534-34.7647-10.4912a62.9652,62.9652,0,0,0-14.26.8258,64.0851,64.0851,0,0,0-25.881,10.333,46.021,46.021,0,0,0-13.14,13.0882c-.9435,1.4791-1.6879,3.0876-2.4875,4.6552a3.2418,3.2418,0,0,1-3.2683,1.908c-4.1846-.506-8.3676-1.0261-12.5527-1.5281-.8789-.1055-1.7643-.1577-2.7795-.2459,0,.4863,0,.8583,0,1.23,0,2.1444.0219,4.2892-.0082,6.4332a3.1154,3.1154,0,0,1-3.5562,3.023c-4.3858-.56-8.7658-1.202-13.1676-1.5929q-8.62-.7656-17.2715-1.1741c-4.9707-.2377-9.9522-.3162-14.93-.3331-5.3927-.0183-10.7867.08-16.1789.193-6.5671.1371-13.1222.52-19.6682,1.0766-5.1662.44-10.3186.9775-15.4366,1.82a3.1224,3.1224,0,0,1-3.4671-2.1664,5.7576,5.7576,0,0,1-.1949-1.5332c-.0222-1.8675-.0061-3.7354-.0114-5.6031-.0011-.37-.0329-.74-.0572-1.2491-1.2217.1082-2.35.1745-3.4686.3133-4.114.51-8.225,1.0456-12.3374,1.57a3.1718,3.1718,0,0,1-3.6033-1.9874,29.745,29.745,0,0,0-5.3865-8.1957,59.329,59.329,0,0,0-18.2232-13.33A71.8481,71.8481,0,0,0,125.982,218.85a60.7879,60.7879,0,0,0-14.0726-.0779,75.9343,75.9343,0,0,0-17.9916,4.3326,59.6311,59.6311,0,0,0-22.2186,14.1267,46.7686,46.7686,0,0,0-7.8372,10.66,3.0688,3.0688,0,0,0-.3676,1.2607c-.0911,2.1061-.14,4.2143-.1861,6.3222q-.1715,7.7763-.3233,15.5532a5.7667,5.7667,0,0,0,.1183.7917c.195-.421.3026-.6358.3958-.8568a53.2274,53.2274,0,0,1,13.326-19.0642c13.886-12.577,30.1332-17.2343,48.5507-13.88a64.1464,64.1464,0,0,1,28.1974,12.9169,51.5815,51.5815,0,0,1,14.2862,16.6369,3.8171,3.8171,0,0,0,.3064.4256c.8873-.0909,1.7444-.1728,2.6-.2673,4.74-.5232,9.4745-1.0926,14.2193-1.5629q7.4273-.7362,14.87-1.3136c5.685-.44,11.3732-.8592,17.0664-1.17,5.1069-.2784,10.2216-.4325,15.3347-.5743q5.4952-.1523,10.995-.1212,7.5192.0356,15.0375.2064c4.6994.1118,9.3995.2585,14.0936.5,4.8315.2482,9.6581.602,14.4831.96,4.4455.33,8.8906.68,13.3275,1.1067,5.9847.5763,11.9614,1.235,17.9414,1.859.9244.0965.9263.0994,1.3514-.6852a49.164,49.164,0,0,1,9.5672-12.3213,65.3777,65.3777,0,0,1,25.5625-14.9384,56.3777,56.3777,0,0,1,23.8547-2.36,53.6769,53.6769,0,0,1,18.4519,5.5771,55.2764,55.2764,0,0,1,26.43,28.6482Q423.6274,272.1991,423.899,272.8581Zm61.8208,36.733c-2.1473-.74-2.7154-1.7084-2.85-3.5122a6.9211,6.9211,0,0,0-1.0153-3.1318,32.0489,32.0489,0,0,0-2.6088-3.7288,40.158,40.158,0,0,0-7.3115-6.5736,110.6452,110.6452,0,0,0-19.7436-11.132c-2.2656-1.0258-4.562-1.9842-6.85-2.96a3.1592,3.1592,0,0,1-2.102-3.14c.0008-.45-.0024-.8992-.0024-1.3488q0-41.97-.0029-83.94c-.001-5.0143-.0492-10.0285-.0546-15.0427a154.2361,154.2361,0,0,0-1.6454-20.654,219.7562,219.7562,0,0,0-5.06-25.4958,210.53,210.53,0,0,0-17.21-45.2288,159.0315,159.0315,0,0,0-23.0606-33.35,3.4124,3.4124,0,0,1-.761-4.1563.8908.8908,0,0,0,.0407-.281c-5.3784-4.6964-34.1252-20.4987-38.4693-21.0959.2413.2023.4062.3248.553.466,3.7357,3.5959,7.5719,7.0941,11.1834,10.8107a206.2192,206.2192,0,0,1,24.2629,30.3319,216.6758,216.6758,0,0,1,24.7146,50.7406,187.7011,187.7011,0,0,1,8.5716,37.4055,131.27,131.27,0,0,1,1.0167,15.5093q.0036,58.8306.0016,117.6612c0,1.2306.0107,1.2062,1.0221,1.5683,5.2675,1.8861,10.5673,3.69,15.7862,5.7024a160.3859,160.3859,0,0,1,23.5891,11.1557,63.1693,63.1693,0,0,1,12.6779,9.3026,21.7483,21.7483,0,0,1,4.6288,6.1981c.2143.4588.4074.9274.699,1.5945ZM132.2289,24.81A207.8637,207.8637,0,0,0,93.8879,45.8c.9183,2.1092.736,3.0268-.6707,4.6454-2.041,2.3484-4.0964,4.6885-6.0376,7.1185a167.3361,167.3361,0,0,0-20.1466,32.55A208.0157,208.0157,0,0,0,56.62,116.5055a229.3187,229.3187,0,0,0-7.95,33.22c-.8664,5.3586-1.59,10.7367-1.9494,16.15-.2836,4.2737-.443,8.5635-.4477,12.8464q-.0537,48.1932-.02,96.3864a3.2219,3.2219,0,0,1-2.3775,3.5649,159.762,159.762,0,0,0-16.0326,7.5331,79.2333,79.2333,0,0,0-13.6068,9.077,31.088,31.088,0,0,0-5.4617,5.8,11.0056,11.0056,0,0,0-2.2164,5.61A2.98,2.98,0,0,1,4.4,309.3564c-.8525.3106-.8623.3033-.863,1.217q-.0045,5.7065-.0014,11.4128v1.1667A21.0816,21.0816,0,0,1,8.28,315.749a43.2759,43.2759,0,0,1,5.931-5.178,103.2024,103.2024,0,0,1,17.4147-9.997,245.7291,245.7291,0,0,1,26.531-10.3567c.3519-.1178.6987-.25,1.0238-.3674.0248-.2681.05-.4389.055-.61q.1815-6.737.3572-13.4741.2191-8.9668.4175-17.9343.2061-8.8634.4139-17.7268.2094-9.0189.4147-18.038c.0933-4.2508.1618-8.5022.2574-12.7529.1142-5.0794.249-10.1584.3675-15.2377.0363-1.5555.0353-3.1118.0733-4.6672.12-4.9063.2662-9.812.3712-14.7186.1065-4.9755.153-9.9506.5814-14.9158q.6465-7.4949,1.98-14.8919a197.3627,197.3627,0,0,1,7.9934-30.2167A216.8314,216.8314,0,0,1,106.46,52.3294a205.85,205.85,0,0,1,20.8441-22.9281C128.9351,27.8594,130.5868,26.34,132.2289,24.81Zm4.389-2.0026c-.0468.1832-.0884.2537-.0769.3141a3.7288,3.7288,0,0,1-1.5153,3.7147,190.74,190.74,0,0,0-14.0452,13.6657A211.8739,211.8739,0,0,0,93.2951,77.7034c-.127.2161-.215.4551-.3212.6834a2.0572,2.0572,0,0,0,.8665-.4256,225.1059,225.1059,0,0,1,34.5089-22.1561,2.8564,2.8564,0,0,0,1.2652-1.2828A62.9666,62.9666,0,0,1,162.529,24.7859a148.4023,148.4023,0,0,1,18.9-5.8257A203.4771,203.4771,0,0,1,202.03,14.7664c4.4764-.66,8.9609-1.2856,13.458-1.7789,3.8108-.4181,7.6412-.6863,11.4694-.9079,4.4152-.2555,8.836-.4744,13.2571-.5514q9.2809-.1617,18.558.3228,8.0795.411,16.1214,1.25,8.4564.89,16.8253,2.3769A228.9432,228.9432,0,0,1,321.1657,22.76a67.3082,67.3082,0,0,1,18.757,9.1022,63.8145,63.8145,0,0,1,19.6156,22.3022,2.7394,2.7394,0,0,0,1.2268,1.1837c2.7466,1.4585,5.4963,2.9141,8.2022,4.4462a220.9738,220.9738,0,0,1,26.2378,17.4323c.2147.1658.4527.3014.68.451a1.5245,1.5245,0,0,0-.2369-.6469,213.7634,213.7634,0,0,0-19.2528-27.3739,197.8893,197.8893,0,0,0-16.6989-17.879c-1.888-1.7769-3.807-3.5212-5.7344-5.2554a3.36,3.36,0,0,1-1.2245-3.0317c.0223-.1963.0384-.3934.0591-.6071-.3315-.1469-.61-.28-.8952-.3951A248.9182,248.9182,0,0,0,313.125,10.56a276.6981,276.6981,0,0,0-36.2242-5.6277c-5.4383-.4717-10.8851-.8811-16.3361-1.1612-4.59-.2358-9.1905-.3129-13.7869-.3328-4.6314-.02-9.2644.0811-13.8951.1941-6.0822.1484-12.1571.4807-18.2111,1.0927-5.2241.5281-10.4511,1.054-15.656,1.7395-6.6439.875-13.2391,2.0621-19.799,3.4449a255.2462,255.2462,0,0,0-37.859,11.0368C139.7483,21.5556,138.1534,22.2031,136.6179,22.8071ZM63.7234,241.579c.22-.2415.2957-.31.354-.3915A58.2481,58.2481,0,0,1,85.49,223.2448a77.847,77.847,0,0,1,20.4514-6.9045,65.2441,65.2441,0,0,1,20.3234-.8085,74.4509,74.4509,0,0,1,16.0168,3.707,72.3529,72.3529,0,0,1,22.7032,12.6385,42.3306,42.3306,0,0,1,9.662,11.0185c.59,1.007,1.0962,2.0627,1.6674,3.1461l16.369-1.9662v-1.367q0-8.04.0008-16.0809a31.5487,31.5487,0,0,1,.7051-6.6875,4.8066,4.8066,0,0,0,.0515-.6774,1.5605,1.5605,0,0,0-.3728-.07c-3.2266.3653-6.4543.7218-9.678,1.111-2.1949.2649-4.3829.5859-6.5762.8647a3.1739,3.1739,0,0,1-3.6016-1.9911,32.4823,32.4823,0,0,0-7.6133-10.5119,62.8706,62.8706,0,0,0-17.4925-11.7221,71.4033,71.4033,0,0,0-24.0818-6.5076,61.064,61.064,0,0,0-12.0082.1,75.9626,75.9626,0,0,0-12.98,2.65A64.5026,64.5026,0,0,0,76.5379,204.61a49.09,49.09,0,0,0-11.8065,13.5155,3.68,3.68,0,0,0-.5706,1.6226c-.1193,3.281-.159,6.5649-.2352,9.8476-.06,2.5913-.1456,5.1821-.1975,7.7736C63.7014,238.7065,63.7234,240.0447,63.7234,241.579Zm248.3449,4.2191c.7814-1.4489,1.4344-2.7861,2.1993-4.056a46.6556,46.6556,0,0,1,12.2577-13.2361c12.0248-9.0068,25.6523-13.2855,40.5961-13.5447a70.5817,70.5817,0,0,1,13.3063,1.1127,76.88,76.88,0,0,1,23.823,8.112,57.3393,57.3393,0,0,1,19.2167,16.4628c.1353.1845.29.3545.5892.717v-19.06c0-2.8293,0-2.8293-1.4972-5.2077a52.4073,52.4073,0,0,0-18.874-17.6907,73.4314,73.4314,0,0,0-26.8234-8.7447,67.35,67.35,0,0,0-18.8077.0767,64.82,64.82,0,0,0-23.2711,8.0251,55.2908,55.2908,0,0,0-11.6173,8.813,36.5987,36.5987,0,0,0-7.99,11.3928,3.1207,3.1207,0,0,1-3.63,1.9026c-.7515-.1127-1.5063-.2057-2.2611-.2953-3.2934-.3915-6.5865-.7856-9.8815-1.1629-1.1553-.1323-2.3157-.22-3.5947-.3386a29.9889,29.9889,0,0,1,.5006,2.9794c.137,2.0665.2355,4.1388.25,6.2093.0346,4.91.0091,9.8211.013,14.7316.0008,1.0413.0235,1.025,1.007,1.1356,4.0161.4518,8.03.9214,12.045,1.3843Zm-153.7,40.7292a2.2357,2.2357,0,0,0,.39.0512c2.891-.2572,5.7785-.5631,8.6731-.77,5.9286-.4237,11.8588-.8294,17.7923-1.1758,4.2433-.2478,8.4925-.4,12.74-.57,3.8678-.1556,7.7363-.3,11.6055-.4116q8.24-.2387,16.4818-.4181c4.6658-.0973,9.3326-.1742,13.9993-.2024,3.5605-.0215,7.1218.0366,10.6825.0788q7.5186.0893,15.037.2106c4.32.0734,8.6414.1445,12.96.2767q8.1868.25,16.37.6027c4.0054.1665,8.0088.3833,12.0124.5915,2.8991.1508,5.8.2854,8.6948.4966,4.1356.3018,8.2665.6677,12.4,1.0026.2192.0178.441.0023.68.0023a1.1631,1.1631,0,0,0-.0672-.2744q-4.61-7.2066-9.2172-14.4156a1.29,1.29,0,0,0-1.1139-.5982c-1.5132-.142-3.0232-.3188-4.5346-.48-3.6074-.3858-7.2127-.7923-10.8228-1.1494-3.3354-.33-6.6747-.623-10.0147-.9021-4.0978-.3424-8.1951-.6988-12.2981-.9653q-6.5179-.4233-13.0462-.68c-6.0435-.2288-12.0893-.4385-18.136-.5337-4.7005-.074-9.404.0311-14.106.0738-2.2816.0207-4.5643.0433-6.844.1308-4.2822.1644-8.5631.3644-12.8434.5733-2.6925.1314-5.3852.2727-8.0735.4689q-5.9967.4375-11.987.9627c-3.9934.3444-7.9871.6939-11.974,1.105-4.949.51-9.89,1.0961-14.8375,1.6226a1.8263,1.8263,0,0,0-1.4891.9276c-2.87,4.5244-5.77,9.03-8.6576,13.5434C158.665,285.95,158.5369,286.22,158.3685,286.5273Zm-3.0441-1.4977c.2232-.3066.3937-.5177.5393-.7447,2.9106-4.5382,5.8-9.09,8.7448-13.6059a1.7453,1.7453,0,0,0,.0612-2.0671,46.8779,46.8779,0,0,0-9.2924-11.7407,62.2975,62.2975,0,0,0-15.85-10.671,59.3077,59.3077,0,0,0-21.6748-5.8521,50.45,50.45,0,0,0-15.23,1.3007A52.1681,52.1681,0,0,0,63.648,281.444a68.1742,68.1742,0,0,0-1.1823,9.2414,1.5138,1.5138,0,0,0,.2481.8415,4.64,4.64,0,0,0,.6948.7651q4.7023,4.758,9.4093,9.5118c.4038.4077.823.8,1.3522,1.3131.0878-.4555.149-.7169.1874-.9816.1684-1.1617.2811-2.3338.5022-3.4852a46.69,46.69,0,0,1,13.4456-25.3094,41.2262,41.2262,0,0,1,40.2183-10.4086,42.71,42.71,0,0,1,23.9252,17.5131C153.4462,281.8908,154.32,283.4215,155.3244,285.03Zm269.0033,5.701c-.1088-.5939-.227-1.0969-.29-1.6067-.2231-1.8166-.3365-3.6516-.6533-5.4511A52.2073,52.2073,0,0,0,361,241.4238a62.0262,62.0262,0,0,0-25.8952,12.2734,49.292,49.292,0,0,0-12.646,14.6771,1.5013,1.5013,0,0,0,.046,1.7793c3.0068,4.6411,5.9793,9.3043,8.9663,13.9582.1435.2235.3216.4249.4788.63.1135-.0688.19-.0892.221-.1382.1679-.2611.3315-.5256.4843-.7958a44.3,44.3,0,0,1,8.912-11.2527c9.2788-8.3459,20.1269-12.1452,32.5924-10.9442a38.98,38.98,0,0,1,18.43,6.6658c11.71,7.98,18.2245,19.1712,20.18,33.1189a7.9124,7.9124,0,0,0,.2161.8073C416.8478,298.2965,420.6057,294.4954,424.3277,290.7306ZM293.3115,254.58v-1.059q0-13.85-.0113-27.7a18.8554,18.8554,0,0,0-.2575-3.3028c-1.7887-9.8858-7.3179-16.691-16.8577-20.0031a92.8064,92.8064,0,0,0-27.1626-4.7176,114.5182,114.5182,0,0,0-16.2579.541,97.37,97.37,0,0,0-18.6447,3.8178,25.1325,25.1325,0,0,0-11.9235,7.5549,23.5865,23.5865,0,0,0-6.1026,15.4943c-.0993,9.4744-.0274,18.9505-.0248,28.4259,0,.333.0315.6659.0451.9351A396.6407,396.6407,0,0,1,293.3115,254.58ZM367.073,112.0679a421.3443,421.3443,0,0,1,49.6909,14.0108.1553.1553,0,0,0,.1019-.0086c.03-.0128.0528-.0436.1219-.1046-.0653-.2687-.1238-.5676-.2108-.858a211.6061,211.6061,0,0,0-15.7316-38.3856,4.889,4.889,0,0,0-1.1347-1.44A221.9437,221.9437,0,0,0,363.1525,60.36c-.2226-.1207-.4713-.1934-.84-.3416.1627.438.2653.7242.3749,1.0076a65.7381,65.7381,0,0,1,4.3853,23.9147q.0018,12.8117,0,25.6233ZM126.824,60.4067c-.4585.2356-.7354.37-1.005.5177a221.2235,221.2235,0,0,0-37.02,25.4369,4.3424,4.3424,0,0,0-1.0047,1.2867q-1.5984,3.08-3.1135,6.2026a211.4122,211.4122,0,0,0-12.2153,31.555c-.0837.28-.127.5729-.193.8777,5.562-1.8194,11.0092-3.6978,16.5173-5.3759,5.5467-1.69,11.1339-3.2567,16.74-4.7373,5.5581-1.4678,11.1624-2.761,16.7751-4.1378v-1.325q0-13.3273-.001-26.6548a62.6148,62.6148,0,0,1,2.85-18.6711C125.6528,63.774,126.2235,62.1889,126.824,60.4067ZM482.7576,326.0409c-.0322-.3705-.0375-.6417-.0819-.9062a10.3962,10.3962,0,0,0-2.1-4.4565,31.0531,31.0531,0,0,0-5.8766-5.82,93.7721,93.7721,0,0,0-16.4349-10.009,206.0586,206.0586,0,0,0-20.768-8.8329c-3.1417-1.1548-6.3156-2.2217-9.472-3.3368a1.0594,1.0594,0,0,0-1.2942.2266c-3.8464,3.9248-7.72,7.8235-11.58,11.7343a4.93,4.93,0,0,0-.42.5819c.3859.1431.6736.253.9634.357,6.6309,2.3779,13.2152,4.8763,19.6718,7.6984a126.96,126.96,0,0,1,16.421,8.3587,33.364,33.364,0,0,1,9.3046,7.8345c.0377.05.1172.0675.2185.1227ZM72.4186,306.0045,59.8093,293.2557a1.8676,1.8676,0,0,0-.3089.0315A223.6745,223.6745,0,0,0,28.983,305.8893a85.0293,85.0293,0,0,0-14.7813,9.348,29.2175,29.2175,0,0,0-5.7545,5.9367,10.1811,10.1811,0,0,0-1.715,3.6313,9.805,9.805,0,0,0-.1092,1.2267c1.6789.2862,3.24.5558,4.8027.8181q8.07,1.3546,16.1395,2.7132a.863.863,0,0,0,.9639-.3824,24.1626,24.1626,0,0,1,5.2584-4.9635,77.7713,77.7713,0,0,1,11.39-6.7753,229.5719,229.5719,0,0,1,21.781-9.3811C68.697,307.4012,70.4391,306.75,72.4186,306.0045Z"/>
    <path d="M244.6366,182.221a15.205,15.205,0,0,1-15.25-15.288,15.2778,15.2778,0,0,1,30.5555.0577A15.0612,15.0612,0,0,1,244.6366,182.221Zm11.9667-15.2227a11.9526,11.9526,0,1,0-11.8981,11.9627A11.8617,11.8617,0,0,0,256.6033,166.9983Z"/>
    <path d="M159.8935,91.3908c0-7.2631-.03-14.5264.0079-21.7893a44.8231,44.8231,0,0,1,6.6926-23.8426,43.7406,43.7406,0,0,1,23.169-18.7267A143.8542,143.8542,0,0,1,213.54,21.0178c5.4883-.9377,11.0106-1.5947,16.5592-2.0075a169.1387,169.1387,0,0,1,17.1-.4657c3.9037.1048,7.8151.1615,11.7052.4668,4.51.354,9.012.8671,13.4953,1.4749a137.19,137.19,0,0,1,15.2418,3.0056,97.4287,97.4287,0,0,1,13.8525,4.2667c12.7563,5.3469,21.31,14.6632,25.7235,27.7563a41.47,41.47,0,0,1,2.1475,13.3491q-.0123,24.02-.0075,48.04a6.1055,6.1055,0,0,1-.1126,1.543,3.0965,3.0965,0,0,1-3.7369,2.1478c-2.5614-.5723-5.0991-1.2691-7.6786-1.7386-5.266-.9585-10.544-1.86-15.8346-2.6708-3.7208-.57-7.4653-1.0009-11.2089-1.4031-3.4695-.3727-6.9495-.6549-10.4292-.9219-3.79-.291-7.5819-.5954-11.3788-.7559-5.6634-.2393-11.3311-.3961-16.9985-.515-4.3552-.0915-8.7144-.1619-13.0686-.0776-6.3925.1237-12.7862.31-19.1716.6275-5.2789.2623-10.5519.6917-15.8174,1.16-4.7139.42-9.4261.9028-14.1178,1.5195a201.9357,201.9357,0,0,0-25.5625,4.705,3.2965,3.2965,0,0,1-4.3462-3.2978c.0024-.3113-.0012-.6226-.0012-.9339Q159.8934,103.8418,159.8935,91.3908Zm3.383,25.8873c.4465-.0935.7154-.14.9791-.2066a203.55,203.55,0,0,1,23.0144-4.2671c5.1-.6853,10.22-1.2408,15.3437-1.7245q7.6877-.7257,15.4-1.1786c4.7945-.2828,9.598-.4321,14.4-.5721q5.2351-.1525,10.4752-.1217,8.1411.0428,16.2815.2086c2.9715.0561,5.944.1556,8.9111.3242,4.6917.2667,9.3825.5656,14.0675.93,3.961.3085,7.9214.659,11.867,1.1205,4.4251.5175,8.8394,1.1389,13.2473,1.79a174.389,174.389,0,0,1,17.7835,3.4891c.3151.0807.6433.11,1.0547.1777v-1.3537q0-23.0331.0034-46.0662a41.11,41.11,0,0,0-2.3014-14.046c-4.2826-11.9161-12.2084-20.4535-24.0156-25.1023a124.8831,124.8831,0,0,0-25.9549-6.6346,145.7172,145.7172,0,0,0-14.8215-1.6989c-3.6562-.2128-7.3141-.4571-10.9742-.5277-5.9806-.1152-11.9565.0791-17.9256.5263-4.5865.3436-9.1537.84-13.6956,1.5427a159.38,159.38,0,0,0-22.982,5.3692,42.0764,42.0764,0,0,0-18.5959,11.247,40.2365,40.2365,0,0,0-11.5249,27.98c-.1426,15.8383-.0368,31.6788-.0368,47.5184Z"/>
    <path d="M278.7213,234.5985c0,3.251.0136,6.5021-.0059,9.7531a3.0131,3.0131,0,0,1-2.28,3.084,4.2427,4.2427,0,0,1-1.6388.0587c-4.6482-.7293-9.3285-1.1122-14.02-1.4226-6.318-.4181-12.6424-.5-18.9693-.4557-5.3579.0373-10.7162.1623-16.0535.67-3.7814.36-7.5549.8069-11.3285,1.2447a3.1634,3.1634,0,0,1-3.821-3.29c-.0271-6.2253-.1016-12.4525.0152-18.6757A18.7744,18.7744,0,0,1,223.5542,208.15a62.0174,62.0174,0,0,1,13.7648-2.8723,75.0515,75.0515,0,0,1,13.3581-.1331,57.6734,57.6734,0,0,1,15.1984,3.0514c7.1489,2.593,11.3647,7.7065,12.634,15.212a17.7414,17.7414,0,0,1,.2045,2.7859c.0256,2.8012.0092,5.6028.0092,8.4042Zm-3.3046,9.5309c.02-.4129.045-.685.0451-.9572q.0033-8.2452-.0056-16.49a16.7844,16.7844,0,0,0-.1618-2.3746c-.9246-6.3428-4.3664-10.732-10.3853-12.9347a54.4492,54.4492,0,0,0-16.0284-3.02,73.61,73.61,0,0,0-12.6263.3654,56.9972,56.9972,0,0,0-11.8058,2.6247,15.5534,15.5534,0,0,0-10.528,14.688c-.0279,5.67-.007,11.3393-.0037,17.009,0,.3361.0361.6721.06,1.0812A252.468,252.468,0,0,1,275.4167,244.1294Z"/>
    <rect class="a" x="0.125" y="0.125" width="488.9456" height="332.6739"/>
  </g>
</svg>
