<svg xmlns="http://www.w3.org/2000/svg" viewBox="0 0 488.6545 316.7364">
  <defs>
    <style>
      .a {
        fill: #fff;
      }

      .b {
        fill: none;
        stroke: #000;
        stroke-miterlimit: 10;
        stroke-width: 0.25px;
      }
    </style>
  </defs>
  <title>head back color</title>
  <g>
    <path class="a" d="M259.9188,278.3329c-6.7425,0-13.4851.0269-20.2274-.0082q-8.7127-.0453-17.4245-.21-7.828-.1455-15.6535-.4147-7.72-.2572-15.4367-.6212c-5.0408-.2379-10.0814-.497-15.117-.8254-6.76-.4409-13.521-.8922-20.2716-1.4589-7.3359-.6157-14.6727-1.26-21.9865-2.09q-13.6491-1.5493-27.2593-3.4366-20.2438-2.7876-40.1843-7.2912a258.5993,258.5993,0,0,1-31.8808-9.1251,104.3131,104.3131,0,0,1-17.8726-8.2341,39.7688,39.7688,0,0,1-8.3776-6.4143,16.1546,16.1546,0,0,1-4.3008-7.1079,13.9427,13.9427,0,0,1-.3474-4.0153c.1438-4.3184.18-8.6453.4935-12.9518.3932-5.41.935-10.8125,1.5622-16.2008A247.3013,247.3013,0,0,1,11.059,168.16a239.2892,239.2892,0,0,1,17.1731-48.2733A200.75,200.75,0,0,1,57.22,75.6874a188.1917,188.1917,0,0,1,36.3537-32.29,199.0622,199.0622,0,0,1,24.2818-14.12,230.4825,230.4825,0,0,1,41.9144-15.6294,283.1906,283.1906,0,0,1,31.0468-6.4692q9.8458-1.4958,19.7621-2.3829c4.3719-.3853,8.7544-.6733,13.1375-.9034q6.3678-.3344,12.7464-.4515c5.0464-.0937,10.0965-.1709,15.142-.0832q8.0851.14,16.1638.6118A327.4718,327.4718,0,0,1,301.772,7.658a263.5337,263.5337,0,0,1,47.65,12.1926,204.8,204.8,0,0,1,55.751,30.2619,188.008,188.008,0,0,1,16.138,13.992,195.4462,195.4462,0,0,1,37.3971,50.7075,238.8221,238.8221,0,0,1,20.8769,58.3226c1.7075,7.6636,3.109,15.3842,4.0839,23.1731.6308,5.04,1.0913,10.102,1.5488,15.1614.4923,5.4428.614,10.9031.6777,16.3678a13.0629,13.0629,0,0,1-2.65,8.0164,27.9309,27.9309,0,0,1-6.3255,6.0934,71.2613,71.2613,0,0,1-13.1912,7.383,182.3863,182.3863,0,0,1-25.6464,8.9c-10.6,2.9411-21.3285,5.3336-32.1535,7.2666-7.8588,1.4033-15.7416,2.6813-23.6334,3.8866-5.5.84-11.0276,1.5-16.5515,2.17-5.3181.6447-10.644,1.2288-15.9725,1.7822-4.0566.4213-8.1208.7728-12.1846,1.1193q-7.2321.6165-14.47,1.1646c-3.5849.2665-7.1738.4837-10.7629.6872-5.1766.2936-10.3537.5795-15.5329.8223-4.2125.1974-8.4275.3484-12.6427.4805-5.1479.1612-10.297.2847-15.4458.4179-2.9373.076-5.8749.139-8.8124.2079Z"/>
    <path class="a" d="M30.15,254.7447c.4456.1363.7119.2008.9658.2978a249.9683,249.9683,0,0,0,32.8974,9.7017q16.1681,3.7484,32.5741,6.2705c7.7889,1.19,15.5886,2.3249,23.4049,3.315,7.5083.9511,15.038,1.7466,22.57,2.4946,6.8441.68,13.7006,1.243,20.5575,1.783,4.824.38,9.6563.6608,14.4877.9384,5.97.3429,11.94.6768,17.9139.9394q7.8218.3438,15.651.5153,11.509.264,23.0206.4146,9.1275.1183,18.2567.0961c5.29-.0148,10.5794-.102,15.868-.2075q7.62-.1521,15.2384-.4126,7.7209-.2609,15.4384-.6225c4.9372-.2323,9.8744-.4844,14.8064-.8074,6.8292-.4472,13.6574-.9219,20.4789-1.473,5.96-.4814,11.9175-1.0132,17.8622-1.6524,7.3534-.7907,14.7042-1.6268,22.0344-2.6066q11.5092-1.5383,22.9746-3.4005,16.225-2.6433,32.2122-6.5066a253.8132,253.8132,0,0,0,25.7569-7.5713c1.0737-.3852,2.1365-.8006,3.2075-1.1936.3148-.1156.64-.2023,1.07-.3362.0783.8576.18,1.6019.2083,2.3489.0966,2.5562.13,5.1152.2572,7.67a10.9064,10.9064,0,0,1-3.041,8.0214,26.6772,26.6772,0,0,1-5.1174,4.3637,68.0964,68.0964,0,0,1-12.8249,6.5283,182.25,182.25,0,0,1-24.2368,7.553c-9.5667,2.3718-19.2254,4.3078-28.9557,5.8664q-10.1858,1.6316-20.4076,3.034c-5.5472.7523-11.1159,1.3538-16.6825,1.9525q-8.0409.8646-16.0978,1.5793c-3.9241.3546-7.8549.64-11.7859.9109q-8.9484.6165-17.9015,1.163c-3.3812.2034-6.7667.3414-10.1515.4778-5.18.209-10.3611.4306-15.5436.5737q-8.19.226-16.3848.309c-7.8835.08-15.7678.1409-23.6517.1277-5.981-.01-11.9624-.12-17.9425-.2391q-6.9463-.1383-13.89-.4143c-6.1479-.2415-12.2954-.507-18.4394-.8314-5.4881-.29-10.975-.622-16.4554-1.029-6.6871-.4966-13.3755-1.0054-20.0478-1.665-7.8417-.7752-15.6723-1.6716-23.4977-2.6-10.1625-1.205-20.274-2.7658-30.3392-4.6154a292.8722,292.8722,0,0,1-36.1727-8.69,104.8856,104.8856,0,0,1-18.6833-7.6631,37.14,37.14,0,0,1-7.4791-5.1952,15.5415,15.5415,0,0,1-3.5446-4.56,8.1044,8.1044,0,0,1-.9025-3.7979q.13-5.08.2837-10.1592A7.3849,7.3849,0,0,1,30.15,254.7447Z"/>
    <path class="a" d="M462.6293,253.3251c7.9452-3.5153,15.7291-7.3159,21.9208-13.92.0964.4764.1825.7638.21,1.0568.6968,7.4732,1.1339,14.9579,1.182,22.4678a13.2225,13.2225,0,0,1-2.6787,8.1145,27.95,27.95,0,0,1-5.996,5.8445,70.7914,70.7914,0,0,1-13.8107,7.7551,178.5382,178.5382,0,0,1-23.6671,8.2973q-15.3744,4.3691-31.1013,7.2231-12.1352,2.2264-24.3342,4.1c-7.1068,1.0786-14.2441,1.978-21.3866,2.7931q-12.26,1.3991-24.5537,2.4938c-7.3331.6579-14.6795,1.1792-22.0262,1.6681-6.4843.4314-12.9754.7707-19.4668,1.0839q-8.131.3924-16.27.6234c-6.5313.1857-13.0643.346-19.5977.4154q-13.2789.141-26.5593.1165c-5.3588-.007-10.7184-.1076-16.0758-.2407q-9.9527-.2472-19.9018-.627-8.4972-.33-16.9878-.8267-10.0932-.6015-20.1765-1.3663c-6.7555-.5188-13.5112-1.0625-20.2515-1.7466-7.6684-.7784-15.3244-1.6871-22.9775-2.6069-9.44-1.1346-18.8384-2.5611-28.2042-4.1956a363.4264,363.4264,0,0,1-47.8225-11.1976A141.89,141.89,0,0,1,22.22,282.8672a56.2231,56.2231,0,0,1-12.2218-7.7736,22.8821,22.8821,0,0,1-4.497-5.1292,12.501,12.501,0,0,1-1.9683-6.8793c.0576-6.0527.2956-12.0958.8189-18.1266q.2106-2.4279.4368-4.8543a5.6985,5.6985,0,0,1,.1142-.56,1.5784,1.5784,0,0,1,.3978.2082,46.2406,46.2406,0,0,0,12.6517,9.283c2.536,1.3374,5.15,2.53,7.7483,3.7452,1.4608.6835,1.21.508,1.1619,1.8815-.1386,3.973-.2885,7.9473-.3106,11.9218a11.51,11.51,0,0,0,2.4741,6.709,23.7256,23.7256,0,0,0,5.1044,5.1281,59.8538,59.8538,0,0,0,12.6372,7.0842,156.2728,156.2728,0,0,0,21.2919,7.2322c10.8514,2.949,21.8552,5.1987,32.9333,7.1014,8.9956,1.545,18.02,2.8961,27.085,3.9611,6.2135.73,12.4285,1.4608,18.6557,2.058,7.3634.7063,14.7373,1.3117,22.1129,1.88,5.411.4168,10.83.7459,16.249,1.0364,6.11.3275,12.2232.593,18.337.8379,4.49.18,8.9829.2991,13.4753.4161,3.5942.0936,7.1894.1694,10.7846.2069q10.84.1131,21.6809.1681c3.6308.0152,7.2625-.0217,10.8927-.0887,6.1872-.1143,12.3749-.2275,18.56-.4217,6.5992-.2074,13.199-.4408,19.7921-.7857,7.9052-.4136,15.81-.8771,23.7034-1.4669,7.8592-.5872,15.7112-1.2916,23.5546-2.0643q15.0175-1.48,29.9472-3.7048a416.1478,416.1478,0,0,0,41.517-8.0586,170.1519,170.1519,0,0,0,24.9281-8.1109,63.2564,63.2564,0,0,0,12.279-6.6755,25.0367,25.0367,0,0,0,5.8719-5.6671,12.8135,12.8135,0,0,0,2.5959-8.0419c-.1184-3.5928-.2573-7.1849-.3837-10.7775C462.6177,254.1623,462.6293,253.784,462.6293,253.3251Z"/>
    <rect class="b" x="0.125" y="0.125" width="488.4045" height="316.4864"/>
  </g>
</svg>
