<svg xmlns="http://www.w3.org/2000/svg" viewBox="0 0 489.1956 332.9239">
  <defs>
    <style>
      .a {
        fill: #fff;
      }

      .b {
        fill: none;
        stroke: #000;
        stroke-miterlimit: 10;
        stroke-width: 0.25px;
      }
    </style>
  </defs>
  <title>head front color</title>
  <g>
    <path class="a" d="M312.1181,217.5938c-1.4658-.1826-2.8333-.3655-4.2039-.5214q-5.3041-.6031-10.6105-1.1879c-.412-.0462-.8217-.1284-1.2347-.1484-1.7139-.0832-1.3585-.0169-2.0223-1.4135a27.5979,27.5979,0,0,0-16.4776-14.8449,90.1394,90.1394,0,0,0-18.36-4.1571c-3.7759-.47-7.5623-.7265-11.3665-.85a114.5181,114.5181,0,0,0-12.1211.28,92.081,92.081,0,0,0-24.415,4.89,27.41,27.41,0,0,0-16.1759,15.0266c-.1437.3138-.2914.6259-.4577.9825l-18.3145,2.1519c-.8469-1.498-1.5819-2.9471-2.4521-4.31a44.0389,44.0389,0,0,0-10.085-10.7851,74.5585,74.5585,0,0,0-29.4448-13.9732,68.1277,68.1277,0,0,0-17.6862-1.85,70.811,70.811,0,0,0-15.3494,2.2652A71.596,71.596,0,0,0,77.02,200.1446,54.9472,54.9472,0,0,0,64.968,211.7633c-.1441.1907-.3017.3711-.6238.7653,0-.7483-.0105-1.2764.0016-1.8039q.2037-8.9157.4134-17.8312c.1383-5.9437.2641-11.8878.4192-17.8311.1082-4.1458.1384-8.2987.4206-12.4336.275-4.03.7272-8.0541,1.2787-12.0564a173.4668,173.4668,0,0,1,3.8481-18.9812,2.0643,2.0643,0,0,1,1.4572-1.6338,355.22,355.22,0,0,1,34.335-10.6211c5.0161-1.2913,10.0677-2.4447,15.1037-3.6589.1621-.0391.3292-.0582.6364-.1112.0173.4621.045.858.045,1.2538q.0035,18.4688.0019,36.9374c0,.2767-.0017.5534,0,.83a3.1469,3.1469,0,0,0,4.19,3.1948c1.91-.4765,3.8174-.9656,5.7352-1.4091q8.8869-2.055,17.9-3.4593c4.9818-.7823,9.969-1.5363,14.9662-2.2109,3.8341-.5175,7.6848-.9175,11.5331-1.3224,4.0206-.423,8.0442-.8226,12.0718-1.17,3.34-.288,6.6859-.5035,10.0313-.7183,4.2764-.2746,8.5525-.57,12.833-.7582,5.2829-.2318,10.5691-.4307,15.856-.52,7.7781-.1311,15.5579-.1729,23.3373-.2113q5.03-.0249,10.0608.1212,7.8764.2276,15.7488.575c4.5916.2072,9.18.4848,13.768.7671q4.8632.2991,9.72.6991c3.3742.2807,6.7447.6094,10.114.946q4.1254.4122,8.2438.8963c3.4992.4156,7.0009.82,10.4883,1.3222q6.41.9225,12.797,2.0029a213.1339,213.1339,0,0,1,20.977,4.4273,3.3493,3.3493,0,0,0,4.4112-3.4211c-.0373-12.4507-.0162-24.9015-.0161-37.3523V115.596a6.3234,6.3234,0,0,1,.8286.0608,396.0862,396.0862,0,0,1,49.1654,14.1013,2.7615,2.7615,0,0,0,.3889.1421,1.2138,1.2138,0,0,1,.9712,1.0659c.909,4.0068,1.9425,7.99,2.7076,12.0237.81,4.273,1.4775,8.5807,2.0018,12.8981.4244,3.4945.5787,7.024.7856,10.5419.1156,1.9653.1276,3.9387.1292,5.9085q.0156,19.7137.0053,39.4275v1.3213a7.0671,7.0671,0,0,1-.4982-.5311A57.2871,57.2871,0,0,0,404.2027,195.94a76.4706,76.4706,0,0,0-22.5067-7.8607,72.0982,72.0982,0,0,0-14.4271-1.3421,68.3536,68.3536,0,0,0-38.4472,11.8811A49.15,49.15,0,0,0,315.0109,212.35c-.9016,1.3862-1.63,2.8849-2.4344,4.3343C312.4276,216.9528,312.2992,217.2329,312.1181,217.5938ZM244.6366,182.221a15.0612,15.0612,0,0,0,15.3057-15.23,15.2778,15.2778,0,1,0-15.3057,15.23Z"/>
    <path class="a" d="M125.5648,154.5134v-1.1823c0-23.1715-.1465-46.3442.0508-69.514a59.5949,59.5949,0,0,1,16.5576-41.2518,60.8074,60.8074,0,0,1,27.0462-16.6665A220.7217,220.7217,0,0,1,192.6723,19.8c4.6763-.9108,9.3814-1.6912,14.094-2.3923,3.8936-.5793,7.8083-1.0609,11.73-1.3964,4.9567-.4241,9.9262-.75,14.8969-.9444q7.3555-.287,14.7239-.2067c4.975.0554,9.9547.217,14.9191.5384,4.8935.3167,9.78.8112,14.6527,1.3687a221.752,221.752,0,0,1,41.8828,8.9636,64.8523,64.8523,0,0,1,15.8333,7.122,60.4031,60.4031,0,0,1,26.7973,37.98,53.0738,53.0738,0,0,1,1.4892,12.3229q.0247,19.92.0577,39.8389.0143,14.9923-.0012,29.9846c0,.4733-.0452.9465-.0743,1.5164-.371-.0714-.6357-.1084-.893-.174-8.1742-2.0832-16.4494-3.68-24.7792-4.9695-6.2459-.967-12.5156-1.7912-18.7882-2.5706-5.005-.622-10.0259-1.1272-15.0479-1.5969-4.0248-.3765-8.0606-.6412-12.094-.92s-8.0679-.5612-12.106-.7544c-5.316-.2544-10.6358-.4307-15.9545-.6237-1.451-.0527-2.9041-.0533-4.3563-.0635-7.71-.0541-15.42-.1427-23.13-.1392-4.1815.0019-8.3645.1176-12.544.2633-6.2513.2179-12.5037.4409-18.7488.7859-5.9.326-11.7982.7275-17.6835,1.251-6.4.5692-12.7919,1.258-19.1751,2a351.7808,351.7808,0,0,0-36.3732,6.0387c-1.8194.4078-3.6266.87-5.4405,1.3023C126.2994,154.3869,126.0344,154.4253,125.5648,154.5134Zm34.3286-63.1226q0,12.4511,0,24.9021c0,.3113.0036.6226.0012.9339a3.2965,3.2965,0,0,0,4.3462,3.2978,201.9357,201.9357,0,0,1,25.5625-4.705c4.6917-.6167,9.4039-1.1,14.1178-1.5195,5.2655-.4687,10.5385-.8981,15.8174-1.16,6.3854-.3173,12.7791-.5038,19.1716-.6275,4.3542-.0843,8.7134-.0139,13.0686.0776,5.6674.1189,11.3351.2757,16.9985.515,3.7969.16,7.5887.4649,11.3788.7559,3.48.267,6.96.5492,10.4292.9219,3.7436.4022,7.4881.8329,11.2089,1.4031,5.2906.8107,10.5686,1.7123,15.8346,2.6708,2.5795.4695,5.1172,1.1663,7.6786,1.7386a3.0965,3.0965,0,0,0,3.7369-2.1478,6.1055,6.1055,0,0,0,.1126-1.543q.0079-24.02.0075-48.04a41.47,41.47,0,0,0-2.1475-13.3491c-4.4136-13.0931-12.9672-22.4094-25.7235-27.7563a97.4287,97.4287,0,0,0-13.8525-4.2667,137.19,137.19,0,0,0-15.2418-3.0056c-4.4833-.6078-8.9856-1.1209-13.4953-1.4749-3.89-.3053-7.8015-.362-11.7052-.4668a169.1387,169.1387,0,0,0-17.1.4657c-5.5486.4128-11.0709,1.07-16.5592,2.0075a143.8542,143.8542,0,0,0-23.7769,6.0144,43.7406,43.7406,0,0,0-23.169,18.7267,44.8231,44.8231,0,0,0-6.6926,23.8426C159.8631,76.8644,159.8935,84.1277,159.8934,91.3908Z"/>
    <path class="a" d="M3.5359,303.82V247.5853c0-13.6957-.0265-27.3915.0153-41.0871.0134-4.3885.276-8.7707.7219-13.1422a193.6909,193.6909,0,0,1,17.5305-62.1417A208.4694,208.4694,0,0,1,58.4482,76.702a211.8269,211.8269,0,0,1,30.298-26.8711,3.8072,3.8072,0,0,1,1.0652-.5942c-.67.7771-1.3436,1.55-2.0081,2.3318A165.15,165.15,0,0,0,67.5768,81.7472a216.2222,216.2222,0,0,0-17.4935,45.2351,224.3967,224.3967,0,0,0-4.7172,21.9743c-.8908,5.4925-1.5634,11.0129-1.9714,16.5668-.2915,3.969-.4044,7.9387-.4038,11.9158q.0076,48.0388.0029,96.0775c0,.2767.0008.5534,0,.83-.0038,1.1-.0146,1.0764-.9891,1.52-4.0876,1.8588-8.2142,3.64-12.2407,5.6235a87.429,87.429,0,0,0-16.01,9.9293,57.6063,57.6063,0,0,0-4.8633,4.3549A22.1756,22.1756,0,0,0,3.5359,303.82Z"/>
    <path class="a" d="M485.9263,303.675c-1.9319-5.0128-5.62-8.5784-9.6477-11.8488A89.86,89.86,0,0,0,461.3541,282.3c-4.4973-2.37-9.1187-4.4733-13.8113-6.4236-.315-.131-.621-.2837-.9851-.451v-1.5786q0-48.9747-.0105-97.9494c-.0028-4.6322-.3-9.254-.74-13.8689a220.09,220.09,0,0,0-10.4212-48.526,199.41,199.41,0,0,0-20.7807-44.3839,155.6328,155.6328,0,0,0-14.1793-19.03,2.2328,2.2328,0,0,1-.51-.8182c.2934.1968.5942.3836.8792.5919a213.4172,213.4172,0,0,1,22.3723,18.8113,208.9985,208.9985,0,0,1,39.3286,52.1089,206.0646,206.0646,0,0,1,18.5359,48.2445A176.205,176.205,0,0,1,484.7,188.6748a147.9239,147.9239,0,0,1,1.2325,18.8163q-.0192,47.2626-.0058,94.5253Z"/>
    <path class="a" d="M423.899,272.8581q-.2731-.6583-.5466-1.3168a55.2764,55.2764,0,0,0-26.43-28.6482A53.6769,53.6769,0,0,0,378.47,237.316a56.3777,56.3777,0,0,0-23.8547,2.36,65.3777,65.3777,0,0,0-25.5625,14.9384,49.164,49.164,0,0,0-9.5672,12.3213c-.4251.7846-.427.7817-1.3514.6852-5.98-.624-11.9567-1.2827-17.9414-1.859-4.4369-.4272-8.882-.7767-13.3275-1.1067-4.825-.3583-9.6516-.7121-14.4831-.96-4.6941-.2412-9.3942-.3879-14.0936-.5q-7.517-.1788-15.0375-.2064-5.4972-.0259-10.995.1212c-5.1131.1418-10.2278.2959-15.3347.5743-5.6932.31-11.3814.7292-17.0664,1.17q-7.4415.5765-14.87,1.3136c-4.7448.47-9.48,1.04-14.2193,1.5629-.8556.0945-1.7127.1764-2.6.2673a3.8171,3.8171,0,0,1-.3064-.4256,51.5815,51.5815,0,0,0-14.2862-16.6369,64.1464,64.1464,0,0,0-28.1974-12.9169c-18.4175-3.3546-34.6647,1.3027-48.5507,13.88a53.2274,53.2274,0,0,0-13.326,19.0642c-.0932.221-.2008.4358-.3958.8568a5.7667,5.7667,0,0,1-.1183-.7917q.1545-7.7767.3233-15.5532c.0464-2.1079.095-4.2161.1861-6.3222a3.0688,3.0688,0,0,1,.3676-1.2607,46.7686,46.7686,0,0,1,7.8372-10.66,59.6311,59.6311,0,0,1,22.2186-14.1267,75.9343,75.9343,0,0,1,17.9916-4.3326,60.7879,60.7879,0,0,1,14.0726.0779,71.8481,71.8481,0,0,1,23.6228,7.0259,59.329,59.329,0,0,1,18.2232,13.33,29.745,29.745,0,0,1,5.3865,8.1957,3.1718,3.1718,0,0,0,3.6033,1.9874c4.1124-.5242,8.2234-1.0594,12.3374-1.57,1.119-.1388,2.2469-.2051,3.4686-.3133.0243.5094.0561.8792.0572,1.2491.0053,1.8677-.0108,3.7356.0114,5.6031a5.7576,5.7576,0,0,0,.1949,1.5332,3.1224,3.1224,0,0,0,3.4671,2.1664c5.118-.8427,10.27-1.3807,15.4366-1.82,6.546-.5569,13.1011-.94,19.6682-1.0766,5.3922-.1126,10.7862-.2113,16.1789-.193,4.9773.0169,9.9588.0954,14.93.3331q8.6446.4133,17.2715,1.1741c4.4018.3909,8.7818,1.0326,13.1676,1.5929a3.1154,3.1154,0,0,0,3.5562-3.023c.03-2.144.0078-4.2888.0082-6.4332,0-.372,0-.744,0-1.23,1.0152.0882,1.9006.14,2.7795.2459,4.1851.502,8.3681,1.0221,12.5527,1.5281a3.2418,3.2418,0,0,0,3.2683-1.908c.8-1.5676,1.544-3.1761,2.4875-4.6552a46.021,46.021,0,0,1,13.14-13.0882A64.0851,64.0851,0,0,1,356.68,219.17a62.9652,62.9652,0,0,1,14.26-.8258c12.4126.7378,24.1084,3.9262,34.7647,10.4912a51.53,51.53,0,0,1,15.9289,15.0721c.754,1.1156,1.4371,2.2809,2.1122,3.4468a2.2458,2.2458,0,0,1,.2976,1.07q.0245,12.191.0126,24.382Z"/>
    <path class="a" d="M485.72,309.5911v13.6747c-.2916-.6671-.4847-1.1357-.699-1.5945a21.7483,21.7483,0,0,0-4.6288-6.1981,63.1693,63.1693,0,0,0-12.6779-9.3026,160.3859,160.3859,0,0,0-23.5891-11.1557c-5.2189-2.0128-10.5187-3.8163-15.7862-5.7024-1.0114-.3621-1.0221-.3377-1.0221-1.5683q-.0006-58.8306-.0016-117.6612a131.27,131.27,0,0,0-1.0167-15.5093,187.7011,187.7011,0,0,0-8.5716-37.4055,216.6758,216.6758,0,0,0-24.7146-50.7406,206.2192,206.2192,0,0,0-24.2629-30.3319c-3.6115-3.7166-7.4477-7.2148-11.1834-10.8107-.1468-.1412-.3117-.2637-.553-.466,4.3441.5972,33.0909,16.4,38.4693,21.0959a.8908.8908,0,0,1-.0407.281,3.4124,3.4124,0,0,0,.761,4.1563,159.0315,159.0315,0,0,1,23.0606,33.35,210.53,210.53,0,0,1,17.21,45.2288,219.7562,219.7562,0,0,1,5.06,25.4958,154.2361,154.2361,0,0,1,1.6454,20.654c.0054,5.0142.0536,10.0284.0546,15.0427q.0084,41.97.0029,83.94c0,.45.0032.8992.0024,1.3488a3.1592,3.1592,0,0,0,2.102,3.14c2.2881.9756,4.5845,1.934,6.85,2.96a110.6452,110.6452,0,0,1,19.7436,11.132,40.158,40.158,0,0,1,7.3115,6.5736,32.0489,32.0489,0,0,1,2.6088,3.7288,6.9211,6.9211,0,0,1,1.0153,3.1318C483.0044,307.8827,483.5725,308.8507,485.72,309.5911Z"/>
    <path class="a" d="M132.2289,24.81c-1.6421,1.53-3.2938,3.05-4.9245,4.5916A205.85,205.85,0,0,0,106.46,52.3294,216.8314,216.8314,0,0,0,72.463,114.6656,197.3627,197.3627,0,0,0,64.47,144.8823q-1.33,7.3979-1.98,14.8919c-.4284,4.9652-.4749,9.94-.5814,14.9158-.105,4.9066-.2515,9.8123-.3712,14.7186-.038,1.5554-.037,3.1117-.0733,4.6672-.1185,5.0793-.2533,10.1583-.3675,15.2377-.0956,4.2507-.1641,8.5021-.2574,12.7529q-.198,9.0192-.4147,18.038-.2058,8.8635-.4139,17.7268-.2086,8.9672-.4175,17.9343-.1647,6.7374-.3572,13.4741c-.0047.1714-.03.3422-.055.61-.3251.117-.6719.25-1.0238.3674a245.7291,245.7291,0,0,0-26.531,10.3567,103.2024,103.2024,0,0,0-17.4147,9.997,43.2759,43.2759,0,0,0-5.931,5.178,21.0816,21.0816,0,0,0-4.7446,7.4039v-1.1667q0-5.7065.0014-11.4128c.0007-.9137.01-.9064.863-1.217a2.98,2.98,0,0,0,2.1579-2.6633,11.0056,11.0056,0,0,1,2.2164-5.61,31.088,31.088,0,0,1,5.4617-5.8,79.2333,79.2333,0,0,1,13.6068-9.077,159.762,159.762,0,0,1,16.0326-7.5331,3.2219,3.2219,0,0,0,2.3775-3.5649q.0007-48.1932.02-96.3864c.0047-4.2829.1641-8.5727.4477-12.8464.3591-5.4129,1.083-10.791,1.9494-16.15a229.3187,229.3187,0,0,1,7.95-33.22A208.0157,208.0157,0,0,1,67.033,90.1136,167.3361,167.3361,0,0,1,87.18,57.5637c1.9412-2.43,3.9966-4.77,6.0376-7.1185,1.4067-1.6186,1.589-2.5362.6707-4.6454A207.8637,207.8637,0,0,1,132.2289,24.81Z"/>
    <path class="a" d="M136.6179,22.8071c1.5355-.604,3.13-1.2515,4.74-1.8612a255.2462,255.2462,0,0,1,37.859-11.0368c6.56-1.3828,13.1551-2.57,19.799-3.4449,5.2049-.6855,10.4319-1.2114,15.656-1.7395,6.054-.612,12.1289-.9443,18.2111-1.0927,4.6307-.113,9.2637-.2142,13.8951-.1941,4.5964.02,9.1974.097,13.7869.3328,5.451.28,10.8978.69,16.3361,1.1612A276.6981,276.6981,0,0,1,313.125,10.56a248.9182,248.9182,0,0,1,38.7763,11.9288c.2856.1147.5637.2482.8952.3951-.0207.2137-.0368.4108-.0591.6071a3.36,3.36,0,0,0,1.2245,3.0317c1.9274,1.7342,3.8464,3.4785,5.7344,5.2554a197.8893,197.8893,0,0,1,16.6989,17.879A213.7634,213.7634,0,0,1,395.648,77.0306a1.5245,1.5245,0,0,1,.2369.6469c-.2271-.15-.4651-.2852-.68-.451a220.9738,220.9738,0,0,0-26.2378-17.4323c-2.7059-1.5321-5.4556-2.9877-8.2022-4.4462a2.7394,2.7394,0,0,1-1.2268-1.1837,63.8145,63.8145,0,0,0-19.6156-22.3022,67.3082,67.3082,0,0,0-18.757-9.1022,228.9432,228.9432,0,0,0-29.4463-7.2816q-8.3684-1.4859-16.8253-2.3769-8.0448-.8469-16.1214-1.25-9.2757-.4719-18.558-.3228c-4.4211.077-8.8419.2959-13.2571.5514-3.8282.2216-7.6586.49-11.4694.9079-4.4971.4933-8.9816,1.119-13.458,1.7789A203.4771,203.4771,0,0,0,181.4285,18.96a148.4023,148.4023,0,0,0-18.9,5.8257,62.9666,62.9666,0,0,0-32.9145,29.7364,2.8564,2.8564,0,0,1-1.2652,1.2828A225.1059,225.1059,0,0,0,93.84,77.9612a2.0572,2.0572,0,0,1-.8665.4256c.1062-.2283.1942-.4673.3212-.6834a211.8739,211.8739,0,0,1,27.6854-37.2018,190.74,190.74,0,0,1,14.0452-13.6657,3.7288,3.7288,0,0,0,1.5153-3.7147C136.53,23.0608,136.5711,22.99,136.6179,22.8071Z"/>
    <path class="a" d="M63.7234,241.579c0-1.5343-.022-2.8725.0047-4.21.0519-2.5915.1374-5.1823.1975-7.7736.0762-3.2827.1159-6.5666.2352-9.8476a3.68,3.68,0,0,1,.5706-1.6226A49.09,49.09,0,0,1,76.5379,204.61a64.5026,64.5026,0,0,1,22.4987-11.4239,75.9626,75.9626,0,0,1,12.98-2.65,61.064,61.064,0,0,1,12.0082-.1,71.4033,71.4033,0,0,1,24.0818,6.5076,62.8706,62.8706,0,0,1,17.4925,11.7221,32.4823,32.4823,0,0,1,7.6133,10.5119,3.1739,3.1739,0,0,0,3.6016,1.9911c2.1933-.2788,4.3813-.6,6.5762-.8647,3.2237-.3892,6.4514-.7457,9.678-1.111a1.5605,1.5605,0,0,1,.3728.07,4.8066,4.8066,0,0,1-.0515.6774,31.5487,31.5487,0,0,0-.7051,6.6875q-.0036,8.04-.0008,16.0809v1.367l-16.369,1.9662c-.5712-1.0834-1.0777-2.1391-1.6674-3.1461a42.3306,42.3306,0,0,0-9.662-11.0185,72.3529,72.3529,0,0,0-22.7032-12.6385,74.4509,74.4509,0,0,0-16.0168-3.707,65.2441,65.2441,0,0,0-20.3234.8085A77.847,77.847,0,0,0,85.49,223.2448a58.2481,58.2481,0,0,0-21.4129,17.9427C64.0191,241.2689,63.943,241.3375,63.7234,241.579Z"/>
    <path class="a" d="M312.0683,245.7981l-2.4433-.2817c-4.0148-.4629-8.0289-.9325-12.045-1.3843-.9835-.1106-1.0062-.0943-1.007-1.1356-.0039-4.91.0216-9.8213-.013-14.7316-.0146-2.0705-.1131-4.1428-.25-6.2093a29.9889,29.9889,0,0,0-.5006-2.9794c1.279.1191,2.4394.2063,3.5947.3386,3.295.3773,6.5881.7714,9.8815,1.1629.7548.09,1.51.1826,2.2611.2953a3.1207,3.1207,0,0,0,3.63-1.9026,36.5987,36.5987,0,0,1,7.99-11.3928,55.2908,55.2908,0,0,1,11.6173-8.813,64.82,64.82,0,0,1,23.2711-8.0251,67.35,67.35,0,0,1,18.8077-.0767,73.4314,73.4314,0,0,1,26.8234,8.7447,52.4073,52.4073,0,0,1,18.874,17.6907c1.4972,2.3784,1.4972,2.3784,1.4972,5.2077v19.06c-.299-.3625-.4539-.5325-.5892-.717a57.3393,57.3393,0,0,0-19.2167-16.4628,76.88,76.88,0,0,0-23.823-8.112,70.5817,70.5817,0,0,0-13.3063-1.1127c-14.9438.2592-28.5713,4.5379-40.5961,13.5447a46.6556,46.6556,0,0,0-12.2577,13.2361C313.5027,243.012,312.85,244.3492,312.0683,245.7981Z"/>
    <path class="a" d="M158.3685,286.5273c.1684-.3072.2965-.5771.4563-.8269,2.8873-4.5135,5.7873-9.019,8.6576-13.5434a1.8263,1.8263,0,0,1,1.4891-.9276c4.9474-.5265,9.8885-1.1122,14.8375-1.6226,3.9869-.4111,7.9806-.7606,11.974-1.105s7.9892-.671,11.987-.9627c2.6883-.1962,5.381-.3375,8.0735-.4689,4.28-.2089,8.5612-.4089,12.8434-.5733,2.28-.0875,4.5624-.11,6.844-.1308,4.702-.0427,9.4055-.1478,14.106-.0738,6.0467.0952,12.0925.3049,18.136.5337q6.5268.247,13.0462.68c4.103.2665,8.2.6229,12.2981.9653,3.34.2791,6.6793.5723,10.0147.9021,3.61.3571,7.2154.7636,10.8228,1.1494,1.5114.1616,3.0214.3384,4.5346.48a1.29,1.29,0,0,1,1.1139.5982q4.5928,7.2178,9.2172,14.4156a1.1631,1.1631,0,0,1,.0672.2744c-.2386,0-.46.0155-.68-.0023-4.1332-.3349-8.2641-.7008-12.4-1.0026-2.8949-.2112-5.7957-.3458-8.6948-.4966-4.0036-.2082-8.007-.425-12.0124-.5915q-8.1835-.34-16.37-.6027c-4.3189-.1322-8.64-.2033-12.96-.2767q-7.5182-.1278-15.037-.2106c-3.5607-.0422-7.122-.1-10.6825-.0788-4.6667.0282-9.3335.1051-13.9993.2024q-8.2418.1719-16.4818.4181c-3.8692.1121-7.7377.256-11.6055.4116-4.2475.1708-8.4967.3227-12.74.57-5.9335.3464-11.8637.7521-17.7923,1.1758-2.8946.2069-5.7821.5128-8.6731.77A2.2357,2.2357,0,0,1,158.3685,286.5273Z"/>
    <path class="a" d="M155.3244,285.03c-1.004-1.6081-1.8782-3.1388-2.8756-4.5844a42.71,42.71,0,0,0-23.9252-17.5131,41.2262,41.2262,0,0,0-40.2183,10.4086A46.69,46.69,0,0,0,74.86,298.65c-.2211,1.1514-.3338,2.3235-.5022,3.4852-.0384.2647-.1.5261-.1874.9816-.5292-.513-.9484-.9054-1.3522-1.3131q-4.7076-4.7529-9.4093-9.5118a4.64,4.64,0,0,1-.6948-.7651,1.5138,1.5138,0,0,1-.2481-.8415,68.1742,68.1742,0,0,1,1.1823-9.2414,52.1681,52.1681,0,0,1,38.9753-39.7952,50.45,50.45,0,0,1,15.23-1.3007A59.3077,59.3077,0,0,1,139.5277,246.2a62.2975,62.2975,0,0,1,15.85,10.671,46.8779,46.8779,0,0,1,9.2924,11.7407,1.7453,1.7453,0,0,1-.0612,2.0671c-2.9452,4.5155-5.8342,9.0677-8.7448,13.6059C155.7181,284.5119,155.5476,284.723,155.3244,285.03Z"/>
    <path class="a" d="M424.3277,290.7306c-3.722,3.7648-7.48,7.5659-11.3424,11.4726a7.9124,7.9124,0,0,1-.2161-.8073c-1.9553-13.9477-8.4694-25.1386-20.18-33.1189a38.98,38.98,0,0,0-18.43-6.6658c-12.4655-1.201-23.3136,2.5983-32.5924,10.9442a44.3,44.3,0,0,0-8.912,11.2527c-.1528.27-.3164.5347-.4843.7958-.0315.049-.1075.0694-.221.1382-.1572-.2054-.3353-.4068-.4788-.63-2.987-4.6539-5.9595-9.3171-8.9663-13.9582a1.5013,1.5013,0,0,1-.046-1.7793,49.292,49.292,0,0,1,12.646-14.6771A62.0262,62.0262,0,0,1,361,241.4238a52.2908,52.2908,0,0,1,62.3844,42.249c.3168,1.8.43,3.6345.6533,5.4511C424.1007,289.6337,424.2189,290.1367,424.3277,290.7306Z"/>
    <path class="a" d="M293.3115,254.58a396.6407,396.6407,0,0,0-97.1975-.0134c-.0136-.2692-.0451-.6021-.0451-.9351-.0026-9.4754-.0745-18.9515.0248-28.4259a23.5865,23.5865,0,0,1,6.1026-15.4943,25.1325,25.1325,0,0,1,11.9235-7.5549,97.37,97.37,0,0,1,18.6447-3.8178,114.5182,114.5182,0,0,1,16.2579-.541,92.8064,92.8064,0,0,1,27.1626,4.7176c9.54,3.3121,15.069,10.1173,16.8577,20.0031a18.8554,18.8554,0,0,1,.2575,3.3028q.03,13.85.0113,27.7Zm-14.59-19.9813h.0019c0-2.8014.0164-5.603-.0092-8.4042a17.7414,17.7414,0,0,0-.2045-2.7859c-1.2693-7.5055-5.4851-12.619-12.634-15.212a57.6734,57.6734,0,0,0-15.1984-3.0514,75.0515,75.0515,0,0,0-13.3581.1331,62.0174,62.0174,0,0,0-13.7648,2.8723A18.7744,18.7744,0,0,0,210.62,225.5657c-.1168,6.2232-.0423,12.45-.0152,18.6757a3.1634,3.1634,0,0,0,3.821,3.29c3.7736-.4378,7.5471-.885,11.3285-1.2447,5.3373-.5079,10.6956-.6329,16.0535-.67,6.3269-.044,12.6513.0376,18.9693.4557,4.6913.31,9.3716.6933,14.02,1.4226a4.2427,4.2427,0,0,0,1.6388-.0587,3.0131,3.0131,0,0,0,2.28-3.084C278.7349,241.1006,278.7213,237.85,278.7213,234.5985Z"/>
    <path class="a" d="M367.073,112.0679v-1.5037q0-12.8116,0-25.6233a65.7381,65.7381,0,0,0-4.3853-23.9147c-.11-.2834-.2122-.57-.3749-1.0076.3687.1482.6174.2209.84.3416a221.9437,221.9437,0,0,1,36.7581,24.9222,4.889,4.889,0,0,1,1.1347,1.44,211.6061,211.6061,0,0,1,15.7316,38.3856c.087.29.1455.5893.2108.858-.0691.061-.0917.0918-.1219.1046a.1553.1553,0,0,1-.1019.0086A421.3443,421.3443,0,0,0,367.073,112.0679Z"/>
    <path class="a" d="M126.824,60.4067c-.6,1.7822-1.1712,3.3673-1.67,4.9747a62.6148,62.6148,0,0,0-2.85,18.6711q.0059,13.3274.001,26.6548v1.325c-5.6127,1.3768-11.217,2.67-16.7751,4.1378-5.6064,1.4806-11.1936,3.0474-16.74,4.7373-5.5081,1.6781-10.9553,3.5565-16.5173,5.3759.066-.3048.1093-.5973.193-.8777a211.4122,211.4122,0,0,1,12.2153-31.555q1.509-3.1247,3.1135-6.2026a4.3424,4.3424,0,0,1,1.0047-1.2867,221.2235,221.2235,0,0,1,37.02-25.4369C126.0886,60.7767,126.3655,60.6423,126.824,60.4067Z"/>
    <path class="a" d="M482.7576,326.0409l-21.4489,3.5526c-.1013-.0552-.1808-.073-.2185-.1227a33.364,33.364,0,0,0-9.3046-7.8345,126.96,126.96,0,0,0-16.421-8.3587c-6.4566-2.8221-13.0409-5.32-19.6718-7.6984-.29-.104-.5775-.2139-.9634-.357a4.93,4.93,0,0,1,.42-.5819c3.8607-3.9108,7.7339-7.81,11.58-11.7343a1.0594,1.0594,0,0,1,1.2942-.2266c3.1564,1.1151,6.33,2.182,9.472,3.3368a206.0586,206.0586,0,0,1,20.768,8.8329,93.7721,93.7721,0,0,1,16.4349,10.009,31.0531,31.0531,0,0,1,5.8766,5.82,10.3962,10.3962,0,0,1,2.1,4.4565C482.72,325.3992,482.7254,325.67,482.7576,326.0409Z"/>
    <path class="a" d="M72.4186,306.0045c-1.98.7452-3.7216,1.3967-5.46,2.0565a229.5719,229.5719,0,0,0-21.781,9.3811,77.7713,77.7713,0,0,0-11.39,6.7753,24.1626,24.1626,0,0,0-5.2584,4.9635.863.863,0,0,1-.9639.3824q-8.0674-1.37-16.1395-2.7132c-1.5625-.2623-3.1238-.5319-4.8027-.8181a9.805,9.805,0,0,1,.1092-1.2267,10.1811,10.1811,0,0,1,1.715-3.6313,29.2175,29.2175,0,0,1,5.7545-5.9367,85.0293,85.0293,0,0,1,14.7813-9.348A223.6745,223.6745,0,0,1,59.5,293.2872a1.8676,1.8676,0,0,1,.3089-.0315Z"/>
    <path class="a" d="M256.6033,166.9983a11.9526,11.9526,0,1,1-11.9784-11.982A11.9154,11.9154,0,0,1,256.6033,166.9983Z"/>
    <path class="a" d="M163.2765,117.2781V116.003c0-15.84-.1058-31.68.0368-47.5184a40.2365,40.2365,0,0,1,11.5249-27.98,42.0764,42.0764,0,0,1,18.5959-11.247,159.38,159.38,0,0,1,22.982-5.3692c4.5419-.7031,9.1091-1.1991,13.6956-1.5427,5.9691-.4472,11.945-.6415,17.9256-.5263,3.66.0706,7.318.3149,10.9742.5277a145.7172,145.7172,0,0,1,14.8215,1.6989A124.8831,124.8831,0,0,1,299.7879,30.68c11.8072,4.6488,19.733,13.1862,24.0156,25.1023a41.11,41.11,0,0,1,2.3014,14.046q-.0135,23.0331-.0034,46.0662v1.3537c-.4114-.0679-.74-.097-1.0547-.1777a174.389,174.389,0,0,0-17.7835-3.4891c-4.4079-.6515-8.8222-1.2729-13.2473-1.79-3.9456-.4615-7.906-.812-11.867-1.1205-4.685-.3649-9.3758-.6638-14.0675-.93-2.9671-.1686-5.94-.2681-8.9111-.3242q-8.14-.1536-16.2815-.2086-5.2374-.0276-10.4752.1217c-4.8016.14-9.6051.2893-14.4.5721q-7.7085.4547-15.4,1.1786c-5.1235.4837-10.2438,1.0392-15.3437,1.7245a203.55,203.55,0,0,0-23.0144,4.2671C163.9919,117.1384,163.723,117.1846,163.2765,117.2781Z"/>
    <path class="a" d="M275.4167,244.1294a252.468,252.468,0,0,0-61.44-.0088c-.0234-.4091-.0593-.7451-.06-1.0812-.0033-5.67-.0242-11.3395.0037-17.009a15.5534,15.5534,0,0,1,10.528-14.688,56.9972,56.9972,0,0,1,11.8058-2.6247,73.61,73.61,0,0,1,12.6263-.3654,54.4492,54.4492,0,0,1,16.0284,3.02c6.0189,2.2027,9.4607,6.5919,10.3853,12.9347a16.7844,16.7844,0,0,1,.1618,2.3746q.02,8.2452.0056,16.49C275.4617,243.4444,275.4369,243.7165,275.4167,244.1294Z"/>
    <rect class="b" x="0.125" y="0.125" width="488.9456" height="332.6739"/>
  </g>
</svg>
