<svg xmlns="http://www.w3.org/2000/svg" viewBox="0 0 488.9668 316.7364">
  <defs>
    <style>
      .a {
        fill: none;
        stroke: #000;
        stroke-miterlimit: 10;
        stroke-width: 0.25px;
      }
    </style>
  </defs>
  <title>head back lineart</title>
  <g>
    <path d="M253.21.125a6.5993,6.5993,0,0,0,.9805.1934c5.8677.2809,11.7411.4689,17.6023.847q7.4985.4836,14.9733,1.32c23.2075,2.6024,45.868,7.5581,67.72,15.9345a204.9086,204.9086,0,0,1,55.6675,31.65,192.6982,192.6982,0,0,1,38.6342,41.9818,210.1647,210.1647,0,0,1,14.6924,25.2616,239.0063,239.0063,0,0,1,17.1125,46.6291q3.2674,12.7614,5.2718,25.7829c1.0493,6.766,1.859,13.56,2.3826,20.3835.2748,3.5821.348,7.18.5255,10.7695a8.59,8.59,0,0,0,.1939,1.0978v8.0937a5.2592,5.2592,0,0,0-.209.5662,15.4078,15.4078,0,0,1-.7362,2.883,5.9281,5.9281,0,0,0-.5173,3.8853c.021.1006.019.2058.03.3087.6455,6.1019,1.1928,12.21,1.2407,18.3529a5.3192,5.3192,0,0,0,.1919.9831v8.3013a4.449,4.449,0,0,0-.2147.5508c-.2084.834-.3339,1.6955-.6153,2.5032a19.3049,19.3049,0,0,1-4.4592,6.92,40.8728,40.8728,0,0,1-7.7424,6.2216,97.0293,97.0293,0,0,1-17.4037,8.4668,234.8645,234.8645,0,0,1-28.63,8.7216q-12.5827,3.0936-25.3444,5.3444c-6.4624,1.1423-12.946,2.1685-19.43,3.18-4.2321.66-8.4792,1.2285-12.7259,1.79-3.5277.4667-7.0622.8841-10.5979,1.286s-7.0757.7727-10.6166,1.13c-3.9877.402-7.9763.7988-11.9686,1.1508-3.8206.3369-7.6452.6321-11.47.9115-4.7554.3475-9.5114.6937-14.2708.9791q-9.0526.5427-18.1116.9784c-4.4177.2084-8.8394.3344-13.26.4707q-6.89.2124-13.7815.3691c-3.2832.071-6.5678.08-9.8516.13a8.7253,8.7253,0,0,0-1.1111.1559H232.0421a6.0027,6.0027,0,0,0-.8984-.1552c-1.3133-.0326-2.6275-.031-3.941-.0584-5.6327-.1177-11.2656-.23-16.8979-.3667-3.4208-.0827-6.8421-.1725-10.2607-.3173q-8.4417-.3576-16.88-.7946c-3.9348-.2-7.87-.4106-11.8-.6806-5.1371-.353-10.2713-.7519-15.4041-1.1637-4.3064-.3454-8.6134-.6931-12.9122-1.12q-8.305-.8253-16.5964-1.7876c-5.6971-.6678-11.3944-1.35-17.0719-2.1643-6.4638-.9269-12.9143-1.9547-19.3551-3.0314q-15.8-2.6411-31.36-6.4664a229.3292,229.3292,0,0,1-28.2159-8.6888,93.7808,93.7808,0,0,1-17.3567-8.5671,35.7465,35.7465,0,0,1-8.8632-7.75,16.43,16.43,0,0,1-3.6351-8.134,5.2767,5.2767,0,0,0-.3646-1.052v-3.7356a2.4575,2.4575,0,0,0,.2418-.6529c.0636-.9269.08-1.8568.13-2.7848.2064-3.8529.3713-7.7089.6433-11.5572.2211-3.1266.5667-6.2445.8725-9.3647a3.1787,3.1787,0,0,0-.2906-1.7965A13.3507,13.3507,0,0,1,.6137,230.38,6.3825,6.3825,0,0,0,.2288,229.24v-3.9431a2.8911,2.8911,0,0,0,.2456-.74c.1486-3.0711.2191-6.147.4254-9.214.269-3.9985.5419-8.0014.9942-11.9819q.8949-7.8764,2.084-15.7188a244.9012,244.9012,0,0,1,5.141-24.5359A240.1384,240.1384,0,0,1,23.7,122.149,204.7191,204.7191,0,0,1,55.1546,73.3117a191.6927,191.6927,0,0,1,36.4427-32.34,212.5384,212.5384,0,0,1,50.0423-24.98,260.04,260.04,0,0,1,35.7943-9.6373c7.1573-1.4054,14.353-2.5742,21.5929-3.4355q7.821-.93,15.68-1.5327C219.8039.99,224.9151.771,230.0215.5c1.8283-.0971,3.6609-.1113,5.4907-.1829A5.1031,5.1031,0,0,0,236.4.125Zm6.7084,278.2079.001-.0979c2.9375-.0689,5.8751-.1319,8.8124-.2079,5.1488-.1332,10.2979-.2567,15.4458-.4179,4.2152-.1321,8.43-.2831,12.6427-.4805,5.1792-.2428,10.3563-.5287,15.5329-.8223,3.5891-.2035,7.178-.4207,10.7629-.6872q7.2383-.5379,14.47-1.1646c4.0638-.3465,8.128-.698,12.1846-1.1193,5.3285-.5534,10.6544-1.1375,15.9725-1.7822,5.5239-.67,11.052-1.33,16.5515-2.17,7.8918-1.2053,15.7746-2.4833,23.6334-3.8866,10.825-1.933,21.5537-4.3255,32.1535-7.2666a182.3863,182.3863,0,0,0,25.6464-8.9,71.2613,71.2613,0,0,0,13.1912-7.383,27.9309,27.9309,0,0,0,6.3255-6.0934,13.0629,13.0629,0,0,0,2.65-8.0164c-.0637-5.4647-.1854-10.925-.6777-16.3678-.4575-5.0594-.918-10.1218-1.5488-15.1614-.9749-7.7889-2.3764-15.51-4.0839-23.1731a238.8221,238.8221,0,0,0-20.8769-58.3226A195.4462,195.4462,0,0,0,421.311,64.1045a188.008,188.008,0,0,0-16.138-13.992,204.8,204.8,0,0,0-55.751-30.2619A263.5337,263.5337,0,0,0,301.772,7.658a327.4718,327.4718,0,0,0-34.004-3.6887q-8.0734-.4623-16.1638-.6118c-5.0455-.0877-10.0956-.01-15.142.0832q-6.3754.1183-12.7464.4515c-4.3831.23-8.7656.5181-13.1375.9034q-9.9168.8739-19.7621,2.3829a283.1906,283.1906,0,0,0-31.0468,6.4692A230.4825,230.4825,0,0,0,117.855,29.2771a199.0622,199.0622,0,0,0-24.2818,14.12A188.1917,188.1917,0,0,0,57.22,75.6874a200.75,200.75,0,0,0-28.9874,44.1988A239.2892,239.2892,0,0,0,11.059,168.16a247.3013,247.3013,0,0,0-5.4245,29.7683c-.6272,5.3883-1.169,10.791-1.5622,16.2008-.3131,4.3065-.35,8.6334-.4935,12.9518a13.9427,13.9427,0,0,0,.3474,4.0153,16.1546,16.1546,0,0,0,4.3008,7.1079,39.7688,39.7688,0,0,0,8.3776,6.4143,104.3131,104.3131,0,0,0,17.8726,8.2341,258.5993,258.5993,0,0,0,31.8808,9.1251q19.9308,4.5286,40.1843,7.2912,13.6084,1.8739,27.2593,3.4366c7.3138.83,14.6506,1.4743,21.9865,2.09,6.7506.5667,13.5113,1.018,20.2716,1.4589,5.0356.3284,10.0762.5875,15.117.8254q7.7159.3642,15.4367.6212,7.825.2606,15.6535.4147,8.7113.1619,17.4245.21C246.4337,278.36,253.1763,278.3329,259.9188,278.3329ZM30.15,254.7447a7.3849,7.3849,0,0,0-.18.9968q-.154,5.0793-.2837,10.1592a8.1044,8.1044,0,0,0,.9025,3.7979,15.5415,15.5415,0,0,0,3.5446,4.56,37.14,37.14,0,0,0,7.4791,5.1952,104.8856,104.8856,0,0,0,18.6833,7.6631,292.8722,292.8722,0,0,0,36.1727,8.69c10.0652,1.85,20.1767,3.41,30.3392,4.6154,7.8254.9279,15.656,1.8243,23.4977,2.6,6.6723.66,13.3607,1.1684,20.0478,1.665,5.48.407,10.9673.7393,16.4554,1.029,6.144.3244,12.2915.59,18.4394.8314q6.9423.2727,13.89.4143c5.98.1191,11.9615.2291,17.9425.2391,7.8839.0132,15.7682-.048,23.6517-.1277q8.1933-.0828,16.3848-.309c5.1825-.1431,10.3631-.3647,15.5436-.5737,3.3848-.1364,6.77-.2744,10.1515-.4778q8.9534-.5387,17.9015-1.163c3.931-.2709,7.8618-.5563,11.7859-.9109q8.0546-.7278,16.0978-1.5793c5.5666-.5987,11.1353-1.2,16.6825-1.9525q10.2217-1.3863,20.4076-3.034c9.73-1.5586,19.389-3.4946,28.9557-5.8664a182.25,182.25,0,0,0,24.2368-7.553,68.0964,68.0964,0,0,0,12.8249-6.5283,26.6772,26.6772,0,0,0,5.1174-4.3637,10.9064,10.9064,0,0,0,3.041-8.0214c-.127-2.5545-.1606-5.1135-.2572-7.67-.0282-.747-.13-1.4913-.2083-2.3489-.43.1339-.7553.2206-1.07.3362-1.071.393-2.1338.8084-3.2075,1.1936a253.8132,253.8132,0,0,1-25.7569,7.5713q-15.9782,3.8889-32.2122,6.5066-11.4606,1.8671-22.9746,3.4005c-7.33.98-14.681,1.8159-22.0344,2.6066-5.9447.6392-11.9024,1.171-17.8622,1.6524-6.8215.5511-13.65,1.0258-20.4789,1.473-4.932.323-9.8692.5751-14.8064.8074q-7.7167.3633-15.4384.6225-7.6175.2574-15.2384.4126c-5.2886.1055-10.5784.1927-15.868.2075q-9.1282.0255-18.2567-.0961-11.5112-.1494-23.0206-.4146-7.8274-.18-15.651-.5153c-5.9736-.2626-11.9443-.5965-17.9139-.9394-4.8314-.2776-9.6637-.5586-14.4877-.9384-6.8569-.54-13.7134-1.1032-20.5575-1.783-7.5318-.748-15.0615-1.5435-22.57-2.4946-7.8163-.99-15.616-2.1247-23.4049-3.315q-16.4048-2.507-32.5741-6.2705a249.9683,249.9683,0,0,1-32.8974-9.7017C30.862,254.9455,30.5957,254.881,30.15,254.7447Zm432.4792-1.42c0,.4589-.0116.8372.0017,1.2147.1264,3.5926.2653,7.1847.3837,10.7775a12.8135,12.8135,0,0,1-2.5959,8.0419,25.0367,25.0367,0,0,1-5.8719,5.6671,63.2564,63.2564,0,0,1-12.279,6.6755,170.1519,170.1519,0,0,1-24.9281,8.1109,416.1478,416.1478,0,0,1-41.517,8.0586q-14.9271,2.2232-29.9472,3.7048c-7.8434.7727-15.6954,1.4771-23.5546,2.0643-7.8937.59-15.7982,1.0533-23.7034,1.4669-6.5931.3449-13.1929.5783-19.7921.7857-6.185.1942-12.3727.3074-18.56.4217-3.63.067-7.2619.1039-10.8927.0887q-10.8406-.0453-21.6809-.1681c-3.5952-.0375-7.19-.1133-10.7846-.2069-4.4924-.117-8.9852-.2362-13.4753-.4161-6.1138-.2449-12.2272-.51-18.337-.8379-5.4194-.2905-10.838-.62-16.249-1.0364-7.3756-.5682-14.75-1.1736-22.1129-1.88-6.2272-.5972-12.4422-1.3281-18.6557-2.058-9.065-1.065-18.0894-2.4161-27.085-3.9611-11.0781-1.9027-22.0819-4.1524-32.9333-7.1014a156.2728,156.2728,0,0,1-21.2919-7.2322A59.8538,59.8538,0,0,1,34.13,278.4212a23.7256,23.7256,0,0,1-5.1044-5.1281,11.51,11.51,0,0,1-2.4741-6.709c.0221-3.9745.172-7.9488.3106-11.9218.0479-1.3735.2989-1.198-1.1619-1.8815-2.5984-1.2157-5.2123-2.4078-7.7483-3.7452A46.2406,46.2406,0,0,1,5.3,239.7526a1.5784,1.5784,0,0,0-.3978-.2082,5.6985,5.6985,0,0,0-.1142.56q-.2236,2.4266-.4368,4.8543c-.5233,6.0308-.7613,12.0739-.8189,18.1266a12.501,12.501,0,0,0,1.9683,6.8793,22.8821,22.8821,0,0,0,4.497,5.1292A56.2231,56.2231,0,0,0,22.22,282.8672a141.89,141.89,0,0,0,19.8766,7.7833,363.4264,363.4264,0,0,0,47.8225,11.1976c9.3658,1.6345,18.7645,3.061,28.2042,4.1956,7.6531.92,15.3091,1.8285,22.9775,2.6069,6.74.6841,13.496,1.2278,20.2515,1.7466q10.0815.774,20.1765,1.3663,8.4885.5059,16.9878.8267,9.9481.3864,19.9018.627c5.3574.1331,10.717.2337,16.0758.2407q13.28.0172,26.5593-.1165c6.5334-.0694,13.0664-.23,19.5977-.4154q8.1372-.2314,16.27-.6234c6.4914-.3132,12.9825-.6525,19.4668-1.0839,7.3467-.4889,14.6931-1.01,22.0262-1.6681q12.29-1.1028,24.5537-2.4938c7.1425-.8151,14.28-1.7145,21.3866-2.7931q12.1977-1.8513,24.3342-4.1,15.714-2.883,31.1013-7.2231a178.5382,178.5382,0,0,0,23.6671-8.2973,70.7914,70.7914,0,0,0,13.8107-7.7551,27.95,27.95,0,0,0,5.996-5.8445,13.2225,13.2225,0,0,0,2.6787-8.1145c-.0481-7.51-.4852-14.9946-1.182-22.4678-.0273-.293-.1134-.58-.21-1.0568C478.3584,246.0092,470.5745,249.81,462.6293,253.3251Z"/>
    <rect class="a" x="0.125" y="0.125" width="488.4045" height="316.4864"/>
  </g>
</svg>
