<svg xmlns="http://www.w3.org/2000/svg" viewBox="0 0 213.8542 143.4549">
  <defs>
    <style>
      .a {
        fill: none;
        stroke: #000;
        stroke-miterlimit: 10;
        stroke-width: 0.25px;
      }
    </style>
  </defs>
  <title>mouth back lineart</title>
  <g>
    <path d="M163.3492.125c.781.1043,1.5663.1838,2.3424.3166a21.5235,21.5235,0,0,1,15.87,11.3192,21.6063,21.6063,0,0,1,2.62,10.6005c.011,3.2513.0023,6.5026.0023,9.7539v.6915h29.463c.0147.2735.0351.475.0351.6765q-.0078,25.2405-.0252,50.481a31.8948,31.8948,0,0,1-2.3354,11.0949,77.4472,77.4472,0,0,1-8.076,15.4432,112.0441,112.0441,0,0,1-15.6733,19.0111,65.68,65.68,0,0,1-13.9812,10.7416,24.0625,24.0625,0,0,1-7.8376,2.8783,14.7158,14.7158,0,0,1-2.2681.1889q-56.2665.0133-112.5328.005a19.7118,19.7118,0,0,1-8.7237-2.3651,54.7238,54.7238,0,0,1-12.4339-8.74A108.5477,108.5477,0,0,1,6.2422,102.0485a50.6427,50.6427,0,0,1-4.8-12.6,27.4226,27.4226,0,0,1-.6734-5.96C.7676,74.9623.7858,66.4362.75,57.91.7332,54.04.609,50.169.53,46.2983Q.4317,41.5037.3243,36.7091C.3005,35.6208.2709,34.5325.2456,33.4442c-.0043-.1857-.0006-.3715-.0006-.6208h.7673q14.2158,0,28.4315-.0015c.915,0,.8179.1061.819-.843.0036-3.2685-.0189-6.5373.0065-9.8057a21.5762,21.5762,0,0,1,3.3575-11.6961A21.5949,21.5949,0,0,1,49.14.366c.6418-.1,1.2895-.1616,1.9345-.241Zm-56.191,140.18q28.0941,0,56.1882-.0066a11.9857,11.9857,0,0,0,1.9081-.158,21.6,21.6,0,0,0,6.96-2.6032,63.4564,63.4564,0,0,0,13.4894-10.4545,109.4277,109.4277,0,0,0,14.313-17.1938,75.1265,75.1265,0,0,0,8.6081-16.2821,28.52,28.52,0,0,0,2.0059-9.7032q.0386-23.6319.028-47.264c0-.7909-.0007-.7922-.7869-.7922q-13.9563,0-27.9125,0c-.8285,0-.8307-.001-.8308-.811-.0009-4.2716.0085-8.5432-.0081-12.8148a20.433,20.433,0,0,0-.1656-2.6371A18.8245,18.8245,0,0,0,162.2272,3.2069q-54.9948-.0138-109.99.0012A18.22,18.22,0,0,0,38.3853,9.2324a18.398,18.398,0,0,0-5.0558,12.76c-.0323,3.666-.0064,7.3326-.0064,10.9989q0,1.0377,0,2.0753c-.0011.7788-.0017.7788-.8049.78q-.2853.0006-.5707,0-13.6968,0-27.3937,0c-.2421,0-.4852.0154-.7261-.0021-.3938-.0286-.4986.15-.49.5252.0565,2.437.0892,4.8746.14,7.3117.1132,5.4786.294,10.9567.334,16.4358.0576,7.903-.0119,15.8068.0376,23.71a24.702,24.702,0,0,0,.5048,4.6267A45.7969,45.7969,0,0,0,9.1192,101.018a105.6734,105.6734,0,0,0,23.2627,29.4263,50.77,50.77,0,0,0,11.208,7.8,19.3507,19.3507,0,0,0,8.7822,2.0882C70.634,140.2776,88.8961,140.3054,107.1582,140.3054Z"/>
    <path d="M195.0248,73.04q0,13.4107.01,26.8215a1.572,1.572,0,0,1-.506,1.2239q-7.9215,7.8893-15.811,15.8106a1.5147,1.5147,0,0,1-1.18.487q-22.9305-.017-45.8611.0022a3.3612,3.3612,0,0,0-1.2927.2712,59.1454,59.1454,0,0,1-47.0309-.056,2.9593,2.9593,0,0,0-1.1492-.2176q-22.6452-.0161-45.29.0024a1.6836,1.6836,0,0,1-1.3112-.5467q-7.89-7.9236-15.8122-15.8145a1.4586,1.4586,0,0,1-.47-1.1339q.0162-26.8734.0094-53.7467c0-.7826.0014-.7835.7921-.7835q15.3561,0,30.7123.0121a.8055.8055,0,0,0,.9153-.6464A57.2427,57.2427,0,0,1,64.8244,23.5309,56.3958,56.3958,0,0,1,98.1006,6.3065C116.6991,3.68,133.0689,8.722,146.9284,21.4609A56.3635,56.3635,0,0,1,162.112,44.7262a.8028.8028,0,0,0,.9124.6459q15.6156-.0254,31.2312-.0124c.7668,0,.7688.0011.7688.7548Q195.0252,59.5772,195.0248,73.04Zm-57.8743,41.112.02.1258c.1829.0083.3657.0239.5486.024q19.3.0016,38.6.0082a1.4073,1.4073,0,0,0,1.0925-.448q7.0479-7.0764,14.1238-14.1249a1.3986,1.3986,0,0,0,.4551-1.0842q-.0163-24.7481-.0093-49.4961c0-.7515-.0011-.7529-.7743-.753q-13.5414,0-27.0828,0c-.8455,0-.8455.0013-.6282.835.0087.0334.0212.0659.03.0993a57.5011,57.5011,0,0,1,.808,25.7555c-3.3454,16.7436-12.411,29.5954-26.7578,38.7751C137.4322,113.96,137.2921,114.0572,137.1505,114.1517ZM50.5462,48.4381c-.2669-.0139-.4675-.0334-.6681-.0334q-13.3827-.0022-26.7654-.0008c-.7074,0-.7118.0036-.7118.73q-.0014,24.795-.0059,49.59a1.2413,1.2413,0,0,0,.3873.9615Q29.91,106.79,37.014,113.9172a1.2417,1.2417,0,0,0,.96.3906q19.0891-.01,38.1783-.0072c.1751,0,.35-.0271.5255-.0416C65.6423,107.2429,57.46,97.87,52.6238,85.7275A58.6017,58.6017,0,0,1,50.5462,48.4381ZM162.3136,64.0627a55.3862,55.3862,0,1,0-55.7439,55.39A55.3924,55.3924,0,0,0,162.3136,64.0627Z"/>
    <path d="M107.0108,115.0616a48.6814,48.6814,0,0,1-20.3057-4.3066,52.8536,52.8536,0,0,1-13.85-9.0758A51.4843,51.4843,0,0,1,60.5623,84.7644,49.3091,49.3091,0,0,1,56.66,70.9933,50.8782,50.8782,0,0,1,58.5034,48.85,50.9328,50.9328,0,0,1,93.7775,15.0384a50.6012,50.6012,0,0,1,48.1666,12.3027,50.0882,50.0882,0,0,1,15.24,29.37,48.6717,48.6717,0,0,1-3.2649,26.8367,51.1976,51.1976,0,0,1-8.7038,13.8325,54.532,54.532,0,0,1-17.0644,12.875,48.7042,48.7042,0,0,1-7.7725,2.9587,42.4527,42.4527,0,0,1-8.2464,1.5325C110.43,114.9024,108.7182,114.96,107.0108,115.0616Zm-.061-90.45A39.4543,39.4543,0,1,0,146.3831,64.12,39.4495,39.4495,0,0,0,106.95,24.6116ZM124.6643,102.74a42.8787,42.8787,0,0,1-35.22.11c-.0324.0509-.065.0784-.0651.1059-.0068,1.7807-.0193,3.5615.0006,5.3419a.621.621,0,0,0,.354.4143c.6216.2585,1.2574.4851,1.8956.701a47.522,47.522,0,0,0,20.3433,2.2839,48.3342,48.3342,0,0,0,12.12-2.8824.7667.7667,0,0,0,.5821-.8705c-.0281-1.5211-.0105-3.043-.0105-4.5646ZM145.555,81.9125h.6289c1.4519,0,2.9047-.0295,4.3553.0144a.9429.9429,0,0,0,1.0844-.73,48.0754,48.0754,0,0,0-.0651-34.0184.7588.7588,0,0,0-.8653-.58c-1.4514.03-2.9037.0112-4.3556.0112h-.603A42.9205,42.9205,0,0,1,145.555,81.9125ZM68.1654,46.61c-1.6372,0-3.1579.0362-4.6755-.0173a.9678.9678,0,0,0-1.1.7759,47.8785,47.8785,0,0,0-2.2722,25.61,46.2354,46.2354,0,0,0,2.3967,8.4679c.0937.2428.1648.4738.5181.4705,1.6772-.016,3.3545-.01,5.0318-.0145a1.1,1.1,0,0,0,.2421-.0727A42.7317,42.7317,0,0,1,68.1654,46.61ZM89.3635,25.3548a42.5917,42.5917,0,0,1,35.2652.0578c.0159-.2476.0339-.4.0342-.5522.0021-1.4694-.0137-2.939.0108-4.408a.6486.6486,0,0,0-.5106-.7064A47.8152,47.8152,0,0,0,107.3448,16.57a47.0731,47.0731,0,0,0-9.5831.8995,45.446,45.446,0,0,0-7.9491,2.3189c-.182.0723-.4267.3007-.43.4606C89.3513,21.9064,89.3635,23.5645,89.3635,25.3548ZM63.8872,43.47a2.484,2.484,0,0,0,.3914.08c1.6948.0041,3.39.017,5.0839-.0144a.846.846,0,0,0,.57-.4039A42.75,42.75,0,0,1,85.9055,27.1378a.7037.7037,0,0,0,.4087-.6968c-.0132-1.6081-.0044-3.2165-.0079-4.8248,0-.1485-.0315-.297-.06-.5494A48.2079,48.2079,0,0,0,63.8872,43.47Zm63.8887-22.3286a3.1224,3.1224,0,0,0-.0709.4117c-.0035,1.6946-.0163,3.3894.0148,5.0834a.848.848,0,0,0,.4.5726,42.8014,42.8014,0,0,1,15.8048,15.9482.7026.7026,0,0,0,.6994.4049c1.5907-.013,3.1816-.0041,4.7725-.0079.1641,0,.3282-.0325.59-.06A48.2608,48.2608,0,0,0,127.7759,21.1416Zm-41.545,85.8908a2.4829,2.4829,0,0,0,.0719-.3777c.0038-1.6944.0166-3.389-.0147-5.0827a.8475.8475,0,0,0-.4014-.5731,42.7868,42.7868,0,0,1-15.7351-15.66.7109.7109,0,0,0-.7056-.3963c-1.59.012-3.1812.0039-4.7718.0074-.1652,0-.33.0308-.5905.0568a46.9361,46.9361,0,0,0,6.8319,10.31A47.674,47.674,0,0,0,86.2309,107.0324Zm41.5151-.0509a47.8677,47.8677,0,0,0,22.0418-21.9889c-.2879-.02-.4727-.0429-.6575-.0432-1.5381-.0029-3.0763.0109-4.614-.01a.8634.8634,0,0,0-.8625.4914,42.4224,42.4224,0,0,1-15.5027,15.4434.784.784,0,0,0-.4586.7747c.0175,1.59.0063,3.18.0089,4.7695C127.7016,106.5691,127.7245,106.72,127.746,106.9815Z"/>
    <path d="M106.848,77.4763q-10.3234,0-20.6469,0a11.6746,11.6746,0,0,1-11.91-10.5923,21.6944,21.6944,0,0,1,.3438-8.0431,11.8119,11.8119,0,0,1,11.3572-8.6092q20.88-.0072,41.7608,0A11.8166,11.8166,0,0,1,139.58,62.09c-.002,1.6585.0477,3.3265-.1049,4.9736a11.7651,11.7651,0,0,1-9.8118,10.2577,14.0268,14.0268,0,0,1-2.0132.1489Q117.2492,77.4857,106.848,77.4763Zm0-3.035v-.0176c7.1076,0,14.2156.044,21.3227-.0166a8.6781,8.6781,0,0,0,8.3-7.8857c.1151-1.5831.0856-3.1805.0514-4.77a8.7665,8.7665,0,0,0-8.5632-8.4737q-21.0638-.0405-42.1276-.0018a8.6939,8.6939,0,0,0-8.4894,7.6315,35.4808,35.4808,0,0,0-.0586,5.3853,7.9282,7.9282,0,0,0,.7078,2.8444,8.57,8.57,0,0,0,8.3116,5.2975C93.1513,74.4582,100,74.4413,106.848,74.4413Z"/>
    <path d="M106.8478,48.4218q-10.7886,0-21.5773,0c-.2074,0-.415-.0083-.6223-.0043-.279.0055-.3946-.123-.4119-.4041-.3376-5.479.859-10.4579,4.82-14.4937a16.4547,16.4547,0,0,1,11.8044-5.1533c3.9408-.0708,7.8838-.015,11.8258-.0146a17.1113,17.1113,0,0,1,16.4148,13.144,29.4661,29.4661,0,0,1,.4359,6.5013c.0007.3188-.14.4331-.4377.4226-.2071-.0072-.4149.0021-.6223.0021Q117.6624,48.4219,106.8478,48.4218ZM87.2007,45.3692h38.53c.121,0,.2431-.0108.3629.0008.3327.0321.427-.1417.4-.4371-.0386-.43-.0549-.8635-.1109-1.2915a14.0394,14.0394,0,0,0-13.932-12.2653q-5.5769-.0257-11.1539,0a14.0086,14.0086,0,0,0-13.66,10.9108C87.4134,43.2662,87.35,44.2828,87.2007,45.3692Z"/>
    <path d="M92.0105,94.4457c-2.1961,0-4.3923-.0079-6.5884.0076-.3952.0028-.5427-.1008-.5415-.52q.0192-6.5884.0007-13.1768c-.0011-.42.1234-.5765.5572-.5754q6.5883.0171,13.1768.002c.3943-.0007.553.1282.5521.5377q-.0138,6.6144,0,13.2287c.0008.3841-.1343.5055-.5163.503C96.4374,94.4382,94.2239,94.4456,92.0105,94.4457Zm.01-11.2059c-1.1917,0-2.3837.016-3.5749-.0088-.4167-.0086-.529.1378-.5266.5358q.0213,3.5749.0011,7.15c-.0018.3775.12.5156.5058.5136q3.6009-.0187,7.2018-.0012c.3438.0014.4914-.09.4893-.4648q-.02-3.6267,0-7.2536c.0018-.3557-.1037-.4833-.4695-.4777C94.4385,83.2515,93.2294,83.24,92.0205,83.24Z"/>
    <path d="M122,94.2857a7.0776,7.0776,0,1,1,7.1011-7.0806A7.0993,7.0993,0,0,1,122,94.2857Zm-4.0154-7.0812a4.031,4.031,0,1,0,8.062-.02,4.031,4.031,0,0,0-8.062.02Z"/>
    <path d="M106.9941,94.39a7.0776,7.0776,0,1,1,7.08-7.0274A7.0313,7.0313,0,0,1,106.9941,94.39Zm-.001-3.0457a4.0278,4.0278,0,1,0-4.0334-4.0216A4.0358,4.0358,0,0,0,106.9931,91.3441Z"/>
    <rect class="a" x="0.125" y="0.125" width="213.6042" height="143.2049"/>
  </g>
</svg>
