<svg xmlns="http://www.w3.org/2000/svg" viewBox="0 0 213.8542 135.2345">
  <defs>
    <style>
      .a {
        fill: #fff;
      }

      .b {
        fill: none;
        stroke: #000;
        stroke-miterlimit: 10;
        stroke-width: 0.25px;
      }
    </style>
  </defs>
  <title>mouth front color</title>
  <g>
    <path class="a" d="M210.5763,37.2363v.61c0,12.0192-.0468,24.0387.0263,36.0574a32.5379,32.5379,0,0,1-2.0757,11.593,73.4056,73.4056,0,0,1-7.4978,14.5127,110.0394,110.0394,0,0,1-15.1113,18.5342,65.8393,65.8393,0,0,1-12.8917,10.2152,23.0673,23.0673,0,0,1-7.6554,3.0459,11.5185,11.5185,0,0,1-1.9559.1683q-56.1876.0117-112.3752.0056a16.8538,16.8538,0,0,1-7.4176-2.045,49.9079,49.9079,0,0,1-11.128-7.72A105.8149,105.8149,0,0,1,9.3264,93.0523a48.8471,48.8471,0,0,1-4.857-12.4531,22.9859,22.9859,0,0,1-.5978-5.077q.0176-12.166-.0007-24.3323C3.86,46.8337,3.7887,42.4776,3.74,38.1216c-.0051-.4564-.0435-.9124-.0645-1.33.78,1.3256,1.4907,2.7089,2.3609,3.9837a22.9879,22.9879,0,0,0,14.6775,9.585,36.6665,36.6665,0,0,0,7.9178.7851q78.73.0063,157.46-.0028a31.7693,31.7693,0,0,0,11.9591-2.0987,22.733,22.733,0,0,0,12.2314-11.4556c.06-.122.1218-.2435.1828-.3652ZM170.61,55.578H43.4128v64.8332c.166-.2233.26-.3424.3462-.4667,1.0926-1.5766,2.2053-3.14,3.2718-4.7338a78.2369,78.2369,0,0,1,11.1508-13.6093,37.3249,37.3249,0,0,1,7.6-5.8082,9.5088,9.5088,0,0,1,4.5858-1.4512q36.8064.0082,73.613.0162a7.2059,7.2059,0,0,1,1.9294.2966,15.4526,15.4526,0,0,1,4.544,2.3273,56.3025,56.3025,0,0,1,12.6639,12.4623c2.4029,3.1639,4.6271,6.4636,6.9323,9.7018.1549.2175.3185.4288.56.7531ZM38.2358,69.2172A11.3157,11.3157,0,1,0,26.9407,80.5239,11.3253,11.3253,0,0,0,38.2358,69.2172Zm160.1109.0464A11.319,11.319,0,1,0,186.9944,80.535,11.3255,11.3255,0,0,0,198.3467,69.2636ZM187.0291,83.4054a7.86,7.86,0,1,0,7.8659,7.8836A7.8775,7.8775,0,0,0,187.0291,83.4054Zm-160.088,0a7.8626,7.8626,0,0,0-.0321,15.7252,7.8626,7.8626,0,1,0,.0321-15.7252Zm97.6276,41.1783a5.0549,5.0549,0,1,0-5.0527,5.0535A5.088,5.088,0,0,0,124.5687,124.5837ZM107.2,107.3346a5.0425,5.0425,0,0,0-.0079-10.085,5.0427,5.0427,0,1,0,.0079,10.085Zm-.0075,1.0725a5.0425,5.0425,0,1,0,5.0334,5.03A5.0494,5.0494,0,0,0,107.1923,108.4071Zm12.332,0a5.0426,5.0426,0,1,0,5.0442,5.0334A5.0225,5.0225,0,0,0,119.5243,108.4071Zm-.0271-1.0725a5.0426,5.0426,0,1,0-5.0383-5.0342A5.0329,5.0329,0,0,0,119.4972,107.3346ZM99.8787,124.5881a4.9731,4.9731,0,0,0-4.999-5.0657,5.0571,5.0571,0,1,0-.023,10.1142A5.0143,5.0143,0,0,0,99.8787,124.5881Zm12.3467.0033a5.0517,5.0517,0,0,0-5.0148-5.0745,5.06,5.06,0,1,0-.0289,10.12A5.05,5.05,0,0,0,112.2254,124.5914ZM99.8787,113.4323a4.9565,4.9565,0,0,0-5.0168-5.0252,5.0424,5.0424,0,1,0,5.0168,5.0252Zm0-11.1418a4.9985,4.9985,0,0,0-5.0214-5.04,5.0423,5.0423,0,1,0-.0291,10.0846A4.96,4.96,0,0,0,99.8787,102.2905Z"/>
    <path class="a" d="M107.1919,47.96q-39.1679,0-78.3356.0068a31.05,31.05,0,0,1-10.1486-1.4328c-6.3446-2.163-10.452-6.5712-12.7432-12.7784a30.4731,30.4731,0,0,1-1.8611-8.67c-.1889-3.0156-.2595-6.039-.3567-9.06-.1194-3.7125-.2119-7.4259-.3179-11.1388-.0114-.3968-.0268-.7939-.0558-1.19-.0194-.264.0794-.3913.3484-.3814.1209.0045.2421-.0023.3631-.0023q14.1887,0,28.3772,0c.7478,0,.74.0013.75.77.0232,1.8488-.01,3.7011.0952,5.5454a17.84,17.84,0,0,0,4.0385,10.3426,18.5519,18.5519,0,0,0,12.0114,6.91,20.3541,20.3541,0,0,0,3.0969.2156q54.783.0159,109.566.0072A18.9251,18.9251,0,0,0,180.1125,14.593a18.7266,18.7266,0,0,0,1.1122-6.339c.0034-1.47.0149-2.94-.0085-4.4094-.0064-.4083.1149-.5475.5232-.5384.9679.0217,1.9366.0066,2.905.0066q12.6323,0,25.2645,0c.7225,0,.7228.0014.7228.7348,0,2.9571.0133,5.9142-.0034,8.8711-.0191,3.3706.0305,6.7453-.1212,10.11a31.2715,31.2715,0,0,1-3.8491,14.6184,19.81,19.81,0,0,1-13.2146,9.54,31.2833,31.2833,0,0,1-7.19.7737Q146.7229,47.9579,107.1919,47.96Z"/>
    <path class="a" d="M46.4946,110.2313v-.5536q0-25.0582,0-50.1165c0-.8367.0007-.8373.8522-.8373q59.6625,0,119.325,0c.811,0,.8114.0007.8114.8114v50.4185c-.3779-.5075-.6774-.9113-.9784-1.3139A65.587,65.587,0,0,0,153.874,95.5406a25.6446,25.6446,0,0,0-6.0535-3.5658,11.0387,11.0387,0,0,0-4.1372-.7966q-36.29.02-72.5807-.0122a13.4426,13.4426,0,0,0-6.4411,1.6385,39.5815,39.5815,0,0,0-8.6043,6.4489A72.334,72.334,0,0,0,46.8256,109.96c-.0693.0976-.1434.1918-.2153.2876Z"/>
    <path class="a" d="M35.0778,69.2682a8.1722,8.1722,0,1,1-8.1488-8.2295A8.1642,8.1642,0,0,1,35.0778,69.2682Z"/>
    <path class="a" d="M195.1885,69.1817a8.1741,8.1741,0,1,1-8.1918-8.1413A8.1838,8.1838,0,0,1,195.1885,69.1817Z"/>
    <path class="a" d="M187.0366,86.5633a4.7034,4.7034,0,1,1-4.7118,4.6844A4.6488,4.6488,0,0,1,187.0366,86.5633Z"/>
    <path class="a" d="M22.2154,91.2787a4.7113,4.7113,0,1,1,4.7293,4.692A4.7316,4.7316,0,0,1,22.2154,91.2787Z"/>
    <path class="a" d="M121.4077,124.5781a1.8954,1.8954,0,1,1-1.9083-1.8993A1.8834,1.8834,0,0,1,121.4077,124.5781Z"/>
    <path class="a" d="M109.0668,102.3583a1.8569,1.8569,0,0,1-1.9065,1.837,1.9141,1.9141,0,0,1-1.89-1.9308,1.9584,1.9584,0,0,1,1.9582-1.8812A1.8936,1.8936,0,0,1,109.0668,102.3583Z"/>
    <path class="a" d="M109.068,113.4426a1.8947,1.8947,0,0,1-1.9,1.9161,1.959,1.959,0,0,1-1.8981-1.9419,1.9144,1.9144,0,0,1,1.8986-1.8709A1.8541,1.8541,0,0,1,109.068,113.4426Z"/>
    <path class="a" d="M121.4078,113.4285a1.8957,1.8957,0,1,1-3.7908.0015,1.8954,1.8954,0,0,1,3.7908-.0015Z"/>
    <path class="a" d="M117.617,102.3134a1.8955,1.8955,0,1,1,3.79-.0042,1.8953,1.8953,0,0,1-3.79.0042Z"/>
    <path class="a" d="M94.88,126.4737a1.8982,1.8982,0,1,1-.0276-3.7955,1.8979,1.8979,0,0,1,.0276,3.7955Z"/>
    <path class="a" d="M107.1992,122.679a1.8977,1.8977,0,0,1-.0077,3.7952,1.8978,1.8978,0,1,1,.0077-3.7952Z"/>
    <path class="a" d="M96.7421,113.4514a1.914,1.914,0,0,1-1.9109,1.9072,1.9962,1.9962,0,0,1-1.9026-1.9012,1.9319,1.9319,0,0,1,1.9222-1.9119A1.8534,1.8534,0,0,1,96.7421,113.4514Z"/>
    <path class="a" d="M96.7421,102.3055a1.8592,1.8592,0,0,1-1.9074,1.89,1.9291,1.9291,0,0,1-1.9057-1.8762,1.9924,1.9924,0,0,1,1.9179-1.9361A1.9136,1.9136,0,0,1,96.7421,102.3055Z"/>
    <rect class="b" x="0.125" y="0.125" width="213.6042" height="134.9845"/>
  </g>
</svg>
