<svg xmlns="http://www.w3.org/2000/svg" viewBox="0 0 213.8542 135.2345">
  <defs>
    <style>
      .a {
        fill: none;
        stroke: #000;
        stroke-miterlimit: 10;
        stroke-width: 0.25px;
      }
    </style>
  </defs>
  <title>mouth front lineart</title>
  <g>
    <path d="M.125.2136C.3494.2078.5738.197.7982.197Q18.23.1958,35.6618.1963h.6775v.591q0,3.8133,0,7.6264A15.7578,15.7578,0,0,0,49.0722,23.662a18.3587,18.3587,0,0,0,3.2433.3014q54.9413.0228,109.8826.0126a15.7892,15.7892,0,0,0,15.745-13.4608,13.67,13.67,0,0,0,.1511-2.0137c.0171-2.5593.0069-5.1188.0069-7.6782V.2307H213.728V.8473q0,8.7938-.0005,17.5874c-.01,18.3305-.079,36.6611.0013,54.9911a38.1631,38.1631,0,0,1-2.9015,14.73,87.5274,87.5274,0,0,1-10.1045,17.8032,110.9671,110.9671,0,0,1-12.7811,14.9661,67.3041,67.3041,0,0,1-14.0376,10.9169,24.3543,24.3543,0,0,1-8.5158,3.1072,16.1568,16.1568,0,0,1-2.2207.154q-55.953.0108-111.9059.0064a20.1561,20.1561,0,0,1-8.8-2.2741,52.8949,52.8949,0,0,1-12.0433-8.2987A108.5708,108.5708,0,0,1,6.4542,94.2442,48.3425,48.3425,0,0,1,1.352,80.7788a29.1281,29.1281,0,0,1-.5781-5.3449C.7146,67.0989.7609,58.7632.7422,50.4278c-.01-4.4254-.0739-8.8507-.1165-13.2759Q.5779,32.1737.5225,27.1957.4541,20.7919.3836,14.388.3307,9.4357.2785,4.4835C.2646,3.2912.2357,2.099.2075.907A1.11,1.11,0,0,0,.125.6287ZM210.5763,37.2363l-.1114-.0128c-.061.1217-.1224.2432-.1828.3652a22.733,22.733,0,0,1-12.2314,11.4556,31.7693,31.7693,0,0,1-11.9591,2.0987q-78.73.0135-157.46.0028a36.6665,36.6665,0,0,1-7.9178-.7851,22.9879,22.9879,0,0,1-14.6775-9.585c-.87-1.2748-1.5812-2.6581-2.3609-3.9837.021.4172.0594.8732.0645,1.33.0489,4.356.12,8.7121.1311,13.0683q.0312,12.1661.0007,24.3323a22.9859,22.9859,0,0,0,.5978,5.077,48.8471,48.8471,0,0,0,4.857,12.4531,105.8149,105.8149,0,0,0,23.1676,29.161,49.9079,49.9079,0,0,0,11.128,7.72,16.8538,16.8538,0,0,0,7.4176,2.045q56.1876.0028,112.3752-.0056a11.5185,11.5185,0,0,0,1.9559-.1683,23.0673,23.0673,0,0,0,7.6554-3.0459,65.8393,65.8393,0,0,0,12.8917-10.2152A110.0394,110.0394,0,0,0,201.0291,100.01a73.4056,73.4056,0,0,0,7.4978-14.5127,32.5379,32.5379,0,0,0,2.0757-11.593c-.0731-12.0187-.0263-24.0382-.0263-36.0574ZM107.1919,47.96q39.5309,0,79.0618.0014a31.2833,31.2833,0,0,0,7.19-.7737,19.81,19.81,0,0,0,13.2146-9.54,31.2715,31.2715,0,0,0,3.8491-14.6184c.1517-3.3651.1021-6.74.1212-10.11.0167-2.9569.0035-5.914.0034-8.8711,0-.7334,0-.7348-.7228-.7348q-12.6322,0-25.2645,0c-.9684,0-1.9371.0151-2.905-.0066-.4083-.0091-.53.13-.5232.5384.0234,1.47.0119,2.94.0085,4.4094a18.7266,18.7266,0,0,1-1.1122,6.339A18.9251,18.9251,0,0,1,162.02,27.1036q-54.783.0057-109.566-.0072a20.3541,20.3541,0,0,1-3.0969-.2156,18.5519,18.5519,0,0,1-12.0114-6.91A17.84,17.84,0,0,1,33.3068,9.6287c-.1053-1.8443-.072-3.6966-.0952-5.5454-.01-.769-.0021-.77-.75-.77q-14.1886,0-28.3772,0c-.121,0-.2422.0068-.3631.0023-.269-.01-.3678.1174-.3484.3814.029.3958.0444.7929.0558,1.19.106,3.7129.1985,7.4263.3179,11.1388.0972,3.0208.1678,6.0442.3567,9.06a30.4731,30.4731,0,0,0,1.8611,8.67c2.2912,6.2072,6.3986,10.6154,12.7432,12.7784a31.05,31.05,0,0,0,10.1486,1.4328Q68.0242,47.9478,107.1919,47.96Z"/>
    <path d="M170.61,55.578v64.3213c-.2417-.3243-.4053-.5356-.56-.7531-2.3052-3.2382-4.5294-6.5379-6.9323-9.7018a56.3025,56.3025,0,0,0-12.6639-12.4623,15.4526,15.4526,0,0,0-4.544-2.3273,7.2059,7.2059,0,0,0-1.9294-.2966q-36.8065-.022-73.613-.0162a9.5088,9.5088,0,0,0-4.5858,1.4512,37.3249,37.3249,0,0,0-7.6,5.8082,78.2369,78.2369,0,0,0-11.1508,13.6093c-1.0665,1.5941-2.1792,3.1572-3.2718,4.7338-.0862.1243-.18.2434-.3462.4667V55.578ZM46.4946,110.2313l.1157.0161c.0719-.0958.146-.19.2153-.2876a72.334,72.334,0,0,1,9.2316-10.7064,39.5815,39.5815,0,0,1,8.6043-6.4489,13.4426,13.4426,0,0,1,6.4411-1.6385q36.29.0531,72.5807.0122a11.0387,11.0387,0,0,1,4.1372.7966,25.6446,25.6446,0,0,1,6.0535,3.5658A65.587,65.587,0,0,1,166.5049,108.64c.301.4026.6005.8064.9784,1.3139V59.5353c0-.8107,0-.8114-.8114-.8114q-59.6625,0-119.325,0c-.8515,0-.8522.0006-.8522.8373q0,25.0583,0,50.1165Z"/>
    <path d="M38.2358,69.2172A11.3157,11.3157,0,1,1,26.9065,57.88,11.2565,11.2565,0,0,1,38.2358,69.2172Zm-3.158.051a8.1721,8.1721,0,1,0-8.1628,8.1186A8.1542,8.1542,0,0,0,35.0778,69.2682Z"/>
    <path d="M198.3467,69.2636a11.319,11.319,0,1,1-11.2934-11.3787A11.3309,11.3309,0,0,1,198.3467,69.2636Zm-3.1582-.0819a8.1741,8.1741,0,1,0-8.1388,8.2051A8.1614,8.1614,0,0,0,195.1885,69.1817Z"/>
    <path d="M187.0291,83.4054a7.86,7.86,0,1,1-7.86,7.7193A7.8231,7.8231,0,0,1,187.0291,83.4054Zm.0075,3.1579a4.7034,4.7034,0,0,0-.0209,9.4067,4.7034,4.7034,0,1,0,.0209-9.4067Z"/>
    <path d="M26.9411,83.4054a7.8626,7.8626,0,1,1-7.8614,7.811A7.8681,7.8681,0,0,1,26.9411,83.4054Zm-4.7257,7.8733a4.7113,4.7113,0,1,0,4.5862-4.7294A4.7007,4.7007,0,0,0,22.2154,91.2787Z"/>
    <path d="M124.5687,124.5837a5.0549,5.0549,0,1,1-5.0388-5.0668A5.09,5.09,0,0,1,124.5687,124.5837Zm-3.161-.0056a1.8955,1.8955,0,1,0-1.91,1.8965A1.8855,1.8855,0,0,0,121.4077,124.5781Z"/>
    <path d="M107.2,107.3346a5.0425,5.0425,0,1,1,5.0259-5.0378A5.0005,5.0005,0,0,1,107.2,107.3346Zm1.867-4.9763a1.8936,1.8936,0,0,0-1.8382-1.975,1.9584,1.9584,0,0,0-1.9582,1.8812,1.9141,1.9141,0,0,0,1.89,1.9308A1.8569,1.8569,0,0,0,109.0668,102.3583Z"/>
    <path d="M107.1923,108.4071a5.0425,5.0425,0,0,1,.0064,10.085,5.0427,5.0427,0,1,1-.0064-10.085Zm1.8757,5.0355a1.8541,1.8541,0,0,0-1.8992-1.8967,1.9144,1.9144,0,0,0-1.8986,1.8709,1.959,1.959,0,0,0,1.8981,1.9419A1.8947,1.8947,0,0,0,109.068,113.4426Z"/>
    <path d="M119.5243,108.4071a5.0426,5.0426,0,1,1-5.0654,5.0062A5.031,5.031,0,0,1,119.5243,108.4071Zm1.8835,5.0214a1.8954,1.8954,0,0,0-3.7908.0015,1.8957,1.8957,0,1,0,3.7908-.0015Z"/>
    <path d="M119.4972,107.3346a5.0426,5.0426,0,1,1,5.0713-5.0073A5.0207,5.0207,0,0,1,119.4972,107.3346Zm-1.88-5.0212a1.8953,1.8953,0,0,0,3.79-.0042,1.8955,1.8955,0,1,0-3.79.0042Z"/>
    <path d="M99.8787,124.5881a5.0143,5.0143,0,0,1-5.022,5.0485,5.0571,5.0571,0,1,1,.023-10.1142A4.9731,4.9731,0,0,1,99.8787,124.5881ZM94.88,126.4737a1.8979,1.8979,0,0,0-.0276-3.7955,1.8982,1.8982,0,1,0,.0276,3.7955Z"/>
    <path d="M112.2254,124.5914a5.05,5.05,0,0,1-5.0437,5.0454,5.06,5.06,0,1,1,.0289-10.12A5.0517,5.0517,0,0,1,112.2254,124.5914Zm-5.0262-1.9124a1.8978,1.8978,0,1,0-.0077,3.7952,1.8977,1.8977,0,0,0,.0077-3.7952Z"/>
    <path d="M99.8787,113.4323a5.0014,5.0014,0,0,1-5.0038,5.0594,5.0424,5.0424,0,1,1-.013-10.0846A4.9565,4.9565,0,0,1,99.8787,113.4323Zm-3.1366.0191a1.8534,1.8534,0,0,0-1.8913-1.9059,1.9319,1.9319,0,0,0-1.9222,1.9119,1.9962,1.9962,0,0,0,1.9026,1.9012A1.914,1.914,0,0,0,96.7421,113.4514Z"/>
    <path d="M99.8787,102.2905a4.96,4.96,0,0,1-5.05,5.0441,5.0423,5.0423,0,1,1,5.0505-5.0441Zm-3.1366.015a1.9136,1.9136,0,0,0-1.8952-1.9225,1.9924,1.9924,0,0,0-1.9179,1.9361,1.9291,1.9291,0,0,0,1.9057,1.8762A1.8592,1.8592,0,0,0,96.7421,102.3055Z"/>
    <rect class="a" x="0.125" y="0.125" width="213.6042" height="134.9845"/>
  </g>
</svg>
