<svg xmlns="http://www.w3.org/2000/svg" viewBox="0 0 213.8542 143.4549">
  <defs>
    <style>
      .a {
        fill: #fff;
      }

      .b {
        fill: none;
        stroke: #000;
        stroke-miterlimit: 10;
        stroke-width: 0.25px;
      }
    </style>
  </defs>
  <title>mouth back color</title>
  <g>
    <path class="a" d="M107.1582,140.3054c-18.2621,0-36.5242-.0278-54.7861.0268A19.3507,19.3507,0,0,1,43.59,138.244a50.77,50.77,0,0,1-11.208-7.8A105.6734,105.6734,0,0,1,9.1192,101.018,45.7969,45.7969,0,0,1,4.3535,88.4547a24.702,24.702,0,0,1-.5048-4.6267c-.05-7.903.02-15.8068-.0376-23.71-.04-5.4791-.2208-10.9572-.334-16.4358-.05-2.4371-.0831-4.8747-.14-7.3117-.0087-.3748.0961-.5538.49-.5252.2409.0175.484.0021.7261.0021q13.697,0,27.3937,0,.2853,0,.5707,0c.8032-.0015.8038-.0015.8049-.78q.0015-1.0377,0-2.0753c0-3.6663-.0259-7.3329.0064-10.9989a18.398,18.398,0,0,1,5.0558-12.76A18.22,18.22,0,0,1,52.2376,3.2081q54.9948-.0143,109.99-.0012a18.8245,18.8245,0,0,1,18.7277,16.3776,20.433,20.433,0,0,1,.1656,2.6371c.0166,4.2716.0072,8.5432.0081,12.8148,0,.81.0023.8109.8308.811q13.9563,0,27.9125,0c.7862,0,.7872.0013.7869.7922q-.0095,23.6321-.028,47.264a28.52,28.52,0,0,1-2.0059,9.7032,75.1265,75.1265,0,0,1-8.6081,16.2821,109.4277,109.4277,0,0,1-14.313,17.1938,63.4564,63.4564,0,0,1-13.4894,10.4545,21.6,21.6,0,0,1-6.96,2.6032,11.9857,11.9857,0,0,1-1.9081.158Q135.2523,140.311,107.1582,140.3054ZM195.0247,73.04q0-13.4625,0-26.9252c0-.7537-.002-.7548-.7688-.7548q-15.6156,0-31.2312.0124a.8028.8028,0,0,1-.9124-.6459,56.3635,56.3635,0,0,0-15.1836-23.2653C133.0689,8.722,116.6991,3.68,98.1006,6.3065A56.3958,56.3958,0,0,0,64.8244,23.5309,57.2427,57.2427,0,0,0,51.7491,44.7253a.8055.8055,0,0,1-.9153.6464Q35.4777,45.347,20.1215,45.36c-.7907,0-.7921.0009-.7921.7835q0,26.8734-.0094,53.7467a1.4586,1.4586,0,0,0,.47,1.1339q7.92,7.8928,15.8122,15.8145a1.6836,1.6836,0,0,0,1.3112.5467q22.6452-.0215,45.29-.0024a2.9593,2.9593,0,0,1,1.1492.2176,59.1454,59.1454,0,0,0,47.0309.056,3.3612,3.3612,0,0,1,1.2927-.2712q22.93-.0206,45.8611-.0022a1.5147,1.5147,0,0,0,1.18-.487q7.89-7.9211,15.811-15.8106a1.572,1.572,0,0,0,.506-1.2239Q195.0144,86.45,195.0247,73.04Z"/>
    <path class="a" d="M137.1505,114.1517c.1416-.0945.2817-.1915.4251-.2833,14.3468-9.18,23.4124-22.0315,26.7578-38.7751a57.5011,57.5011,0,0,0-.808-25.7555c-.0086-.0334-.0211-.0659-.03-.0993-.2173-.8337-.2173-.835.6282-.835q13.5414,0,27.0828,0c.7732,0,.7743.0015.7743.753q0,24.748.0093,49.4961a1.3986,1.3986,0,0,1-.4551,1.0842q-7.0747,7.05-14.1238,14.1249a1.4073,1.4073,0,0,1-1.0925.448q-19.3-.0135-38.6-.0082c-.1829,0-.3657-.0157-.5486-.024Z"/>
    <path class="a" d="M50.5462,48.4381a58.6017,58.6017,0,0,0,2.0776,37.2894C57.46,97.87,65.6423,107.2429,76.678,114.259c-.1752.0145-.35.0415-.5255.0416q-19.0892.0028-38.1783.0072a1.2417,1.2417,0,0,1-.96-.3906Q29.91,106.79,22.7823,99.6857a1.2413,1.2413,0,0,1-.3873-.9615q.0092-24.7951.0059-49.59c0-.7265.0044-.73.7118-.73q13.3827-.0012,26.7654.0008C50.0787,48.4047,50.2793,48.4242,50.5462,48.4381Z"/>
    <path class="a" d="M162.3136,64.0627A55.3862,55.3862,0,1,1,107.76,8.6785,55.3757,55.3757,0,0,1,162.3136,64.0627Zm-55.3028,50.9989c1.7074-.1016,3.4189-.1592,5.1215-.3147a42.4527,42.4527,0,0,0,8.2464-1.5325,48.7042,48.7042,0,0,0,7.7725-2.9587,54.532,54.532,0,0,0,17.0644-12.875,51.1976,51.1976,0,0,0,8.7038-13.8325,48.6717,48.6717,0,0,0,3.2649-26.8367,50.0882,50.0882,0,0,0-15.24-29.37A50.6012,50.6012,0,0,0,93.7775,15.0384,50.9328,50.9328,0,0,0,58.5034,48.85,50.8782,50.8782,0,0,0,56.66,70.9933a49.3091,49.3091,0,0,0,3.9022,13.7711,51.4843,51.4843,0,0,0,12.2928,16.9148,52.8536,52.8536,0,0,0,13.85,9.0758A48.6814,48.6814,0,0,0,107.0108,115.0616Z"/>
    <path class="a" d="M106.95,24.6116a39.4543,39.4543,0,1,1-39.4741,39.42A39.4483,39.4483,0,0,1,106.95,24.6116Zm-.1018,52.8647q10.4012,0,20.8025-.0065a14.0268,14.0268,0,0,0,2.0132-.1489,11.7651,11.7651,0,0,0,9.8118-10.2577c.1526-1.6471.1029-3.3151.1049-4.9736a11.8166,11.8166,0,0,0-11.8279-11.8578q-20.88-.01-41.7608,0a11.8119,11.8119,0,0,0-11.3572,8.6092,21.6944,21.6944,0,0,0-.3438,8.0431,11.6746,11.6746,0,0,0,11.91,10.5923Q96.5246,77.4772,106.848,77.4763Zm0-29.0545q10.8147,0,21.6293,0c.2074,0,.4152-.0093.6223-.0021.2974.0105.4384-.1038.4377-.4226a29.4661,29.4661,0,0,0-.4359-6.5013,17.1113,17.1113,0,0,0-16.4148-13.144c-3.942,0-7.885-.0562-11.8258.0146A16.4547,16.4547,0,0,0,89.0562,33.52c-3.9609,4.0358-5.1575,9.0147-4.82,14.4937.0173.2811.1329.41.4119.4041.2073-.004.4149.0042.6223.0043Q96.0592,48.4219,106.8478,48.4218ZM92.0105,94.4456c2.2134,0,4.4269-.0074,6.64.0071.382.0025.5171-.1189.5163-.503q-.0129-6.6143,0-13.2287c.0009-.41-.1578-.5384-.5521-.5377q-6.5885.0123-13.1768-.002c-.4338-.0011-.5583.1553-.5572.5754q.0174,6.5883-.0007,13.1768c-.0012.419.1463.5226.5415.52C87.6182,94.4378,89.8144,94.4458,92.0105,94.4456ZM122,94.2857a7.0778,7.0778,0,1,0-7.0869-7.1011A7.0878,7.0878,0,0,0,122,94.2857Zm-15.0058.1041a7.0776,7.0776,0,1,0-7.06-7.0936A7.0457,7.0457,0,0,0,106.9941,94.39Z"/>
    <path class="a" d="M124.6643,102.74v.6394c0,1.5216-.0176,3.0435.0105,4.5646a.7667.7667,0,0,1-.5821.8705,48.3342,48.3342,0,0,1-12.12,2.8824A47.522,47.522,0,0,1,91.63,109.4128c-.6382-.2159-1.274-.4425-1.8956-.701a.621.621,0,0,1-.354-.4143c-.02-1.78-.0074-3.5612-.0006-5.3419,0-.0275.0327-.055.0651-.1059A42.8787,42.8787,0,0,0,124.6643,102.74Z"/>
    <path class="a" d="M145.555,81.9125a42.9205,42.9205,0,0,0,.18-35.3025h.603c1.4519,0,2.9042.0192,4.3556-.0112a.7588.7588,0,0,1,.8653.58,48.0754,48.0754,0,0,1,.0651,34.0184.9429.9429,0,0,1-1.0844.73c-1.4506-.0439-2.9034-.0144-4.3553-.0144Z"/>
    <path class="a" d="M68.1654,46.61a42.7317,42.7317,0,0,0,.1413,35.22,1.1,1.1,0,0,1-.2421.0727c-1.6773.005-3.3546-.0015-5.0318.0145-.3533.0033-.4244-.2277-.5181-.4705a46.2354,46.2354,0,0,1-2.3967-8.4679,47.8785,47.8785,0,0,1,2.2722-25.61.9678.9678,0,0,1,1.1-.7759C65.0075,46.6462,66.5282,46.61,68.1654,46.61Z"/>
    <path class="a" d="M89.3635,25.3548c0-1.79-.0122-3.4484.0194-5.1057.003-.16.2477-.3883.43-.4606A45.446,45.446,0,0,1,97.7617,17.47a47.0731,47.0731,0,0,1,9.5831-.8995,47.8152,47.8152,0,0,1,16.8183,3.1759.6486.6486,0,0,1,.5106.7064c-.0245,1.469-.0087,2.9386-.0108,4.408,0,.1523-.0183.3046-.0342.5522a42.5917,42.5917,0,0,0-35.2652-.0578Z"/>
    <path class="a" d="M63.8872,43.47A48.2079,48.2079,0,0,1,86.2461,21.0668c.0287.2524.06.4009.06.5494.0035,1.6083-.0053,3.2167.0079,4.8248a.7037.7037,0,0,1-.4087.6968A42.75,42.75,0,0,0,69.9327,43.1323a.846.846,0,0,1-.57.4039c-1.6942.0314-3.3891.0185-5.0839.0144A2.484,2.484,0,0,1,63.8872,43.47Z"/>
    <path class="a" d="M127.7759,21.1416a48.2608,48.2608,0,0,1,22.21,22.3527c-.262.0277-.4261.06-.59.06-1.5909.0038-3.1818-.0051-4.7725.0079a.7026.7026,0,0,1-.6994-.4049,42.8014,42.8014,0,0,0-15.8048-15.9482.848.848,0,0,1-.4-.5726c-.0311-1.694-.0183-3.3888-.0148-5.0834A3.1224,3.1224,0,0,1,127.7759,21.1416Z"/>
    <path class="a" d="M86.2309,107.0324A47.674,47.674,0,0,1,70.9156,95.3171a46.9361,46.9361,0,0,1-6.8319-10.31c.26-.026.4253-.0564.5905-.0568,1.5906-.0035,3.1813.0046,4.7718-.0074a.7109.7109,0,0,1,.7056.3963,42.7868,42.7868,0,0,0,15.7351,15.66.8475.8475,0,0,1,.4014.5731c.0313,1.6937.0185,3.3883.0147,5.0827A2.4829,2.4829,0,0,1,86.2309,107.0324Z"/>
    <path class="a" d="M127.746,106.9815c-.0215-.2618-.0444-.4124-.0446-.563-.0026-1.59.0086-3.18-.0089-4.7695a.784.784,0,0,1,.4586-.7747,42.4224,42.4224,0,0,0,15.5027-15.4434.8634.8634,0,0,1,.8625-.4914c1.5377.0208,3.0759.007,4.614.01.1848,0,.37.0235.6575.0432a47.8677,47.8677,0,0,1-22.0418,21.9889Z"/>
    <path class="a" d="M106.848,74.4413c-6.8483,0-13.6967.0169-20.5449-.0066a8.57,8.57,0,0,1-8.3116-5.2975,7.9282,7.9282,0,0,1-.7078-2.8444,35.4808,35.4808,0,0,1,.0586-5.3853,8.6939,8.6939,0,0,1,8.4894-7.6315q21.0638-.0323,42.1276.0018a8.7665,8.7665,0,0,1,8.5632,8.4737c.0342,1.5894.0637,3.1868-.0514,4.77a8.6781,8.6781,0,0,1-8.3,7.8857c-7.1071.0606-14.2151.0166-21.3227.0166Z"/>
    <path class="a" d="M87.2007,45.3692c.15-1.0864.2127-2.103.4372-3.0825a14.0086,14.0086,0,0,1,13.66-10.9108q5.5768-.0246,11.1539,0a14.0394,14.0394,0,0,1,13.932,12.2653c.056.428.0723.8611.1109,1.2915.0265.2954-.0678.4692-.4.4371-.12-.0116-.2419-.0008-.3629-.0008h-38.53Z"/>
    <path class="a" d="M92.0205,83.24c1.2089,0,2.418.0116,3.6267-.0068.3658-.0056.4713.122.4695.4777q-.0183,3.6267,0,7.2536c.0021.3752-.1455.4662-.4893.4648q-3.6008-.0145-7.2018.0012c-.386.002-.5076-.1361-.5058-.5136q.0178-3.5749-.0011-7.15c-.0024-.398.11-.5444.5266-.5358C89.6368,83.2558,90.8288,83.24,92.0205,83.24Z"/>
    <path class="a" d="M117.9845,87.2045a4.031,4.031,0,1,1,4.01,4.0291A4.0547,4.0547,0,0,1,117.9845,87.2045Z"/>
    <path class="a" d="M106.9931,91.3441a4.0278,4.0278,0,1,1,4.0432-4.0064A4.05,4.05,0,0,1,106.9931,91.3441Z"/>
    <rect class="b" x="0.125" y="0.125" width="213.6042" height="143.2049"/>
  </g>
</svg>
