<svg xmlns="http://www.w3.org/2000/svg" viewBox="0 0 94.079 133.3639">
  <defs>
    <style>
      .a {
        fill: none;
        stroke: #000;
        stroke-miterlimit: 10;
        stroke-width: 0.25px;
      }
    </style>
  </defs>
  <title>neck inside1 lineart</title>
  <g>
    <path d="M44.4416.125H49.63a1.9271,1.9271,0,0,0,.3876.0916A80.3992,80.3992,0,0,1,62.8314,1.5955,60.7108,60.7108,0,0,1,79.2543,6.9976,32.9745,32.9745,0,0,1,89.37,14.5531,17.0751,17.0751,0,0,1,93.954,26.0787q-.0243,40.62-.0006,81.2405a16.2206,16.2206,0,0,1-2.5366,8.7854,26.0042,26.0042,0,0,1-7.61,7.6089,49.93,49.93,0,0,1-15.0713,6.72A82.2034,82.2034,0,0,1,43.5468,133.17a81.2286,81.2286,0,0,1-14.931-1.903,55.8442,55.8442,0,0,1-16.1532-6.1426,28.8382,28.8382,0,0,1-9.1138-7.9561A15.6835,15.6835,0,0,1,.13,107.9256Q.1175,66.7088.1382,25.4919a13.9968,13.9968,0,0,1,.2978-2.774,18.7465,18.7465,0,0,1,5.9082-9.8974A38.2442,38.2442,0,0,1,18.1982,5.426,72.94,72.94,0,0,1,43.276.2381C43.6655.2211,44.0531.1636,44.4416.125ZM3.1463,51.7629c-.0078.1678-.0224.3355-.0225.5033Q3.1223,67.6208,3.122,82.9754a12.32,12.32,0,0,0,.6047,3.8757,17.5828,17.5828,0,0,0,5.5494,7.8041,38.0835,38.0835,0,0,0,11.7059,6.6533,74.0763,74.0763,0,0,0,26.7028,4.4068,79.4654,79.4654,0,0,0,14.1267-1.3091,58.1372,58.1372,0,0,0,16.6212-5.5,28.907,28.907,0,0,0,8.9135-6.8393,13.9085,13.9085,0,0,0,3.5889-9.1643q-.0174-15.3287-.0041-30.6573v-.7072c-.2406.8917-.413,1.7551-.711,2.5726a15.4953,15.4953,0,0,1-1.1058,2.3945,21.43,21.43,0,0,1-6.3884,6.7075,45.9676,45.9676,0,0,1-14.15,6.5289,78.24,78.24,0,0,1-24.1507,2.8627,77.1541,77.1541,0,0,1-16.6657-2.242A50.3391,50.3391,0,0,1,12.684,64.1346a24.1025,24.1025,0,0,1-7.2183-6.7583A15.05,15.05,0,0,1,3.1463,51.7629ZM90.931,92.4756c-.193.2292-.285.3269-.3641.4341A25.5274,25.5274,0,0,1,85.91,97.688a44.7757,44.7757,0,0,1-13.802,7.234A76.598,76.598,0,0,1,49.5427,108.74,84.12,84.12,0,0,1,30,107.0938a58.0467,58.0467,0,0,1-16.7309-5.98,30.02,30.02,0,0,1-9.872-8.3312A1.0447,1.0447,0,0,1,3.3,92.5387l-.1493.0974c-.0093.1636-.0266.3272-.0267.4907q-.002,7.1857-.0024,14.3714a12.3321,12.3321,0,0,0,.7958,4.4144,18.1484,18.1484,0,0,0,5.4535,7.3282,37.44,37.44,0,0,0,10.7153,6.2237,72.7676,72.7676,0,0,0,25.9169,4.7619,80.5321,80.5321,0,0,0,11.8459-.6955,65.4746,65.4746,0,0,0,16.6238-4.2731,34.2469,34.2469,0,0,0,12.0328-7.7511,14.6749,14.6749,0,0,0,4.4481-10.8152c-.1019-4.4769-.0227-8.9578-.0227-13.437ZM46.5037,48.3839a82.3731,82.3731,0,0,0,17.54-1.7744,54.2588,54.2588,0,0,0,15.9741-5.9333,25.4438,25.4438,0,0,0,8.2157-7.1081c3.0459-4.2947,3.6436-8.8483,1.2078-13.6291a19.8747,19.8747,0,0,0-5.7948-6.6229,41.9856,41.9856,0,0,0-12.54-6.4311A76.229,76.229,0,0,0,45.0525,3.21,77.7487,77.7487,0,0,0,28.4173,5.3088a51.4209,51.4209,0,0,0-15.3362,6.1444,24.2285,24.2285,0,0,0-7.4853,6.8493C2.82,22.4,2.2713,26.7294,4.4382,31.2659a19.2643,19.2643,0,0,0,5.6234,6.6965,41.4554,41.4554,0,0,0,12.567,6.5943A75.0224,75.0224,0,0,0,46.5037,48.3839ZM3.2964,35.2393l-.1254.087a.5624.5624,0,0,0-.04.1451Q3.126,41.0476,3.1217,46.624c-.0005.2944.1381.3651.4034.4064a3.0325,3.0325,0,0,1,2.636,3.0468,10.1723,10.1723,0,0,0,.2793,2.099,13.5032,13.5032,0,0,0,4.2829,6.6049,33.7332,33.7332,0,0,0,10.8247,6.41,69.4844,69.4844,0,0,0,24.5634,4.4055,77.91,77.91,0,0,0,12.97-.8866,59.2165,59.2165,0,0,0,15.8435-4.547,29.5511,29.5511,0,0,0,9.3155-6.2829,11.7863,11.7863,0,0,0,3.6947-8.15,2.8348,2.8348,0,0,1,2.4256-2.6643c.52-.0759.5806-.2872.5787-.73-.0153-3.5273-.0082-7.0547-.01-10.5821,0-.1639-.0157-.3277-.0288-.5841-.15.1721-.2347.2728-.3229.37-1.0772,1.19-2.0761,2.464-3.2472,3.553a38.51,38.51,0,0,1-12.0891,7.315,73.108,73.108,0,0,1-24.7875,4.9468,83.9744,83.9744,0,0,1-21.08-1.7418,57.1483,57.1483,0,0,1-16.5689-6.1114,29.6938,29.6938,0,0,1-9.3859-8.0361A1.8257,1.8257,0,0,1,3.2964,35.2393Z"/>
    <path d="M47.0209,9.34a47.6107,47.6107,0,0,1,17.2927,3.2215,23.0734,23.0734,0,0,1,8.0984,5.2078,11.4025,11.4025,0,0,1,3.4888,7.4884A10.9345,10.9345,0,0,1,72.9717,33.17a21.6073,21.6073,0,0,1-7.7993,5.4535,41.4726,41.4726,0,0,1-12.8659,3.2352,50.4008,50.4008,0,0,1-17.7491-1.27,30.0093,30.0093,0,0,1-10.9025-5.0164A13.58,13.58,0,0,1,18.7527,29.28a10.43,10.43,0,0,1,1.9339-10.4189,20.7531,20.7531,0,0,1,8.0059-5.8493A39.6821,39.6821,0,0,1,40.9232,9.7878C42.9483,9.57,44.9878,9.4851,47.0209,9.34Zm.6159,3.1252a50.6739,50.6739,0,0,0-8.4463.6314A34.2717,34.2717,0,0,0,28.0182,16.768a15.5034,15.5034,0,0,0-5.3305,4.5253,7.3026,7.3026,0,0,0-.1119,8.7652A13.5752,13.5752,0,0,0,24.74,32.4862,23.3888,23.3888,0,0,0,33.379,37.068a45.1373,45.1373,0,0,0,15.2949,1.9785,42.1427,42.1427,0,0,0,13.4989-2.4976,20.9958,20.9958,0,0,0,8.071-4.934A8.2587,8.2587,0,0,0,72.87,25.6564a8.1383,8.1383,0,0,0-2.2962-5.363,19.2175,19.2175,0,0,0-7.1785-4.805A41.9228,41.9228,0,0,0,47.6368,12.4653Z"/>
    <rect class="a" x="0.125" y="0.125" width="93.829" height="133.1139"/>
  </g>
</svg>
