<svg xmlns="http://www.w3.org/2000/svg" viewBox="0 0 419.8798 272.7396">
  <defs>
    <style>
      .a {
        fill: none;
        stroke: #000;
        stroke-miterlimit: 10;
        stroke-width: 0.25px;
      }
    </style>
  </defs>
  <title>neck base lineart</title>
  <g>
    <path d="M218.2412.125c.8472.0669,1.6934.15,2.5416.1981,5.9669.3376,11.9408.5806,17.8994,1.0276,5.0285.3772,10.0491.9084,15.0559,1.514,8.44,1.0207,16.8189,2.4369,25.1412,4.176a283.35,283.35,0,0,1,28.3547,7.4128A210.4219,210.4219,0,0,1,354.9873,36.06a132.9419,132.9419,0,0,1,21.1392,16.16,88.9527,88.9527,0,0,1,18.288,23.6924,61.3609,61.3609,0,0,1,6.48,20.0156c.2365,1.7446.3859,3.5016.5445,5.2557a1.918,1.918,0,0,0,.396,1.0158,5.9089,5.9089,0,0,1,.8352,1.6436q4.091,12.9962,8.1414,26.0051,4.2188,13.4993,8.4392,26.9982c.15.4784.3353.9456.5041,1.4179v5.8109a3.1453,3.1453,0,0,0-.1718.6743,47.9191,47.9191,0,0,1-1.6,10.1174A75.3249,75.3249,0,0,1,405.08,201.4676a115.8345,115.8345,0,0,1-22.6916,22.7843A180.2386,180.2386,0,0,1,351.23,243.3488a251.7,251.7,0,0,1-36.5289,14.3466,318.2906,318.2906,0,0,1-33.571,8.353c-7.5344,1.46-15.1034,2.7058-22.7207,3.6206-5.66.68-11.3352,1.2776-17.0186,1.7166-6.0969.471-12.2115.7118-18.3178,1.0609a6.7481,6.7481,0,0,0-.8883.1681H197.9031a2.2754,2.2754,0,0,0-.5646-.1655c-6.2544-.1549-12.5012-.4754-18.7291-1.06-6.226-.5839-12.4537-1.1825-18.6583-1.9544-7.7829-.9682-15.5122-2.2964-23.205-3.84a306.0271,306.0271,0,0,1-42.0514-11.4664,228.8777,228.8777,0,0,1-37.2511-16.8547c-12.46-7.1157-24.0159-15.4272-33.9611-25.8492A93.2127,93.2127,0,0,1,8.6194,191.2968a66.9664,66.9664,0,0,1-8.1329-26.88,14.4332,14.4332,0,0,0-.3615-1.7941V158.68a6.6781,6.6781,0,0,0,.5561-1.0676q4.8206-15.373,9.617-30.7538,3.5859-11.4714,7.1762-22.9412a4.671,4.671,0,0,1,.9854-1.9142,1.4009,1.4009,0,0,0,.298-.8368C19.3544,89.3112,23.44,78.6582,29.9155,68.84A99.9572,99.9572,0,0,1,50.0428,46.9226,154.5942,154.5942,0,0,1,76.7965,29.3953a232.1348,232.1348,0,0,1,47.482-18.2788,303.0662,303.0662,0,0,1,31.0877-6.6653q10.0322-1.6186,20.1422-2.6159C181.9736,1.2022,188.4512.7109,194.947.5039Q198.21.4,201.4725.2741a2.7942,2.7942,0,0,0,.5812-.1491ZM401.4539,110.7031l-.1488.0242c-.2227,1.4308-.4083,2.8684-.674,4.2912a67.0038,67.0038,0,0,1-10.7463,25.4036,100.6131,100.6131,0,0,1-18.8794,20.569,156.9235,156.9235,0,0,1-30.04,19.4878A214.7919,214.7919,0,0,1,316.71,190.9346a270.3734,270.3734,0,0,1-32.9177,9.56c-6.8782,1.5467-13.7916,2.902-20.7657,3.9317-4.032.5954-8.07,1.1567-12.1166,1.6447-3.8074.4591-7.6237.864-11.4455,1.1789-4.236.3491-8.48.6366-12.7256.8272-4.523.2031-9.052.3077-13.5795.3681-3.4218.0457-6.8455-.0428-10.2682-.0774-1.4177-.0143-2.8374-.0023-4.2526-.0737-4.6943-.2368-9.39-.4653-14.0793-.776-3.5856-.2375-7.1727-.5115-10.7421-.9183-5.1484-.5868-10.2872-1.2672-15.42-1.9832-6.6749-.9312-13.2929-2.1957-19.8759-3.634a277.6834,277.6834,0,0,1-30.44-8.4213,212.3544,212.3544,0,0,1-37.0633-16.5015c-11.4011-6.5236-21.9647-14.155-31.0626-23.7018a88.3522,88.3522,0,0,1-12.103-15.7662,64.6936,64.6936,0,0,1-8.351-21.8558c-.2387-1.3435-.4311-2.6953-.6825-4.2809-.1754.5-.2819.7766-.37,1.0589q-2.151,6.8721-4.2979,13.7457-5.18,16.5666-10.3534,33.1354a5.5964,5.5964,0,0,0-.3042,1.6141,55.6715,55.6715,0,0,0,1.1411,11.12,69.9038,69.9038,0,0,0,11.0529,25.624,106.3518,106.3518,0,0,0,20.54,22.1263,172.343,172.343,0,0,0,35.1186,22.0845,246.3068,246.3068,0,0,0,31.2647,12.4639,306.9934,306.9934,0,0,0,34.2715,8.9393c7.1126,1.4347,14.26,2.68,21.4573,3.6079,4.3519.5613,8.711,1.0662,13.0682,1.5858.6747.08,1.3562.1033,2.1572.1618V266.414q0-15.7206,0-31.4411c0-2.6979-.012-5.3959.0059-8.0937a3.0006,3.0006,0,0,1,2.2769-2.98,5.7633,5.7633,0,0,1,1.4387-.1073q36.2662-.0071,72.5324-.004a4.221,4.221,0,0,1,.725.01,4.64,4.64,0,0,1,1.1926.2985,3.1007,3.1007,0,0,1,1.8129,3.0151c.0094,1.9023.003,3.8047.003,5.7071q0,16.395.0022,32.79c0,.4331.0322.8662.05,1.3244.4111,0,.6879.026.9584-.0045,1.1674-.1316,2.3375-.2493,3.4983-.4268,6.0776-.93,12.1661-1.7974,18.2257-2.8332a295.2,295.2,0,0,0,31.589-7.2873A261.8077,261.8077,0,0,0,342.9306,243.7a188.93,188.93,0,0,0,33.4883-19.0091,122.7581,122.7581,0,0,0,21.9891-19.9653,80.912,80.912,0,0,0,13.683-22.1322,61.69,61.69,0,0,0,4.5731-21.37,9.1245,9.1245,0,0,0-.34-3.0693q-6.7551-21.502-13.4653-43.0183C402.3958,113.6564,401.9223,112.1805,401.4539,110.7031ZM210.12,3.2579l-.002.16c-1.59,0-3.18-.0231-4.7687.0051-2.9032.0515-5.81.061-8.7079.218-5.7279.31-11.4575.63-17.1741,1.0959-4.7854.39-9.5634.9137-14.3266,1.52-6.6144.842-13.19,1.942-19.736,3.2253a281.8416,281.8416,0,0,0-29.9269,7.5362A214.1907,214.1907,0,0,0,72.4053,35.4714,132.6787,132.6787,0,0,0,43.07,57.7069,80.8438,80.8438,0,0,0,27.6644,79.3125a57.8755,57.8755,0,0,0-5.6476,20.78,55.4374,55.4374,0,0,0,2.3318,20.5877,69.9832,69.9832,0,0,0,12.147,22.6187,105.98,105.98,0,0,0,19.0568,18.5481A169.0385,169.0385,0,0,0,90.7157,182.25a250.2941,250.2941,0,0,0,42.63,14.1469c8.1664,1.9576,16.3957,3.6074,24.708,4.81,5.0255.7271,10.0581,1.4247,15.1042,1.9846,4.3949.4877,8.8088.832,13.2222,1.1152,5.1037.3275,10.2137.6147,15.3254.7464,7.3978.19,14.8019.1816,22.1944-.1852q8.9553-.4445,17.8942-1.201c4.92-.423,9.8264-1.0315,14.7271-1.65,7.3035-.9216,14.5463-2.215,21.754-3.7129a267.1606,267.1606,0,0,0,39.8939-11.4558,194.0642,194.0642,0,0,0,35.5934-17.4346,124.5857,124.5857,0,0,0,25.022-20.3847,81.7131,81.7131,0,0,0,12.2537-16.9256,59.2548,59.2548,0,0,0,7.2342-25.41,54.5966,54.5966,0,0,0-1.7382-16.3314,67.1315,67.1315,0,0,0-11.3806-23.2207,103.0919,103.0919,0,0,0-19.8365-19.9478,164.6374,164.6374,0,0,0-32.5049-19.4295A246.9369,246.9369,0,0,0,287.3834,12.234a309.4121,309.4121,0,0,0-43.3077-7.2292q-8.4084-.81-16.8534-1.2311C221.5274,3.4849,215.8211,3.4206,210.12,3.2579Zm40.057,223.868H176.8252c0,13.648,0,27.2181,0,40.9118.9685.0812,1.8188.1639,2.6707.2221,3.7925.259,7.5829.5635,11.379.7511,3.9691.196,7.9434.3586,11.9165.3891,5.8074.0446,11.6176.0365,17.4233-.096,5.0431-.1151,10.0853-.3723,15.1208-.6815,4.5519-.2794,9.0946-.7107,13.64-1.0863a11.0334,11.0334,0,0,0,1.2008-.2323Z"/>
    <path d="M385.0349,192.5549c-.0359,3.789-.9287,7.2762-3.6131,10.0895a10.9948,10.9948,0,0,1-9.1737,3.4722c-4.8372-.3643-8.5964-2.8088-11.7128-6.3434a21.9221,21.9221,0,0,1-5.5215-12.4935,15.8712,15.8712,0,0,1,1.6271-9.253,11.5385,11.5385,0,0,1,11.886-5.9947,17.6322,17.6322,0,0,1,10.6159,5.97,22.4908,22.4908,0,0,1,5.7461,12.2912C384.9937,191.043,384.9894,191.8083,385.0349,192.5549Zm-3.3148.1019a19.2607,19.2607,0,0,0-6.163-13.5864,14.7581,14.7581,0,0,0-5.8526-3.4151c-5.1391-1.4623-9.5783.997-10.9844,6.1464a12.7454,12.7454,0,0,0-.4852,3.47,18.7557,18.7557,0,0,0,5.3962,12.97,14.6238,14.6238,0,0,0,6.8664,4.2579,8.3334,8.3334,0,0,0,10.5165-5.4688A12.1273,12.1273,0,0,0,381.72,192.6568Z"/>
    <path d="M33.3491,187.6794c.5157-7.9631,3.9066-14.28,10.7826-18.5318a13.3633,13.3633,0,0,1,8.61-2.0663,11.1416,11.1416,0,0,1,9.6586,7.4031,16.8764,16.8764,0,0,1,.4657,10.886,21.942,21.942,0,0,1-9.83,13.5855,14.4075,14.4075,0,0,1-7.4355,2.29A11.4321,11.4321,0,0,1,34.5989,194.06,17.2173,17.2173,0,0,1,33.3491,187.6794ZM51.604,170.3341a10.9434,10.9434,0,0,0-5.7983,1.6588,18.7889,18.7889,0,0,0-8.8867,13.25,12.8424,12.8424,0,0,0,.7929,7.6139,8.0948,8.0948,0,0,0,8.3583,5.03,11.2527,11.2527,0,0,0,5.1582-1.71,18.7827,18.7827,0,0,0,8.4032-11.5031,14.3271,14.3271,0,0,0-.0165-8.1735A8.2366,8.2366,0,0,0,51.604,170.3341Z"/>
    <path d="M16.3289,168.0587c.6055-7.1194,3.6082-12.5079,9.9928-15.6892a10.0653,10.0653,0,0,1,7.663-.6944,9.66,9.66,0,0,1,6.6371,7.214,14.2662,14.2662,0,0,1-.197,7.8821,17.5677,17.5677,0,0,1-7.6535,10.3459,11.2009,11.2009,0,0,1-7.7015,1.8638c-4.2992-.6275-6.91-3.2436-8.1226-7.3025A28.09,28.09,0,0,1,16.3289,168.0587Zm21.477-5.9109a23.8353,23.8353,0,0,0-.5974-3.05,6.2491,6.2491,0,0,0-6.7545-4.4991,8.8992,8.8992,0,0,0-4.2376,1.5642,14.65,14.65,0,0,0-6.2869,9.6381,9.9872,9.9872,0,0,0,.5528,6,6.16,6.16,0,0,0,6.0269,3.9238,8.075,8.075,0,0,0,4.2239-1.2478C35.1782,171.71,37.4,167.6331,37.8059,162.1478Z"/>
    <path d="M401.9979,172.883a12.1445,12.1445,0,0,1-1.4241,5.9924,9.6148,9.6148,0,0,1-11.5977,4.6531,14.8352,14.8352,0,0,1-7.2837-4.9167,17.4789,17.4789,0,0,1-4.3182-11.91,11.7047,11.7047,0,0,1,1.4377-5.4634,9.6306,9.6306,0,0,1,11.6224-4.596,14.6659,14.6659,0,0,1,6.6459,4.25A17.7774,17.7774,0,0,1,401.9979,172.883Zm-21.3009-5.47a14.4839,14.4839,0,0,0,4.69,10.2792,10.265,10.265,0,0,0,5.22,2.8252,6.2393,6.2393,0,0,0,7.1253-3.3517,8.6914,8.6914,0,0,0,.9578-4.1005A14.4456,14.4456,0,0,0,394.496,162.98a11.0209,11.0209,0,0,0-5.5306-3.2987,6.3415,6.3415,0,0,0-7.6329,3.9687A9.5765,9.5765,0,0,0,380.697,167.4134Z"/>
    <path d="M210.0352,10.0113c6.39.2266,12.7874.3267,19.1672.7171,5.8254.3565,11.6412.94,17.4443,1.578a260.6832,260.6832,0,0,1,35.3439,6.4369,223.1562,223.1562,0,0,1,32.4246,10.7579A157.5587,157.5587,0,0,1,346.5932,47.41a98.3266,98.3266,0,0,1,18.4885,17.3352,64.344,64.344,0,0,1,11.05,19.4693,49.9273,49.9273,0,0,1,2.7356,19.38,53.8207,53.8207,0,0,1-7.4058,23.9418,75.4769,75.4769,0,0,1-10.8585,14.3615,116.3094,116.3094,0,0,1-24.8513,19.4183,178.4807,178.4807,0,0,1-30.05,14.1746,243.2877,243.2877,0,0,1-36.7892,10.2578c-6.0336,1.2008-12.094,2.2387-18.1938,3.0124-4.8316.6128-9.6831,1.0786-14.5324,1.54a282.8448,282.8448,0,0,1-31.1844,1.03c-5.0433-.0785-10.0873-.3166-15.123-.6161-4.4828-.2666-8.9659-.6158-13.428-1.1142-4.9073-.5482-9.7973-1.2651-14.6833-1.9868-6.7695-1-13.4682-2.3782-20.1243-3.9623a222.7737,222.7737,0,0,1-39.9279-13.3666,147.121,147.121,0,0,1-32.29-19.3458,88.6943,88.6943,0,0,1-18.0748-19.18A57.9841,57.9841,0,0,1,42.293,110.99a49.8078,49.8078,0,0,1-.9783-12.6765c.4912-10.157,3.9727-19.2807,9.49-27.7016A87.1942,87.1942,0,0,1,69.1409,50.8365a137.7207,137.7207,0,0,1,24.0284-15.46,212.6456,212.6456,0,0,1,45.8071-16.8323c7.6778-1.9234,15.4256-3.5142,23.2484-4.7028,5.0533-.7678,10.1327-1.3722,15.2089-1.98,6.0761-.7271,12.1808-1.1363,18.293-1.3928,3.6948-.155,7.3949-.1871,11.0928-.2628,1.07-.0219,2.1414-.0033,3.2122-.0033Zm-157.868,117.12c.2457.4066.4194.7041.6025.9957a76.9789,76.9789,0,0,0,12.676,15.1545A118.4005,118.4005,0,0,0,86.249,158.6763a187.7816,187.7816,0,0,0,39.899,17.4327,266.06,266.06,0,0,0,56.9876,10.9394c5.9878.5148,11.9983.8451,18.0056,1.0315q10.1566.3151,20.3244-.0859c7.0139-.2671,14.0152-.6835,20.9873-1.4849,5.0453-.58,10.0909-1.19,15.11-1.9594a249.4427,249.4427,0,0,0,26.3621-5.523,204.7385,204.7385,0,0,0,42.8084-16.3334,130.72,130.72,0,0,0,24.9506-16.6784,80.4617,80.4617,0,0,0,15.5872-17.6737c.2368-.3731.4572-.7568.6825-1.1311-.2187-.3611-.3908-.6587-.5754-.9482a73.9368,73.9368,0,0,0-9.8225-12.163,107.2246,107.2246,0,0,0-17.2016-13.9676,167.5691,167.5691,0,0,0-31.0266-15.928,228.0348,228.0348,0,0,0-31.1332-9.7146,261.6993,261.6993,0,0,0-30.4956-5.4127c-5.5245-.6431-11.0751-1.07-16.6186-1.5388-6.7195-.5683-13.46-.6494-20.198-.7469-2.4866-.036-4.9753.09-7.4632.1228-7.4689.0971-14.9241.4835-22.3507,1.2657-5.9091.6223-11.8178,1.2944-17.6956,2.1566a246.7918,246.7918,0,0,0-25.9833,5.3,207.0373,207.0373,0,0,0-43.8672,16.45,136.6659,136.6659,0,0,0-21.4976,13.67A87.9441,87.9441,0,0,0,55.7217,122.07C54.4807,123.7249,53.34,125.4551,52.1672,127.1317Zm317.4851-3.28a3.4846,3.4846,0,0,0,.2664-.3629c.3091-.6176.6237-1.233.9154-1.8589a48.4175,48.4175,0,0,0,4.7493-22.702,47.1887,47.1887,0,0,0-1.4362-9.8265,57.132,57.132,0,0,0-9.8127-19.97A90.15,90.15,0,0,0,345.9911,51.07a145.751,145.751,0,0,0-24.669-14.8192,214.1129,214.1129,0,0,0-43.26-15.0968,256.52,256.52,0,0,0-32.4413-5.653c-4.9466-.5317-9.9016-1.0118-14.8633-1.3682-4.4108-.3168-8.8345-.5345-13.2556-.6067-5.2877-.0864-10.5793-.0084-15.8683.066q-8.3484.1174-16.6668.8855c-4.4038.4059-8.8167.7594-13.1992,1.3364-5.2032.6849-10.3932,1.4984-15.5624,2.4074a234.8621,234.8621,0,0,0-38.035,9.9956A177.7675,177.7675,0,0,0,84.5557,44.02,108.9161,108.9161,0,0,0,60.8629,63.0629,65.6328,65.6328,0,0,0,48.4386,81.94a47.5343,47.5343,0,0,0-3.605,24.0292,49.2958,49.2958,0,0,0,5.2915,17.2436c.1026.1994.2363.3828.3992.6437.2984-.4122.5457-.7381.7767-1.0752a82.8066,82.8066,0,0,1,12.3559-14.0822A131.16,131.16,0,0,1,92.7042,88.8963a193.6613,193.6613,0,0,1,27.1214-11.3684,226.86,226.86,0,0,1,27.8882-7.5388q8.3291-1.6641,16.7164-3.0312c4.0559-.6541,8.1471-1.1108,12.2348-1.5395,4.4666-.4683,8.942-.8857,13.4233-1.1728,4.5513-.2917,9.1135-.5112,13.673-.5565,6.1173-.0609,12.2415-.0592,18.3535.1666,5.833.2155,11.6623.66,17.4778,1.1771,4.9535.4405,9.8961,1.0469,14.8236,1.725,6.7772.9327,13.5022,2.1829,20.1838,3.6611A225.1308,225.1308,0,0,1,321.6067,86.02a146.3116,146.3116,0,0,1,27.8586,16.726,93.0262,93.0262,0,0,1,17.466,17.3464C367.8458,121.3026,368.7117,122.5491,369.6523,123.8512Z"/>
    <path d="M213.5678,252.3668c-9.6821,0-19.3646-.0445-29.0461.0316-2.3905.0188-4.0214-1.2-3.9619-3.99.1011-4.7351.0278-9.4741.0279-14.2114,0-.1037-.0009-.2075.0007-.3112.0379-2.4869,1.2271-3.6625,3.7229-3.6627q29.2019-.0024,58.4039-.0008c.2074,0,.4152-.0053.6223.0039a3.1549,3.1549,0,0,1,3.15,3.1893c.0347,1.832.0093,3.6652.0094,5.4979,0,3.3541-.0066,6.7083.0033,10.0624a3.2863,3.2863,0,0,1-1.079,2.5927,2.8083,2.8083,0,0,1-1.77.7709c-.4141.02-.8292.0267-1.2439.0267Q227.9874,252.3678,213.5678,252.3668Zm29.4268-3.3591c.2548-1.0218.2407-14.3936.0072-15.2614-.8043-.2193-57.8624-.2633-59.0451-.0246-.0236.3053-.0716.6394-.072.9734q-.0075,6.6369-.0018,13.2736c.0009,1.0888.0137,1.1027,1.0983,1.1029q28.5175.003,57.035-.0013C242.3521,249.07,242.6881,249.0282,242.9946,249.0077Z"/>
    <rect class="a" x="0.125" y="0.125" width="419.6298" height="272.4896"/>
  </g>
</svg>
