<svg xmlns="http://www.w3.org/2000/svg" viewBox="0 0 84.4317 146.4821">
  <defs>
    <style>
      .a {
        fill: none;
        stroke: #000;
        stroke-miterlimit: 10;
        stroke-width: 0.25px;
      }
    </style>
  </defs>
  <title>neck back right lineart</title>
  <g>
    <path d="M30.4533.3093c1.3943.11,2.7951.1673,4.1817.3385,7.64.9435,14.69,3.3664,20.6822,8.3786a18.5927,18.5927,0,0,1,1.5551,1.5221,10.491,10.491,0,0,1,2.629,5.52c1.0956,5.9569,2.3068,11.8924,3.4706,17.8368q1.84,9.3993,3.6777,18.7992,1.8359,9.3741,3.6754,18.7477,2.06,10.5168,4.117,21.0342,1.6227,8.2815,3.2508,16.5618,1.9524,9.9576,3.9016,19.9158,1.3142,6.7059,2.6293,13.4116a3.0185,3.0185,0,0,1-1.2217,3.29,3.132,3.132,0,0,1-3.7065.1577,56.2418,56.2418,0,0,0-14.6172-6.3914,99.065,99.065,0,0,0-16.39-3.4928,96.7382,96.7382,0,0,0-12.913-.9553c-3.3687.0085-6.7442.0188-10.1042.2286a74.9087,74.9087,0,0,0-17.626,2.9895c-1.036.3215-2.029.8087-3.0809,1.0468a3.4043,3.4043,0,0,1-4.2009-3.38c.0023-.0691,0-.1384-.0005-.2075Q.3393,123.8079.3169,111.9548.2922,94.965.2755,77.9753.2668,70.6606.2574,63.3459C.2467,58.349.223,53.352.2132,48.3551Q.1874,35.2564.1714,22.1574c-.0034-2.04.0652-4.0846-.0362-6.12A7.9747,7.9747,0,0,1,2.698,9.8712a27.12,27.12,0,0,1,8.6073-5.67A43.6366,43.6366,0,0,1,24.8176.6312c1.391-.14,2.7885-.2164,4.183-.3219ZM74.476,108.4261c-.0764-.4389-.126-.7591-.1882-1.0769q-3.24-16.5365-6.4818-33.0724c-.7149-3.6463-1.4365-7.2913-2.14-10.94-.0689-.3577-.1928-.4774-.5705-.4779a4.6705,4.6705,0,0,1-1.2709-.2035A110.0166,110.0166,0,0,0,37.72,58.5125a103.7945,103.7945,0,0,0-23.5432,1.5654,43.3894,43.3894,0,0,0-8.8279,2.4484,4.31,4.31,0,0,1-1.5181.2495c-.4369.0123-.5643.1557-.5549.5746.0288,1.2789.033,2.5584.0351,3.8377q.0231,13.9792.0414,27.9586.0068,4.5389.0177,9.0777c.0017.7388.2731.8984.9719.676,2.1055-.67,4.19-1.44,6.3361-1.9425a99.1926,99.1926,0,0,1,24.1973-2.33,117.4,117.4,0,0,1,18.31,1.7,94.014,94.014,0,0,1,20.7479,5.9144C74.0725,108.3016,74.22,108.34,74.476,108.4261Zm-71.1244,13.71h.0175q0,6.6667,0,13.3334c0,.8479.2479.9944,1.0519.705,1.2353-.4445,2.4649-.92,3.7284-1.2683a93.3562,93.3562,0,0,1,23.8616-2.992,115.7524,115.7524,0,0,1,17.117,1.1,101.2863,101.2863,0,0,1,21.4743,5.22,47.5273,47.5273,0,0,1,9.8431,4.73,3.11,3.11,0,0,0,.73.2545,3.9864,3.9864,0,0,0-.0077-.7376q-2.0091-10.3071-4.0339-20.6109c-.6385-3.2569-1.2846-6.5123-1.9088-9.7719-.08-.4179-.2345-.55-.6744-.5648a4.7947,4.7947,0,0,1-1.45-.3259c-2.3369-.8544-4.6341-1.828-6.9994-2.592A106.96,106.96,0,0,0,36.5776,103.71,103.0789,103.0789,0,0,0,15.293,105.117,46.5166,46.5166,0,0,0,5.2939,107.79a3.56,3.56,0,0,1-1.3662.2264c-.4892-.0032-.63.17-.6217.6321.03,1.6076.04,3.2157.0439,4.8236C3.356,116.36,3.3516,119.2484,3.3516,122.1365ZM61.1867,40.7817c-.0238-.2347-.0273-.4032-.0592-.5662-1.56-7.9713-3.1581-15.9355-4.66-23.9178a8.0458,8.0458,0,0,0-2.5786-4.4863A26.746,26.746,0,0,0,46.3447,6.935a40.7134,40.7134,0,0,0-25.5575-2.62A36.3886,36.3886,0,0,0,7.66,9.653,14.0109,14.0109,0,0,0,3.9847,13.05a4.0186,4.0186,0,0,0-.7888,2.4654c.0423,3.8032.0426,7.6069.051,11.41q.015,6.8729.0183,13.7458c0,.2007,0,.4014,0,.6781.2689-.08.4465-.13.6228-.1852.9735-.3025,1.9374-.6407,2.9214-.9037a97.9713,97.9713,0,0,1,23.1369-2.9857,116.75,116.75,0,0,1,13.0525.476,115.1955,115.1955,0,0,1,17.5292,2.89C60.7236,40.69,60.9221,40.7256,61.1867,40.7817Zm3.725,18.9861c-.03-.2666-.0369-.4348-.0689-.598-.9394-4.8-1.889-9.5984-2.8113-14.4018a.8885.8885,0,0,0-.7707-.8,116.3691,116.3691,0,0,0-31.3245-3.63,101.7514,101.7514,0,0,0-17.1636,1.6868,50.0633,50.0633,0,0,0-8.85,2.3861.7651.7651,0,0,0-.5807.83c.0216,4.6.02,9.1992.028,13.7988.0011.6648.2952.862.9249.6258.5663-.2125,1.1227-.4535,1.6953-.6468a69.4133,69.4133,0,0,1,14.3972-2.9639,113.4053,113.4053,0,0,1,19.9868-.4583,113.0963,113.0963,0,0,1,20.88,3.2063C62.4409,59.1042,63.6218,59.4268,64.9117,59.7678Z"/>
    <path d="M13.5837,76.1189a7.57,7.57,0,1,1-7.6,7.5187A7.5316,7.5316,0,0,1,13.5837,76.1189Zm-.03,12.0986a4.5316,4.5316,0,1,0-4.5307-4.5123A4.5219,4.5219,0,0,0,13.5539,88.2175Z"/>
    <path d="M21.1293,123.0349a7.5727,7.5727,0,1,1-7.5277-7.56A7.543,7.543,0,0,1,21.1293,123.0349Zm-3.0231.0032a4.5416,4.5416,0,1,0-4.5128,4.5438A4.5464,4.5464,0,0,0,18.1062,123.0381Z"/>
    <rect class="a" x="0.125" y="0.125" width="84.1817" height="146.2321"/>
  </g>
</svg>
