<svg xmlns="http://www.w3.org/2000/svg" viewBox="0 0 84.4822 146.4562">
  <defs>
    <style>
      .a {
        fill: #fff;
      }

      .b {
        fill: none;
        stroke: #000;
        stroke-miterlimit: 10;
        stroke-width: 0.25px;
      }
    </style>
  </defs>
  <title>neck back left color</title>
  <g>
    <path class="a" d="M9.9819,108.4548c.1606-.8585.2966-1.6167.4447-2.3725Q13.9918,87.8912,17.56,69.7006c.4124-2.1032.8323-4.2049,1.231-6.3106.0721-.3809.1885-.56.6281-.538a3.6664,3.6664,0,0,0,1.1685-.1859,108.6514,108.6514,0,0,1,21.2921-3.8594,112.2273,112.2273,0,0,1,18.3389-.0649,78.5406,78.5406,0,0,1,15.82,2.6917c.9767.2855,1.9143.7032,2.8867,1.0058a8.0987,8.0987,0,0,0,1.7124.33c.388.0328.5413.115.5393.5322-.0173,3.6658-.0156,7.3318-.02,10.9977,0,.1383-.0029.2766-.003.415q-.0147,13.98-.0308,27.961c-.0007.57-.02,1.1406-.0415,1.71-.02.5469-.2866.7311-.82.5461-.4731-.1642-.93-.3762-1.4018-.5434A58.01,58.01,0,0,0,69.1,102.0005a105.0108,105.0108,0,0,0-18.801-1.3905,111.419,111.419,0,0,0-33.3726,5.2544c-2.1176.69-4.18,1.5487-6.2681,2.33C10.4689,108.2654,10.2805,108.34,9.9819,108.4548Zm60.8808-17.202a7.5678,7.5678,0,1,0-7.54-7.6192A7.5383,7.5383,0,0,0,70.8627,91.2528Z"/>
    <path class="a" d="M81.1245,122.1349q0,5.8626-.0018,11.7251c0,.6048-.02,1.21-.0409,1.8144-.02.5858-.28.7659-.8458.565-.7652-.2716-1.5132-.5946-2.285-.8445A69.9015,69.9015,0,0,0,65.1242,132.73a104.6045,104.6045,0,0,0-14.4882-.82,110.4444,110.4444,0,0,0-36.6767,6.29,53.3361,53.3361,0,0,0-8.26,3.7356c-.5849.3341-1.14.72-1.721,1.0616a3.9531,3.9531,0,0,1-.6443.2447,2.6911,2.6911,0,0,1-.0444-.6725c.281-1.5124.584-3.0208.88-4.53Q6.7035,125.1134,9.23,112.1864c.0889-.4565.2161-.68.7516-.6605a3.14,3.14,0,0,0,1.298-.2893,94.2454,94.2454,0,0,1,23.9173-6.44,112.7435,112.7435,0,0,1,19.1357-1.118,87.9308,87.9308,0,0,1,21.3253,2.89c1.1127.31,2.1819.7735,3.2848,1.1228a6.1965,6.1965,0,0,0,1.61.3155c.4888.0186.6092.1823.6079.64-.0126,4.4961-.0076,8.9922-.0076,13.4884Zm-2.6458.9046a7.5781,7.5781,0,1,0-7.5918,7.5741A7.5343,7.5343,0,0,0,78.4787,123.04Z"/>
    <path class="a" d="M23.2382,40.7866c.21-1.0928.394-2.0722.5855-3.05q2.1672-11.0669,4.3308-22.1343a6.2572,6.2572,0,0,1,1.6938-3.037,23.12,23.12,0,0,1,6.5845-4.8083,39.1174,39.1174,0,0,1,17.0344-4.36A41.5528,41.5528,0,0,1,73.8111,7.8628a20.4339,20.4339,0,0,1,5.9468,4.2793,10.1563,10.1563,0,0,1,.9431,1.2335,3.38,3.38,0,0,1,.5657,1.956c-.0191,4.4784-.0058,8.9568-.0107,13.4352q-.0065,5.9391-.0293,11.8781c-.0006.2029-.0214.4057-.0358.6621a3.5137,3.5137,0,0,1-.4335-.0889A64.8779,64.8779,0,0,0,68.6009,38.41a109.4784,109.4784,0,0,0-16.8495-1.1559,119.661,119.661,0,0,0-27.7848,3.3746C23.7678,40.6776,23.5664,40.7158,23.2382,40.7866Z"/>
    <path class="a" d="M19.5152,59.7809c.168-.8791.31-1.6385.4586-2.3966.82-4.1887,1.6528-8.3752,2.4516-12.5681a.96.96,0,0,1,.8312-.8685A105.1406,105.1406,0,0,1,42.0449,40.78c3.789-.2744,7.5945-.4691,11.3916-.4541a90.6612,90.6612,0,0,1,23.65,2.9446c1.2141.3316,2.3907.8,3.5877,1.1954a.5937.5937,0,0,1,.4526.6526q-.0313,7.0272-.0486,14.0543c-.0021.5284-.2993.7032-.8458.5069-.6666-.2395-1.3175-.5244-1.9893-.7473A66.2747,66.2747,0,0,0,66.46,56.3507a107.5927,107.5927,0,0,0-15.7691-.9869,114.6533,114.6533,0,0,0-30.4623,4.2335C20.0325,59.6529,19.8336,59.6992,19.5152,59.7809Z"/>
    <path class="a" d="M70.86,88.2151A4.5336,4.5336,0,1,1,75.4583,83.72,4.5536,4.5536,0,0,1,70.86,88.2151Z"/>
    <path class="a" d="M75.4583,123.0468a4.5562,4.5562,0,1,1-4.501-4.5549A4.5808,4.5808,0,0,1,75.4583,123.0468Z"/>
    <rect class="b" x="0.125" y="0.125" width="84.2322" height="146.2062"/>
  </g>
</svg>
