<svg xmlns="http://www.w3.org/2000/svg" viewBox="0 0 128.7124 265.9416">
  <defs>
    <style>
      .a {
        fill: none;
        stroke: #000;
        stroke-miterlimit: 10;
        stroke-width: 0.25px;
      }
    </style>
  </defs>
  <title>neck front lineart</title>
  <g>
    <path d="M.125,258.8643c.0688-.8175.1573-1.6339.2032-2.4527q.4122-7.3482.8076-14.6972.353-6.4955.7-12.9912.3915-7.2459.7858-14.4918.449-8.1771.9053-16.3539.4425-8.1258.8707-16.2526.447-8.229.9068-16.4574.5142-9.3412,1.0255-18.6827.4353-8.0222.859-16.045c.2962-5.4343.6075-10.8678.9036-16.3021.2914-5.3481.5674-10.6971.8585-16.0453.2612-4.7959.5381-9.5909.8-14.3867q.3876-7.0906.7606-14.182.45-8.2809.91-16.5613.5163-9.3932,1.0313-18.7865.455-8.3584.9005-16.7174Q13.75,10.1091,14.15,2.76c.0459-.8446.0977-1.6888.1527-2.6349A202.1648,202.1648,0,0,0,64.3465,6.2728,202.0974,202.0974,0,0,0,114.3821.1254c.0616.9579.1263,1.848.1748,2.739q.4727,8.6693.9394,17.3389.4676,8.6175.9377,17.2348.52,9.5487,1.0422,19.0973.459,8.3841.9207,16.7679.4368,8.048.8629,16.0966.449,8.2807.9083,16.5611.4688,8.5655.9349,17.1312.5133,9.3675,1.03,18.7348.4568,8.3844.903,16.7693.3374,6.2623.6771,12.5245.3972,7.22.804,14.4388.3246,5.9.6369,11.8008.364,6.7024.7327,13.4045.5085,9.29,1.0166,18.58.383,7.0648.755,14.13.4167,7.7118.8454,15.4231a1.2147,1.2147,0,0,0,.0837.2777v.3113a4.4921,4.4921,0,0,1-.5358.1743c-7.0026,1.3712-14.0314,2.6026-21.12,3.4231-6.0574.7011-12.1269,1.3449-18.2077,1.7827-6.0117.4329-12.0442.5755-18.0676.8465-.6822.0307-1.364.0686-2.046.1031H60.1018a2.1949,2.1949,0,0,0-.39-.0831c-4.4018-.1428-8.8074-.2107-13.2047-.44q-6.8285-.3557-13.6421-.9761-6.6272-.6143-13.2258-1.5236c-4.9229-.6868-9.8233-1.5356-14.7305-2.3327-1.6-.26-3.19-.5787-4.7841-.8706ZM12.9673,81.187,6.524,199.3857a457.1981,457.1981,0,0,0,115.6466-.0011c-.0467-.7874-.0924-1.4924-.13-2.1978-.1526-2.8983-.2961-5.797-.455-8.695-.2582-4.7089-.53-9.4171-.7881-14.1261-.1919-3.5018-.3651-7.0046-.5572-10.5063q-.4415-8.0467-.8966-16.0926-.3079-5.5627-.606-11.126-.4214-7.7361-.8432-15.4723-.3048-5.5884-.61-11.1769-.422-7.7362-.8429-15.4724c-.1886-3.5019-.3671-7.0042-.5541-10.5061-.0495-.9263-.1137-1.8518-.1739-2.8238A335.3952,335.3952,0,0,1,12.9673,81.187ZM3.3793,257.0854a333.1381,333.1381,0,0,0,121.9352-.0017c-.9945-18.2411-1.9835-36.3814-2.9761-54.5872a456.452,456.452,0,0,1-57.9978,3.6693,456.3546,456.3546,0,0,1-57.9849-3.6693ZM14.4381,54.2379a388.84,388.84,0,0,0,99.818,0q-1.367-25.0656-2.7372-50.1907a211.85,211.85,0,0,1-94.3443,0Q15.8036,29.1945,14.4381,54.2379Zm99.9878,3.2167a454.7262,454.7262,0,0,1-50.0951,3.1646,454.4661,454.4661,0,0,1-50.0014-3.1574.7769.7769,0,0,0-.065.158q-.3159,5.64-.6282,11.2807c-.16,2.8978-.31,5.7962-.4787,8.6936-.0187.3221.0409.4586.39.5072,2.1542.2994,4.2991.6723,6.4579.93,5.0923.6075,10.183,1.249,15.289,1.716,4.643.4247,9.3032.6789,13.96.9293,3.2771.1762,6.5608.2714,9.8426.31,3.6986.0432,7.4.0426,11.0974-.0489,4.7491-.1174,9.4968-.3163,14.2426-.535,2.6223-.1209,5.2434-.31,7.8579-.5472,3.5943-.3261,7.1885-.673,10.7706-1.11,4.0261-.4917,8.0379-1.1,12.0584-1.6389.3589-.0482.4137-.2049.3975-.5061-.0934-1.7426-.1723-3.486-.2664-5.2286q-.292-5.4076-.5947-10.8149C114.5861,60.2134,114.507,58.8709,114.4259,57.4546Z"/>
    <path d="M87.2314,168.4434a22.8939,22.8939,0,1,1-22.8519-22.911A22.8738,22.8738,0,0,1,87.2314,168.4434ZM64.3168,188.2076A19.7776,19.7776,0,1,0,44.5644,168.092,19.7486,19.7486,0,0,0,64.3168,188.2076Z"/>
    <path d="M64.3594,105.3477A15.18,15.18,0,1,1,49.16,120.5313,15.1429,15.1429,0,0,1,64.3594,105.3477ZM76.401,120.5183a12.0694,12.0694,0,1,0-12.0573,12.068A12.083,12.083,0,0,0,76.401,120.5183Z"/>
    <path d="M64.3342,211.7079A10.1949,10.1949,0,1,1,54.1463,221.74,10.1883,10.1883,0,0,1,64.3342,211.7079ZM71.42,221.9094a7.0843,7.0843,0,1,0-7.1531,7.0583A7.0833,7.0833,0,0,0,71.42,221.9094Z"/>
    <path d="M54.1651,247.8134a10.19,10.19,0,0,1,20.3806-.0129,10.19,10.19,0,1,1-20.3806.0129Zm17.2547.0073a7.0787,7.0787,0,1,0-7.0349,7.083A7.1005,7.1005,0,0,0,71.42,247.8207Z"/>
    <rect class="a" x="0.125" y="0.125" width="128.4624" height="265.6916"/>
  </g>
</svg>
