<svg xmlns="http://www.w3.org/2000/svg" viewBox="0 0 152.3412 231.9812">
  <defs>
    <style>
      .a {
        fill: none;
        stroke: #000;
        stroke-miterlimit: 10;
        stroke-width: 0.25px;
      }
    </style>
  </defs>
  <title>neck back lineart</title>
  <g>
    <path d="M131.5679,5.3841q10.33,113.2964,20.6483,226.4721A321.7572,321.7572,0,0,0,.125,231.8543c.081-.9477.1573-1.89.2429-2.8324q.45-4.9554.9064-9.91.4442-4.8257.8923-9.6509c.2938-3.2174.5775-6.4357.87-9.6531s.5926-6.4345.8868-9.6519q.387-4.2327.7688-8.4659.3937-4.31.7921-8.6189.3842-4.2067.7626-8.414.4467-4.9036.897-9.807.3814-4.1813.7607-8.3626.3982-4.3614.799-8.7226.4365-4.8.868-9.6013.4413-4.8522.8883-9.7039.3862-4.2328.7692-8.466.3937-4.31.7919-8.6191.384-4.2066.7627-8.4137.4466-4.9036.8964-9.807.3873-4.2588.77-8.5179.4431-4.8516.8929-9.7026.3865-4.2325.7653-8.4658.4414-4.8522.8878-9.7039.3861-4.233.77-8.466.3937-4.31.7912-8.6192.384-4.2066.7634-8.4137.4467-4.9038.8958-9.8073.2369-2.6068.4624-5.2148c.07-.82.0584-.8279.8588-.963,5.056-.8538,10.1006-1.7859,15.1727-2.53,4.0484-.5938,8.1233-1.04,12.2-1.4006C53.7277.9234,58.555.5161,63.3863.3628c6.58-.2088,13.17-.2954,19.7521-.1977,5.3511.0794,10.7029.4254,16.0441.8,7.5678.5307,15.095,1.463,22.5826,2.6875C125.0191,4.1846,128.26,4.7972,131.5679,5.3841Zm17.193,222.5625c-.0125-.2229-.0162-.3572-.0281-.4906q-.279-3.124-.56-6.2479-.38-4.2077-.7625-8.4151-.4417-4.8267-.89-9.6528-.44-4.8271-.8708-9.6553-.4479-4.9305-.902-9.86-.3812-4.1815-.7579-8.3633-.4479-4.9044-.9006-9.8083-.3845-4.2078-.7635-8.416-.4457-4.8786-.8955-9.757-.3855-4.233-.764-8.4668-.3925-4.3107-.7924-8.6207-.387-4.2335-.7692-8.4673-.3911-4.2852-.7853-8.57-.385-4.2331-.7646-8.4668c-.2942-3.2179-.5976-6.4349-.891-9.6528s-.5763-6.4373-.87-9.6554c-.2949-3.2353-.6-6.47-.8952-9.705-.2922-3.2005-.5746-6.4019-.8674-9.6024q-.5452-5.9628-1.0992-11.9249c-.3293-3.614-.6449-7.2293-.9744-10.8432-.3625-3.975-.7377-7.9487-1.1-11.9236-.3282-3.5966-.6436-7.1943-.9712-10.791-.3668-4.0269-.7482-8.0526-1.1-12.0808-.0339-.3888-.1693-.5527-.5318-.612-4.2276-.6913-8.4416-1.481-12.6845-2.0587C110.88,5.2,106.1709,4.69,101.4589,4.245c-3.8523-.364-7.7191-.5911-11.5836-.8027-2.95-.1616-5.9064-.2666-8.8606-.2847-4.4427-.0272-8.8882-.0364-13.3282.0953-4.4035.1307-8.8045.4012-13.201.694-3.2059.2135-6.4084.5115-9.6021.8654q-5.15.5708-10.2789,1.3273c-3.5356.5283-7.0533,1.177-10.58,1.7661-.3312.0553-.4387.2145-.4633.5491-.0914,1.2407-.2214,2.4784-.3351,3.7174q-.3936,4.2849-.7851,8.57-.3856,4.2336-.767,8.4675-.3946,4.3363-.7929,8.6723-.3839,4.2075-.7661,8.415-.3936,4.3107-.7894,8.6213-.3864,4.2334-.77,8.4672-.3891,4.2588-.7814,8.5173-.3878,4.2591-.77,8.5186-.3925,4.311-.7906,8.6213-.3864,4.2336-.7689,8.4675-.3927,4.3107-.7881,8.6211-.3864,4.2331-.7712,8.4663-.3912,4.2851-.7839,8.57-.3855,4.2336-.7677,8.4675-.3929,4.3107-.7893,8.6212-.3338,3.6651-.6631,7.3308-.4448,4.8786-.8934,9.7569-.3862,4.2335-.7685,8.4674-.4429,4.8528-.8893,9.7053-.3855,4.2332-.7652,8.4668Q7.17,188.32,6.77,192.656q-.3841,4.2076-.7648,8.4158-.39,4.2591-.7848,8.5177c-.2584,2.8394-.507,5.68-.7666,8.5189q-.4344,4.7493-.8775,9.4976a1.5045,1.5045,0,0,0,.0519.3278A317.32,317.32,0,0,1,76.17,219.7169,317.4486,317.4486,0,0,1,148.7609,227.9466Z"/>
    <path d="M132.89,202.08a228.4966,228.4966,0,0,0-56.7451-6.9843,228.5174,228.5174,0,0,0-56.74,6.995c.0421-.5977.0675-1.09.1127-1.5805q.6006-6.53,1.206-13.0595c.363-3.9746.7121-7.9506,1.0746-11.9253s.7377-7.9491,1.1006-11.9242c.3284-3.5965.6442-7.1942.9718-10.7908.2932-3.2176.5982-6.4342.8918-9.6518s.5767-6.4368.87-9.6547q.4422-4.8528.8942-9.7046c.2578-2.8221.507-5.645.7645-8.4672.2605-2.8561.5289-5.7116.79-8.5677q.3864-4.2333.765-8.4672.39-4.2849.7845-8.5694.3863-4.2333.77-8.4668.3939-4.31.7913-8.62.386-4.2333.7665-8.4669.39-4.2849.7831-8.57.3882-4.2593.7741-8.5185.3914-4.2844.7865-8.5685c.121-1.3249.251-2.6493.3472-3.976a.5924.5924,0,0,1,.5595-.648c5.3926-1.0608,10.8106-1.9763,16.2762-2.5477,4.2776-.4471,8.5669-.824,12.8605-1.0641,4.1222-.23,8.258-.369,12.3852-.3228,5.1131.0572,10.2308.2326,15.3333.5609a191.3509,191.3509,0,0,1,25.0493,3.3711.6083.6083,0,0,1,.5768.641q.621,7.0741,1.2653,14.1465c.4329,4.7495.8823,9.4975,1.3154,14.2469.466,5.11.9172,10.2222,1.3828,15.3326.4312,4.7323.8764,9.4634,1.3089,14.1956.3287,3.5965.6431,7.1943.9712,10.7909s.67,7.191.9975,10.7871c.3294,3.6138.6451,7.2288.9742,10.8426.3276,3.5965.6681,7.1919.9961,10.7884.2949,3.2349.5762,6.471.8714,9.7059.3281,3.5963.669,7.1915.9974,10.7878s.6448,7.1942.9728,10.7909c.2933,3.2178.5987,6.4345.8923,9.6523s.5765,6.4364.8694,9.6541.5934,6.4353.8886,9.6531q.2676,2.9166.5278,5.834A2.7716,2.7716,0,0,1,132.89,202.08ZM26.2549,161.4793a354.5186,354.5186,0,0,1,49.93-3.3732,355.2783,355.2783,0,0,1,49.8877,3.3683c-.0156-.3483-.0161-.554-.0353-.7581-.1925-2.0471-.3914-4.0936-.5821-6.141q-.4376-4.6968-.8679-9.3943c-.2957-3.1655-.6006-6.33-.8963-9.4958q-.4388-4.6968-.8681-9.3946-.4492-4.8258-.9052-9.6509-.4316-4.6194-.8592-9.2392-.449-4.8-.9028-9.5993-.3867-4.129-.7691-8.2584-.4417-4.7223-.8863-9.4443-.3752-4.0259-.74-8.0528c-.0278-.309-.1488-.4565-.4736-.4833-.8952-.0739-1.7866-.197-2.6823-.2622-4.8084-.35-9.6139-.7631-14.4277-1.0109-5.6086-.2886-11.2233-.5066-16.838-.6108-5.0463-.0936-10.0967-.0263-15.1445.0361-3.49.043-6.98.1811-10.4684.3092-2.556.0939-5.1118.2125-7.6645.3709-3.2595.2023-6.5169.4435-9.7733.6919-1.74.1327-3.4756.3185-5.2137.4737-.2942.0262-.4663.1109-.4966.4553-.1923,2.186-.408,4.37-.61,6.5551-.3267,3.5272-.6448,7.0551-.9742,10.582-.3279,3.51-.67,7.0179-.9973,10.5275-.3631,3.8882-.7131,7.7776-1.0765,11.6658-.3971,4.2494-.8073,8.4976-1.2041,12.747-.3631,3.8882-.7112,7.7778-1.0746,11.666q-.596,6.374-1.2069,12.7467-.5176,5.4964-1.0254,10.9937C26.3522,160.1134,26.3128,160.729,26.2549,161.4793ZM22.8923,197.983a239.3,239.3,0,0,1,106.5066-.01c0-.1881.0116-.3408-.0017-.4913q-.3238-3.6664-.6542-7.3323-.5979-6.53-1.2041-13.0593-.5409-5.9367-1.06-11.8753c-.0341-.39-.1782-.5871-.5833-.6335-5.6814-.6505-11.3527-1.4066-17.0451-1.9386-5.1253-.4789-10.2709-.7594-15.4122-1.0416q-5.0977-.28-10.2085-.3086c-6.1717-.0257-12.3451-.0234-18.5153.0983-4.37.0861-8.7368.3575-13.1018.6044-2.76.1561-5.5168.3853-8.2694.643-3.1477.2947-6.2915.6366-9.4324.9971-2.5055.2876-5.0042.6346-7.506.9535-.3023.0386-.5083.1386-.5358.5009-.0918,1.206-.2075,2.41-.3165,3.6148q-.383,4.2336-.7685,8.4668-.3911,4.2844-.7861,8.5685-.395,4.31-.7882,8.6211C23.1026,195.5446,23.0021,196.7286,22.8923,197.983Zm94.72-129.5277c-.0247-.4283-.0352-.8025-.07-1.1745q-.6528-7.0978-1.3108-14.1951-.7345-8.0019-1.4507-16.0052a.5238.5238,0,0,0-.5114-.5611c-6.4394-1.2186-12.9265-2.0915-19.4525-2.6763-5.58-.5-11.1741-.7576-16.7747-.8036-3.0756-.0253-6.153.0625-9.2286.1415A155.105,155.105,0,0,0,52.791,34.35c-4.8971.6367-9.7722,1.4418-14.6589,2.1594a.5744.5744,0,0,0-.5823.6172c-.39,4.3718-.7993,8.7417-1.2,13.1125q-.7143,7.7953-1.4224,15.5913c-.0776.8531-.1476,1.7069-.2269,2.6268A440.5872,440.5872,0,0,1,117.6119,68.4553Z"/>
    <path d="M44.3793,27.5212a8.6413,8.6413,0,1,1,8.6466-8.5844A8.6706,8.6706,0,0,1,44.3793,27.5212Zm.0361-14.16a5.5325,5.5325,0,1,0,5.4967,5.5824A5.548,5.548,0,0,0,44.4154,13.3608Z"/>
    <path d="M67.5433,16.6781a8.6329,8.6329,0,1,1,8.5015,8.6448A8.605,8.605,0,0,1,67.5433,16.6781Zm14.142.0471a5.5317,5.5317,0,0,0-11.0633-.0543,5.5317,5.5317,0,1,0,11.0633.0543Z"/>
    <path d="M116.5856,18.92a8.64,8.64,0,1,1-8.5954-8.681A8.6149,8.6149,0,0,1,116.5856,18.92Zm-8.6425-5.56a5.5324,5.5324,0,0,0,.0178,11.0648,5.5324,5.5324,0,1,0-.0178-11.0648Z"/>
    <rect class="a" x="0.125" y="0.125" width="152.0912" height="231.7312"/>
  </g>
</svg>
