<svg xmlns="http://www.w3.org/2000/svg" viewBox="0 0 85.7247 248.4325">
  <defs>
    <style>
      .a {
        fill: #fff;
      }

      .b {
        fill: none;
        stroke: #000;
        stroke-miterlimit: 10;
        stroke-width: 0.25px;
      }
    </style>
  </defs>
  <title>neck front right color</title>
  <g>
    <path class="a" d="M3.2154,46.2933c.9805,0,1.9286.03,2.8742-.0046a80.7114,80.7114,0,0,0,33.9148-8.3681,57.7591,57.7591,0,0,0,15.6726-11.35A39.6048,39.6048,0,0,0,66.2732,7.8735c.3161-1.3579.4732-2.7527.7038-4.13a.4862.4862,0,0,1,.1292-.2947c.0794.9116.1609,1.8231.2377,2.735q.4026,4.7759.8018,9.5521c.224,2.702.4368,5.405.6624,8.1068.2241,2.685.4618,5.3688.6863,8.0537s.4369,5.3718.661,8.0572c.2256,2.7027.4625,5.4045.688,8.1072.2242,2.6858.437,5.3725.661,8.0583.2254,2.7028.4619,5.4046.6874,8.1074.2241,2.6856.4372,5.3721.6616,8.0577.2257,2.7022.4608,5.4036.689,8.1056q.266,3.1491.5248,6.2986c.2246,2.7368.4506,5.4735.6586,8.2115a1.4433,1.4433,0,0,1-.1493.7365,53.4251,53.4251,0,0,1-9.2071,12.6577,76.1473,76.1473,0,0,1-26.6318,17.3689,98.339,98.339,0,0,1-21.6291,5.8909A101.1339,101.1339,0,0,1,4.79,132.7471c-.5133.0172-1.0259.052-1.5746.0805Z"/>
    <path class="a" d="M76.0672,110.7536c.1817,2.1774.349,4.1911.518,6.2047q.3424,4.08.6865,8.16.281,3.3568.5573,6.7141.3431,4.1055.6891,8.2108.2782,3.33.5532,6.6606.3456,4.13.6947,8.2593c.2077,2.4783.4223,4.956.6074,7.436a2.2567,2.2567,0,0,1-.2071.846,50.2535,50.2535,0,0,1-10.363,17.1926,70.76,70.76,0,0,1-20.2606,15.3555,94.6143,94.6143,0,0,1-26.9856,9.062A102.7121,102.7121,0,0,1,9.034,206.4154c-1.9145.0893-3.83.1465-5.8065.2206-.0185-.2359-.0448-.4157-.0448-.5954q-.0029-29.13-.0113-58.2595c0-.4681.1541-.569.5951-.5827A103.0127,103.0127,0,0,0,45.5489,137.38a77.2436,77.2436,0,0,0,20.31-13.83,58.92,58.92,0,0,0,9.8091-12.1494C75.7726,111.2272,75.8807,111.0558,76.0672,110.7536ZM28.29,161.564a10.4474,10.4474,0,1,0-10.4822,10.4192A10.4543,10.4543,0,0,0,28.29,161.564ZM17.8455,199.0911A10.4478,10.4478,0,1,0,7.3966,188.5846,10.4328,10.4328,0,0,0,17.8455,199.0911Z"/>
    <path class="a" d="M80.9785,169.6871c.0878.9765.1713,1.9534.264,2.9294.3426,3.61.6706,7.2219,1.0367,10.83a42.4111,42.4111,0,0,1-1.721,17.2493,50.1863,50.1863,0,0,1-11.8777,19.5912,74.4531,74.4531,0,0,1-24.7436,16.8068A97.1868,97.1868,0,0,1,20.32,243.871a100.8489,100.8489,0,0,1-12.9349,1.2483c-1.3766.0388-2.7553.0061-4.1794.0061-.0071-.1529-.0234-.3389-.0234-.5249q-.0018-17.1461-.0111-34.2922c-.0005-.4886.1185-.6436.6275-.6439a106.0172,106.0172,0,0,0,33.5567-5.36,84.49,84.49,0,0,0,27.55-14.9,59.9245,59.9245,0,0,0,15.8417-19.4885c.0377-.0755.0823-.1475.1237-.2211ZM28.29,229.4808a10.4469,10.4469,0,1,0-11.0851,10.3657A10.479,10.479,0,0,0,28.29,229.4808Z"/>
    <path class="a" d="M75.2414,100.8327c.11,1.3649.2208,2.6173.3008,3.8716a1.3929,1.3929,0,0,1-.1733.6345A52.4818,52.4818,0,0,1,65.354,119.6175a76.03,76.03,0,0,1-26.639,17.3586,97.5423,97.5423,0,0,1-20.7106,5.7291,105.3323,105.3323,0,0,1-13.34,1.3523c-.4645.0165-.9284.0488-1.4466.0766-.0135-.1937-.0351-.3593-.0353-.5249-.0022-2.3692.0116-4.7385-.0127-7.1074-.0047-.4621.1542-.6.5844-.6082a99.5972,99.5972,0,0,0,11.9234-.9771,100.28,100.28,0,0,0,30.1853-8.997,78.1415,78.1415,0,0,0,19.4937-13.2084,60.1026,60.1026,0,0,0,9.5926-11.4646C75.02,101.1361,75.1,101.032,75.2414,100.8327Z"/>
    <path class="a" d="M17.84,168.8563a7.3144,7.3144,0,1,1,7.3495-7.3468A7.3238,7.3238,0,0,1,17.84,168.8563Z"/>
    <path class="a" d="M10.52,188.6455a7.3345,7.3345,0,1,1,7.3054,7.343A7.3427,7.3427,0,0,1,10.52,188.6455Z"/>
    <path class="a" d="M10.5193,229.4053a7.3351,7.3351,0,1,1,7.3512,7.3494A7.3431,7.3431,0,0,1,10.5193,229.4053Z"/>
    <rect class="b" x="0.125" y="0.125" width="85.4747" height="248.1825"/>
  </g>
</svg>
