<svg xmlns="http://www.w3.org/2000/svg" viewBox="0 0 128.7124 265.9416">
  <defs>
    <style>
      .a {
        fill: #fff;
      }

      .b {
        fill: none;
        stroke: #000;
        stroke-miterlimit: 10;
        stroke-width: 0.25px;
      }
    </style>
  </defs>
  <title>neck front color</title>
  <g>
    <path class="a" d="M12.9673,81.187a335.3952,335.3952,0,0,0,102.7469.0023c.06.972.1244,1.8975.1739,2.8238.187,3.5019.3655,7.0042.5541,10.5061q.4168,7.7364.8429,15.4724.3048,5.5884.61,11.1769.4218,7.7362.8432,15.4723.303,5.563.606,11.126.4454,8.0465.8966,16.0926c.1921,3.5017.3653,7.0045.5572,10.5063.258,4.709.53,9.4172.7881,14.1261.1589,2.898.3024,5.7967.455,8.695.0372.7054.0829,1.41.13,2.1978a457.1981,457.1981,0,0,1-115.6466.0011Zm74.2641,87.2564a22.8939,22.8939,0,1,0-22.9192,22.8912A22.8851,22.8851,0,0,0,87.2314,168.4434Zm-22.872-63.0957A15.18,15.18,0,1,0,79.528,120.5559,15.16,15.16,0,0,0,64.3594,105.3477Z"/>
    <path class="a" d="M3.3793,257.0854l2.9764-54.5889a456.3546,456.3546,0,0,0,57.9849,3.6693,456.452,456.452,0,0,0,57.9978-3.6693c.9926,18.2058,1.9816,36.3461,2.9761,54.5872A333.1381,333.1381,0,0,1,3.3793,257.0854Zm60.9549-45.3775A10.1949,10.1949,0,1,0,74.545,221.8711,10.23,10.23,0,0,0,64.3342,211.7079ZM54.1651,247.8134A10.19,10.19,0,1,0,64.34,237.6269,10.19,10.19,0,0,0,54.1651,247.8134Z"/>
    <path class="a" d="M14.4381,54.2379q1.3657-25.0494,2.7365-50.1911a211.85,211.85,0,0,0,94.3443,0q1.37,25.1188,2.7372,50.1907A388.84,388.84,0,0,1,14.4381,54.2379Z"/>
    <path class="a" d="M114.4259,57.4546c.0811,1.4163.16,2.7588.2346,4.1015q.3,5.4073.5947,10.8149c.0941,1.7426.173,3.486.2664,5.2286.0162.3012-.0386.4579-.3975.5061-4.02.5393-8.0323,1.1472-12.0584,1.6389-3.5821.4375-7.1763.7844-10.7706,1.11-2.6145.2373-5.2356.4263-7.8579.5472-4.7458.2187-9.4935.4176-14.2426.535-3.6974.0915-7.3988.0921-11.0974.0489-3.2818-.0383-6.5655-.1335-9.8426-.31-4.6568-.25-9.317-.5046-13.96-.9293-5.106-.467-10.1967-1.1085-15.289-1.716-2.1588-.2576-4.3037-.63-6.4579-.93-.3493-.0486-.4089-.1851-.39-.5072.169-2.8974.3192-5.7958.4787-8.6936q.3106-5.6406.6282-11.2807a.7769.7769,0,0,1,.065-.158,454.4661,454.4661,0,0,0,50.0014,3.1574A454.7262,454.7262,0,0,0,114.4259,57.4546Z"/>
    <path class="a" d="M64.3168,188.2076A19.7776,19.7776,0,1,1,84.14,168.4153,19.7586,19.7586,0,0,1,64.3168,188.2076Z"/>
    <path class="a" d="M76.401,120.5183A12.0694,12.0694,0,1,1,64.3481,108.426,12.0363,12.0363,0,0,1,76.401,120.5183Z"/>
    <path class="a" d="M71.42,221.9094a7.0843,7.0843,0,0,1-14.1686-.0028,7.0843,7.0843,0,1,1,14.1686.0028Z"/>
    <path class="a" d="M71.42,247.8207a7.0787,7.0787,0,1,1-7.0881-7.0934A7.0817,7.0817,0,0,1,71.42,247.8207Z"/>
    <rect class="b" x="0.125" y="0.125" width="128.4624" height="265.6916"/>
  </g>
</svg>
