<svg xmlns="http://www.w3.org/2000/svg" viewBox="0 0 152.3412 231.9812">
  <defs>
    <style>
      .a {
        fill: #fff;
      }

      .b {
        fill: none;
        stroke: #000;
        stroke-miterlimit: 10;
        stroke-width: 0.25px;
      }
    </style>
  </defs>
  <title>neck back color</title>
  <g>
    <path class="a" d="M148.7609,227.9466a317.4486,317.4486,0,0,0-72.5911-8.23,317.32,317.32,0,0,0-72.5416,8.2169,1.5045,1.5045,0,0,1-.0519-.3278q.4353-4.7491.8775-9.4976c.26-2.8392.5082-5.6795.7666-8.5189s.5249-5.6783.7848-8.5177q.3852-4.2077.7648-8.4158.3959-4.3365.7951-8.6727.3853-4.2331.7652-8.4668.4421-4.8528.8893-9.7053.3863-4.2335.7685-8.4674.4451-4.8786.8934-9.7569.334-3.6653.6631-7.3308.3927-4.3108.7893-8.6212.3856-4.2336.7677-8.4675.39-4.2852.7839-8.57.3865-4.233.7712-8.4663.3933-4.3106.7881-8.6211.3858-4.2336.7689-8.4675.3934-4.3107.7906-8.6213.3877-4.2591.77-8.5186.3877-4.2589.7814-8.5173.3867-4.2334.77-8.4672.3933-4.3107.7894-8.6213.3843-4.2074.7661-8.415.3957-4.3362.7929-8.6723.3852-4.2334.767-8.4675.39-4.285.7851-8.57c.1137-1.239.2437-2.4767.3351-3.7174.0246-.3346.1321-.4938.4633-.5491,3.5266-.5891,7.0443-1.2378,10.58-1.7661q5.1244-.7657,10.2789-1.3273c3.1937-.3539,6.3962-.6519,9.6021-.8654,4.3965-.2928,8.7975-.5633,13.201-.694,4.44-.1317,8.8855-.1225,13.3282-.0953,2.9542.0181,5.91.1231,8.8606.2847,3.8645.2116,7.7313.4387,11.5836.8027,4.712.4452,9.4214.9551,14.1106,1.5936,4.2429.5777,8.4569,1.3674,12.6845,2.0587.3625.0593.4979.2232.5318.612.3522,4.0282.7336,8.0539,1.1,12.0808.3276,3.5967.643,7.1944.9712,10.791.3628,3.9749.738,7.9486,1.1,11.9236.3295,3.6139.6451,7.2292.9744,10.8432q.5433,5.9631,1.0992,11.9249c.2928,3.2005.5752,6.4019.8674,9.6024.2953,3.2353.6,6.47.8952,9.705.2933,3.2181.5762,6.4373.87,9.6554s.5968,6.4349.891,9.6528q.3872,4.233.7646,8.4668.39,4.2852.7853,8.57.3864,4.2335.7692,8.4673.3941,4.3106.7924,8.6207.3855,4.2332.764,8.4668.4444,4.8789.8955,9.757.3843,4.2078.7635,8.416.448,4.9044.9006,9.8083.3818,4.1814.7579,8.3633.4493,4.93.902,9.86.4385,4.8274.8708,9.6553.44,4.8269.89,9.6528.3852,4.2072.7625,8.4151.2819,3.1238.56,6.2479C148.7447,227.5894,148.7484,227.7237,148.7609,227.9466ZM132.89,202.08a2.7716,2.7716,0,0,0,.03-.3393q-.2616-2.9172-.5278-5.834-.4428-4.8267-.8886-9.6531c-.2929-3.2177-.5757-6.4364-.8694-9.6541s-.599-6.4345-.8923-9.6523c-.328-3.5967-.6445-7.1943-.9728-10.7909s-.6693-7.1915-.9974-10.7878c-.2952-3.2349-.5765-6.471-.8714-9.7059-.328-3.5965-.6685-7.1919-.9961-10.7884-.3291-3.6138-.6448-7.2288-.9742-10.8426-.3278-3.5961-.6694-7.191-.9975-10.7871s-.6425-7.1944-.9712-10.7909c-.4325-4.7322-.8777-9.4633-1.3089-14.1956-.4656-5.11-.9168-10.2222-1.3828-15.3326-.4331-4.7494-.8825-9.4974-1.3154-14.2469q-.6447-7.0722-1.2653-14.1465a.6083.6083,0,0,0-.5768-.641A191.3509,191.3509,0,0,0,92.0633,30.52c-5.1025-.3283-10.22-.5037-15.3333-.5609-4.1272-.0462-8.263.0923-12.3852.3228-4.2936.24-8.5829.617-12.8605,1.0641-5.4656.5714-10.8836,1.4869-16.2762,2.5477a.5924.5924,0,0,0-.5595.648c-.0962,1.3267-.2262,2.6511-.3472,3.976q-.3915,4.2845-.7865,8.5685-.3891,4.2591-.7741,8.5185-.39,4.2849-.7831,8.57-.385,4.2333-.7665,8.4669-.393,4.31-.7913,8.62-.3868,4.2331-.77,8.4668-.391,4.2848-.7845,8.5694-.3849,4.2335-.765,8.4672c-.2606,2.8561-.529,5.7116-.79,8.5677-.2575,2.8222-.5067,5.6451-.7645,8.4672q-.4432,4.8526-.8942,9.7046c-.2931,3.2179-.5762,6.4368-.87,9.6547s-.5986,6.4342-.8918,9.6518c-.3276,3.5966-.6434,7.1943-.9718,10.7908-.3629,3.9751-.7381,7.9491-1.1006,11.9242s-.7116,7.9507-1.0746,11.9253q-.5966,6.53-1.206,13.0595c-.0452.49-.0706.9828-.1127,1.5805a228.5174,228.5174,0,0,1,56.74-6.995A228.4966,228.4966,0,0,1,132.89,202.08ZM44.3793,27.5212a8.6413,8.6413,0,1,0-8.6562-8.6421A8.6392,8.6392,0,0,0,44.3793,27.5212Zm23.164-10.8431a8.6329,8.6329,0,1,0,8.643-8.6211A8.5792,8.5792,0,0,0,67.5433,16.6781ZM116.5856,18.92a8.64,8.64,0,1,0-8.62,8.6A8.6281,8.6281,0,0,0,116.5856,18.92Z"/>
    <path class="a" d="M26.2549,161.4793c.0579-.75.0973-1.3659.1541-1.98q.509-5.4972,1.0254-10.9937.6-6.3736,1.2069-12.7467c.3634-3.8882.7115-7.7778,1.0746-11.666.3968-4.2494.807-8.4976,1.2041-12.747.3634-3.8882.7134-7.7776,1.0765-11.6658.3277-3.51.6694-7.0179.9973-10.5275.3294-3.5269.6475-7.0548.9742-10.582.2024-2.1851.4181-4.3691.61-6.5551.03-.3444.2024-.4291.4966-.4553,1.7381-.1552,3.4739-.341,5.2137-.4737,3.2564-.2484,6.5138-.49,9.7733-.6919,2.5527-.1584,5.1085-.277,7.6645-.3709,3.4886-.1281,6.9782-.2662,10.4684-.3092,5.0478-.0624,10.0982-.13,15.1445-.0361,5.6147.1042,11.2294.3222,16.838.6108,4.8138.2478,9.6193.661,14.4277,1.0109.8957.0652,1.7871.1883,2.6823.2622.3248.0268.4458.1743.4736.4833q.3624,4.0271.74,8.0528.44,4.7224.8863,9.4443.3863,4.1291.7691,8.2584.45,4.8.9028,9.5993.4321,4.6194.8592,9.2392.4507,4.8256.9052,9.6509.4372,4.6971.8681,9.3946c.2957,3.1656.6006,6.33.8963,9.4958q.4386,4.6968.8679,9.3943c.1907,2.0474.39,4.0939.5821,6.141.0192.2041.02.41.0353.7581a355.2783,355.2783,0,0,0-49.8877-3.3683A354.5186,354.5186,0,0,0,26.2549,161.4793Z"/>
    <path class="a" d="M22.8923,197.983c.11-1.2544.21-2.4384.3177-3.6217q.3915-4.3108.7882-8.6211.3925-4.2843.7861-8.5685.3864-4.2331.7685-8.4668c.109-1.2046.2247-2.4088.3165-3.6148.0275-.3623.2335-.4623.5358-.5009,2.5018-.3189,5-.6659,7.506-.9535,3.1409-.3605,6.2847-.7024,9.4324-.9971,2.7526-.2577,5.51-.4869,8.2694-.643,4.365-.2469,8.7322-.5183,13.1018-.6044,6.17-.1217,12.3436-.124,18.5153-.0983q5.1052.0213,10.2085.3086c5.1413.2822,10.2869.5627,15.4122,1.0416,5.6924.532,11.3637,1.2881,17.0451,1.9386.4051.0464.5492.2435.5833.6335q.5184,5.9386,1.06,11.8753.5949,6.53,1.2041,13.0593.3357,3.6654.6542,7.3323c.0133.15.0017.3032.0017.4913A239.3,239.3,0,0,0,22.8923,197.983Z"/>
    <path class="a" d="M117.6119,68.4553a440.5872,440.5872,0,0,0-82.9112.0016c.0793-.92.1493-1.7737.2269-2.6268q.7095-7.7958,1.4224-15.5913c.4005-4.3708.81-8.7407,1.2-13.1125a.5744.5744,0,0,1,.5823-.6172c4.8867-.7176,9.7618-1.5227,14.6589-2.1594A155.105,155.105,0,0,1,68.8137,33.181c3.0756-.079,6.153-.1668,9.2286-.1415,5.6006.046,11.1947.3036,16.7747.8036,6.526.5848,13.0131,1.4577,19.4525,2.6763a.5238.5238,0,0,1,.5114.5611q.7086,8.004,1.4507,16.0052.6516,7.0978,1.3108,14.1951C117.5767,67.6528,117.5872,68.027,117.6119,68.4553Z"/>
    <path class="a" d="M44.4154,13.3608a5.5325,5.5325,0,0,1-.0682,11.0648,5.5325,5.5325,0,1,1,.0682-11.0648Z"/>
    <path class="a" d="M81.6853,16.7252A5.5317,5.5317,0,1,1,76.22,11.1806,5.4884,5.4884,0,0,1,81.6853,16.7252Z"/>
    <path class="a" d="M107.9431,13.3607a5.5324,5.5324,0,1,1-5.5038,5.557A5.5313,5.5313,0,0,1,107.9431,13.3607Z"/>
    <rect class="b" x="0.125" y="0.125" width="152.0912" height="231.7312"/>
  </g>
</svg>
