<svg xmlns="http://www.w3.org/2000/svg" viewBox="0 0 94.079 133.3639">
  <defs>
    <style>
      .a {
        fill: #fff;
      }

      .b {
        fill: none;
        stroke: #000;
        stroke-miterlimit: 10;
        stroke-width: 0.25px;
      }
    </style>
  </defs>
  <title>neck inside1 color</title>
  <g>
    <path class="a" d="M3.1463,51.7629a15.05,15.05,0,0,0,2.3194,5.6134,24.1025,24.1025,0,0,0,7.2183,6.7583,50.3391,50.3391,0,0,0,15.0754,6.2277,77.1541,77.1541,0,0,0,16.6657,2.242,78.24,78.24,0,0,0,24.1507-2.8627,45.9676,45.9676,0,0,0,14.15-6.5289,21.43,21.43,0,0,0,6.3884-6.7075A15.4953,15.4953,0,0,0,90.22,54.1107c.298-.8175.47-1.6809.711-2.5726v.7072q0,15.3286.0041,30.6573a13.9085,13.9085,0,0,1-3.5889,9.1643,28.907,28.907,0,0,1-8.9135,6.8393,58.1372,58.1372,0,0,1-16.6212,5.5,79.4654,79.4654,0,0,1-14.1267,1.3091,74.0763,74.0763,0,0,1-26.7028-4.4068A38.0835,38.0835,0,0,1,9.2761,94.6552a17.5828,17.5828,0,0,1-5.5494-7.8041,12.32,12.32,0,0,1-.6047-3.8757q.0026-15.3546.0018-30.7092C3.1239,52.0984,3.1385,51.9307,3.1463,51.7629Z"/>
    <path class="a" d="M90.931,92.4756v.7789c0,4.4792-.0792,8.96.0227,13.437a14.6749,14.6749,0,0,1-4.4481,10.8152,34.2469,34.2469,0,0,1-12.0328,7.7511,65.4746,65.4746,0,0,1-16.6238,4.2731,80.5321,80.5321,0,0,1-11.8459.6955,72.7676,72.7676,0,0,1-25.9169-4.7619,37.44,37.44,0,0,1-10.7153-6.2237,18.1484,18.1484,0,0,1-5.4535-7.3282,12.3321,12.3321,0,0,1-.7958-4.4144q.0059-7.1856.0024-14.3714c0-.1635.0174-.3271.0267-.4907L3.3,92.5387a1.0447,1.0447,0,0,0,.0975.2439,30.02,30.02,0,0,0,9.872,8.3312A58.0467,58.0467,0,0,0,30,107.0938,84.12,84.12,0,0,0,49.5427,108.74,76.598,76.598,0,0,0,72.108,104.922,44.7757,44.7757,0,0,0,85.91,97.688,25.5274,25.5274,0,0,0,90.5669,92.91C90.646,92.8025,90.738,92.7048,90.931,92.4756Z"/>
    <path class="a" d="M46.5037,48.3839a75.0224,75.0224,0,0,1-23.8751-3.8272,41.4554,41.4554,0,0,1-12.567-6.5943,19.2643,19.2643,0,0,1-5.6234-6.6965C2.2713,26.7294,2.82,22.4,5.5958,18.3025a24.2285,24.2285,0,0,1,7.4853-6.8493A51.4209,51.4209,0,0,1,28.4173,5.3088,77.7487,77.7487,0,0,1,45.0525,3.21,76.229,76.229,0,0,1,71.1063,6.885a41.9856,41.9856,0,0,1,12.54,6.4311A19.8747,19.8747,0,0,1,89.441,19.939c2.4358,4.7808,1.8381,9.3344-1.2078,13.6291a25.4438,25.4438,0,0,1-8.2157,7.1081A54.2588,54.2588,0,0,1,64.0434,46.61,82.3731,82.3731,0,0,1,46.5037,48.3839ZM47.0209,9.34c-2.0331.145-4.0726.2294-6.0977.4477a39.6821,39.6821,0,0,0-12.2307,3.2236,20.7531,20.7531,0,0,0-8.0059,5.8493A10.43,10.43,0,0,0,18.7527,29.28a13.58,13.58,0,0,0,4.9022,6.2933,30.0093,30.0093,0,0,0,10.9025,5.0164,50.4008,50.4008,0,0,0,17.7491,1.27,41.4726,41.4726,0,0,0,12.8659-3.2352A21.6073,21.6073,0,0,0,72.9717,33.17a10.9345,10.9345,0,0,0,2.9291-7.9124,11.4025,11.4025,0,0,0-3.4888-7.4884,23.0734,23.0734,0,0,0-8.0984-5.2078A47.6107,47.6107,0,0,0,47.0209,9.34Z"/>
    <path class="a" d="M3.2964,35.2393a1.8257,1.8257,0,0,0,.1228.2265,29.6938,29.6938,0,0,0,9.3859,8.0361A57.1483,57.1483,0,0,0,29.374,49.6133a83.9744,83.9744,0,0,0,21.08,1.7418,73.108,73.108,0,0,0,24.7875-4.9468,38.51,38.51,0,0,0,12.0891-7.315c1.1711-1.089,2.17-2.3631,3.2472-3.553.0882-.0974.1729-.1981.3229-.37.0131.2564.0287.42.0288.5841.0014,3.5274-.0057,7.0548.01,10.5821.0019.4429-.0591.6542-.5787.73a2.8348,2.8348,0,0,0-2.4256,2.6643,11.7863,11.7863,0,0,1-3.6947,8.15,29.5511,29.5511,0,0,1-9.3155,6.2829,59.2165,59.2165,0,0,1-15.8435,4.547,77.91,77.91,0,0,1-12.97.8866A69.4844,69.4844,0,0,1,21.548,65.1916a33.7332,33.7332,0,0,1-10.8247-6.41A13.5032,13.5032,0,0,1,6.44,52.1762a10.1723,10.1723,0,0,1-.2793-2.099A3.0325,3.0325,0,0,0,3.5251,47.03c-.2653-.0413-.4039-.112-.4034-.4064q.01-5.5764.0091-11.1526a.5624.5624,0,0,1,.04-.1451Z"/>
    <path class="a" d="M47.6368,12.4653a41.9228,41.9228,0,0,1,15.7588,3.0231,19.2175,19.2175,0,0,1,7.1785,4.805,8.1383,8.1383,0,0,1,2.2962,5.363,8.2587,8.2587,0,0,1-2.6265,5.9585,20.9958,20.9958,0,0,1-8.071,4.934,42.1427,42.1427,0,0,1-13.4989,2.4976A45.1373,45.1373,0,0,1,33.379,37.068,23.3888,23.3888,0,0,1,24.74,32.4862a13.5752,13.5752,0,0,1-2.1643-2.4277,7.3026,7.3026,0,0,1,.1119-8.7652,15.5034,15.5034,0,0,1,5.3305-4.5253,34.2717,34.2717,0,0,1,11.1723-3.6713A50.6739,50.6739,0,0,1,47.6368,12.4653Z"/>
    <rect class="b" x="0.125" y="0.125" width="93.829" height="133.1139"/>
  </g>
</svg>
