<svg xmlns="http://www.w3.org/2000/svg" viewBox="0 0 84.4822 146.4562">
  <defs>
    <style>
      .a {
        fill: none;
        stroke: #000;
        stroke-miterlimit: 10;
        stroke-width: 0.25px;
      }
    </style>
  </defs>
  <title>neck back left lineart</title>
  <g>
    <path d="M.125,142.7756c.2829-1.3673.577-2.7323.8467-4.1022Q3.036,128.186,5.0893,117.6963,7.2969,106.419,9.497,95.14q1.99-10.159,3.9931-20.3157,2.0557-10.489,4.1008-20.98,1.8748-9.5749,3.7581-19.1482c1.2327-6.2812,2.5487-12.5477,3.6618-18.85A11.9467,11.9467,0,0,1,29.72,8.5418,35.802,35.802,0,0,1,42.4984,2.1024,44.1711,44.1711,0,0,1,53.5186.3656c.1887-.0064.3765-.04.5647-.0608h1.4528c.1536.02.3067.0475.461.06,1.5146.1221,3.0349.1935,4.5429.371a42.9621,42.9621,0,0,1,13.4352,3.836,26.8246,26.8246,0,0,1,7.63,5.1128A8.4268,8.4268,0,0,1,84.35,16.2527c-.1341,3.4881-.0679,6.9842-.0718,10.4769q-.0159,14.2929-.02,28.5859-.009,8.0149-.0412,16.03c-.0141,5.0664-.037,10.1328-.043,15.1992q-.0165,14.215-.0194,28.43-.0115,10.3757-.0473,20.7511a4.5733,4.5733,0,0,1-.1347,1.1779,3.6458,3.6458,0,0,1-4.937,2.1314,48.8548,48.8548,0,0,0-5.17-1.66,87.92,87.92,0,0,0-17.9436-2.3724,112.6726,112.6726,0,0,0-15.1255.4088A104.15,104.15,0,0,0,28.9136,137.15c-8.3419,1.7736-16.499,4.05-23.7952,8.7042a3.2959,3.2959,0,0,1-4.6962-1.4724c-.1219-.2834-.1993-.5858-.2972-.88Zm9.8569-34.3208c.2986-.115.487-.1894.6767-.26,2.0878-.7813,4.1505-1.64,6.2681-2.33A111.419,111.419,0,0,1,50.2993,100.61,105.0108,105.0108,0,0,1,69.1,102.0005a58.01,58.01,0,0,1,9.7592,2.3878c.4722.1672.9287.3792,1.4018.5434.5334.185.8.0008.82-.5461.021-.57.0408-1.14.0415-1.71q.0182-13.98.0308-27.961c0-.1384.0029-.2767.003-.415.0041-3.6659.0024-7.3319.02-10.9977.002-.4172-.1513-.4994-.5393-.5322a8.0987,8.0987,0,0,1-1.7124-.33c-.9724-.3026-1.91-.72-2.8867-1.0058a78.5406,78.5406,0,0,0-15.82-2.6917,112.2273,112.2273,0,0,0-18.3389.0649,108.6514,108.6514,0,0,0-21.2921,3.8594,3.6664,3.6664,0,0,1-1.1685.1859c-.44-.0217-.556.1571-.6281.538-.3987,2.1057-.8186,4.2074-1.231,6.3106q-3.567,18.1906-7.1331,36.3817C10.2785,106.8381,10.1425,107.5963,9.9819,108.4548Zm71.1426,13.68h.0284c0-4.4962-.005-8.9923.0076-13.4884.0013-.4573-.1191-.621-.6079-.64a6.1965,6.1965,0,0,1-1.61-.3155c-1.1029-.3493-2.1721-.8125-3.2848-1.1228a87.9308,87.9308,0,0,0-21.3253-2.89,112.7435,112.7435,0,0,0-19.1357,1.118,94.2454,94.2454,0,0,0-23.9173,6.44,3.14,3.14,0,0,1-1.298.2893c-.5355-.0195-.6627.204-.7516.6605q-2.5182,12.9286-5.0606,25.8525c-.2959,1.51-.5989,3.018-.88,4.53a2.6911,2.6911,0,0,0,.0444.6725,3.9531,3.9531,0,0,0,.6443-.2447c.5811-.3413,1.1361-.7275,1.721-1.0616a53.3361,53.3361,0,0,1,8.26-3.7356,110.4444,110.4444,0,0,1,36.6767-6.29,104.6045,104.6045,0,0,1,14.4882.82,69.9015,69.9015,0,0,1,12.8268,2.6649c.7718.25,1.52.5729,2.285.8445.5659.2009.826.0208.8458-.565.02-.6046.04-1.21.0409-1.8144Q81.1281,127.9974,81.1245,122.1349ZM23.2382,40.7866c.3282-.0708.53-.109.7284-.1579a119.661,119.661,0,0,1,27.7848-3.3746,109.4784,109.4784,0,0,1,16.85,1.1559,64.8779,64.8779,0,0,1,12.1565,2.8081,3.5137,3.5137,0,0,0,.4335.0889c.0144-.2564.0352-.4592.0358-.6621q.0173-5.9389.0293-11.8781c.0049-4.4784-.0084-8.9568.0107-13.4352a3.38,3.38,0,0,0-.5657-1.956,10.1563,10.1563,0,0,0-.9431-1.2335,20.4339,20.4339,0,0,0-5.9468-4.2793A41.5528,41.5528,0,0,0,53.4672,3.3972a39.1174,39.1174,0,0,0-17.0344,4.36,23.12,23.12,0,0,0-6.5845,4.8083,6.2572,6.2572,0,0,0-1.6938,3.037q-2.1507,11.07-4.3308,22.1343C23.6322,38.7144,23.4478,39.6938,23.2382,40.7866Zm-3.723,18.9943c.3184-.0817.5173-.128.7136-.1836a114.6533,114.6533,0,0,1,30.4623-4.2335,107.5927,107.5927,0,0,1,15.7691.9869A66.2747,66.2747,0,0,1,78.2435,58.932c.6718.2229,1.3227.5078,1.9893.7473.5465.1963.8437.0215.8458-.5069q.0284-7.0272.0486-14.0543a.5937.5937,0,0,0-.4526-.6526c-1.197-.3957-2.3736-.8638-3.5877-1.1954a90.6612,90.6612,0,0,0-23.65-2.9446c-3.7971-.015-7.6026.18-11.3916.4541a105.1406,105.1406,0,0,0-18.7883,3.1681.96.96,0,0,0-.8312.8685c-.7988,4.1929-1.6311,8.3794-2.4516,12.5681C19.8253,58.1424,19.6832,58.9018,19.5152,59.7809Z"/>
    <path d="M70.8627,91.2528a7.5677,7.5677,0,1,1,7.616-7.4821A7.5586,7.5586,0,0,1,70.8627,91.2528ZM70.86,88.2151a4.5335,4.5335,0,1,0-4.5148-4.533A4.5416,4.5416,0,0,0,70.86,88.2151Z"/>
    <path d="M78.4787,123.04a7.5782,7.5782,0,1,1-7.53-7.5671A7.57,7.57,0,0,1,78.4787,123.04Zm-3.02.0073a4.5562,4.5562,0,1,0-4.5791,4.5328A4.5762,4.5762,0,0,0,75.4583,123.0468Z"/>
    <rect class="a" x="0.125" y="0.125" width="84.2322" height="146.2062"/>
  </g>
</svg>
