<svg xmlns="http://www.w3.org/2000/svg" viewBox="0 0 169.4321 143.3839">
  <defs>
    <style>
      .a {
        fill: none;
        stroke: #000;
        stroke-miterlimit: 10;
        stroke-width: 0.25px;
      }
    </style>
  </defs>
  <title>neck inside2 lineart</title>
  <g>
    <path d="M169.3071,89.4676c-.1548.8273-.2764,1.6625-.47,2.4807a21.6766,21.6766,0,0,1-4.9893,9.2589,42.9924,42.9924,0,0,1-11.26,8.8914,83.6927,83.6927,0,0,1-14.8459,6.5711c-.8088.2757-.807.2714-.811,1.1252a19.5793,19.5793,0,0,1-.371,5.1008,16.1509,16.1509,0,0,1-5.304,7.9393,37.8731,37.8731,0,0,1-11.0986,6.4585,79.3449,79.3449,0,0,1-16.619,4.4736,115.643,115.643,0,0,1-22.8335,1.4223,98.999,98.999,0,0,1-27.0291-4.3274A47.2207,47.2207,0,0,1,40.22,132.4412a20.0458,20.0458,0,0,1-6.21-6.7185,12.0319,12.0319,0,0,1-1.4855-5.8636c.0063-.7781-.0222-1.5573.01-2.3341a.6507.6507,0,0,0-.5343-.7684,86.7187,86.7187,0,0,1-11.86-4.8912A51.7008,51.7008,0,0,1,8.055,103.7323,25.2919,25.2919,0,0,1,1.2585,94.071,17.4281,17.4281,0,0,1,.1476,87.9373C.1538,71.1635.1915,54.3894.1252,37.6159A20.2074,20.2074,0,0,1,4.3573,25.05a37.0466,37.0466,0,0,1,9.5786-8.638A79.8377,79.8377,0,0,1,32.6734,7.713,138.6524,138.6524,0,0,1,53.7956,2.6c4.9627-.8251,9.9506-1.4558,14.9661-1.8156,3.79-.2718,7.591-.3871,11.3869-.576A3.1187,3.1187,0,0,0,80.5871.125h8.3013a2.1444,2.1444,0,0,0,.3863.083C90.76.2558,92.2457.2745,93.73.3429a188.3859,188.3859,0,0,1,19.8984,1.9347,145.8762,145.8762,0,0,1,19.5052,4.2871,90.1969,90.1969,0,0,1,19.566,8.11,42.105,42.105,0,0,1,11.4975,9.2382,21.0914,21.0914,0,0,1,4.853,9.8247c.0889.4862.1718.9735.2575,1.46ZM3.2676,47.1674v.6213q0,20.2077.0082,40.4153a12.7668,12.7668,0,0,0,.192,2.1621,17.4781,17.4781,0,0,0,3.7571,7.9173,36.2088,36.2088,0,0,0,9.5906,8.1568A83.4276,83.4276,0,0,0,36.93,115.0718a156.6356,156.6356,0,0,0,32.3772,5.7873c3.1661.2571,6.3431.4518,9.5181.51,4.1291.076,8.2629.0517,12.3916-.051,3.192-.0795,6.383-.2976,9.5676-.5436,2.8028-.2165,5.6084-.4695,8.39-.8642q5.5778-.7915,11.1186-1.8372a116.8608,116.8608,0,0,0,18.5318-5.0847,70.6961,70.6961,0,0,0,15.8256-7.8576,32.5285,32.5285,0,0,0,8.1831-7.6461,15.99,15.99,0,0,0,3.37-9.5018q.0122-20.1558.0019-40.3115c0-.1369-.0266-.2738-.0456-.4572a1.0492,1.0492,0,0,0-.1413.1192,34.1259,34.1259,0,0,1-8.7776,8.7265,71.224,71.224,0,0,1-16.6409,8.5254,136.153,136.153,0,0,1-29.4455,7.1334c-3.7069.5055-7.4371.8757-11.1678,1.1614-3.8038.2913-7.62.4624-11.4334.5735-2.814.082-5.6352.04-8.45-.0495-3.5551-.113-7.1114-.2672-10.6588-.5217-3.2167-.2307-6.4348-.5266-9.629-.9634-3.7386-.5111-7.4654-1.1353-11.1735-1.8362a120.07,120.07,0,0,1-19.2263-5.29A73.29,73.29,0,0,1,12.79,56.4658a34.7443,34.7443,0,0,1-9.2774-9.0239C3.4692,47.3777,3.4091,47.3248,3.2676,47.1674ZM84.7263,3.2045l-.0019.1214c-1.6244,0-3.2517-.0615-4.8728.0122-3.9673.1805-7.9371.3553-11.8958.6626-3.2317.2509-6.4659.5788-9.6681,1.0733-4.1712.6441-8.3335,1.3846-12.4606,2.2664a106.2179,106.2179,0,0,0-20.2914,6.4137,56.4306,56.4306,0,0,0-14.1935,8.4625,25.0338,25.0338,0,0,0-6.5376,8.021A14.6522,14.6522,0,0,0,3.332,38.383a16.1274,16.1274,0,0,0,2.8819,7.4043,30.96,30.96,0,0,0,7.8831,7.73,71.1311,71.1311,0,0,0,17.867,8.8291,130.5508,130.5508,0,0,0,19.8051,5.1255q7.8961,1.4439,15.89,2.1259c3.3366.2849,6.6827.51,10.0292.6156q5.3868.17,10.7817.0508c3.8317-.0884,7.6631-.29,11.4877-.5462,2.9078-.1951,5.8163-.4687,8.7035-.8614q5.4033-.7348,10.77-1.732a117.5768,117.5768,0,0,0,20.9459-5.8367A64.2536,64.2536,0,0,0,156.6233,52.58a27.2318,27.2318,0,0,0,7.65-8.49,14.6317,14.6317,0,0,0,1.6821-9.953,17.1612,17.1612,0,0,0-3.2514-7.0938,34.482,34.482,0,0,0-9.4052-8.36,79.7122,79.7122,0,0,0-19.2373-8.5746A142.3151,142.3151,0,0,0,106.6436,4.51q-5.97-.6434-11.9686-1.0062C91.365,3.302,88.043,3.2968,84.7263,3.2045ZM35.7391,118.0468a.6022.6022,0,0,0-.0754.164,10.691,10.691,0,0,0,1.2254,6.304,17.3979,17.3979,0,0,0,4.73,5.0963,40.61,40.61,0,0,0,10.9367,5.5872,82.9485,82.9485,0,0,0,20.5923,4.351c3.575.3141,7.166.4878,10.7537.6012,2.1888.0691,4.3858-.0808,6.578-.1612a100.0779,100.0779,0,0,0,12.2485-1.25,78.3992,78.3992,0,0,0,14.8584-3.789,38.9325,38.9325,0,0,0,10.7067-5.6908,15.6489,15.6489,0,0,0,4.7208-5.6264,11.1081,11.1081,0,0,0,.748-5.5983c-.1772.0427-.3089.0681-.4367.1063a148.574,148.574,0,0,1-24.7988,5.0446q-5.6.6756-11.2373,1.0316c-3.912.2409-7.8355.334-11.7555.3952-2.6071.0407-5.22-.0281-7.8246-.1551-3.8274-.1866-7.6589-.3757-11.4724-.7364-3.8608-.3651-7.71-.8832-11.5492-1.4376A129.0875,129.0875,0,0,1,39.4669,119.08C38.223,118.7436,36.9833,118.392,35.7391,118.0468Z"/>
    <path d="M10.6143,64.9637c.6878.5068,1.2594.9155,1.8178,1.3415a68.9835,68.9835,0,0,0,9.695,6.4566A90.64,90.64,0,0,0,39.2533,79.47a120.7057,120.7057,0,0,0,14.771,3.3284c3.9335.6151,7.876,1.2067,11.8341,1.6223,3.7576.3945,7.5373.63,11.3135.7824,3.9009.1572,7.81.1991,11.7141.161,3.1415-.0307,6.2865-.1835,9.42-.4149,3.4058-.2515,6.8052-.613,10.1984-1.0039A142.1455,142.1455,0,0,0,126.65,80.6289a101.76,101.76,0,0,0,18.8319-6.5443,62.4271,62.4271,0,0,0,11.8754-7.4431c.7014-.5492,1.43-1.0638,2.2367-1.6618.0219.3188.0476.5184.0477.7179q.0029,13.4619.0081,26.9237a1.036,1.036,0,0,1-.4427.9147,66.0766,66.0766,0,0,1-16.1907,9.0279A117.9517,117.9517,0,0,1,121.3,108.8884c-3.8564.7489-7.7394,1.3761-11.6274,1.9406-2.7291.3962-5.4819.6634-8.2332.8631-3.788.2749-7.5824.4949-11.3779.62q-4.9724.1641-9.9527.0534c-3.4174-.0755-6.84-.2073-10.2445-.5005-4.3462-.3743-8.6937-.8146-13.01-1.4389a128.2323,128.2323,0,0,1-32.1363-8.5746A65.6353,65.6353,0,0,1,11.11,94.2006a1.0757,1.0757,0,0,1-.508-.9742q.0238-13.773.0119-27.5461Zm145.895,6.2983c-.1577.0943-.2337.1324-.3017.1815a66.8141,66.8141,0,0,1-15.4731,8.0835,137.19,137.19,0,0,1-32.54,7.6608c-3.0642.3757-6.145.6481-9.2259.8477-3.6869.2388-7.3806.4187-11.0741.4981a164.7723,164.7723,0,0,1-16.7287-.4883c-2.7862-.2236-5.5782-.4192-8.35-.7663q-5.13-.6424-10.229-1.5241a124.1428,124.1428,0,0,1-21.0442-5.47,70.2073,70.2073,0,0,1-17.3864-8.7481c-.0931-.0668-.2-.1147-.3663-.2089-.017.2248-.04.3885-.04.5521q-.0027,9.9084-.0084,19.8166a.8206.8206,0,0,0,.4252.8051c2.4029,1.4291,4.7335,2.996,7.2109,4.28a96.4,96.4,0,0,0,21.0209,7.6021,135.7489,135.7489,0,0,0,15.628,3.0149c3.54.46,7.0868.88,10.6406,1.2118,2.818.2628,5.6491.4482,8.478.5155,4.0763.0969,8.1581.1479,12.2334.0474,4.0371-.1,8.0727-.3607,12.102-.6476,2.7171-.1934,5.4353-.4657,8.13-.862,3.8517-.5666,7.6983-1.1956,11.5178-1.9469a113.113,113.113,0,0,0,20.8064-6.1158,64.3857,64.3857,0,0,0,14.13-7.655.9772.9772,0,0,0,.4552-.8909q-.02-9.597-.01-19.1941Z"/>
    <path d="M84.6983,10.1821c3.6591.1715,7.289.2519,10.9037.5292a107.8558,107.8558,0,0,1,25.2051,4.74,55.9884,55.9884,0,0,1,14.1319,6.5746,24.5239,24.5239,0,0,1,7.6176,7.5865,13.5155,13.5155,0,0,1,2.0492,8.1028A14.8125,14.8125,0,0,1,141.1537,46a30.824,30.824,0,0,1-9.6054,7.615,70.6328,70.6328,0,0,1-16.5791,6.201,103.84,103.84,0,0,1-12.5458,2.3566c-2.5838.3256-5.18.6023-7.7791.7458-3.69.2038-7.3878.3686-11.0816.3559-3.3639-.0115-6.7312-.22-10.0894-.451a107.3987,107.3987,0,0,1-20.632-3.4376,64.429,64.429,0,0,1-16.6407-6.7485,27.5111,27.5111,0,0,1-8.58-7.5519,14.07,14.07,0,0,1-2.7872-8.46,14.2213,14.2213,0,0,1,2.8638-8.2279,27.3636,27.3636,0,0,1,8.2177-7.27,63.526,63.526,0,0,1,16.1033-6.6987A96.6876,96.6876,0,0,1,65.3728,11.652q4.5615-.6183,9.1592-.9594C77.9239,10.4417,81.3272,10.3447,84.6983,10.1821Zm.2965,3.1757c-3.1024.1307-5.9554.1728-8.7949.3908q-5.1312.3938-10.2423,1.037A89.1668,89.1668,0,0,0,52.0594,17.71a58.3975,58.3975,0,0,0-14.8119,6.3112,23.9712,23.9712,0,0,0-6.9376,6.156,11.326,11.326,0,0,0-2.3024,6.0079,10.8269,10.8269,0,0,0,2.0759,6.91,22.8375,22.8375,0,0,0,6.6594,6.1532,55.46,55.46,0,0,0,14.05,6.2534,110.6693,110.6693,0,0,0,26.5651,4.4451c2.8774.1584,5.7664.1824,8.6489.1515,2.8482-.0305,5.7025-.114,8.54-.3455,3.4013-.2773,6.7971-.6677,10.1784-1.1321a87.3169,87.3169,0,0,0,14.6025-3.3283,53.51,53.51,0,0,0,13.9686-6.4334,21.3051,21.3051,0,0,0,6.3445-6.1784,10.2589,10.2589,0,0,0,.2546-11.3517,19.7936,19.7936,0,0,0-5.7322-5.9867,49.848,49.848,0,0,0-13.5331-6.6164,103.9008,103.9008,0,0,0-25.07-4.8479C91.965,13.59,88.3521,13.5167,84.9948,13.3578Z"/>
    <rect class="a" x="0.125" y="0.125" width="169.1821" height="143.1339"/>
  </g>
</svg>
