<svg xmlns="http://www.w3.org/2000/svg" viewBox="0 0 85.7247 248.4325">
  <defs>
    <style>
      .a {
        fill: none;
        stroke: #000;
        stroke-miterlimit: 10;
        stroke-width: 0.25px;
      }
    </style>
  </defs>
  <title>neck front right lineart</title>
  <g>
    <path d="M.125,245.9467V45.6783C.71,43.8316,2.0212,43.2055,3.8884,43.22a76.6974,76.6974,0,0,0,12.79-1.0507A75.4577,75.4577,0,0,0,35.2621,36.75,55.7684,55.7684,0,0,0,54.5626,23.2526c5.2257-5.7946,8.6474-12.4415,9.4-20.3172a3.01,3.01,0,0,1,2.35-2.7079A1.4192,1.4192,0,0,0,66.5353.125h1.0376c.1253.045.2485.0971.3762.1337a3.0307,3.0307,0,0,1,2.2032,2.556c.1277,1.2895.2186,2.5826.3261,3.874q.4368,5.2437.8742,10.4872.4442,5.3216.8894,10.6431.4375,5.2436.8739,10.4872.4457,5.346.8917,10.6921.4422,5.2927.8856,10.5852.44,5.2684.8782,10.537.4351,5.2176.8706,10.4352.4464,5.3475.8929,10.6948.4379,5.2437.8764,10.4873.4429,5.2947.8866,10.59.444,5.3184.8854,10.6371.439,5.268.8793,10.536.4369,5.2432.8725,10.4868.4441,5.3217.8912,10.6429.4383,5.2439.875,10.4877.4441,5.321.89,10.6416c.1482,1.7555.2189,3.5232.4771,5.2627a45.999,45.999,0,0,1-.1053,14.6051,48.4744,48.4744,0,0,1-7.6691,18.8591A64.037,64.037,0,0,1,61.0073,231.018C50.0352,238.8715,37.7726,243.66,24.5989,246.26a94.8647,94.8647,0,0,1-12.4725,1.6735c-2.9475.1836-5.901.2828-8.8533.3724a2.9957,2.9957,0,0,1-3.03-2.1464A1.46,1.46,0,0,0,.125,245.9467Zm3.09-199.6534v86.5343c.5487-.0285,1.0613-.0633,1.5746-.0805a101.1339,101.1339,0,0,0,12.3185-1.1937,98.339,98.339,0,0,0,21.6291-5.8909,76.1473,76.1473,0,0,0,26.6318-17.3689,53.4251,53.4251,0,0,0,9.2071-12.6577,1.4433,1.4433,0,0,0,.1493-.7365c-.208-2.738-.434-5.4747-.6586-8.2115q-.2584-3.15-.5248-6.2986c-.2282-2.702-.4633-5.4034-.689-8.1056-.2244-2.6856-.4375-5.3721-.6616-8.0577-.2255-2.7028-.462-5.4046-.6874-8.1074-.224-2.6858-.4368-5.3725-.661-8.0583-.2255-2.7027-.4624-5.4045-.688-8.1072-.2241-2.6854-.4363-5.3719-.661-8.0572s-.4622-5.3687-.6863-8.0537c-.2256-2.7018-.4384-5.4048-.6624-8.1068q-.396-4.7765-.8018-9.5521c-.0768-.9119-.1583-1.8234-.2377-2.735a.4862.4862,0,0,0-.1292.2947c-.2306,1.3778-.3877,2.7726-.7038,4.1305A39.6048,39.6048,0,0,1,55.677,26.5705a57.7591,57.7591,0,0,1-15.6726,11.35A80.7114,80.7114,0,0,1,6.09,46.2887C5.144,46.3236,4.1959,46.2933,3.2154,46.2933Zm72.8518,64.46c-.1865.3022-.2946.4736-.3991.6471A58.92,58.92,0,0,1,65.859,123.55a77.2436,77.2436,0,0,1-20.31,13.83,103.0127,103.0127,0,0,1-41.7824,9.8184c-.441.0137-.5953.1146-.5951.5827q.0166,29.13.0113,58.26c0,.18.0263.3595.0448.5954,1.9761-.0741,3.892-.1313,5.8065-.2206a102.7121,102.7121,0,0,0,13.5231-1.5607,94.6143,94.6143,0,0,0,26.9856-9.062,70.76,70.76,0,0,0,20.2606-15.3555,50.2535,50.2535,0,0,0,10.363-17.1926,2.2567,2.2567,0,0,0,.2071-.846c-.1851-2.48-.4-4.9577-.6074-7.436q-.3461-4.13-.6947-8.2593-.2787-3.33-.5532-6.6606-.3432-4.1055-.6891-8.2108-.28-3.3568-.5573-6.7141-.3412-4.08-.6865-8.16C76.4162,114.9447,76.2489,112.931,76.0672,110.7536Zm4.9113,58.9335-.1076.0077c-.0414.0736-.086.1456-.1237.2211a59.9245,59.9245,0,0,1-15.8417,19.4885,84.49,84.49,0,0,1-27.55,14.9,106.0172,106.0172,0,0,1-33.5567,5.36c-.509,0-.628.1553-.6275.6439q.0194,17.1461.0111,34.2922c0,.186.0163.372.0234.5249,1.4241,0,2.8028.0327,4.1794-.0061A100.8489,100.8489,0,0,0,20.32,243.871a97.1868,97.1868,0,0,0,23.6172-6.7775,74.4531,74.4531,0,0,0,24.7436-16.8068,50.1863,50.1863,0,0,0,11.8777-19.5912,42.4111,42.4111,0,0,0,1.721-17.2493c-.3661-3.6078-.6941-7.22-1.0367-10.83C81.15,171.6405,81.0663,170.6636,80.9785,169.6871Zm-5.7371-68.8544c-.1412.1993-.2217.3034-.2923.4138a60.1026,60.1026,0,0,1-9.5926,11.4646A78.1415,78.1415,0,0,1,45.8628,125.92a100.28,100.28,0,0,1-30.1853,8.997,99.5972,99.5972,0,0,1-11.9234.9771c-.43.0082-.5891.1461-.5844.6082.0243,2.3689.01,4.7382.0127,7.1074,0,.1656.0218.3312.0353.5249.5182-.0278.9821-.06,1.4466-.0766a105.3323,105.3323,0,0,0,13.34-1.3523,97.5423,97.5423,0,0,0,20.7106-5.7291,76.03,76.03,0,0,0,26.639-17.3586,52.4818,52.4818,0,0,0,10.0149-14.2787,1.3929,1.3929,0,0,0,.1733-.6345C75.4622,103.45,75.3511,102.1976,75.2414,100.8327Z"/>
    <path d="M28.29,161.564a10.4474,10.4474,0,1,1-10.2223-10.4713A10.4461,10.4461,0,0,1,28.29,161.564ZM17.84,168.8563a7.3143,7.3143,0,1,0-7.3217-7.3136A7.3377,7.3377,0,0,0,17.84,168.8563Z"/>
    <path d="M17.8455,199.0911a10.4478,10.4478,0,1,1,10.4453-10.4478A10.4483,10.4483,0,0,1,17.8455,199.0911ZM10.52,188.6455a7.3345,7.3345,0,1,0,7.3757-7.323A7.3515,7.3515,0,0,0,10.52,188.6455Z"/>
    <path d="M28.29,229.4808A10.4469,10.4469,0,1,1,18.2042,218.976,10.4451,10.4451,0,0,1,28.29,229.4808Zm-17.77-.0755a7.3351,7.3351,0,1,0,7.334-7.3124A7.3122,7.3122,0,0,0,10.5193,229.4053Z"/>
    <rect class="a" x="0.125" y="0.125" width="85.4747" height="248.1825"/>
  </g>
</svg>
