<svg xmlns="http://www.w3.org/2000/svg" viewBox="0 0 419.8798 272.7396">
  <defs>
    <style>
      .a {
        fill: #fff;
      }

      .b {
        fill: none;
        stroke: #000;
        stroke-miterlimit: 10;
        stroke-width: 0.25px;
      }
    </style>
  </defs>
  <title>neck base color</title>
  <g>
    <path class="a" d="M401.4539,110.7031c.4684,1.4774.9419,2.9533,1.4046,4.4325q6.7275,21.5108,13.4653,43.0183a9.1245,9.1245,0,0,1,.34,3.0693,61.69,61.69,0,0,1-4.5731,21.37,80.912,80.912,0,0,1-13.683,22.1322,122.7581,122.7581,0,0,1-21.9891,19.9653A188.93,188.93,0,0,1,342.9306,243.7a261.8077,261.8077,0,0,1-35.0537,12.6812,295.2,295.2,0,0,1-31.589,7.2873c-6.06,1.0358-12.1481,1.9037-18.2257,2.8332-1.1608.1775-2.3309.2952-3.4983.4268-.27.0305-.5473.0045-.9584.0045-.0182-.4582-.05-.8913-.05-1.3244q-.0041-16.395-.0022-32.79c0-1.9024.0064-3.8048-.003-5.7071a3.1007,3.1007,0,0,0-1.8129-3.0151,4.64,4.64,0,0,0-1.1926-.2985,4.221,4.221,0,0,0-.725-.01q-36.2661,0-72.5324.004a5.7633,5.7633,0,0,0-1.4387.1073,3.0006,3.0006,0,0,0-2.2769,2.98c-.0179,2.6978-.0059,5.3958-.0059,8.0937q0,15.72,0,31.4411v1.3083c-.801-.0585-1.4825-.0814-2.1572-.1618-4.3572-.52-8.7163-1.0245-13.0682-1.5858-7.1978-.9283-14.3447-2.1732-21.4573-3.6079a306.9934,306.9934,0,0,1-34.2715-8.9393,246.3068,246.3068,0,0,1-31.2647-12.4639,172.343,172.343,0,0,1-35.1186-22.0845,106.3518,106.3518,0,0,1-20.54-22.1263,69.9038,69.9038,0,0,1-11.0529-25.624,55.6715,55.6715,0,0,1-1.1411-11.12,5.5964,5.5964,0,0,1,.3042-1.6141q5.1656-16.5713,10.3534-33.1354,2.149-6.8728,4.2979-13.7457c.0883-.2823.1948-.5589.37-1.0589.2514,1.5856.4438,2.9374.6825,4.2809a64.6936,64.6936,0,0,0,8.351,21.8558,88.3522,88.3522,0,0,0,12.103,15.7662c9.0979,9.5468,19.6615,17.1782,31.0626,23.7018a212.3544,212.3544,0,0,0,37.0633,16.5015,277.6834,277.6834,0,0,0,30.44,8.4213c6.583,1.4383,13.201,2.7028,19.8759,3.634,5.1324.716,10.2712,1.3964,15.42,1.9832,3.5694.4068,7.1565.6808,10.7421.9183,4.69.3107,9.385.5392,14.0793.776,1.4152.0714,2.8349.0594,4.2526.0737,3.4227.0346,6.8464.1231,10.2682.0774,4.5275-.06,9.0565-.165,13.5795-.3681,4.2459-.1906,8.49-.4781,12.7256-.8272,3.8218-.3149,7.6381-.72,11.4455-1.1789,4.0462-.488,8.0846-1.0493,12.1166-1.6447,6.9741-1.03,13.8875-2.385,20.7657-3.9317a270.3734,270.3734,0,0,0,32.9177-9.56,214.7919,214.7919,0,0,0,24.2557-10.4557,156.9235,156.9235,0,0,0,30.04-19.4878,100.6131,100.6131,0,0,0,18.8794-20.569,67.0038,67.0038,0,0,0,10.7463-25.4036c.2657-1.4228.4513-2.86.674-4.2912Zm-16.419,81.8518c-.0455-.7466-.0412-1.5119-.146-2.2619a22.4908,22.4908,0,0,0-5.7461-12.2912,17.6322,17.6322,0,0,0-10.6159-5.97,11.5385,11.5385,0,0,0-11.886,5.9947,15.8712,15.8712,0,0,0-1.6271,9.253,21.9221,21.9221,0,0,0,5.5215,12.4935c3.1164,3.5346,6.8756,5.9791,11.7128,6.3434a10.9948,10.9948,0,0,0,9.1737-3.4722C384.1062,199.8311,384.999,196.3439,385.0349,192.5549ZM33.3491,187.6794a17.2173,17.2173,0,0,0,1.25,6.38,11.4321,11.4321,0,0,0,11.0023,7.1862,14.4075,14.4075,0,0,0,7.4355-2.29,21.942,21.942,0,0,0,9.83-13.5855,16.8764,16.8764,0,0,0-.4657-10.886,11.1416,11.1416,0,0,0-9.6586-7.4031,13.3633,13.3633,0,0,0-8.61,2.0663C37.2557,173.4,33.8648,179.7163,33.3491,187.6794Zm-17.02-19.6207a28.09,28.09,0,0,0,.6183,3.62c1.2125,4.0589,3.8234,6.675,8.1226,7.3025a11.2009,11.2009,0,0,0,7.7015-1.8638,17.5677,17.5677,0,0,0,7.6535-10.3459,14.2662,14.2662,0,0,0,.197-7.8821,9.66,9.66,0,0,0-6.6371-7.214,10.0653,10.0653,0,0,0-7.663.6944C19.9371,155.5508,16.9344,160.9393,16.3289,168.0587Zm385.669,4.8243a17.7774,17.7774,0,0,0-4.9177-11.99,14.6659,14.6659,0,0,0-6.6459-4.25,9.6306,9.6306,0,0,0-11.6224,4.596,11.7047,11.7047,0,0,0-1.4377,5.4634,17.4789,17.4789,0,0,0,4.3182,11.91,14.8352,14.8352,0,0,0,7.2837,4.9167,9.6148,9.6148,0,0,0,11.5977-4.6531A12.1445,12.1445,0,0,0,401.9979,172.883Z"/>
    <path class="a" d="M210.12,3.2579c5.7014.1627,11.4077.227,17.1026.5158q8.4368.428,16.8534,1.2311a309.4121,309.4121,0,0,1,43.3077,7.2292,246.9369,246.9369,0,0,1,45.4291,15.5293,164.6374,164.6374,0,0,1,32.5049,19.4295,103.0919,103.0919,0,0,1,19.8365,19.9478,67.1315,67.1315,0,0,1,11.3806,23.2207,54.5966,54.5966,0,0,1,1.7382,16.3314,59.2548,59.2548,0,0,1-7.2342,25.41,81.7131,81.7131,0,0,1-12.2537,16.9256,124.5857,124.5857,0,0,1-25.022,20.3847,194.0642,194.0642,0,0,1-35.5934,17.4346,267.1606,267.1606,0,0,1-39.8939,11.4558c-7.2077,1.4979-14.4505,2.7913-21.754,3.7129-4.9007.6185-9.807,1.227-14.7271,1.65q-8.9331.7678-17.8942,1.201c-7.3925.3668-14.7966.3756-22.1944.1852-5.1117-.1317-10.2217-.4189-15.3254-.7464-4.4134-.2832-8.8273-.6275-13.2222-1.1152-5.0461-.56-10.0787-1.2575-15.1042-1.9846-8.3123-1.2026-16.5416-2.8524-24.708-4.81a250.2941,250.2941,0,0,1-42.63-14.1469,169.0385,169.0385,0,0,1-35.1633-20.4022,105.98,105.98,0,0,1-19.0568-18.5481,69.9832,69.9832,0,0,1-12.147-22.6187,55.4374,55.4374,0,0,1-2.3318-20.5877,57.8755,57.8755,0,0,1,5.6476-20.78A80.8438,80.8438,0,0,1,43.07,57.7069,132.6787,132.6787,0,0,1,72.4053,35.4714a214.1907,214.1907,0,0,1,43.0722-18.4532A281.8416,281.8416,0,0,1,145.4044,9.482C151.95,8.1987,158.526,7.0987,165.14,6.2567c4.7632-.6063,9.5412-1.13,14.3266-1.52,5.7166-.4657,11.4462-.7856,17.1741-1.0959,2.8981-.157,5.8047-.1665,8.7079-.218,1.5891-.0282,3.1791-.0051,4.7687-.0051Zm-.0845,6.7534-.0035.1913c-1.0708,0-2.1419-.0186-3.2122.0033-3.6979.0757-7.398.1078-11.0928.2628-6.1122.2565-12.2169.6657-18.293,1.3928-5.0762.6074-10.1556,1.2118-15.2089,1.98-7.8228,1.1886-15.5706,2.7794-23.2484,4.7028A212.6456,212.6456,0,0,0,93.1693,35.3762a137.7207,137.7207,0,0,0-24.0284,15.46A87.1942,87.1942,0,0,0,50.8052,70.6119c-5.5178,8.4209-8.9993,17.5446-9.49,27.7016A49.8078,49.8078,0,0,0,42.293,110.99a57.9841,57.9841,0,0,0,9.0579,20.7681,88.6943,88.6943,0,0,0,18.0748,19.18,147.121,147.121,0,0,0,32.29,19.3458,222.7737,222.7737,0,0,0,39.9279,13.3666c6.6561,1.5841,13.3548,2.9624,20.1243,3.9623,4.886.7217,9.776,1.4386,14.6833,1.9868,4.4621.4984,8.9452.8476,13.428,1.1142,5.0357.2995,10.08.5376,15.123.6161a282.8448,282.8448,0,0,0,31.1844-1.03c4.8493-.4609,9.7008-.9267,14.5324-1.54,6.1-.7737,12.16-1.8116,18.1938-3.0124A243.2877,243.2877,0,0,0,305.7018,175.49a178.4807,178.4807,0,0,0,30.05-14.1746,116.3094,116.3094,0,0,0,24.8513-19.4183,75.4769,75.4769,0,0,0,10.8585-14.3615,53.8207,53.8207,0,0,0,7.4058-23.9418,49.9273,49.9273,0,0,0-2.7356-19.38,64.344,64.344,0,0,0-11.05-19.4693A98.3266,98.3266,0,0,0,346.5932,47.41a157.5587,157.5587,0,0,0-32.178-17.9083,223.1562,223.1562,0,0,0-32.4246-10.7579,260.6832,260.6832,0,0,0-35.3439-6.4369c-5.8031-.638-11.6189-1.2215-17.4443-1.578C222.8226,10.338,216.425,10.2379,210.0352,10.0113Z"/>
    <path class="a" d="M250.1767,227.1259v40.178a11.0334,11.0334,0,0,1-1.2008.2323c-4.5458.3756-9.0885.8069-13.64,1.0863-5.0355.3092-10.0777.5664-15.1208.6815-5.8057.1325-11.6159.1406-17.4233.096-3.9731-.03-7.9474-.1931-11.9165-.3891-3.7961-.1876-7.5865-.4921-11.379-.7511-.8519-.0582-1.7022-.1409-2.6707-.2221,0-13.6937,0-27.2638,0-40.9118Zm-36.6089,25.2409q14.42,0,28.8389-.0011c.4147,0,.83-.0067,1.2439-.0267a2.8083,2.8083,0,0,0,1.77-.7709,3.2863,3.2863,0,0,0,1.079-2.5927c-.01-3.3541-.0032-6.7083-.0033-10.0624,0-1.8327.0253-3.6659-.0094-5.4979a3.1549,3.1549,0,0,0-3.15-3.1893c-.2071-.0092-.4149-.0039-.6223-.0039q-29.202,0-58.4039.0008c-2.4958,0-3.685,1.1758-3.7229,3.6627-.0016.1037-.0007.2075-.0007.3112,0,4.7373.0732,9.4763-.0279,14.2114-.0595,2.7909,1.5714,4.0092,3.9619,3.99C194.2032,252.3223,203.8857,252.3668,213.5678,252.3668Z"/>
    <path class="a" d="M381.72,192.6568a12.1273,12.1273,0,0,1-.7061,4.3745A8.3334,8.3334,0,0,1,370.4975,202.5a14.6238,14.6238,0,0,1-6.8664-4.2579,18.7557,18.7557,0,0,1-5.3962-12.97,12.7454,12.7454,0,0,1,.4852-3.47c1.4061-5.1494,5.8453-7.6087,10.9844-6.1464a14.7581,14.7581,0,0,1,5.8526,3.4151A19.2607,19.2607,0,0,1,381.72,192.6568Z"/>
    <path class="a" d="M51.604,170.3341A8.2366,8.2366,0,0,1,59.6151,176.5a14.3271,14.3271,0,0,1,.0165,8.1735,18.7827,18.7827,0,0,1-8.4032,11.5031,11.2527,11.2527,0,0,1-5.1582,1.71,8.0948,8.0948,0,0,1-8.3583-5.03,12.8424,12.8424,0,0,1-.7929-7.6139,18.7889,18.7889,0,0,1,8.8867-13.25A10.9434,10.9434,0,0,1,51.604,170.3341Z"/>
    <path class="a" d="M37.8059,162.1478c-.4059,5.4853-2.6277,9.5624-7.0728,12.3293a8.075,8.075,0,0,1-4.2239,1.2478,6.16,6.16,0,0,1-6.0269-3.9238,9.9872,9.9872,0,0,1-.5528-6,14.65,14.65,0,0,1,6.2869-9.6381,8.8992,8.8992,0,0,1,4.2376-1.5642,6.2491,6.2491,0,0,1,6.7545,4.4991A23.8353,23.8353,0,0,1,37.8059,162.1478Z"/>
    <path class="a" d="M380.697,167.4134a9.5765,9.5765,0,0,1,.6355-3.7634,6.3415,6.3415,0,0,1,7.6329-3.9687,11.0209,11.0209,0,0,1,5.5306,3.2987,14.4456,14.4456,0,0,1,4.1944,10.0856,8.6914,8.6914,0,0,1-.9578,4.1005,6.2393,6.2393,0,0,1-7.1253,3.3517,10.265,10.265,0,0,1-5.22-2.8252A14.4839,14.4839,0,0,1,380.697,167.4134Z"/>
    <path class="a" d="M369.6523,123.8512c-.9406-1.3021-1.8065-2.5486-2.721-3.7584a93.0262,93.0262,0,0,0-17.466-17.3464A146.3116,146.3116,0,0,0,321.6067,86.02,225.1308,225.1308,0,0,0,274.6,70.4189c-6.6816-1.4782-13.4066-2.7284-20.1838-3.6611-4.9275-.6781-9.87-1.2845-14.8236-1.725-5.8155-.5172-11.6448-.9616-17.4778-1.1771-6.112-.2258-12.2362-.2275-18.3535-.1666-4.56.0453-9.1217.2648-13.673.5565-4.4813.2871-8.9567.7045-13.4233,1.1728-4.0877.4287-8.1789.8854-12.2348,1.5395q-8.3848,1.352-16.7164,3.0312a226.86,226.86,0,0,0-27.8882,7.5388A193.6613,193.6613,0,0,0,92.7042,88.8963a131.16,131.16,0,0,0-29.0473,19.8028A82.8066,82.8066,0,0,0,51.301,122.7813c-.231.3371-.4783.663-.7767,1.0752-.1629-.2609-.2966-.4443-.3992-.6437a49.2958,49.2958,0,0,1-5.2915-17.2436A47.5343,47.5343,0,0,1,48.4386,81.94,65.6328,65.6328,0,0,1,60.8629,63.0629,108.9161,108.9161,0,0,1,84.5557,44.02,177.7675,177.7675,0,0,1,118.17,28.2174a234.8621,234.8621,0,0,1,38.035-9.9956c5.1692-.909,10.3592-1.7225,15.5624-2.4074,4.3825-.577,8.7954-.93,13.1992-1.3364q8.3149-.7665,16.6668-.8855c5.289-.0744,10.5806-.1524,15.8683-.066,4.4211.0722,8.8448.29,13.2556.6067,4.9617.3564,9.9167.8365,14.8633,1.3682a256.52,256.52,0,0,1,32.4413,5.653,214.1129,214.1129,0,0,1,43.26,15.0968A145.751,145.751,0,0,1,345.9911,51.07a90.15,90.15,0,0,1,18.3434,18.0607,57.132,57.132,0,0,1,9.8127,19.97,47.1887,47.1887,0,0,1,1.4362,9.8265,48.4175,48.4175,0,0,1-4.7493,22.702c-.2917.6259-.6063,1.2413-.9154,1.8589A3.4846,3.4846,0,0,1,369.6523,123.8512Z"/>
    <path class="a" d="M242.9946,249.0077c-.3065.02-.6425.0625-.9784.0626q-28.5175.0046-57.035.0013c-1.0846,0-1.0974-.0141-1.0983-1.1029q-.0056-6.6368.0018-13.2736c0-.334.0484-.6681.072-.9734,1.1827-.2387,58.2408-.1947,59.0451.0246C243.2353,234.6141,243.2494,247.9859,242.9946,249.0077Z"/>
    <rect class="b" x="0.125" y="0.125" width="419.6298" height="272.4896"/>
  </g>
</svg>
