<svg xmlns="http://www.w3.org/2000/svg" viewBox="0 0 85.7532 248.387">
  <defs>
    <style>
      .a {
        fill: #fff;
      }

      .b {
        fill: none;
        stroke: #000;
        stroke-miterlimit: 10;
        stroke-width: 0.25px;
      }
    </style>
  </defs>
  <title>neck front left color</title>
  <g>
    <path class="a" d="M18.6892,3.4351c.1636,1.0174.3041,2.0391.4945,3.0514a36.9686,36.9686,0,0,0,6.811,15.237A53.7548,53.7548,0,0,0,43.52,36.6989,75.37,75.37,0,0,0,66.916,44.894a83.9547,83.9547,0,0,0,14.32,1.3717c.396.0033.7916.0468,1.2369.0747v86.3925c-.5047,0-1.001.0193-1.4954-.0028a105.5242,105.5242,0,0,1-26.48-4.463,84.1591,84.1591,0,0,1-27.0285-13.6814A58.7882,58.7882,0,0,1,11.6232,96.4989a4.4632,4.4632,0,0,1-.5362-2.8032c.2406-2.2149.3842-4.44.57-6.6613q.3452-4.1319.6935-8.2634c.2231-2.6856.4385-5.3719.6628-8.0575.2257-2.7025.4609-5.4042.6869-8.1066.2231-2.6677.4373-5.3361.66-8.0038.227-2.7189.4623-5.4372.6892-8.1561.2227-2.6683.4368-5.3373.6594-8.0056.227-2.72.4623-5.4391.6894-8.1591.2228-2.6685.4375-5.3377.66-8.0063q.3378-4.0543.6828-8.1082.2813-3.357.5572-6.7143.1671-2.0134.3348-4.027Z"/>
    <path class="a" d="M82.4991,147.2193V206.523c-.2566,0-.49-.0012-.7238,0a94.2592,94.2592,0,0,1-11.327-.6439c-14.5717-1.6782-28.28-5.9222-40.7089-13.88a63.2192,63.2192,0,0,1-18.3331-17.3507,47.1,47.1,0,0,1-5.9269-11.7568,2.083,2.083,0,0,1-.0764-.8051q.316-4.03.657-8.0587.3384-4.0545.6855-8.1081.28-3.3311.5528-6.6628.3454-4.1312.6942-8.2621.3332-4.0022.66-8.0046.34-4.0785.6887-8.1562c.0852-1.0155.1618-2.0316.2452-3.0472.0249-.3043.06-.6078.1007-1.0194.1279.1812.2.2709.2589.3688a62.887,62.887,0,0,0,17.8111,18.8724,90.6538,90.6538,0,0,0,30.0691,13.7561,96.315,96.315,0,0,0,13.4149,2.5619c3.1379.36,6.2967.5392,9.4467.7931C81.2705,147.1669,81.8556,147.1848,82.4991,147.2193ZM57.461,188.596a10.4478,10.4478,0,1,0,10.6241-10.4292A10.4623,10.4623,0,0,0,57.461,188.596Zm10.4452-16.6731a10.4326,10.4326,0,1,0-10.4487-10.431A10.4425,10.4425,0,0,0,67.9062,171.9229Z"/>
    <path class="a" d="M4.7616,169.6232c1.11,1.89,2.13,3.7736,3.2872,5.569A62.17,62.17,0,0,0,21.8194,190.159a86.4814,86.4814,0,0,0,28.5041,14.7251,108.0952,108.0952,0,0,0,28.7288,4.7029c1.1215.0239,2.2441.0037,3.4183.0037V245.14c-.8842,0-1.76.0156-2.6356-.0025a104.7827,104.7827,0,0,1-16.7327-1.6946,95.8262,95.8262,0,0,1-24.9373-8.0653,74.5608,74.5608,0,0,1-18.6172-12.6566A52.2827,52.2827,0,0,1,5.6883,202.1631a41.7387,41.7387,0,0,1-2.409-16.2381c.0824-1.67.3659-3.3287.5218-4.9959.2155-2.3035.3982-4.61.5934-6.9156C4.518,172.555,4.6385,171.0963,4.7616,169.6232ZM67.901,218.9406a10.4474,10.4474,0,1,0,10.4555,10.4573A10.4294,10.4294,0,0,0,67.901,218.9406Z"/>
    <path class="a" d="M10.4955,100.9269a74.701,74.701,0,0,0,5.582,7.2881,70.851,70.851,0,0,0,16.81,13.8667,94.6566,94.6566,0,0,0,29.4432,11.4319,103.5391,103.5391,0,0,0,14.5447,2.0706c1.7744.1212,3.5517.2,5.3277.299.0831.0046.1658.0172.2828.03v8.1095c-.5907,0-1.1564.0219-1.72-.0033a106.1609,106.1609,0,0,1-21.3848-3.0842,87.8352,87.8352,0,0,1-29.2369-13.0679,60.5272,60.5272,0,0,1-16.7471-17.1218c-1.1055-1.7464-2.0233-3.6123-3.0052-5.4352a1.64,1.64,0,0,1-.1781-.8351C10.2852,103.2908,10.398,102.1094,10.4955,100.9269Z"/>
    <path class="a" d="M67.9114,195.9379a7.3216,7.3216,0,1,1,7.3182-7.3247A7.3421,7.3421,0,0,1,67.9114,195.9379Z"/>
    <path class="a" d="M75.23,161.4941a7.3331,7.3331,0,1,1-7.3231-7.34A7.3825,7.3825,0,0,1,75.23,161.4941Z"/>
    <path class="a" d="M67.8731,236.708A7.3329,7.3329,0,1,1,75.23,229.42,7.3456,7.3456,0,0,1,67.8731,236.708Z"/>
    <rect class="b" x="0.125" y="0.125" width="85.5032" height="248.137"/>
  </g>
</svg>
