<svg xmlns="http://www.w3.org/2000/svg" viewBox="0 0 85.7532 248.387">
  <defs>
    <style>
      .a {
        fill: none;
        stroke: #000;
        stroke-miterlimit: 10;
        stroke-width: 0.25px;
      }
    </style>
  </defs>
  <title>neck front left lineart</title>
  <g>
    <path d="M.125,185.9885c.0643-.6306.1312-1.2608.1924-1.8916.3338-3.4386.6844-6.8758.9939-10.3166.3175-3.528.5942-7.06.8889-10.59q.44-5.2672.88-10.5346.442-5.2934.8843-10.5867.4443-5.3211.888-10.6421.4377-5.2441.8759-10.4881.4446-5.3215.89-10.6431.4377-5.2435.8738-10.4871.4431-5.32.8865-10.6392.4377-5.2413.8777-10.4825.4469-5.3467.8922-10.6937.4356-5.218.8718-10.436.45-5.3732.9013-10.7462.4333-5.192.862-10.3841.4449-5.3459.8919-10.6915.4369-5.2413.8732-10.4825.4439-5.3208.89-10.6414c.0446-.5338.0955-1.0671.1358-1.6012A2.9984,2.9984,0,0,1,18.4817.1265a2.9963,2.9963,0,0,1,3.2965,2.75c.7356,7.6894,4.0213,14.2171,9.055,19.9445A53.42,53.42,0,0,0,46.8867,35a74.5493,74.5493,0,0,0,23.22,7.2891,84.3066,84.3066,0,0,0,12.292.9171,3.0344,3.0344,0,0,1,3.2294,3.2543q0,81.9425,0,163.8849,0,17.3276,0,34.655a3.02,3.02,0,0,1-3.2194,3.2615,106.5844,106.5844,0,0,1-38.6642-7.0576A82.584,82.584,0,0,1,20.2671,227.502,57.4777,57.4777,0,0,1,3.5224,205.1654,44.9789,44.9789,0,0,1,.21,190.4239a2.3953,2.3953,0,0,0-.0845-.3886ZM18.6892,3.4351l-.0566-.0086q-.1674,2.0134-.3348,4.027-.2785,3.3571-.5572,6.7143-.3395,4.0542-.6828,8.1082c-.2223,2.6686-.437,5.3378-.66,8.0063-.2271,2.72-.4624,5.4392-.6894,8.1591-.2226,2.6683-.4367,5.3373-.6594,8.0056-.2269,2.7189-.4622,5.4372-.6892,8.1561-.2227,2.6677-.4369,5.3361-.66,8.0038-.226,2.7024-.4612,5.4041-.6869,8.1066-.2243,2.6856-.44,5.3719-.6628,8.0575q-.3434,4.1321-.6935,8.2634c-.1856,2.2209-.3292,4.4464-.57,6.6613a4.4632,4.4632,0,0,0,.5362,2.8032,58.7882,58.7882,0,0,0,15.8453,18.0868A84.1591,84.1591,0,0,0,54.497,128.2671a105.5242,105.5242,0,0,0,26.48,4.463c.4944.0221.9907.0028,1.4954.0028V46.34c-.4453-.0279-.8409-.0714-1.2369-.0747a83.9547,83.9547,0,0,1-14.32-1.3717A75.37,75.37,0,0,1,43.52,36.6989,53.7548,53.7548,0,0,1,25.9947,21.7235a36.9686,36.9686,0,0,1-6.811-15.237C18.9933,5.4742,18.8528,4.4525,18.6892,3.4351Zm63.81,143.7842c-.6435-.0345-1.2286-.0524-1.8113-.0994-3.15-.2539-6.3088-.4329-9.4467-.7931a96.315,96.315,0,0,1-13.4149-2.5619,90.6538,90.6538,0,0,1-30.0691-13.7561A62.887,62.887,0,0,1,9.946,111.1364c-.0586-.0979-.131-.1876-.2589-.3688-.041.4116-.0758.7151-.1007,1.0194-.0834,1.0156-.16,2.0317-.2452,3.0472q-.3422,4.0782-.6887,8.1562-.334,4.0019-.66,8.0046-.3438,4.1313-.6942,8.2621-.2786,3.3312-.5528,6.6628-.34,4.0542-.6855,8.1081-.3363,4.0287-.657,8.0587a2.083,2.083,0,0,0,.0764.8051,47.1,47.1,0,0,0,5.9269,11.7568,63.2192,63.2192,0,0,0,18.3331,17.3507c12.4287,7.9577,26.1372,12.2017,40.7089,13.88a94.2592,94.2592,0,0,0,11.327.6439c.2336-.0013.4672,0,.7238,0ZM4.7616,169.6232c-.1231,1.4731-.2436,2.9318-.3671,4.39-.1952,2.3054-.3779,4.6121-.5934,6.9156-.1559,1.6672-.4394,3.3262-.5218,4.9959a41.7387,41.7387,0,0,0,2.409,16.2381,52.2827,52.2827,0,0,0,13.8595,20.5581A74.5608,74.5608,0,0,0,38.165,235.3778a95.8262,95.8262,0,0,0,24.9373,8.0653,104.7827,104.7827,0,0,0,16.7327,1.6946c.8754.0181,1.7514.0025,2.6356.0025V209.5907c-1.1742,0-2.2968.02-3.4183-.0037a108.0952,108.0952,0,0,1-28.7288-4.7029A86.4814,86.4814,0,0,1,21.8194,190.159,62.17,62.17,0,0,1,8.0488,175.1922C6.892,173.3968,5.8719,171.5134,4.7616,169.6232Zm5.7339-68.6963c-.0975,1.1825-.21,2.3639-.2814,3.5479a1.64,1.64,0,0,0,.1781.8351c.9819,1.8229,1.9,3.6888,3.0052,5.4352a60.5272,60.5272,0,0,0,16.7471,17.1218,87.8352,87.8352,0,0,0,29.2369,13.0679,106.1609,106.1609,0,0,0,21.3848,3.0842c.5635.0252,1.1292.0033,1.72.0033v-8.1095c-.117-.0124-.2-.025-.2828-.03-1.776-.099-3.5533-.1778-5.3277-.299a103.5391,103.5391,0,0,1-14.5447-2.0706,94.6566,94.6566,0,0,1-29.4432-11.4319,70.851,70.851,0,0,1-16.81-13.8667A74.701,74.701,0,0,1,10.4955,100.9269Z"/>
    <path d="M57.461,188.596a10.4478,10.4478,0,1,1,10.4309,10.478A10.48,10.48,0,0,1,57.461,188.596Zm10.45,7.3419a7.3216,7.3216,0,1,0-7.3479-7.2962A7.34,7.34,0,0,0,67.9114,195.9379Z"/>
    <path d="M67.9062,171.9229a10.4324,10.4324,0,1,1,10.45-10.3945A10.4078,10.4078,0,0,1,67.9062,171.9229ZM75.23,161.4941a7.3331,7.3331,0,1,0-7.3143,7.35A7.3773,7.3773,0,0,0,75.23,161.4941Z"/>
    <path d="M67.901,218.9406a10.4474,10.4474,0,1,1-10.44,10.4A10.4742,10.4742,0,0,1,67.901,218.9406Zm-.0279,17.7674a7.3329,7.3329,0,1,0-7.3095-7.3359A7.3391,7.3391,0,0,0,67.8731,236.708Z"/>
    <rect class="a" x="0.125" y="0.125" width="85.5032" height="248.137"/>
  </g>
</svg>
