<svg xmlns="http://www.w3.org/2000/svg" viewBox="0 0 84.4317 146.4821">
  <defs>
    <style>
      .a {
        fill: #fff;
      }

      .b {
        fill: none;
        stroke: #000;
        stroke-miterlimit: 10;
        stroke-width: 0.25px;
      }
    </style>
  </defs>
  <title>neck back right color</title>
  <g>
    <path class="a" d="M74.476,108.4261c-.2556-.0857-.4035-.1245-.5428-.1835a94.014,94.014,0,0,0-20.7479-5.9144,117.4,117.4,0,0,0-18.31-1.7,99.1926,99.1926,0,0,0-24.1973,2.33C8.5315,103.46,6.4471,104.23,4.3416,104.9c-.6988.2224-.97.0628-.9719-.676q-.0105-4.5389-.0177-9.0777-.0208-13.9792-.0414-27.9586c-.0021-1.2793-.0063-2.5588-.0351-3.8377-.0094-.4189.118-.5623.5549-.5746a4.31,4.31,0,0,0,1.5181-.2495,43.3894,43.3894,0,0,1,8.8279-2.4484A103.7945,103.7945,0,0,1,37.72,58.5125a110.0166,110.0166,0,0,1,26.1052,4.143,4.6705,4.6705,0,0,0,1.2709.2035c.3777,0,.5016.12.5705.4779.7033,3.6486,1.4249,7.2936,2.14,10.94q3.2418,16.536,6.4818,33.0724C74.35,107.667,74.4,107.9872,74.476,108.4261ZM13.5837,76.1189a7.57,7.57,0,1,0,7.5456,7.6556A7.5734,7.5734,0,0,0,13.5837,76.1189Z"/>
    <path class="a" d="M3.3516,122.1365c0-2.8881.0044-5.7762-.0017-8.6643-.0034-1.6079-.0141-3.216-.0439-4.8236-.0086-.4617.1325-.6353.6217-.6321a3.56,3.56,0,0,0,1.3662-.2264,46.5166,46.5166,0,0,1,9.9991-2.6731A103.0789,103.0789,0,0,1,36.5776,103.71a106.96,106.96,0,0,1,29.5242,4.9058c2.3653.764,4.6625,1.7376,6.9994,2.592a4.7947,4.7947,0,0,0,1.45.3259c.44.0151.5943.1469.6744.5648.6242,3.26,1.27,6.515,1.9088,9.7719q2.02,10.3047,4.0339,20.6109a3.9864,3.9864,0,0,1,.0077.7376,3.11,3.11,0,0,1-.73-.2545,47.5273,47.5273,0,0,0-9.8431-4.73,101.2863,101.2863,0,0,0-21.4743-5.22,115.7524,115.7524,0,0,0-17.117-1.1A93.3562,93.3562,0,0,0,8.15,134.9066c-1.2635.3482-2.4931.8238-3.7284,1.2683-.804.2894-1.0518.1429-1.0519-.705q-.0012-6.6668,0-13.3334Zm17.7777.8984a7.5727,7.5727,0,0,0-15.1454-.0177,7.5727,7.5727,0,1,0,15.1454.0177Z"/>
    <path class="a" d="M61.1867,40.7817c-.2646-.0561-.4631-.0922-.6586-.1406a115.1955,115.1955,0,0,0-17.5292-2.89,116.75,116.75,0,0,0-13.0525-.476A97.9713,97.9713,0,0,0,6.81,40.2606c-.984.263-1.9479.6012-2.9214.9037-.1763.0547-.3539.1053-.6228.1852,0-.2767,0-.4774,0-.6781q-.0086-6.873-.0183-13.7458c-.0084-3.8035-.0087-7.6072-.051-11.41A4.0186,4.0186,0,0,1,3.9847,13.05,14.0109,14.0109,0,0,1,7.66,9.653,36.3886,36.3886,0,0,1,20.7872,4.3145,40.7134,40.7134,0,0,1,46.3447,6.935a26.746,26.746,0,0,1,7.5443,4.8764,8.0458,8.0458,0,0,1,2.5786,4.4863c1.5018,7.9823,3.0994,15.9465,4.66,23.9178C61.1594,40.3785,61.1629,40.547,61.1867,40.7817Z"/>
    <path class="a" d="M64.9117,59.7678c-1.29-.341-2.4708-.6636-3.6571-.9649a113.0963,113.0963,0,0,0-20.88-3.2063,113.4053,113.4053,0,0,0-19.9868.4583A69.4133,69.4133,0,0,0,5.9906,59.0188c-.5726.1933-1.129.4343-1.6953.6468-.63.2362-.9238.039-.9249-.6258-.0077-4.6-.0064-9.1992-.028-13.7988a.7651.7651,0,0,1,.5807-.83,50.0633,50.0633,0,0,1,8.85-2.3861,101.7514,101.7514,0,0,1,17.1636-1.6868,116.3691,116.3691,0,0,1,31.3245,3.63.8885.8885,0,0,1,.7707.8c.9223,4.8034,1.8719,9.6016,2.8113,14.4018C64.8748,59.333,64.8817,59.5012,64.9117,59.7678Z"/>
    <path class="a" d="M13.5539,88.2175a4.5316,4.5316,0,1,1,4.5523-4.4842A4.5257,4.5257,0,0,1,13.5539,88.2175Z"/>
    <path class="a" d="M18.1062,123.0381a4.5416,4.5416,0,1,1-4.5126-4.54A4.5536,4.5536,0,0,1,18.1062,123.0381Z"/>
    <rect class="b" x="0.125" y="0.125" width="84.1817" height="146.2321"/>
  </g>
</svg>
