<svg xmlns="http://www.w3.org/2000/svg" viewBox="0 0 169.4321 143.3839">
  <defs>
    <style>
      .a {
        fill: #fff;
      }

      .b {
        fill: none;
        stroke: #000;
        stroke-miterlimit: 10;
        stroke-width: 0.25px;
      }
    </style>
  </defs>
  <title>neck inside2 color</title>
  <g>
    <path class="a" d="M3.2676,47.1674c.1415.1574.2016.21.2449.2745A34.7443,34.7443,0,0,0,12.79,56.4658,73.29,73.29,0,0,0,29.4165,64.793a120.07,120.07,0,0,0,19.2263,5.29c3.7081.7009,7.4349,1.3251,11.1735,1.8362,3.1942.4368,6.4123.7327,9.629.9634,3.5474.2545,7.1037.4087,10.6588.5217,2.8147.0895,5.6359.1315,8.45.0495,3.8138-.1111,7.63-.2822,11.4334-.5735,3.7307-.2857,7.4609-.6559,11.1678-1.1614a136.153,136.153,0,0,0,29.4455-7.1334A71.224,71.224,0,0,0,157.2416,56.06a34.1259,34.1259,0,0,0,8.7776-8.7265,1.0492,1.0492,0,0,1,.1413-.1192c.019.1834.0456.32.0456.4572q.0025,20.1558-.0019,40.3115a15.99,15.99,0,0,1-3.37,9.5018,32.5285,32.5285,0,0,1-8.1831,7.6461,70.6961,70.6961,0,0,1-15.8256,7.8576,116.8608,116.8608,0,0,1-18.5318,5.0847q-5.536,1.0448-11.1186,1.8372c-2.782.3947-5.5876.6477-8.39.8642-3.1846.246-6.3756.4641-9.5676.5436-4.1287.1027-8.2625.127-12.3916.051-3.175-.0584-6.352-.2531-9.5181-.51A156.6356,156.6356,0,0,1,36.93,115.0718,83.4276,83.4276,0,0,1,16.8155,106.44a36.2088,36.2088,0,0,1-9.5906-8.1568,17.4781,17.4781,0,0,1-3.7571-7.9173,12.7668,12.7668,0,0,1-.192-2.1621q-.0166-20.2075-.0082-40.4153Zm7.3467,17.7963V65.68q0,13.7731-.0119,27.5461a1.0757,1.0757,0,0,0,.508.9742,65.6353,65.6353,0,0,0,13.6078,7.651,128.2323,128.2323,0,0,0,32.1363,8.5746c4.3163.6243,8.6638,1.0646,13.01,1.4389,3.4044.2932,6.8271.425,10.2445.5005q4.9738.11,9.9527-.0534c3.7955-.1252,7.59-.3452,11.3779-.62,2.7513-.2,5.5041-.4669,8.2332-.8631,3.888-.5645,7.771-1.1917,11.6274-1.9406a117.9517,117.9517,0,0,0,21.7158-6.3245,66.0766,66.0766,0,0,0,16.1907-9.0279,1.036,1.036,0,0,0,.4427-.9147q-.0126-13.4619-.0081-26.9237c0-.2-.0258-.3991-.0477-.7179-.8068.598-1.5353,1.1126-2.2367,1.6618a62.4271,62.4271,0,0,1-11.8754,7.4431A101.76,101.76,0,0,1,126.65,80.6289a142.1455,142.1455,0,0,1-18.1452,3.3162c-3.3932.3909-6.7926.7524-10.1984,1.0039-3.1335.2314-6.2785.3842-9.42.4149-3.9042.0381-7.8132-.0038-11.7141-.161-3.7762-.1522-7.5559-.3879-11.3135-.7824-3.9581-.4156-7.9006-1.0072-11.8341-1.6223A120.7057,120.7057,0,0,1,39.2533,79.47a90.64,90.64,0,0,1-17.1262-6.708,68.9835,68.9835,0,0,1-9.695-6.4566C11.8737,65.8792,11.3021,65.4705,10.6143,64.9637Z"/>
    <path class="a" d="M84.7263,3.2045c3.3167.0923,6.6387.0975,9.9487.2991q5.9929.3651,11.9686,1.0062a142.3151,142.3151,0,0,1,27.4176,5.5986,79.7122,79.7122,0,0,1,19.2373,8.5746,34.482,34.482,0,0,1,9.4052,8.36,17.1612,17.1612,0,0,1,3.2514,7.0938,14.6317,14.6317,0,0,1-1.6821,9.953,27.2318,27.2318,0,0,1-7.65,8.49,64.2536,64.2536,0,0,1-16.2454,8.7087,117.5768,117.5768,0,0,1-20.9459,5.8367q-5.3624.9924-10.77,1.732c-2.8872.3927-5.7957.6663-8.7035.8614-3.8246.2566-7.656.4578-11.4877.5462q-5.388.1242-10.7817-.0508c-3.3465-.1057-6.6926-.3307-10.0292-.6156q-7.9929-.6827-15.89-2.1259A130.5508,130.5508,0,0,1,31.964,62.3467a71.1311,71.1311,0,0,1-17.867-8.8291,30.96,30.96,0,0,1-7.8831-7.73A16.1274,16.1274,0,0,1,3.332,38.383a14.6522,14.6522,0,0,1,1.4726-8.1454,25.0338,25.0338,0,0,1,6.5376-8.021,56.4306,56.4306,0,0,1,14.1935-8.4625A106.2179,106.2179,0,0,1,45.8271,7.34c4.1271-.8818,8.2894-1.6223,12.4606-2.2664,3.2022-.4945,6.4364-.8224,9.6681-1.0733,3.9587-.3073,7.9285-.4821,11.8958-.6626,1.6211-.0737,3.2484-.0122,4.8728-.0122Zm-.028,6.9776c-3.3711.1626-6.7744.26-10.1663.5105q-4.59.34-9.1592.9594a96.6876,96.6876,0,0,0-13.3544,2.7769,63.526,63.526,0,0,0-16.1033,6.6987,27.3636,27.3636,0,0,0-8.2177,7.27,14.2213,14.2213,0,0,0-2.8638,8.2279,14.07,14.07,0,0,0,2.7872,8.46,27.5111,27.5111,0,0,0,8.58,7.5519,64.429,64.429,0,0,0,16.6407,6.7485,107.3987,107.3987,0,0,0,20.632,3.4376c3.3582.2314,6.7255.44,10.0894.451,3.6938.0127,7.3918-.1521,11.0816-.3559,2.5992-.1435,5.1953-.42,7.7791-.7458a103.84,103.84,0,0,0,12.5458-2.3566,70.6328,70.6328,0,0,0,16.5791-6.201A30.824,30.824,0,0,0,141.1537,46a14.8125,14.8125,0,0,0,3.4521-8.2848,13.5155,13.5155,0,0,0-2.0492-8.1028,24.5239,24.5239,0,0,0-7.6176-7.5865,55.9884,55.9884,0,0,0-14.1319-6.5746,107.8558,107.8558,0,0,0-25.2051-4.74C91.9873,10.434,88.3574,10.3536,84.6983,10.1821Z"/>
    <path class="a" d="M35.7391,118.0468c1.2442.3452,2.4839.6968,3.7278,1.0329a129.0875,129.0875,0,0,0,15.2207,3.2039c3.8393.5544,7.6884,1.0725,11.5492,1.4376,3.8135.3607,7.645.55,11.4724.7364,2.6049.127,5.2175.1958,7.8246.1551,3.92-.0612,7.8435-.1543,11.7555-.3952q5.63-.3466,11.2373-1.0316a148.574,148.574,0,0,0,24.7988-5.0446c.1278-.0382.26-.0636.4367-.1063a11.1081,11.1081,0,0,1-.748,5.5983,15.6489,15.6489,0,0,1-4.7208,5.6264,38.9325,38.9325,0,0,1-10.7067,5.6908,78.3992,78.3992,0,0,1-14.8584,3.789,100.0779,100.0779,0,0,1-12.2485,1.25c-2.1922.08-4.3892.23-6.578.1612-3.5877-.1134-7.1787-.2871-10.7537-.6012a82.9485,82.9485,0,0,1-20.5923-4.351,40.61,40.61,0,0,1-10.9367-5.5872,17.3979,17.3979,0,0,1-4.73-5.0963,10.691,10.691,0,0,1-1.2254-6.304A.6022.6022,0,0,1,35.7391,118.0468Z"/>
    <path class="a" d="M156.5093,71.262v.5994q0,9.597.01,19.1941a.9772.9772,0,0,1-.4552.8909,64.3857,64.3857,0,0,1-14.13,7.655,113.113,113.113,0,0,1-20.8064,6.1158c-3.82.7513-7.6661,1.38-11.5178,1.9469-2.6942.3963-5.4124.6686-8.13.862-4.0293.2869-8.0649.548-12.102.6476-4.0753.1-8.1571.05-12.2334-.0474-2.8289-.0673-5.66-.2527-8.478-.5155-3.5538-.3313-7.1008-.7516-10.6406-1.2118a135.7489,135.7489,0,0,1-15.628-3.0149A96.4,96.4,0,0,1,21.3774,96.782c-2.4774-1.2843-4.808-2.8512-7.2109-4.28a.8206.8206,0,0,1-.4252-.8051q.0141-9.9083.0084-19.8166c0-.1636.0232-.3273.04-.5521.1665.0942.2732.1421.3663.2089a70.2073,70.2073,0,0,0,17.3864,8.7481,124.1428,124.1428,0,0,0,21.0442,5.47q5.0954.8761,10.229,1.5241c2.772.3471,5.564.5427,8.35.7663a164.7723,164.7723,0,0,0,16.7287.4883c3.6935-.0794,7.3872-.2593,11.0741-.4981,3.0809-.2,6.1617-.472,9.2259-.8477a137.19,137.19,0,0,0,32.54-7.6608,66.8141,66.8141,0,0,0,15.4731-8.0835C156.2756,71.3944,156.3516,71.3563,156.5093,71.262Z"/>
    <path class="a" d="M84.9948,13.3578c3.3573.1589,6.97.2326,10.5661.52a103.9008,103.9008,0,0,1,25.07,4.8479,49.848,49.848,0,0,1,13.5331,6.6164,19.7936,19.7936,0,0,1,5.7322,5.9867,10.2589,10.2589,0,0,1-.2546,11.3517,21.3051,21.3051,0,0,1-6.3445,6.1784,53.51,53.51,0,0,1-13.9686,6.4334A87.3169,87.3169,0,0,1,104.7258,58.62c-3.3813.4644-6.7771.8548-10.1784,1.1321-2.8377.2315-5.692.315-8.54.3455-2.8825.0309-5.7715.0069-8.6489-.1515a110.6693,110.6693,0,0,1-26.5651-4.4451,55.46,55.46,0,0,1-14.05-6.2534,22.8375,22.8375,0,0,1-6.6594-6.1532,10.8269,10.8269,0,0,1-2.0759-6.91A11.326,11.326,0,0,1,30.31,30.1769a23.9712,23.9712,0,0,1,6.9376-6.156A58.3975,58.3975,0,0,1,52.0594,17.71a89.1668,89.1668,0,0,1,13.8982-2.9241q5.1065-.639,10.2423-1.037C79.0394,13.5306,81.8924,13.4885,84.9948,13.3578Z"/>
    <rect class="b" x="0.125" y="0.125" width="169.1821" height="143.1339"/>
  </g>
</svg>
