<svg xmlns="http://www.w3.org/2000/svg" viewBox="0 0 103.0273 173.2699">
  <defs>
    <style>
      .a {
        fill: none;
        stroke: #000;
        stroke-miterlimit: 10;
        stroke-width: 0.25px;
      }
    </style>
  </defs>
  <title>nose lineart</title>
  <g>
    <path d="M34.4973,173.1449a9.4976,9.4976,0,0,1-1.45-.6241,2.9619,2.9619,0,0,1-1.2852-2.16h-.6642q-13.8513,0-27.7027-.0008a3.0127,3.0127,0,0,1-3.1816-2.3357,4.3741,4.3741,0,0,1-.0774-.9772Q.1306,153.5586.125,140.0705a3.8813,3.8813,0,0,1,.6156-2.1493Q8.2649,125.9394,15.778,113.95a1.5027,1.5027,0,0,0,.21-1.12q-1.2906-8.2949-2.56-16.5928-1.1688-7.5795-2.3418-15.1583Q9.97,73.8339,8.8622,66.5876c-.1913-1.246-.4545-2.4854-.5633-3.7384-.1235-1.4243-.1539-2.8606-.1486-4.2914.0114-3.0936.072-6.187.1115-9.2805q.1046-8.1919.2093-16.384c.0194-1.4511.0678-2.9018.0782-4.3529a3.3242,3.3242,0,0,1,.6116-1.8877Q16.4157,15.9142,23.6618,5.17c.754-1.1173,1.5035-2.2377,2.2648-3.35A2.955,2.955,0,0,1,28.5128.4577Q51.4946.4648,74.4765.457A3.0189,3.0189,0,0,1,77.134,1.8856q7.7127,11.43,15.4272,22.8582a21.3308,21.3308,0,0,1,1.3435,2.0294,4.3159,4.3159,0,0,1,.5456,1.7961c.088,3.6805.1006,7.3628.1459,11.0444q.0984,7.9843.2081,15.9685c.02,1.4859.0243,2.973.0923,4.457a31.469,31.469,0,0,1-.6756,6.0662c-.6506,4.3911-1.3478,8.7753-2.0245,13.1626q-1.2321,7.9886-2.4615,15.9774c-.845,5.4971-1.6409,11.0024-2.5643,16.4862A4.3456,4.3456,0,0,0,87.9,115.04c4.8263,7.6172,9.5944,15.2713,14.389,22.9087a3.8216,3.8216,0,0,1,.6138,2.1014q-.0141,11.9837-.0066,23.9675c0,1.1065-.01,2.2129-.0167,3.3194a2.9975,2.9975,0,0,1-2.8807,3.0143c-.207.0105-.4148.0085-.6222.0085q-13.7217.0006-27.4434,0H71.28c-.0543.19-.1012.3674-.1561.5427a3.0082,3.0082,0,0,1-2.2659,2.13c-.1106.0284-.2168.0739-.3251.1114Zm-3.0211-13.42V159q0-8.8457.0024-17.6912a7.1828,7.1828,0,0,1,.057-.93q.5312-4.0308,1.0746-8.06c.3688-2.7551.7583-5.5077,1.0974-8.2664a15.3817,15.3817,0,0,0,.1613-3.0313c-.1285-1.6675-.4132-3.3231-.6353-4.9833-.3983-2.9774-.8035-5.9539-1.1971-8.9319a50.5978,50.5978,0,0,1-.5785-6.7534q.0509-24.5655.0286-49.1311a1.3293,1.3293,0,0,0-.4814-1.1084q-8.8764-7.9662-17.73-15.9576c-.5328-.48-1.0714-.9533-1.6073-1.43l-.1594.0439c0,1.2717.0109,2.5436-.0023,3.8152-.0268,2.5579-.0677,5.1157-.101,7.6735-.07,5.375-.21,10.7506-.1708,16.1248a43.0042,43.0042,0,0,0,.7054,5.9014c.5846,3.9618,1.2138,7.9169,1.8234,11.8749q.8515,5.5281,1.701,11.0565.9079,5.8859,1.82,11.771c.6474,4.1958,1.3,8.3908,1.9231,12.59a1.6125,1.6125,0,0,1-.2051,1.008q-7.738,12.4006-15.5,24.7861a2.1019,2.1019,0,0,0-.3058,1.053q-.0273,9.3384-.0132,18.6768v.6242ZM91.5567,32.7806l-.2058-.06c-.1652.1441-.3325.286-.4955.4328Q81.4531,41.6206,72.044,50.08a1.4422,1.4422,0,0,0-.52,1.198q.0184,25.5246.0085,51.049a6.401,6.401,0,0,1-.0418.8265q-.4237,3.2357-.8611,6.47c-.44,3.2852-.8869,6.5694-1.3154,9.8561a12.7627,12.7627,0,0,0-.2331,2.6681c.1576,1.873.4636,3.7336.7129,5.5988q.6,4.4921,1.2045,8.9834a45.9919,45.9919,0,0,1,.5534,6.5482c-.055,5.2565-.0177,10.5139-.0177,15.771v.6683H99.8233v-.6913q0-9.2863-.0136-18.5727a2.2051,2.2051,0,0,0-.3143-1.1056q-7.7276-12.3764-15.476-24.74a1.57,1.57,0,0,1-.2251-.9576c.2174-1.6425.4892-3.2777.7421-4.9154q.8613-5.5782,1.7222-11.1563t1.7161-11.1558q.8-5.1936,1.602-10.3869c.5383-3.4969,1.0832-6.9928,1.609-10.4916a31.0581,31.0581,0,0,0,.6125-6.01c-.0976-2.2092-.0886-4.4232-.1161-6.6352-.046-3.6989-.0969-7.3978-.1214-11.0968C91.5408,38.7947,91.5567,35.7876,91.5567,32.7806ZM34.6131,52.2974v.5955q0,24.77.002,49.54a5.9134,5.9134,0,0,0,.0492.7744q.4359,3.2856.8818,6.57c.4384,3.268.8889,6.5345,1.305,9.8053a14.4419,14.4419,0,0,1,.1925,2.93c-.1364,1.7181-.4351,3.4233-.6651,5.134-.4,2.977-.8067,5.9532-1.1972,8.9314a40.6732,40.6732,0,0,0-.5423,4.6765c-.07,5.0481-.0259,10.0978-.0259,15.1469v.5785h33.77c.0094-.1526.0231-.2711.0231-.39q.0016-7.7553-.001-15.51a3.9111,3.9111,0,0,0-.0439-.5152q-.4365-3.2595-.8765-6.5184c-.4406-3.2851-.8865-6.5694-1.3149-9.8561a12.7631,12.7631,0,0,1-.2346-2.6672c.159-1.89.4651-3.7683.7162-5.6507.3973-2.9771.804-5.9531,1.1963-8.9309a35.7184,35.7184,0,0,0,.5352-4.5208q.0579-24.77.0242-49.54v-.5825ZM91.3572,28.4956c-.2236-.3367-.4127-.6256-.6058-.9118Q82.79,15.7887,74.8363,3.9889a.9561.9561,0,0,0-.91-.4913q-22.4119.0213-44.8238,0a.9946.9946,0,0,0-.9443.524Q21.3141,14.1935,14.4444,24.3486c-.9264,1.3722-1.85,2.7463-2.8088,4.17.1024.0791.1878.1368.2636.205q11.1573,10.0444,22.3224,20.08a1.4089,1.4089,0,0,0,.8609.3341q16.42.0252,32.8395,0a1.4056,1.4056,0,0,0,.86-.3281Q77.3943,41.0929,85.98,33.3459C87.7639,31.7394,89.5452,30.13,91.3572,28.4956ZM68.1761,170.0013v-2.714H98.9074a3.454,3.454,0,0,1,.4147.0026c.38.0463.5213-.0982.5089-.4929-.0259-.8291-.0078-1.66-.0077-2.49v-1.4433h-30.77c-.1729,0-.3462-.0089-.5186,0-.2673.0133-.3676-.1079-.3628-.3713.01-.57-.0289-1.1434.0117-1.711.0363-.5072-.0977-.6785-.6479-.6775q-16.0539.0265-32.1079.0143c-.1859,0-.3717.0169-.6138.0287v2.7313H3.2067c0,1.2824,0,2.49,0,3.6969,0,.7115,0,.7121.6936.7121H34.847v2.714Z"/>
    <path d="M51.4645,69.287q-4.9269,0-9.8537,0a3.0572,3.0572,0,0,1-3.2563-3.1419q-.0507-4.2261,0-8.4532a3.0591,3.0591,0,0,1,3.2578-3.143q9.88-.0016,19.7592,0a3.0464,3.0464,0,0,1,3.2639,3.2739q.0025,4.0971,0,8.1941a3.0461,3.0461,0,0,1-3.2657,3.27Q56.4173,69.2877,51.4645,69.287Zm-9.9663-3.1521H61.4939V57.6973H41.4982Z"/>
    <path d="M51.5121,71.8472q4.9532,0,9.9063.0006a3.0336,3.0336,0,0,1,3.2166,3.211q.0063,4.1751,0,8.35a3.0428,3.0428,0,0,1-3.1538,3.1829q-9.9841.0145-19.9682,0a3.0587,3.0587,0,0,1-3.1584-3.146q-.0492-4.2266-.001-8.4539a3.0565,3.0565,0,0,1,3.2527-3.1439Q46.5591,71.8445,51.5121,71.8472Zm9.97,11.5991V75.0247H41.5143v8.4216Z"/>
    <path d="M51.5181,103.4361q-4.953,0-9.9061,0a3.0479,3.0479,0,0,1-3.2581-3.1336q-.0485-4.2264,0-8.4537A3.0885,3.0885,0,0,1,41.6614,88.69q8.9466-.0087,17.8932,0a22.4927,22.4927,0,0,1,2.4319.0657,2.9277,2.9277,0,0,1,2.6412,2.9092q.0378,4.408-.0015,8.8167a2.9792,2.9792,0,0,1-3.0464,2.9528Q56.549,103.4433,51.5181,103.4361ZM41.51,91.8346v8.4486H61.49V91.8346Z"/>
    <path d="M51.5358,8.7875c4.651,0,9.3021.02,13.9529-.0113a3.7861,3.7861,0,0,1,3.4607,1.8378c3.3464,5.0366,6.7516,10.0342,10.1383,15.0439a3.1376,3.1376,0,0,1-.5595,4.5943q-7.014,6.3121-14.0207,12.6328a3.6409,3.6409,0,0,1-2.5812.9881q-10.4776-.0249-20.9553-.0024a3.4122,3.4122,0,0,1-2.3965-.925Q31.4731,36.537,24.3608,30.14a3.0648,3.0648,0,0,1-.544-4.3152Q29.0746,18.024,34.342,10.2291a3.3064,3.3064,0,0,1,2.9815-1.4433Q44.43,8.7921,51.5358,8.7875ZM76.6775,27.7106c-.0958-.157-.1541-.2617-.2209-.3606q-5.06-7.4984-10.1145-15.0008a.8766.8766,0,0,0-.8357-.4441q-14.0068.0182-28.0136-.0014a.8821.8821,0,0,0-.8306.4568q-4.5858,6.8178-9.1893,13.6236c-.3838.5686-.7616,1.1411-1.1375,1.7047.0664.0728.0983.1142.1365.1486q7.0318,6.333,14.0736,12.655a1.1989,1.1989,0,0,0,.7421.2446q10.22.0193,20.44-.0029a1.3381,1.3381,0,0,0,.8163-.3107q4.9908-4.4536,9.9519-8.94C73.8811,30.235,75.2648,28.9849,76.6775,27.7106Z"/>
    <rect class="a" x="0.125" y="0.125" width="102.7773" height="173.0199"/>
  </g>
</svg>
