<svg xmlns="http://www.w3.org/2000/svg" viewBox="0 0 103.0273 173.2699">
  <defs>
    <style>
      .a {
        fill: #fff;
      }

      .b {
        fill: none;
        stroke: #000;
        stroke-miterlimit: 10;
        stroke-width: 0.25px;
      }
    </style>
  </defs>
  <title>nose color</title>
  <g>
    <path class="a" d="M31.4762,159.7249H3.182v-.6242q0-9.3384.0132-18.6768a2.1019,2.1019,0,0,1,.3058-1.053q7.742-12.3983,15.5005-24.7861a1.6125,1.6125,0,0,0,.2051-1.008c-.6229-4.1994-1.2757-8.3944-1.9231-12.59q-.9081-5.8857-1.82-11.771-.8526-5.528-1.701-11.0565c-.61-3.958-1.2388-7.9131-1.8234-11.8749a43.0042,43.0042,0,0,1-.7054-5.9014c-.0389-5.3742.1009-10.75.1708-16.1248.0333-2.5578.0742-5.1156.101-7.6735.0132-1.2716.0023-2.5435.0023-3.8152l.1594-.0439c.5359.4765,1.0745.95,1.6073,1.43q8.8624,7.982,17.7305,15.9576a1.3293,1.3293,0,0,1,.4814,1.1084q-.0188,24.5655-.0286,49.1311a50.5978,50.5978,0,0,0,.5785,6.7534c.3936,2.978.7988,5.9545,1.1971,8.9319.2221,1.66.5068,3.3158.6353,4.9833a15.3817,15.3817,0,0,1-.1613,3.0313c-.3391,2.7587-.7286,5.5113-1.0974,8.2664q-.54,4.03-1.0746,8.06a7.1828,7.1828,0,0,0-.057.93q-.005,8.8457-.0024,17.6912Z"/>
    <path class="a" d="M91.5567,32.7806c0,3.007-.0159,6.0141.004,9.0209.0245,3.699.0754,7.3979.1214,11.0968.0275,2.212.0185,4.426.1161,6.6352a31.0581,31.0581,0,0,1-.6125,6.01c-.5258,3.4988-1.0707,6.9947-1.609,10.4916q-.8,5.1938-1.602,10.3869Q87.1157,92,86.2586,97.5782q-.86,5.5784-1.7222,11.1563c-.2529,1.6377-.5247,3.2729-.7421,4.9154a1.57,1.57,0,0,0,.2251.9576q7.7286,12.3757,15.476,24.74a2.2051,2.2051,0,0,1,.3143,1.1056q.0285,9.2863.0136,18.5727v.6913H71.5339v-.6683c0-5.2571-.0373-10.5145.0177-15.771a45.9919,45.9919,0,0,0-.5534-6.5482q-.5962-4.4925-1.2045-8.9834c-.2493-1.8652-.5553-3.7258-.7129-5.5988a12.7627,12.7627,0,0,1,.2331-2.6681c.4285-3.2867.8758-6.5709,1.3154-9.8561q.4329-3.2344.8611-6.47a6.401,6.401,0,0,0,.0418-.8265q.0027-25.5245-.0085-51.049a1.4422,1.4422,0,0,1,.52-1.198q9.4178-8.45,18.8114-16.9263c.163-.1468.33-.2887.4955-.4328Z"/>
    <path class="a" d="M34.6131,52.2974H68.4068V52.88q0,24.77-.0242,49.54a35.7184,35.7184,0,0,1-.5352,4.5208c-.3923,2.9778-.799,5.9538-1.1963,8.9309-.2511,1.8824-.5572,3.76-.7162,5.6507a12.7631,12.7631,0,0,0,.2346,2.6672c.4284,3.2867.8743,6.571,1.3149,9.8561q.4371,3.2594.8765,6.5184a3.9111,3.9111,0,0,1,.0439.5152q.0036,7.7551.001,15.51c0,.1185-.0137.237-.0231.39h-33.77v-.5785c0-5.0491-.0436-10.0988.0259-15.1469a40.6732,40.6732,0,0,1,.5423-4.6765c.3905-2.9782.7969-5.9544,1.1972-8.9314.23-1.7107.5287-3.4159.6651-5.134a14.4419,14.4419,0,0,0-.1925-2.93c-.4161-3.2708-.8666-6.5373-1.305-9.8053q-.4407-3.2848-.8818-6.57a5.9134,5.9134,0,0,1-.0492-.7744q-.0033-24.77-.002-49.54Zm16.8514,16.99q4.9527,0,9.9055,0a3.0461,3.0461,0,0,0,3.2657-3.27q.0029-4.0969,0-8.1941a3.0464,3.0464,0,0,0-3.2639-3.2739q-9.88-.0016-19.7592,0a3.0591,3.0591,0,0,0-3.2578,3.143q-.0525,4.2261,0,8.4532a3.0572,3.0572,0,0,0,3.2563,3.1419Q46.5375,69.2878,51.4645,69.287Zm.0476,2.56q-4.9531,0-9.9062.0007a3.0565,3.0565,0,0,0-3.2527,3.1439q-.0446,4.2266.001,8.4539a3.0587,3.0587,0,0,0,3.1584,3.146q9.984.0153,19.9682,0a3.0428,3.0428,0,0,0,3.1538-3.1829q.0085-4.1751,0-8.35a3.0336,3.0336,0,0,0-3.2166-3.211Q56.4653,71.8446,51.5121,71.8472Zm.006,31.5888q5.0309,0,10.0617-.0018a2.9792,2.9792,0,0,0,3.0464-2.9528q.0452-4.4079.0015-8.8167a2.9277,2.9277,0,0,0-2.6412-2.9092,22.4927,22.4927,0,0,0-2.4319-.0657q-8.9466-.0069-17.8932,0a3.0885,3.0885,0,0,0-3.3078,3.1591q-.0468,4.2264,0,8.4537a3.0479,3.0479,0,0,0,3.2581,3.1336Q46.5651,103.437,51.5181,103.436Z"/>
    <path class="a" d="M91.3572,28.4956c-1.812,1.6345-3.5933,3.2438-5.3773,4.85Q77.3867,41.0843,68.7823,48.81a1.4056,1.4056,0,0,1-.86.3281q-16.42.0246-32.8395,0a1.4089,1.4089,0,0,1-.8609-.3341q-11.1731-10.027-22.3224-20.08c-.0758-.0682-.1612-.1259-.2636-.205.959-1.4241,1.8824-2.7982,2.8088-4.17q6.86-10.1613,13.7134-20.3275a.9946.9946,0,0,1,.9443-.524q22.4119.0225,44.8238,0a.9561.9561,0,0,1,.91.4913Q82.783,15.7936,90.7514,27.5838C90.9445,27.87,91.1336,28.1589,91.3572,28.4956ZM51.5358,8.7875q-7.1061,0-14.2123-.0017a3.3064,3.3064,0,0,0-2.9815,1.4433q-5.2564,7.8021-10.5252,15.5961a3.0648,3.0648,0,0,0,.544,4.3152q7.107,6.4025,14.2137,12.8053a3.4122,3.4122,0,0,0,2.3965.925q10.4777-.0175,20.9553.0024a3.6409,3.6409,0,0,0,2.5812-.9881q6.9984-6.33,14.0207-12.6328a3.1376,3.1376,0,0,0,.5595-4.5943c-3.3867-5.01-6.7919-10.0073-10.1383-15.0439a3.7861,3.7861,0,0,0-3.4607-1.8378C60.8379,8.8071,56.1868,8.7874,51.5358,8.7875Z"/>
    <path class="a" d="M68.1761,170.0013H34.847v-2.714H3.9c-.6931,0-.6934-.0006-.6936-.7121,0-1.2073,0-2.4145,0-3.6969H34.8144v-2.7313c.2421-.0118.4279-.0287.6138-.0287q16.0539-.002,32.1079-.0143c.55-.001.6842.17.6479.6775-.0406.5676-.0014,1.1406-.0117,1.711-.0048.2634.0955.3846.3628.3713.1724-.0086.3457,0,.5186,0h30.77v1.4433c0,.83-.0182,1.66.0077,2.49.0124.3947-.1285.5392-.5089.4929a3.454,3.454,0,0,0-.4147-.0026H68.1761Z"/>
    <path class="a" d="M41.4982,66.1349V57.6973H61.4939v8.4376Z"/>
    <path class="a" d="M61.4824,83.4463H41.5143V75.0247H61.4824Z"/>
    <path class="a" d="M41.51,91.8346H61.49v8.4486H41.51Z"/>
    <path class="a" d="M76.6775,27.7106c-1.4127,1.2743-2.7964,2.5244-4.1822,3.7723q-4.9705,4.4761-9.9519,8.9405a1.3381,1.3381,0,0,1-.8163.3107q-10.22.0254-20.44.0029a1.1989,1.1989,0,0,1-.7421-.2446q-7.05-6.3132-14.0736-12.655c-.0382-.0344-.07-.0758-.1365-.1486.3759-.5636.7537-1.1361,1.1375-1.7047q4.5965-6.8106,9.1893-13.6236a.8821.8821,0,0,1,.8306-.4568q14.0067.021,28.0136.0014a.8766.8766,0,0,1,.8357.4441Q71.387,19.8579,76.4566,27.35C76.5234,27.4489,76.5817,27.5536,76.6775,27.7106Z"/>
    <rect class="b" x="0.125" y="0.125" width="102.7773" height="173.0199"/>
  </g>
</svg>
