<svg xmlns="http://www.w3.org/2000/svg" viewBox="0 0 418.1334 158.1819">
  <defs>
    <style>
      .a {
        fill: none;
        stroke: #000;
        stroke-miterlimit: 10;
        stroke-width: 0.25px;
      }
    </style>
  </defs>
  <title>wires mouth lineart</title>
  <g>
    <path d="M322.8631.125c.3549.1242.7052.2641,1.0654.37a7.2361,7.2361,0,0,1,5.339,7.0805,28.8394,28.8394,0,0,0,2.74,12.6564,27.0993,27.0993,0,0,0,9.4682,10.5127,55.5084,55.5084,0,0,0,12.7581,6.1526c5.3456,1.8979,10.8361,3.3034,16.3058,4.7791a93.0009,93.0009,0,0,1,13.8655,4.5648,46.78,46.78,0,0,1,15.757,11.0652A41.8776,41.8776,0,0,1,410.1826,77.262a57.2916,57.2916,0,0,1,.8834,16.7118,3.6665,3.6665,0,0,0,.3909,2.0851,54.4572,54.4572,0,0,1,5.1728,16.0123,51.3444,51.3444,0,0,1,.8606,8.4472,9.5572,9.5572,0,0,0,.2149,1.4279V129.21c-.0777.6839-.2062,1.3664-.2251,2.0519a75.5672,75.5672,0,0,1-1.8943,14.47,7.2884,7.2884,0,0,1-14.2952-.36,6.8252,6.8252,0,0,1,.0076-2.4646,93.5129,93.5129,0,0,0,1.6437-12.53c.1089-1.7237.0905-3.4556.12-5.1839a5.2648,5.2648,0,0,0-.1272-.7624c-.2481.38-.4006.5889-.5277.8121a7.3111,7.3111,0,0,1-13.0367-6.6128,85.5929,85.5929,0,0,0,5.4081-15.54c.2944-1.2075.4715-2.4457.8085-3.64a1.9589,1.9589,0,0,0-.5177-1.9678,26.74,26.74,0,0,0-6.4592-5.6348,33.4252,33.4252,0,0,0-11.8919-4.3819,71.5052,71.5052,0,0,0-10.1115-.8791c-4.6963-.1687-9.3956-.32-14.0839-.6272a83.3007,83.3007,0,0,1-20.7672-3.67A43.25,43.25,0,0,1,314.113,71.7679a39.557,39.557,0,0,1-9.2409-15.2,40.6753,40.6753,0,0,1-1.5434-5.4814,6.89,6.89,0,0,1,2.8412-7.2992,7.2989,7.2989,0,0,1,11.4274,4.2347c.2958,1.1711.6125,2.3413,1.0035,3.4831,2.8013,8.18,8.456,13.5234,16.4753,16.4989a53.0031,53.0031,0,0,0,11.5785,2.7255c5.5593.7332,11.1537.9059,16.75,1.1129,4.2792.1582,8.5682.3468,12.8229.8021a48.1281,48.1281,0,0,1,18.0253,5.519c.3244.1763.656.3391,1.1952.6168-.12-.54-.1714-.8645-.2642-1.1771a27.0046,27.0046,0,0,0-12.0691-15.5208,43.6638,43.6638,0,0,0-11.4919-4.9214c-5.452-1.541-10.9312-2.9875-16.3663-4.5853a86.4133,86.4133,0,0,1-18.2893-7.4765,45.394,45.394,0,0,1-14.9918-13.0224A38.02,38.02,0,0,1,315.24,14.9781c-.3249-2.321-.466-4.6748-.5636-7.019A7.2834,7.2834,0,0,1,320.4432.3724a2.8362,2.8362,0,0,0,.5521-.2474Zm91.9,125.6722c-.1239-2.45-.1886-4.905-.3836-7.35a59.28,59.28,0,0,0-3.3843-15.8746,39.9075,39.9075,0,0,0-13.9473-19.0449A43.6709,43.6709,0,0,0,378.98,76.0905a97.0624,97.0624,0,0,0-14.662-1.1973,172.5365,172.5365,0,0,1-18.8188-1.2894,52.1359,52.1359,0,0,1-13.393-3.5515,30.0044,30.0044,0,0,1-9.8227-6.629,29.67,29.67,0,0,1-7.096-12.6191c-.2419-.8294-.4073-1.6833-.6858-2.4994a4.2617,4.2617,0,0,0-7.0917-1.59,4.1427,4.1427,0,0,0-1.08,4.0268c.2815,1.2109.6085,2.4146.9835,3.6A36.1448,36.1448,0,0,0,322.2553,74.5a46.5363,46.5363,0,0,0,13.0674,5.7024,92.413,92.413,0,0,0,19.8684,2.9016c5.1426.275,10.2921.418,15.4373.6478A45.893,45.893,0,0,1,382.754,85.843a30.8519,30.8519,0,0,1,13.5028,8.3913,33.71,33.71,0,0,1,7.1029,12.4221,55.3563,55.3563,0,0,1,2.6356,14.7591,86.1954,86.1954,0,0,1-1.6213,21.4537,6.4672,6.4672,0,0,0-.1585,1.5391,4.2792,4.2792,0,0,0,8.5019.3371A96.1189,96.1189,0,0,0,414.7635,125.7972Zm-6.6168-35.5686a15.5049,15.5049,0,0,0,.1614-1.7584,63.6044,63.6044,0,0,0-.7662-8.8772c-2.0306-11.5478-7.82-20.6235-17.7187-27.0022a55.264,55.264,0,0,0-15.0559-6.5866c-5.4893-1.5518-11.0042-3.0147-16.48-4.6129a74.4291,74.4291,0,0,1-14.9018-5.9579,37.6127,37.6127,0,0,1-8.91-6.554,28.3014,28.3014,0,0,1-8.125-18.91c-.0574-1-.0425-2.0088-.1615-3.0015a4.2673,4.2673,0,0,0-8.4948.689,42.9334,42.9334,0,0,0,.8383,8.7611,35.2839,35.2839,0,0,0,10.418,19.079A48.0014,48.0014,0,0,0,339.29,42.91a82.9717,82.9717,0,0,0,16.32,6.5972c5.4042,1.5949,10.85,3.0484,16.2761,4.57a49.8106,49.8106,0,0,1,11.968,4.8929,31.4742,31.4742,0,0,1,10.7779,10.1426,31.0881,31.0881,0,0,1,4.3192,11.1507,2.19,2.19,0,0,0,.875,1.4448,40.1092,40.1092,0,0,1,7.5006,7.5663C407.5258,89.5357,407.7546,89.7746,408.1467,90.2286ZM398.15,102.4652c-.1552.42-.2316.5752-.27.7392a87.8708,87.8708,0,0,1-5.8008,16.8189,4.007,4.007,0,0,0-.14,3.13,4.0763,4.0763,0,0,0,3.602,2.8656,3.904,3.904,0,0,0,4.1322-2.1862c1.004-2.003,1.8193-4.1011,2.6951-6.167a1.6268,1.6268,0,0,0,.0908-.808,43.9959,43.9959,0,0,0-3.7035-13.32C398.6131,103.2381,398.43,102.9586,398.15,102.4652Z"/>
    <path d="M96.8606.125c.4549.1525.9081.31,1.3647.4566a7.1121,7.1121,0,0,1,5.0157,6.4718c.1251,8.4106-1.6616,16.3358-6.2446,23.5019A41.8983,41.8983,0,0,1,85.0027,42.6016a73.216,73.216,0,0,1-17.1218,8.2993c-5.6129,1.9721-11.3679,3.46-17.1044,5.0121A76.6431,76.6431,0,0,0,39.84,59.4517a34.0689,34.0689,0,0,0-9.8082,6.3117,26.2279,26.2279,0,0,0-7.37,12.18,3.274,3.274,0,0,0-.0993.401,1.0358,1.0358,0,0,0,.0737.2856,6.15,6.15,0,0,0,.713-.2854,49.0462,49.0462,0,0,1,18.9141-5.7614c3.4347-.3467,6.8929-.4738,10.343-.6527,4.3828-.2273,8.7736-.3253,13.1507-.6274a64.4681,64.4681,0,0,0,15.2826-2.6658,30.2971,30.2971,0,0,0,10.8774-5.8673A26.4808,26.4808,0,0,0,99.9843,49.495c.1671-.599.2931-1.21.4665-1.8066A7.2858,7.2858,0,0,1,114.69,48.7653a7.6636,7.6636,0,0,1-.1042,2.5653,42.4528,42.4528,0,0,1-9.5728,19.1836A41.3122,41.3122,0,0,1,88.5918,81.4379a69.1423,69.1423,0,0,1-15.4812,3.749,134.3134,134.3134,0,0,1-13.5339,1.0777q-5.0775.1654-10.1534.3783A46.6592,46.6592,0,0,0,34.4886,89.308a27.8865,27.8865,0,0,0-11.52,8.0528,2.4178,2.4178,0,0,0-.59,2.2586,83.9872,83.9872,0,0,0,6.152,18.8818,7.4642,7.4642,0,0,1-1.3822,8.44A7.312,7.312,0,0,1,15.714,125.54a3.5447,3.5447,0,0,0-.8019-1.0227c-.0185.3538-.0547.7076-.0527,1.0613a85.5211,85.5211,0,0,0,1.7527,16.9877,7.2881,7.2881,0,0,1-5.3923,8.6677,7.1581,7.1581,0,0,1-8.7291-5.0853,69.884,69.884,0,0,1-1.3891-7.5375,86.1065,86.1065,0,0,1-.9548-13.95c.2175-7.9046,1.1305-15.723,3.9781-23.1844.7135-1.87,1.5783-3.683,2.4154-5.5029a3.5156,3.5156,0,0,0,.3384-1.69c-.1049-2.4853-.2738-4.9757-.21-7.4588a46.1226,46.1226,0,0,1,6.8421-23.9268A42.3176,42.3176,0,0,1,28.7357,48.6629a64.8171,64.8171,0,0,1,14.8832-5.9477c5.4588-1.5179,10.9337-2.9832,16.3643-4.5968a62.5466,62.5466,0,0,0,14.9325-6.3719,28.7675,28.7675,0,0,0,10.0929-9.8009,25.2771,25.2771,0,0,0,3.3891-10.2581c.1474-1.3376.2188-2.6872.2517-4.0331A7.3388,7.3388,0,0,1,94.1409.4575c.2916-.0846.5683-.2205.852-.3325ZM3.24,125.7807A95.625,95.625,0,0,0,4.554,141.2634c.2316,1.362.48,2.7278.839,4.06a4.27,4.27,0,0,0,4.0763,3.119,4.37,4.37,0,0,0,4.0769-2.9958,4.91,4.91,0,0,0,.0473-2.5564,83.5533,83.5533,0,0,1-1.3947-24.6554,49.4149,49.4149,0,0,1,3.3541-14.18,30.1718,30.1718,0,0,1,14.35-16.0289,39.0436,39.0436,0,0,1,12.8488-3.8612c4.4984-.5993,9.0328-.6292,13.5567-.785a149.7969,149.7969,0,0,0,18.4885-1.5,60.7265,60.7265,0,0,0,14.94-4.1823c11.9938-5.26,19.0313-14.53,21.9115-27.1394a3.9646,3.9646,0,0,0-1.6438-4.2917,4.0341,4.0341,0,0,0-4.6779-.254,4.3622,4.3622,0,0,0-2.0345,2.763c-.4634,1.6279-.9,3.2714-1.4964,4.8519A27.7131,27.7131,0,0,1,89.0224,68.4845a40.0438,40.0438,0,0,1-9.3375,3.6731,89.65,89.65,0,0,1-18.78,2.47c-4.9372.2351-9.8786.3811-14.8154.6229A53.32,53.32,0,0,0,34.24,77.182,39.6314,39.6314,0,0,0,16.1342,87.648,42.3651,42.3651,0,0,0,6.1857,104.81,69.2,69.2,0,0,0,3.24,125.7807ZM9.7081,90.0316l.2509.09c.2286-.2916.46-.5808.6852-.8751A39.57,39.57,0,0,1,17.9059,81.88a2.8615,2.8615,0,0,0,1.1472-1.86,29.8881,29.8881,0,0,1,7.18-14.7288A34.94,34.94,0,0,1,37.15,57.3445,64.0467,64.0467,0,0,1,48.1945,53.473c6.0005-1.6458,12.0413-3.151,17.9315-5.18a74.0474,74.0474,0,0,0,15.9574-7.404A39.254,39.254,0,0,0,95.246,27.6071a36.3065,36.3065,0,0,0,4.6765-14.5029,46.5791,46.5791,0,0,0,.2671-5.8961,3.8877,3.8877,0,0,0-2.7519-3.6719,4.2812,4.2812,0,0,0-5.7593,3.98c-.0937,1.8966-.1694,3.8039-.4375,5.68a27.18,27.18,0,0,1-5.86,13.5387,35.0228,35.0228,0,0,1-10.1242,8.3083A73.4675,73.4675,0,0,1,59.53,41.4306c-5.1751,1.5157-10.3891,2.8983-15.5833,4.3489A59.8636,59.8636,0,0,0,30.406,51.21,38.6855,38.6855,0,0,0,12.4784,71.8133,46.1775,46.1775,0,0,0,9.7142,86.4238C9.673,87.6251,9.7081,88.8289,9.7081,90.0316Zm10.1547,12.6473c-.1324.0541-.2217.0616-.2493.1068a8.0549,8.0549,0,0,0-.4015.7191,43.4635,43.4635,0,0,0-3.6686,12.9046,2.4866,2.4866,0,0,0,.0409,1.2243c.8854,2.1362,1.7381,4.2943,2.7824,6.3534a4.0671,4.0671,0,0,0,4.4242,1.9839,4.299,4.299,0,0,0,3.0175-6.1142,86.6016,86.6016,0,0,1-5.6963-16.42C20.0494,103.1809,19.9478,102.9344,19.8628,102.6789Z"/>
    <path d="M43.94,158.0569c-1.05-.1568-2.0974-.3379-3.151-.466A7.3132,7.3132,0,1,1,42.5046,143.07a27.3125,27.3125,0,0,0,15.3385-1.81,29.3989,29.3989,0,0,0,10.6205-8.4458,54.83,54.83,0,0,0,7.2209-11.4746c2.5951-5.499,5.0392-11.07,7.4947-16.6337a72.3848,72.3848,0,0,1,7.7453-14.0457c5.4315-7.3443,12.2842-12.7759,21.0383-15.6455A46.6044,46.6044,0,0,1,129.87,72.9445c9.6977.6683,18.755,3.6048,27.4929,7.69A95.0243,95.0243,0,0,1,168.43,86.7469a8.6338,8.6338,0,0,1,2.8349,2.6876,7.3107,7.3107,0,0,1-10.2233,9.9709,85.0449,85.0449,0,0,0-16.4539-8.2808,55.6917,55.6917,0,0,0-15.3929-3.596c-6.2344-.4659-12.2123.4228-17.6815,3.679a31.1511,31.1511,0,0,0-9.7993,9.5523,58.1966,58.1966,0,0,0-4.9219,9.345c-2.2018,4.9972-4.34,10.0245-6.6453,14.9734a80.1188,80.1188,0,0,1-10.354,16.9551A44.8806,44.8806,0,0,1,66.4654,153.411a37.9531,37.9531,0,0,1-14.4782,4.4155,7.6662,7.6662,0,0,0-.9911.23Zm83.253-73.6514a51.3247,51.3247,0,0,1,11.77,1.7546A83.3769,83.3769,0,0,1,162.09,96.4632c.3506.2215.693.4615,1.0621.6472a4.2608,4.2608,0,0,0,4.628-7.0917,9.583,9.583,0,0,0-.93-.66A90.0748,90.0748,0,0,0,142.5014,78.23a55.6817,55.6817,0,0,0-20.925-2.1583,38.2446,38.2446,0,0,0-18.157,6.5243A44.9149,44.9149,0,0,0,89.9587,97.7427a115.2227,115.2227,0,0,0-5.5607,11.8217,168.73,168.73,0,0,1-7.8714,16.6943,51.59,51.59,0,0,1-8.8231,11.8644,28.0234,28.0234,0,0,1-20.2871,8.3035c-1.8958-.0086-3.7888-.2876-5.6861-.3812a4.2633,4.2633,0,0,0-.88,8.4749,42.049,42.049,0,0,0,12.3.123,35.5443,35.5443,0,0,0,19.4212-9.338A53.4443,53.4443,0,0,0,80.73,135.666a106.5238,106.5238,0,0,0,8.8423-16.5387c1.9752-4.4578,3.8771-8.9484,5.8853-13.3911a43.0765,43.0765,0,0,1,6.3715-10.1677,30.22,30.22,0,0,1,14.7-9.8384A34.6261,34.6261,0,0,1,127.193,84.4055Z"/>
    <path d="M365.2,158.0569c-.7437-.124-1.4844-.2715-2.2315-.3686-9.9176-1.288-17.9715-6.0148-24.63-13.3262a73.2692,73.2692,0,0,1-10.488-15.5088c-2.7836-5.3007-5.0874-10.82-7.4562-16.31a82.5241,82.5241,0,0,0-4.6725-9.71A32.7492,32.7492,0,0,0,305.1975,91.571a26.5,26.5,0,0,0-11.4682-3.9317c-6.5568-.7183-12.8812.4242-19.0891,2.4159a82.2885,82.2885,0,0,0-19.5,9.3118,7.2984,7.2984,0,0,1-11.1833-4.3817,7.1064,7.1064,0,0,1,3.0142-7.7069c2.6436-1.6983,5.3455-3.324,8.1193-4.798a87.2723,87.2723,0,0,1,20.6607-7.92,57.9,57.9,0,0,1,16.343-1.71q20.1055.974,32.44,16.9237a64.5027,64.5027,0,0,1,7.8315,13.6344c2.1516,4.9054,4.25,9.8352,6.4807,14.7046a68.5627,68.5627,0,0,0,8.2513,13.9947,30.6568,30.6568,0,0,0,9.8166,8.4791,24.5264,24.5264,0,0,0,12.1906,2.8085,42.0535,42.0535,0,0,0,4.5446-.3439,7.3476,7.3476,0,0,1,8.2229,6.0627,7.2292,7.2292,0,0,1-5.5435,8.2769c-1.009.2193-2.0518.2807-3.0769.429-.4041.0585-.8024.1567-1.2034.2368Zm3.3756-2.9075c2.2695-.2134,4.55-.35,6.8052-.6646a3.9321,3.9321,0,0,0,3.3974-3.0963,4.0671,4.0671,0,0,0-1.3324-4.3184,4.4433,4.4433,0,0,0-3.6848-.9849c-1.3025.1606-2.6134.3-3.924.3418a28.1784,28.1784,0,0,1-20.745-7.6725,44.225,44.225,0,0,1-6.555-7.7424,85.6209,85.6209,0,0,1-7.1395-13.1028c-2.1285-4.73-4.158-9.5043-6.2552-14.2485a56.3679,56.3679,0,0,0-8.0839-13.3619,38.3389,38.3389,0,0,0-21.813-13.49,48.2522,48.2522,0,0,0-19.4749-.01,86.29,86.29,0,0,0-30.6775,12.6835,5.9427,5.9427,0,0,0-.9833.758,4.0436,4.0436,0,0,0-1.1312,4.2765,4.1342,4.1342,0,0,0,3.1851,2.9574,4.518,4.518,0,0,0,3.621-.8371,83.5379,83.5379,0,0,1,20.5906-9.6816,48.7183,48.7183,0,0,1,19.2263-2.3748,29.74,29.74,0,0,1,13.6056,4.6549A35.2508,35.2508,0,0,1,317.66,100.1791a75.8984,75.8984,0,0,1,5.3907,10.86c2.4716,5.7508,4.8868,11.5271,7.8353,17.0582a65.313,65.313,0,0,0,11.5479,16.1355A36.5154,36.5154,0,0,0,368.5752,155.1494Z"/>
    <rect class="a" x="0.125" y="0.125" width="417.8834" height="157.9319"/>
  </g>
</svg>
