<svg xmlns="http://www.w3.org/2000/svg" viewBox="0 0 418.1334 158.1819">
  <defs>
    <style>
      .a {
        fill: #fff;
      }

      .b {
        fill: none;
        stroke: #000;
        stroke-miterlimit: 10;
        stroke-width: 0.25px;
      }
    </style>
  </defs>
  <title>wires mouth color</title>
  <g>
    <path class="a" d="M414.7635,125.7972a96.1189,96.1189,0,0,1-2.0461,18.9482,4.2792,4.2792,0,0,1-8.5019-.3371,6.4672,6.4672,0,0,1,.1585-1.5391,86.1954,86.1954,0,0,0,1.6213-21.4537,55.3563,55.3563,0,0,0-2.6356-14.7591,33.71,33.71,0,0,0-7.1029-12.4221A30.8519,30.8519,0,0,0,382.754,85.843a45.893,45.893,0,0,0-12.1256-2.0909c-5.1452-.23-10.2947-.3728-15.4373-.6478a92.413,92.413,0,0,1-19.8684-2.9016A46.5363,46.5363,0,0,1,322.2553,74.5a36.1448,36.1448,0,0,1-14.9424-20.1591c-.375-1.1853-.702-2.389-.9835-3.6a4.1427,4.1427,0,0,1,1.08-4.0268,4.2617,4.2617,0,0,1,7.0917,1.59c.2785.8161.4439,1.67.6858,2.4994a29.67,29.67,0,0,0,7.096,12.6191,30.0044,30.0044,0,0,0,9.8227,6.629,52.1359,52.1359,0,0,0,13.393,3.5515,172.5365,172.5365,0,0,0,18.8188,1.2894,97.0624,97.0624,0,0,1,14.662,1.1973,43.6709,43.6709,0,0,1,18.0684,7.4377,39.9075,39.9075,0,0,1,13.9473,19.0449,59.28,59.28,0,0,1,3.3843,15.8746C414.5749,120.8922,414.64,123.347,414.7635,125.7972Z"/>
    <path class="a" d="M408.1467,90.2286c-.3921-.454-.6209-.6929-.8205-.954a40.1092,40.1092,0,0,0-7.5006-7.5663,2.19,2.19,0,0,1-.875-1.4448,31.0881,31.0881,0,0,0-4.3192-11.1507A31.4742,31.4742,0,0,0,383.8535,58.97a49.8106,49.8106,0,0,0-11.968-4.8929c-5.4259-1.5216-10.8719-2.9751-16.2761-4.57A82.9717,82.9717,0,0,1,339.29,42.91a48.0014,48.0014,0,0,1-10.339-7.4127,35.2839,35.2839,0,0,1-10.418-19.079,42.9334,42.9334,0,0,1-.8383-8.7611,4.2673,4.2673,0,0,1,8.4948-.689c.119.9927.1041,2.001.1615,3.0015a28.3014,28.3014,0,0,0,8.125,18.91,37.6127,37.6127,0,0,0,8.91,6.554,74.4291,74.4291,0,0,0,14.9018,5.9579c5.4756,1.5982,10.99,3.0611,16.48,4.6129a55.264,55.264,0,0,1,15.0559,6.5866c9.8988,6.3787,15.6881,15.4544,17.7187,27.0022a63.6044,63.6044,0,0,1,.7662,8.8772A15.5049,15.5049,0,0,1,408.1467,90.2286Z"/>
    <path class="a" d="M398.15,102.4652c.28.4934.4635.7729.6054,1.0721a43.9959,43.9959,0,0,1,3.7035,13.32,1.6268,1.6268,0,0,1-.0908.808c-.8758,2.0659-1.6911,4.164-2.6951,6.167a3.904,3.904,0,0,1-4.1322,2.1862,4.0763,4.0763,0,0,1-3.602-2.8656,4.007,4.007,0,0,1,.14-3.13,87.8708,87.8708,0,0,0,5.8008-16.8189C397.918,103.04,397.9944,102.8852,398.15,102.4652Z"/>
    <path class="a" d="M3.24,125.7806A69.2188,69.2188,0,0,1,6.1857,104.81,42.3651,42.3651,0,0,1,16.1342,87.648,39.6314,39.6314,0,0,1,34.24,77.182,53.32,53.32,0,0,1,46.09,75.25c4.9368-.2418,9.8782-.3878,14.8154-.6229a89.65,89.65,0,0,0,18.78-2.47,40.0438,40.0438,0,0,0,9.3375-3.6731,27.7131,27.7131,0,0,0,12.7732-14.8574c.5969-1.5805,1.033-3.224,1.4964-4.8519a4.3622,4.3622,0,0,1,2.0345-2.763,4.0341,4.0341,0,0,1,4.6779.254,3.9646,3.9646,0,0,1,1.6438,4.2917c-2.88,12.61-9.9177,21.8793-21.9115,27.1394a60.7265,60.7265,0,0,1-14.94,4.1823,149.7969,149.7969,0,0,1-18.4885,1.5c-4.5239.1558-9.0583.1857-13.5567.785a39.0436,39.0436,0,0,0-12.8488,3.8612,30.1718,30.1718,0,0,0-14.35,16.0289,49.4149,49.4149,0,0,0-3.3541,14.18A83.5533,83.5533,0,0,0,13.5935,142.89a4.91,4.91,0,0,1-.0473,2.5564,4.37,4.37,0,0,1-4.0769,2.9958,4.27,4.27,0,0,1-4.0763-3.119c-.3588-1.3322-.6074-2.698-.839-4.06A95.6942,95.6942,0,0,1,3.24,125.7806Z"/>
    <path class="a" d="M9.7081,90.0316c0-1.2027-.0351-2.4065.0061-3.6078a46.1775,46.1775,0,0,1,2.7642-14.6105A38.6855,38.6855,0,0,1,30.406,51.21a59.8636,59.8636,0,0,1,13.54-5.4307c5.1942-1.4506,10.4082-2.8332,15.5833-4.3489a73.4675,73.4675,0,0,0,15.7271-6.3872,35.0228,35.0228,0,0,0,10.1242-8.3083,27.18,27.18,0,0,0,5.86-13.5387c.2681-1.8762.3438-3.7835.4375-5.68a4.2812,4.2812,0,0,1,5.7593-3.98A3.8877,3.8877,0,0,1,100.19,7.2081a46.5791,46.5791,0,0,1-.2671,5.8961A36.3065,36.3065,0,0,1,95.246,27.6071,39.254,39.254,0,0,1,82.0834,40.889,74.0474,74.0474,0,0,1,66.126,48.293c-5.89,2.029-11.931,3.5342-17.9315,5.18A64.0467,64.0467,0,0,0,37.15,57.3445a34.94,34.94,0,0,0-10.917,7.9464,29.8881,29.8881,0,0,0-7.18,14.7288,2.8615,2.8615,0,0,1-1.1472,1.86,39.57,39.57,0,0,0-7.2617,7.3666c-.225.2943-.4566.5835-.6852.8751Z"/>
    <path class="a" d="M19.8628,102.6789c.085.2555.1866.502.2493.758a86.6016,86.6016,0,0,0,5.6963,16.42,4.299,4.299,0,0,1-3.0175,6.1142,4.0671,4.0671,0,0,1-4.4242-1.9839c-1.0443-2.0591-1.897-4.2172-2.7824-6.3534a2.4866,2.4866,0,0,1-.0409-1.2243,43.4635,43.4635,0,0,1,3.6686-12.9046,8.0549,8.0549,0,0,1,.4015-.7191C19.6411,102.7405,19.73,102.733,19.8628,102.6789Z"/>
    <path class="a" d="M127.193,84.4055A34.6261,34.6261,0,0,0,116.5291,85.73a30.22,30.22,0,0,0-14.7,9.8384,43.0765,43.0765,0,0,0-6.3715,10.1677c-2.0082,4.4427-3.91,8.9333-5.8853,13.3911A106.5238,106.5238,0,0,1,80.73,135.666a53.4443,53.4443,0,0,1-8.1586,9.6393,35.5443,35.5443,0,0,1-19.4212,9.338,42.049,42.049,0,0,1-12.3-.123,4.2633,4.2633,0,0,1,.88-8.4749c1.8973.0936,3.79.3726,5.6861.3812a28.0234,28.0234,0,0,0,20.2871-8.3035,51.59,51.59,0,0,0,8.8231-11.8644,168.73,168.73,0,0,0,7.8714-16.6943,115.2227,115.2227,0,0,1,5.5607-11.8217,44.9149,44.9149,0,0,1,13.4607-15.1468,38.2446,38.2446,0,0,1,18.157-6.5243,55.6817,55.6817,0,0,1,20.925,2.1583A90.0748,90.0748,0,0,1,166.85,89.3589a9.583,9.583,0,0,1,.93.66,4.2608,4.2608,0,0,1-4.628,7.0917c-.3691-.1857-.7115-.4257-1.0621-.6472A83.3769,83.3769,0,0,0,138.963,86.16,51.3247,51.3247,0,0,0,127.193,84.4055Z"/>
    <path class="a" d="M368.5752,155.1494a36.5154,36.5154,0,0,1-26.1418-10.9161,65.313,65.313,0,0,1-11.5479-16.1355c-2.9485-5.5311-5.3637-11.3074-7.8353-17.0582a75.8984,75.8984,0,0,0-5.3907-10.86,35.2508,35.2508,0,0,0-10.4528-10.9429,29.74,29.74,0,0,0-13.6056-4.6549,48.7183,48.7183,0,0,0-19.2263,2.3748,83.5379,83.5379,0,0,0-20.5906,9.6816,4.518,4.518,0,0,1-3.621.8371,4.1342,4.1342,0,0,1-3.1851-2.9574,4.0436,4.0436,0,0,1,1.1312-4.2765,5.9427,5.9427,0,0,1,.9833-.758A86.29,86.29,0,0,1,279.77,76.7994a48.2522,48.2522,0,0,1,19.4749.01,38.3389,38.3389,0,0,1,21.813,13.49,56.3679,56.3679,0,0,1,8.0839,13.3619c2.0972,4.7442,4.1267,9.5186,6.2552,14.2485a85.6209,85.6209,0,0,0,7.1395,13.1028,44.225,44.225,0,0,0,6.555,7.7424,28.1784,28.1784,0,0,0,20.745,7.6725c1.3106-.0418,2.6215-.1812,3.924-.3418a4.4433,4.4433,0,0,1,3.6848.9849,4.0671,4.0671,0,0,1,1.3324,4.3184,3.9321,3.9321,0,0,1-3.3974,3.0963C373.125,154.8,370.8447,154.936,368.5752,155.1494Z"/>
    <rect class="b" x="0.125" y="0.125" width="417.8834" height="157.9319"/>
  </g>
</svg>
